<svg width="219" height="219" viewBox="0 0 219 219" fill="none" xmlns="http://www.w3.org/2000/svg">
<circle cx="109.5" cy="109.5" r="109.5" fill="#1964FE"/>
<path d="M81.8522 172.798H47.0859L47.0859 96.9694C51.1922 52.6219 92.2547 45.7782 107.858 46.5994C123.462 47.4207 168.631 49.0632 171.642 104.908C174.051 149.584 138.883 168.783 120.998 172.798H97.7297L97.7297 137.211C121.82 137.649 131.857 135.568 133.865 134.473V104.908C133.773 97.8819 128.444 83.7199 107.858 83.2819C87.2724 82.8439 81.9434 97.5169 81.8522 104.908L81.8522 172.798Z" fill="white"/>
<path d="M151.111 79.0265C143.884 57.1265 118.17 48.0888 106.763 46.5376C154.122 46.5375 167.536 74.7339 170.273 93.3488C163.484 118.315 142.898 131.674 133.865 134.411V119.629C142.533 115.249 158.338 100.927 151.111 79.0265Z" fill="url(#paint0_linear_4165_1000)"/>
<defs>
<linearGradient id="paint0_linear_4165_1000" x1="138.792" y1="46.5374" x2="138.792" y2="133.503" gradientUnits="userSpaceOnUse">
<stop stop-color="#7293FA"/>
<stop offset="0.1593" stop-color="#81ABFF"/>
<stop offset="0.500398" stop-color="#ABC6FB"/>
<stop offset="1" stop-color="#BCD3FC"/>
</linearGradient>
</defs>
</svg>
