<svg width="155" height="141" viewBox="0 0 155 141" fill="none" xmlns="http://www.w3.org/2000/svg">
<g filter="url(#filter0_d_2125_9869)">
<path d="M81.239 98.9546C81.5652 98.9546 81.8296 99.2191 81.8296 99.5453C81.8296 99.8715 81.5652 100.136 81.239 100.136H72.6749C72.3488 100.136 72.0843 99.8715 72.0843 99.5453C72.0843 99.2191 72.3488 98.9546 72.6749 98.9546H81.239ZM43.7344 98.6593V85.6656C43.7344 84.0346 45.0565 82.7125 46.6875 82.7125H66.4734C66.7996 82.7125 67.064 82.9769 67.064 83.3031C67.064 83.6293 66.7996 83.8937 66.4734 83.8937H46.6875C45.7089 83.8937 44.9156 84.687 44.9156 85.6656V98.6593C44.9156 98.9855 44.6512 99.2499 44.325 99.2499C43.9988 99.2499 43.7344 98.9855 43.7344 98.6593ZM69.4265 95.7062V86.2562C69.4265 85.93 69.6909 85.6656 70.0171 85.6656C70.3433 85.6656 70.6078 85.93 70.6078 86.2562V95.7062C70.6078 96.0324 70.3433 96.2968 70.0171 96.2968C69.6909 96.2968 69.4265 96.0324 69.4265 95.7062ZM108.998 93.639V86.8468C108.998 85.8683 108.205 85.075 107.226 85.075H85.0781C84.7519 85.075 84.4874 84.8105 84.4874 84.4843C84.4874 84.1582 84.7519 83.8937 85.0781 83.8937H107.226C108.857 83.8937 110.18 85.2159 110.18 86.8468V93.639C110.18 93.9652 109.915 94.2296 109.589 94.2296C109.263 94.2296 108.998 93.9652 108.998 93.639ZM66.4734 71.4906C66.7996 71.4906 67.064 71.7551 67.064 72.0812C67.064 72.4074 66.7996 72.6719 66.4734 72.6719H50.8219C50.4957 72.6719 50.2312 72.4074 50.2312 72.0812C50.2312 71.7551 50.4957 71.4906 50.8219 71.4906H66.4734ZM67.95 67.9469V56.4297C67.95 55.4511 67.1567 54.6578 66.1781 54.6578H60.2718C59.9457 54.6578 59.6812 54.3934 59.6812 54.0672C59.6812 53.741 59.9457 53.4766 60.2718 53.4766H66.1781C67.809 53.4766 69.1312 54.7987 69.1312 56.4297V67.9469C69.1312 68.2731 68.8668 68.5375 68.5406 68.5375C68.2144 68.5375 67.95 68.2731 67.95 67.9469ZM74.1515 67.9469V47.275C74.1515 46.9488 74.4159 46.6844 74.7421 46.6844C75.0683 46.6844 75.3328 46.9488 75.3328 47.275V67.9469C75.3328 68.2731 75.0683 68.5375 74.7421 68.5375C74.4159 68.5375 74.1515 68.2731 74.1515 67.9469ZM102.206 67.3563C102.532 67.3563 102.797 67.6207 102.797 67.9469C102.797 68.2731 102.532 68.5375 102.206 68.5375H86.2593C85.9331 68.5375 85.6687 68.2731 85.6687 67.9469C85.6687 67.6207 85.9331 67.3563 86.2593 67.3563H102.206ZM114.609 67.3563C114.935 67.3563 115.2 67.6207 115.2 67.9469C115.2 68.2731 114.935 68.5375 114.609 68.5375H107.522C107.196 68.5375 106.931 68.2731 106.931 67.9469C106.931 67.6207 107.196 67.3563 107.522 67.3563H114.609ZM103.387 64.6984V44.6172C103.387 43.6387 102.594 42.8454 101.616 42.8454H82.4202C82.0941 42.8454 81.8296 42.5809 81.8296 42.2547C81.8296 41.9285 82.0941 41.6641 82.4202 41.6641H101.616C103.246 41.6641 104.569 42.9863 104.569 44.6172V64.6984C104.569 65.0246 104.304 65.2891 103.978 65.2891C103.652 65.2891 103.387 65.0246 103.387 64.6984ZM58.2047 51.1141V41.6641C58.2047 41.3379 58.4691 41.0735 58.7953 41.0735C59.1215 41.0735 59.3859 41.3379 59.3859 41.6641V51.1141C59.3859 51.4403 59.1215 51.7047 58.7953 51.7047C58.4691 51.7047 58.2047 51.4403 58.2047 51.1141Z" fill="white"/>
<path d="M83.8937 41.3688C83.8937 45.9355 80.0595 49.6376 75.3297 49.6376C70.5999 49.6376 66.7656 45.9355 66.7656 41.3688C66.7656 36.8021 70.5999 33.1001 75.3297 33.1001C80.0595 33.1001 83.8937 36.8021 83.8937 41.3688Z" fill="#00D4FF"/>
<path d="M82.7125 41.3688C82.7125 37.4933 79.4465 34.2813 75.3297 34.2813C71.2129 34.2813 67.9469 37.4933 67.9469 41.3688C67.9469 45.2444 71.2129 48.4563 75.3297 48.4563V49.6376C70.5999 49.6376 66.7656 45.9355 66.7656 41.3688C66.7656 36.8021 70.5999 33.1001 75.3297 33.1001C80.0595 33.1001 83.8937 36.8021 83.8937 41.3688C83.8937 45.9355 80.0595 49.6376 75.3297 49.6376V48.4563C79.4465 48.4563 82.7125 45.2444 82.7125 41.3688Z" fill="white"/>
<path d="M109.881 67.6517C109.881 70.4243 107.501 72.672 104.566 72.672C101.63 72.672 99.25 70.4243 99.25 67.6517C99.25 64.879 101.63 62.6313 104.566 62.6313C107.501 62.6313 109.881 64.879 109.881 67.6517Z" fill="#00D4FF"/>
<path d="M108.7 67.6517C108.7 65.5941 106.913 63.8126 104.566 63.8126C102.218 63.8126 100.431 65.5941 100.431 67.6517C100.431 69.7092 102.218 71.4907 104.566 71.4907V72.672C101.63 72.672 99.25 70.4243 99.25 67.6517C99.25 64.879 101.63 62.6313 104.566 62.6313C107.501 62.6313 109.881 64.879 109.881 67.6517C109.881 70.4243 107.501 72.672 104.566 72.672V71.4907C106.913 71.4907 108.7 69.7092 108.7 67.6517Z" fill="white"/>
<path d="M62.6344 53.4765C62.6344 55.2705 61.0478 56.7249 59.0906 56.7249C57.1335 56.7249 55.5469 55.2705 55.5469 53.4765C55.5469 51.6824 57.1335 50.228 59.0906 50.228C61.0478 50.228 62.6344 51.6824 62.6344 53.4765Z" fill="#00D4FF"/>
<path d="M61.4531 53.4765C61.4531 52.4294 60.4942 51.4093 59.0906 51.4093C57.687 51.4093 56.7281 52.4294 56.7281 53.4765C56.7281 54.5235 57.687 55.5436 59.0906 55.5436V56.7249C57.1335 56.7249 55.5469 55.2705 55.5469 53.4765C55.5469 51.6824 57.1335 50.228 59.0906 50.228C61.0478 50.228 62.6344 51.6824 62.6344 53.4765C62.6344 55.2705 61.0478 56.7249 59.0906 56.7249V55.5436C60.4942 55.5436 61.4531 54.5235 61.4531 53.4765Z" fill="white"/>
<path d="M86.8437 99.5453C86.8437 98.4983 85.8849 97.4781 84.4812 97.4781C83.0776 97.4781 82.1187 98.4983 82.1187 99.5453C82.1187 100.592 83.0776 101.612 84.4812 101.612V102.794C82.5241 102.794 80.9375 101.339 80.9375 99.5453C80.9375 97.7512 82.5241 96.2969 84.4812 96.2969C86.4384 96.2969 88.025 97.7512 88.025 99.5453C88.025 101.339 86.4384 102.794 84.4812 102.794V101.612C85.8849 101.612 86.8437 100.592 86.8437 99.5453Z" fill="#00D4FF"/>
<path d="M119.922 68.2421C119.922 67.1951 118.963 66.1749 117.559 66.1749C116.156 66.1749 115.197 67.1951 115.197 68.2421C115.197 69.2891 116.156 70.3093 117.559 70.3093V71.4905C115.602 71.4905 114.016 70.0361 114.016 68.2421C114.016 66.448 115.602 64.9937 117.559 64.9937C119.517 64.9937 121.103 66.448 121.103 68.2421C121.103 70.0361 119.517 71.4905 117.559 71.4905V70.3093C118.963 70.3093 119.922 69.2891 119.922 68.2421Z" fill="#00D4FF"/>
<path d="M61.4531 38.7111C61.4531 37.6641 60.4942 36.6439 59.0906 36.6439C57.687 36.6439 56.7281 37.6641 56.7281 38.7111C56.7281 39.7581 57.687 40.7783 59.0906 40.7783V41.9595C57.1335 41.9595 55.5469 40.5051 55.5469 38.7111C55.5469 36.917 57.1335 35.4626 59.0906 35.4626C61.0478 35.4626 62.6344 36.917 62.6344 38.7111C62.6344 40.5051 61.0478 41.9595 59.0906 41.9595V40.7783C60.4942 40.7783 61.4531 39.7581 61.4531 38.7111Z" fill="#00D4FF"/>
<path d="M119.927 98.9547C119.927 103.684 115.828 107.519 110.772 107.519C105.716 107.519 101.617 103.684 101.617 98.9547C101.617 94.2249 105.716 90.3906 110.772 90.3906C115.828 90.3906 119.927 94.2249 119.927 98.9547Z" fill="#00D4FF"/>
<path d="M118.745 98.9547C118.745 94.9502 115.251 91.5719 110.772 91.5719C106.293 91.5719 102.798 94.9502 102.798 98.9547C102.798 102.959 106.293 106.337 110.772 106.337V107.519C105.716 107.519 101.617 103.684 101.617 98.9547C101.617 94.2249 105.716 90.3906 110.772 90.3906C115.828 90.3906 119.927 94.2249 119.927 98.9547C119.927 103.684 115.828 107.519 110.772 107.519V106.337C115.251 106.337 118.745 102.959 118.745 98.9547Z" fill="white"/>
<path d="M76.8062 98.955C76.8062 102.38 73.8975 105.157 70.3094 105.157C66.7212 105.157 63.8125 102.38 63.8125 98.955C63.8125 95.5299 66.7212 92.7534 70.3094 92.7534C73.8975 92.7534 76.8062 95.5299 76.8062 98.955Z" fill="#00D4FF"/>
<path d="M58.5 64.4032C58.5 63.4246 59.2933 62.6313 60.2719 62.6313H85.0781C86.0567 62.6313 86.8499 63.4246 86.8499 64.4032V87.4376C86.8499 88.4161 86.0567 89.2094 85.0781 89.2094H60.2719C59.2933 89.2094 58.5 88.4161 58.5 87.4376V64.4032Z" fill="#00D4FF"/>
<path d="M38.4141 96.8873C38.4141 96.2349 38.9429 95.7061 39.5953 95.7061H50.2265C50.8789 95.7061 51.4078 96.2349 51.4078 96.8873V106.337C51.4078 106.99 50.8789 107.519 50.2265 107.519H39.5953C38.9429 107.519 38.4141 106.99 38.4141 106.337V96.8873Z" fill="#00D4FF"/>
<path d="M50.2265 106.337V107.519H39.5953V106.337H50.2265ZM50.2265 96.8873H39.5953V107.519L39.4748 107.512C38.9187 107.456 38.4768 107.014 38.4204 106.458L38.4141 106.337V96.8873C38.4141 96.2349 38.9429 95.7061 39.5953 95.7061H50.2265C50.8789 95.7061 51.4078 96.2349 51.4078 96.8873V106.337L51.4014 106.458C51.3451 107.014 50.9032 107.456 50.3471 107.512L50.2265 107.519V96.8873Z" fill="white"/>
<path d="M50.2297 77.9876V79.1688H34.2828V77.9876H50.2297ZM50.2297 63.8126H34.2828V79.1688L34.1623 79.1625C33.6062 79.1061 33.1643 78.6642 33.1079 78.1081L33.1016 77.9876V63.8126C33.1016 63.2009 33.5665 62.6981 34.1623 62.6377L34.2828 62.6313H50.2297C50.882 62.6313 51.4109 63.1602 51.4109 63.8126V77.9876L51.4046 78.1081C51.3442 78.7039 50.8413 79.1688 50.2297 79.1688V63.8126Z" fill="#00D4FF"/>
<path d="M69.7953 82.7125H66.1719V74.9088C66.5998 70.3449 70.8794 69.6406 72.5057 69.7251C74.1319 69.8096 78.8395 69.9787 79.1533 75.7258C79.4044 80.3235 75.7392 82.2993 73.8752 82.7125H71.4501V79.0501C73.9608 79.0952 75.0069 78.8811 75.2161 78.7684V75.7258C75.2066 75.0027 74.6512 73.5453 72.5057 73.5002C70.3602 73.4551 69.8048 74.9651 69.7953 75.7258V82.7125Z" fill="white"/>
<path d="M77.0135 73.0623C76.2603 70.8085 73.5803 69.8784 72.3916 69.7188C77.3274 69.7188 78.7254 72.6205 79.0107 74.5362C78.3031 77.1055 76.1576 78.4803 75.2161 78.762V77.2407C76.1196 76.79 77.7667 75.316 77.0135 73.0623Z" fill="url(#paint0_linear_2125_9869)"/>
<path d="M46.5783 75.0057H46.2495C45.9534 75.0057 45.7093 74.9576 45.517 74.8615C45.3286 74.7654 45.2344 74.6596 45.2344 74.5443C45.2344 74.4251 45.2997 74.2405 45.4305 73.9906C45.5612 73.7406 45.6477 73.458 45.69 73.1427C45.7362 72.8274 45.7592 72.0699 45.7592 70.8702C45.7592 69.6666 45.7381 68.9303 45.6958 68.6611C45.6573 68.3881 45.5708 68.1516 45.4362 67.9517C45.3055 67.7479 45.2401 67.5768 45.2401 67.4383C45.2401 67.2961 45.342 67.1768 45.5458 67.0807C45.7535 66.9846 46.0361 66.9365 46.3937 66.9365H46.6129C46.9051 66.9365 47.1204 66.9884 47.2589 67.0923C47.3973 67.1922 47.4665 67.2961 47.4665 67.4037V67.4845C47.4665 67.5537 47.4146 67.6863 47.3108 67.8824C47.2108 68.0786 47.1416 68.3381 47.1031 68.6611C47.0685 68.9841 47.0512 69.8397 47.0512 71.2278C47.0512 72.6121 47.0608 73.383 47.0801 73.5407C47.0993 73.6983 47.1647 73.8771 47.2762 74.0771C47.3877 74.277 47.4434 74.4404 47.4434 74.5673C47.4434 74.6904 47.3569 74.7942 47.1839 74.8788C47.0147 74.9634 46.8128 75.0057 46.5783 75.0057Z" fill="white"/>
<path d="M40.6106 71.741C41.1951 71.741 41.4873 71.6852 41.4873 71.5737V71.5391C41.4873 71.5006 41.4623 71.3891 41.4123 71.2046C41.3662 71.0161 41.3393 70.9065 41.3316 70.8758C41.3239 70.8412 41.3143 70.8085 41.3027 70.7777C41.2912 70.7431 41.2335 70.5086 41.1297 70.0741C41.0297 69.6357 40.899 69.2281 40.7375 68.8513C40.576 68.4745 40.4837 68.286 40.4606 68.286C40.4376 68.286 40.3703 68.4245 40.2588 68.7013C39.6128 70.3163 39.2898 71.2718 39.2898 71.5679V71.6025C39.2898 71.6948 39.4878 71.741 39.8838 71.741H40.2703L40.3222 71.7352L40.5125 71.741H40.6106ZM43.806 74.0423V74.1577C43.806 74.3768 43.7137 74.5749 43.5291 74.7518C43.4291 74.8479 43.2446 74.896 42.9754 74.896C42.7101 74.896 42.5217 74.8248 42.4101 74.6825C42.3986 74.6672 42.3236 74.4057 42.1852 73.8981C42.0506 73.3906 41.8968 73.0406 41.7238 72.8484C41.5546 72.6523 41.222 72.5542 40.7259 72.5542C39.78 72.5542 39.2167 72.6369 39.036 72.8022C38.8591 72.9637 38.688 73.3079 38.5226 73.8347C38.4611 74.0269 38.4188 74.2115 38.3957 74.3884C38.3727 74.5653 38.3438 74.6787 38.3092 74.7287C38.24 74.8325 38.1035 74.8844 37.8997 74.8844C37.6998 74.8844 37.5402 74.8017 37.421 74.6364C37.3018 74.4672 37.2422 74.2807 37.2422 74.0769C37.2422 73.8693 37.3114 73.6636 37.4498 73.4598C37.5921 73.2521 37.694 73.0676 37.7555 72.9061C37.8209 72.7407 38.1016 71.9275 38.5976 70.4663C39.0975 69.0051 39.432 68.0938 39.6012 67.7323C39.7743 67.3709 39.9242 67.1421 40.0511 67.046C40.1818 66.946 40.3414 66.896 40.5298 66.896C40.7183 66.896 40.8894 66.9633 41.0432 67.0979C41.197 67.2325 41.3623 67.4901 41.5392 67.8708C41.5431 67.8823 42.1429 69.5742 43.3388 72.9464C43.4041 73.131 43.4983 73.3233 43.6214 73.5232C43.7444 73.7232 43.806 73.8962 43.806 74.0423Z" fill="white"/>
</g>
<defs>
<filter id="filter0_d_2125_9869" x="0.00156403" y="9.91821e-05" width="154.2" height="140.618" filterUnits="userSpaceOnUse" color-interpolation-filters="sRGB">
<feFlood flood-opacity="0" result="BackgroundImageFix"/>
<feColorMatrix in="SourceAlpha" type="matrix" values="0 0 0 0 0 0 0 0 0 0 0 0 0 0 0 0 0 0 127 0" result="hardAlpha"/>
<feOffset/>
<feGaussianBlur stdDeviation="16.55"/>
<feComposite in2="hardAlpha" operator="out"/>
<feColorMatrix type="matrix" values="0 0 0 0 0 0 0 0 0 0.94902 0 0 0 0 0.996078 0 0 0 1 0"/>
<feBlend mode="normal" in2="BackgroundImageFix" result="effect1_dropShadow_2125_9869"/>
<feBlend mode="normal" in="SourceGraphic" in2="effect1_dropShadow_2125_9869" result="shape"/>
</filter>
<linearGradient id="paint0_linear_2125_9869" x1="75.7297" y1="69.7188" x2="75.7297" y2="78.6685" gradientUnits="userSpaceOnUse">
<stop stop-color="#7293FA"/>
<stop offset="0.1593" stop-color="#81ABFF"/>
<stop offset="0.500398" stop-color="#ABC6FB"/>
<stop offset="1" stop-color="#BCD3FC"/>
</linearGradient>
</defs>
</svg>
