<svg width="88" height="75" viewBox="0 0 88 75" fill="none" xmlns="http://www.w3.org/2000/svg">
<path d="M48.1374 65.8548C48.4636 65.8548 48.7281 66.1192 48.7281 66.4454C48.7281 66.7716 48.4636 67.036 48.1374 67.036H39.5734C39.2472 67.036 38.9828 66.7716 38.9828 66.4454C38.9828 66.1192 39.2472 65.8548 39.5734 65.8548H48.1374ZM10.6328 65.5595V52.5657C10.6328 50.9348 11.955 49.6126 13.5859 49.6126H33.3718C33.698 49.6126 33.9625 49.8771 33.9625 50.2032C33.9625 50.5294 33.698 50.7939 33.3718 50.7939H13.5859C12.6074 50.7939 11.8141 51.5872 11.8141 52.5657V65.5595C11.8141 65.8857 11.5496 66.1501 11.2234 66.1501C10.8972 66.1501 10.6328 65.8857 10.6328 65.5595ZM36.325 62.6064V53.1564C36.325 52.8302 36.5894 52.5657 36.9156 52.5657C37.2418 52.5657 37.5062 52.8302 37.5062 53.1564V62.6064C37.5062 62.9325 37.2418 63.197 36.9156 63.197C36.5894 63.197 36.325 62.9325 36.325 62.6064ZM75.8968 60.5392V53.747C75.8968 52.7684 75.1035 51.9751 74.1249 51.9751H51.9765C51.6503 51.9751 51.3859 51.7107 51.3859 51.3845C51.3859 51.0583 51.6503 50.7939 51.9765 50.7939H74.1249C75.7559 50.7939 77.078 52.116 77.078 53.747V60.5392C77.078 60.8654 76.8136 61.1298 76.4874 61.1298C76.1612 61.1298 75.8968 60.8654 75.8968 60.5392ZM33.3718 38.3908C33.698 38.3908 33.9625 38.6552 33.9625 38.9814C33.9625 39.3076 33.698 39.572 33.3718 39.572H17.7203C17.3941 39.572 17.1297 39.3076 17.1297 38.9814C17.1297 38.6552 17.3941 38.3908 17.7203 38.3908H33.3718ZM34.8484 34.847V23.3299C34.8484 22.3513 34.0551 21.558 33.0765 21.558H27.1703C26.8441 21.558 26.5797 21.2936 26.5797 20.9674C26.5797 20.6412 26.8441 20.3767 27.1703 20.3767H33.0765C34.7075 20.3767 36.0296 21.6989 36.0296 23.3299V34.847C36.0296 35.1732 35.7652 35.4376 35.439 35.4376C35.1128 35.4376 34.8484 35.1732 34.8484 34.847ZM41.0499 34.847V14.1752C41.0499 13.849 41.3144 13.5846 41.6406 13.5846C41.9668 13.5846 42.2312 13.849 42.2312 14.1752V34.847C42.2312 35.1732 41.9668 35.4376 41.6406 35.4376C41.3144 35.4376 41.0499 35.1732 41.0499 34.847ZM69.1046 34.2564C69.4308 34.2564 69.6952 34.5208 69.6952 34.847C69.6952 35.1732 69.4308 35.4376 69.1046 35.4376H53.1577C52.8315 35.4376 52.5671 35.1732 52.5671 34.847C52.5671 34.5208 52.8315 34.2564 53.1577 34.2564H69.1046ZM81.5077 34.2564C81.8339 34.2564 82.0983 34.5208 82.0983 34.847C82.0983 35.1732 81.8339 35.4376 81.5077 35.4376H74.4202C74.094 35.4376 73.8296 35.1732 73.8296 34.847C73.8296 34.5208 74.094 34.2564 74.4202 34.2564H81.5077ZM70.2858 31.5986V11.5174C70.2858 10.5388 69.4925 9.7455 68.514 9.7455H49.3187C48.9925 9.7455 48.7281 9.48107 48.7281 9.15488C48.7281 8.82869 48.9925 8.56426 49.3187 8.56426H68.514C70.1449 8.56426 71.4671 9.88641 71.4671 11.5174V31.5986C71.4671 31.9248 71.2027 32.1892 70.8765 32.1892C70.5503 32.1892 70.2858 31.9248 70.2858 31.5986ZM25.1031 18.0142V8.56426C25.1031 8.23806 25.3675 7.97363 25.6937 7.97363C26.0199 7.97363 26.2843 8.23806 26.2843 8.56426V18.0142C26.2843 18.3404 26.0199 18.6049 25.6937 18.6049C25.3675 18.6049 25.1031 18.3404 25.1031 18.0142Z" fill="white"/>
<path d="M50.7922 8.26874C50.7922 12.8354 46.9579 16.5375 42.2281 16.5375C37.4983 16.5375 33.6641 12.8354 33.6641 8.26874C33.6641 3.70204 37.4983 0 42.2281 0C46.9579 0 50.7922 3.70204 50.7922 8.26874Z" fill="#00D4FF"/>
<path d="M49.6109 8.26874C49.6109 4.39315 46.3449 1.18125 42.2281 1.18125C38.1113 1.18125 34.8453 4.39315 34.8453 8.26874C34.8453 12.1443 38.1113 15.3562 42.2281 15.3562V16.5375C37.4983 16.5375 33.6641 12.8354 33.6641 8.26874C33.6641 3.70204 37.4983 0 42.2281 0C46.9579 0 50.7922 3.70204 50.7922 8.26874C50.7922 12.8354 46.9579 16.5375 42.2281 16.5375V15.3562C46.3449 15.3562 49.6109 12.1443 49.6109 8.26874Z" fill="white"/>
<path d="M76.7797 34.5516C76.7797 37.3242 74.3998 39.5719 71.4641 39.5719C68.5283 39.5719 66.1484 37.3242 66.1484 34.5516C66.1484 31.7789 68.5283 29.5312 71.4641 29.5312C74.3998 29.5312 76.7797 31.7789 76.7797 34.5516Z" fill="#00D4FF"/>
<path d="M75.5984 34.5516C75.5984 32.494 73.8119 30.7125 71.4641 30.7125C69.1162 30.7125 67.3297 32.494 67.3297 34.5516C67.3297 36.6091 69.1162 38.3906 71.4641 38.3906V39.5719C68.5283 39.5719 66.1484 37.3242 66.1484 34.5516C66.1484 31.7789 68.5283 29.5312 71.4641 29.5312C74.3998 29.5312 76.7797 31.7789 76.7797 34.5516C76.7797 37.3242 74.3998 39.5719 71.4641 39.5719V38.3906C73.8119 38.3906 75.5984 36.6091 75.5984 34.5516Z" fill="white"/>
<path d="M29.5328 20.3764C29.5328 22.1704 27.9462 23.6248 25.9891 23.6248C24.0319 23.6248 22.4453 22.1704 22.4453 20.3764C22.4453 18.5823 24.0319 17.1279 25.9891 17.1279C27.9462 17.1279 29.5328 18.5823 29.5328 20.3764Z" fill="#00D4FF"/>
<path d="M28.3516 20.3764C28.3516 19.3293 27.3927 18.3092 25.9891 18.3092C24.5854 18.3092 23.6266 19.3293 23.6266 20.3764C23.6266 21.4234 24.5854 22.4435 25.9891 22.4435V23.6248C24.0319 23.6248 22.4453 22.1704 22.4453 20.3764C22.4453 18.5823 24.0319 17.1279 25.9891 17.1279C27.9462 17.1279 29.5328 18.5823 29.5328 20.3764C29.5328 22.1704 27.9462 23.6248 25.9891 23.6248V22.4435C27.3927 22.4435 28.3516 21.4234 28.3516 20.3764Z" fill="white"/>
<path d="M53.7422 66.4452C53.7422 65.3982 52.7833 64.378 51.3797 64.378C49.9761 64.378 49.0172 65.3982 49.0172 66.4452C49.0172 67.4922 49.9761 68.5124 51.3797 68.5124V69.6936C49.4225 69.6936 47.8359 68.2393 47.8359 66.4452C47.8359 64.6511 49.4225 63.1968 51.3797 63.1968C53.3368 63.1968 54.9234 64.6511 54.9234 66.4452C54.9234 68.2393 53.3368 69.6936 51.3797 69.6936V68.5124C52.7833 68.5124 53.7422 67.4922 53.7422 66.4452Z" fill="#00D4FF"/>
<path d="M86.8203 35.142C86.8203 34.095 85.8614 33.0748 84.4578 33.0748C83.0542 33.0748 82.0953 34.095 82.0953 35.142C82.0953 36.189 83.0542 37.2092 84.4578 37.2092V38.3904C82.5007 38.3904 80.9141 36.936 80.9141 35.142C80.9141 33.3479 82.5007 31.8936 84.4578 31.8936C86.415 31.8936 88.0015 33.3479 88.0015 35.142C88.0015 36.936 86.415 38.3904 84.4578 38.3904V37.2092C85.8614 37.2092 86.8203 36.189 86.8203 35.142Z" fill="#00D4FF"/>
<path d="M28.3516 5.61074C28.3516 4.56371 27.3927 3.54355 25.9891 3.54355C24.5854 3.54355 23.6266 4.56371 23.6266 5.61074C23.6266 6.65776 24.5854 7.67792 25.9891 7.67792V8.85917C24.0319 8.85917 22.4453 7.4048 22.4453 5.61074C22.4453 3.81668 24.0319 2.3623 25.9891 2.3623C27.9462 2.3623 29.5328 3.81668 29.5328 5.61074C29.5328 7.4048 27.9462 8.85917 25.9891 8.85917V7.67792C27.3927 7.67792 28.3516 6.65776 28.3516 5.61074Z" fill="#00D4FF"/>
<path d="M86.825 65.8546C86.825 70.5844 82.7263 74.4186 77.6703 74.4186C72.6143 74.4186 68.5156 70.5844 68.5156 65.8546C68.5156 61.1248 72.6143 57.2905 77.6703 57.2905C82.7263 57.2905 86.825 61.1248 86.825 65.8546Z" fill="#00D4FF"/>
<path d="M85.6437 65.8546C85.6437 61.8501 82.1493 58.4718 77.6703 58.4718C73.1913 58.4718 69.6969 61.8501 69.6969 65.8546C69.6969 69.859 73.1913 73.2374 77.6703 73.2374V74.4186C72.6143 74.4186 68.5156 70.5844 68.5156 65.8546C68.5156 61.1248 72.6143 57.2905 77.6703 57.2905C82.7263 57.2905 86.825 61.1248 86.825 65.8546C86.825 70.5844 82.7263 74.4186 77.6703 74.4186V73.2374C82.1493 73.2374 85.6437 69.859 85.6437 65.8546Z" fill="white"/>
<path d="M43.7047 65.8549C43.7047 69.2799 40.7959 72.0564 37.2078 72.0564C33.6197 72.0564 30.7109 69.2799 30.7109 65.8549C30.7109 62.4298 33.6197 59.6533 37.2078 59.6533C40.7959 59.6533 43.7047 62.4298 43.7047 65.8549Z" fill="#00D4FF"/>
<path d="M25.3984 31.3031C25.3984 30.3245 26.1917 29.5312 27.1703 29.5312H51.9765C52.9551 29.5312 53.7484 30.3245 53.7484 31.3031V54.3375C53.7484 55.316 52.9551 56.1093 51.9765 56.1093H27.1703C26.1917 56.1093 25.3984 55.316 25.3984 54.3375V31.3031Z" fill="#00D4FF"/>
<path d="M5.3125 63.7872C5.3125 63.1348 5.84136 62.606 6.49375 62.606H17.125C17.7774 62.606 18.3062 63.1348 18.3062 63.7872V73.2372C18.3062 73.8896 17.7774 74.4184 17.125 74.4184H6.49375C5.84136 74.4184 5.3125 73.8896 5.3125 73.2372V63.7872Z" fill="#00D4FF"/>
<path d="M17.125 73.2372V74.4184H6.49375V73.2372H17.125ZM17.125 63.7872H6.49375V74.4184L6.3732 74.4121C5.8171 74.3557 5.37522 73.9138 5.31884 73.3577L5.3125 73.2372V63.7872C5.3125 63.1348 5.84136 62.606 6.49375 62.606H17.125C17.7774 62.606 18.3062 63.1348 18.3062 63.7872V73.2372L18.2999 73.3577C18.2435 73.9138 17.8016 74.3557 17.2455 74.4121L17.125 74.4184V63.7872Z" fill="white"/>
<path d="M17.1281 44.8875V46.0687H1.18125V44.8875H17.1281ZM17.1281 30.7125H1.18125V46.0687L1.0607 46.0624C0.504597 46.006 0.062724 45.5641 0.00634459 45.008L0 44.8875V30.7125C2.14066e-07 30.1008 0.464953 29.598 1.0607 29.5376L1.18125 29.5312H17.1281C17.7805 29.5312 18.3093 30.0601 18.3093 30.7125V44.8875L18.303 45.008C18.2426 45.6038 17.7398 46.0687 17.1281 46.0687V30.7125Z" fill="#00D4FF"/>
<path d="M36.6937 49.6124H33.0703V41.8087C33.4983 37.2448 37.7779 36.5405 39.4041 36.625C41.0304 36.7095 45.7379 36.8786 46.0518 42.6257C46.3028 47.2234 42.6376 49.1992 40.7736 49.6124H38.3485V45.95C40.8592 45.9951 41.9053 45.781 42.1145 45.6683V42.6257C42.105 41.9026 41.5496 40.4452 39.4041 40.4001C37.2586 40.355 36.7032 41.865 36.6937 42.6257V49.6124Z" fill="white"/>
<path d="M43.912 39.9622C43.1588 37.7084 40.4788 36.7783 39.29 36.6187C44.2258 36.6187 45.6238 39.5204 45.9091 41.4361C45.2016 44.0054 43.0561 45.3802 42.1145 45.6619V44.1406C43.018 43.6899 44.6652 42.2159 43.912 39.9622Z" fill="url(#paint0_linear_2125_9892)"/>
<path d="M13.4767 41.9056H13.1479C12.8519 41.9056 12.6077 41.8575 12.4154 41.7614C12.227 41.6653 12.1328 41.5595 12.1328 41.4442C12.1328 41.325 12.1982 41.1404 12.3289 40.8905C12.4597 40.6405 12.5462 40.3579 12.5885 40.0426C12.6346 39.7273 12.6577 38.9698 12.6577 37.7701C12.6577 36.5665 12.6365 35.8302 12.5942 35.561C12.5558 35.288 12.4693 35.0515 12.3347 34.8516C12.2039 34.6478 12.1386 34.4767 12.1386 34.3382C12.1386 34.196 12.2405 34.0768 12.4443 33.9806C12.6519 33.8845 12.9345 33.8364 13.2921 33.8364H13.5113C13.8036 33.8364 14.0189 33.8883 14.1573 33.9922C14.2957 34.0921 14.365 34.196 14.365 34.3036V34.3844C14.365 34.4536 14.313 34.5862 14.2092 34.7823C14.1092 34.9785 14.04 35.238 14.0016 35.561C13.967 35.884 13.9497 36.7396 13.9497 38.1277C13.9497 39.512 13.9593 40.2829 13.9785 40.4406C13.9977 40.5982 14.0631 40.777 14.1746 40.977C14.2861 41.1769 14.3419 41.3404 14.3419 41.4672C14.3419 41.5903 14.2554 41.6941 14.0823 41.7787C13.9131 41.8633 13.7113 41.9056 13.4767 41.9056Z" fill="white"/>
<path d="M7.50903 38.6409C8.0935 38.6409 8.38573 38.5851 8.38573 38.4736V38.439C8.38573 38.4005 8.36074 38.289 8.31075 38.1045C8.26461 37.916 8.23769 37.8065 8.23 37.7757C8.22231 37.7411 8.2127 37.7084 8.20116 37.6776C8.18963 37.643 8.13195 37.4085 8.02813 36.974C7.92816 36.5356 7.79742 36.128 7.63592 35.7512C7.47442 35.3744 7.38214 35.1859 7.35906 35.1859C7.33599 35.1859 7.2687 35.3244 7.15719 35.6012C6.5112 37.2162 6.1882 38.1717 6.1882 38.4678V38.5024C6.1882 38.5947 6.38623 38.6409 6.78228 38.6409H7.16873L7.22064 38.6351L7.41097 38.6409H7.50903ZM10.7044 40.9422V41.0576C10.7044 41.2768 10.6121 41.4748 10.4275 41.6517C10.3276 41.7478 10.143 41.7959 9.87383 41.7959C9.60851 41.7959 9.4201 41.7247 9.30858 41.5824C9.29705 41.5671 9.22207 41.3056 9.08364 40.798C8.94906 40.2905 8.79525 39.9405 8.62222 39.7483C8.45303 39.5522 8.12042 39.4541 7.62438 39.4541C6.67846 39.4541 6.11514 39.5368 5.93441 39.7021C5.75754 39.8636 5.58642 40.2078 5.42108 40.7346C5.35956 40.9268 5.31726 41.1114 5.29419 41.2883C5.27112 41.4652 5.24228 41.5786 5.20767 41.6286C5.13846 41.7324 5.00195 41.7843 4.79816 41.7843C4.5982 41.7843 4.43863 41.7016 4.31943 41.5363C4.20023 41.3671 4.14062 41.1806 4.14062 40.9768C4.14062 40.7692 4.20984 40.5635 4.34827 40.3597C4.49054 40.152 4.59244 39.9675 4.65396 39.806C4.71933 39.6406 5.00003 38.8274 5.49606 37.3662C5.99594 35.905 6.33047 34.9937 6.49966 34.6322C6.67269 34.2708 6.82266 34.042 6.94955 33.9459C7.08029 33.8459 7.23986 33.7959 7.42828 33.7959C7.61669 33.7959 7.7878 33.8632 7.94161 33.9978C8.09542 34.1324 8.26077 34.39 8.43765 34.7707C8.44149 34.7822 9.04134 36.4741 10.2372 39.8463C10.3026 40.0309 10.3968 40.2232 10.5198 40.4231C10.6429 40.6231 10.7044 40.7961 10.7044 40.9422Z" fill="white"/>
<defs>
<linearGradient id="paint0_linear_2125_9892" x1="42.6281" y1="36.6187" x2="42.6281" y2="45.5684" gradientUnits="userSpaceOnUse">
<stop stop-color="#7293FA"/>
<stop offset="0.1593" stop-color="#81ABFF"/>
<stop offset="0.500398" stop-color="#ABC6FB"/>
<stop offset="1" stop-color="#BCD3FC"/>
</linearGradient>
</defs>
</svg>
