<svg width="168" height="103" viewBox="0 0 168 103" fill="none" xmlns="http://www.w3.org/2000/svg">
<path d="M90.4781 0C110.742 4.12366e-06 125.314 14.7022 127.755 29.2537C134.96 30.2474 144.567 32.93 152.595 38.3929C160.839 44.0025 167.481 52.6036 167.971 65.2347C168.456 77.761 162.849 86.6219 155.9 92.5378C149.007 98.4055 140.76 101.421 135.639 102.434C135.431 102.475 135.233 102.492 135.042 102.492H63.9177C62.8823 102.492 62.0429 101.652 62.0429 100.617C62.0429 99.5816 62.8823 98.7422 63.9177 98.7421H134.977C139.608 97.814 147.188 95.0296 153.47 89.6822C159.724 84.3576 164.656 76.5387 164.224 65.3799C163.791 54.2017 157.987 46.5974 150.486 41.4933C142.929 36.3513 133.714 33.8098 126.844 32.9136C125.403 32.7258 124.325 31.598 124.117 30.2277C122.162 17.379 109.083 3.74971 90.4781 3.7497C83.371 3.74973 76.4651 6.36255 70.5645 9.92963C64.666 13.4955 59.9026 17.9371 57.1104 21.3978C56.0083 22.7636 54.1979 22.8587 52.9536 22.2877C50.2945 21.067 43.3291 20.1054 35.5465 25.0206C27.5345 30.0808 26.5408 37.2379 26.4317 40.9989C26.3927 42.3406 25.5198 43.5087 24.2511 43.9308C19.438 45.5318 13.4233 48.9044 9.16681 54.32C4.96338 59.6682 2.39514 67.0983 4.50043 77.1081C6.85026 88.2804 13.4087 93.7812 20.3756 96.4871C27.4572 99.2374 35.0129 99.1043 39.068 98.7495C40.0994 98.6593 41.0087 99.422 41.0991 100.453C41.1893 101.485 40.426 102.394 39.3945 102.485C35.1169 102.859 26.887 103.039 19.0177 99.9823C11.0337 96.8813 3.47563 90.4552 0.830679 77.8795C-1.50918 66.7541 1.34892 58.1991 6.21843 52.0033C10.9243 46.0159 17.4331 42.3179 22.6978 40.4985C22.8874 36.0423 24.2951 27.6922 33.5441 21.8507C42.263 16.344 50.4736 17.098 54.3762 18.8181C57.4597 15.0578 62.4757 10.4378 68.6244 6.72066C74.8945 2.93014 82.4727 2.6385e-05 90.4781 0Z" fill="url(#paint0_linear_2125_10242)"/>
<path d="M106.683 91.0041C107.16 90.8026 107.71 91.026 107.912 91.5027L111.349 99.6271C111.55 100.104 111.327 100.654 110.85 100.856C110.373 101.057 109.823 100.834 109.622 100.357L106.184 92.2327C105.983 91.7559 106.206 91.2058 106.683 91.0041ZM89.9394 84.0857C90.4406 83.956 90.9521 84.2571 91.0819 84.7583C91.2116 85.2595 90.9105 85.771 90.4093 85.9008L63.8489 92.7752C63.3478 92.9049 62.8362 92.6038 62.7065 92.1027C62.5767 91.6015 62.8778 91.0899 63.379 90.9602L89.9394 84.0857ZM28.2201 69.6942C28.5585 69.3025 29.1502 69.2594 29.542 69.5977L43.2909 81.4718C43.6826 81.8102 43.7257 82.4019 43.3873 82.7937C43.0489 83.1854 42.4572 83.2285 42.0654 82.8901L28.3165 71.0161C27.9248 70.6777 27.8817 70.0859 28.2201 69.6942ZM126.734 79.3687C127.252 79.3687 127.671 79.7884 127.671 80.3061C127.671 80.8238 127.252 81.2435 126.734 81.2435H115.485C114.967 81.2435 114.547 80.8238 114.547 80.3061C114.547 79.7884 114.967 79.3687 115.485 79.3687H126.734ZM65.7024 66.5865C66.0315 66.1869 66.6223 66.1295 67.0219 66.4583C67.4215 66.7874 67.479 67.3782 67.1501 67.7778L58.4008 78.402C58.0717 78.8015 57.4809 78.859 57.0813 78.5301C56.6817 78.2011 56.6242 77.6103 56.9531 77.2107L65.7024 66.5865ZM126.495 65.026C126.996 64.8942 127.508 65.193 127.64 65.6936L130.765 77.5677C130.897 78.0683 130.598 78.5808 130.097 78.7126C129.597 78.8444 129.084 78.5455 128.952 78.0449L125.828 66.1709C125.696 65.6702 125.995 65.1578 126.495 65.026ZM142.632 65.8944C142.998 65.5283 143.592 65.5283 143.958 65.8944C144.324 66.2605 144.324 66.8539 143.958 67.22L133.646 77.5317C133.28 77.8978 132.687 77.8978 132.321 77.5317C131.955 77.1656 131.955 76.5722 132.321 76.2061L142.632 65.8944ZM79.4275 64.7416C79.74 64.3287 80.3281 64.2473 80.7409 64.5597L92.3025 73.309C92.7153 73.6214 92.7968 74.2095 92.4844 74.6224C92.1719 75.0352 91.5838 75.1166 91.171 74.8042L79.6094 66.0549C79.1966 65.7425 79.1151 65.1544 79.4275 64.7416ZM44.4657 43.1374C44.8022 42.744 45.3936 42.6978 45.787 43.0343C46.1805 43.3708 46.2266 43.9621 45.8902 44.3556L27.4541 65.9164C27.1177 66.3098 26.5263 66.356 26.1328 66.0195C25.7394 65.6831 25.6932 65.0917 26.0297 64.6982L44.4657 43.1374ZM134.607 57.7865C134.792 57.3029 135.333 57.0603 135.817 57.2446L142.379 59.7444C142.863 59.9288 143.105 60.4703 142.921 60.954C142.737 61.4377 142.195 61.6802 141.711 61.496L135.149 58.9962C134.666 58.8118 134.423 58.2703 134.607 57.7865ZM109.5 54.3719C110.017 54.3457 110.458 54.7435 110.484 55.2605C110.51 55.7775 110.112 56.218 109.595 56.2443L84.9099 57.4942C84.3929 57.5204 83.9524 57.1226 83.9261 56.6056C83.8999 56.0886 84.2977 55.6481 84.8147 55.6218L109.5 54.3719ZM101.057 32.8843C101.534 32.6822 102.084 32.9046 102.286 33.3811L106.465 43.2302C106.496 43.3044 106.555 43.3638 106.629 43.3956L112.729 46.0095C113.205 46.2135 113.426 46.7647 113.222 47.2405C113.018 47.7163 112.467 47.9369 111.991 47.733L105.891 45.1185C105.372 44.8962 104.959 44.4821 104.739 43.9626L100.56 34.1135C100.358 33.6369 100.581 33.0866 101.057 32.8843ZM83.0369 27.3831C83.4455 27.0653 84.0342 27.1387 84.3521 27.5472C84.6699 27.9559 84.5965 28.5446 84.1879 28.8625L76.1935 35.0808C76.1233 35.1356 76.0798 35.2178 76.0739 35.3066L75.4862 44.1212C75.4518 44.6378 75.0049 45.029 74.4884 44.9946C73.9718 44.9602 73.5806 44.5133 73.615 43.9967L74.2027 35.1815C74.2443 34.559 74.55 33.9839 75.0425 33.6008L83.0369 27.3831ZM40.1185 20.3878C40.5937 20.1823 41.1458 20.4009 41.3513 20.876L46.3509 32.4376C46.5564 32.9128 46.3378 33.4649 45.8627 33.6704C45.3875 33.8759 44.8354 33.6573 44.6299 33.1822L39.6303 21.6206C39.4248 21.1454 39.6434 20.5933 40.1185 20.3878ZM82.3625 21.2483C82.8802 21.2483 83.2999 21.668 83.2999 22.1857C83.2999 22.7035 82.8802 23.1232 82.3625 23.1232H77.9878C77.4701 23.1232 77.0504 22.7035 77.0504 22.1857C77.0504 21.668 77.4701 21.2483 77.9878 21.2483H82.3625Z" fill="url(#paint1_linear_2125_10242)"/>
<path d="M62.6623 88.1182C62.6623 82.5958 58.1855 78.119 52.6631 78.119C47.1407 78.119 42.6639 82.5958 42.6639 88.1182C42.6639 93.6406 47.1407 98.1174 52.6631 98.1174V99.9923C46.1053 99.9923 40.7891 94.6761 40.7891 88.1182C40.7891 81.5603 46.1053 76.2441 52.6631 76.2441C59.221 76.2441 64.5372 81.5603 64.5372 88.1182C64.5372 94.6761 59.221 99.9923 52.6631 99.9923V98.1174C58.1855 98.1174 62.6623 93.6406 62.6623 88.1182Z" fill="url(#paint2_linear_2125_10242)"/>
<path d="M134.529 53.433C134.529 47.0477 129.353 41.8714 122.968 41.8714C116.582 41.8714 111.406 47.0477 111.406 53.433C111.406 59.8183 116.582 64.9946 122.968 64.9946V66.8694C115.547 66.8694 109.531 60.8538 109.531 53.433C109.531 46.0123 115.547 39.9966 122.968 39.9966C130.388 39.9966 136.404 46.0123 136.404 53.433C136.404 60.8538 130.388 66.8694 122.968 66.8694V64.9946C129.353 64.9946 134.529 59.8183 134.529 53.433Z" fill="url(#paint3_linear_2125_10242)"/>
<path d="M55.7958 38.4344C55.7958 35.1555 53.1377 32.4974 49.8588 32.4974C46.5798 32.4974 43.9217 35.1555 43.9217 38.4344C43.9217 41.7134 46.5798 44.3715 49.8588 44.3715V46.2463C45.5444 46.2463 42.0469 42.7488 42.0469 38.4344C42.0469 34.1201 45.5444 30.6226 49.8588 30.6226C54.1731 30.6226 57.6706 34.1201 57.6706 38.4344C57.6706 42.7488 54.1731 46.2463 49.8588 46.2463V44.3715C53.1377 44.3715 55.7958 41.7134 55.7958 38.4344Z" fill="url(#paint4_linear_2125_10242)"/>
<path d="M31.4133 68.1197C31.4133 70.8809 29.1749 73.1193 26.4137 73.1193C23.6525 73.1193 21.4141 70.8809 21.4141 68.1197C21.4141 65.3585 23.6525 63.1201 26.4137 63.1201C29.1749 63.1201 31.4133 65.3585 31.4133 68.1197Z" fill="url(#paint5_linear_2125_10242)"/>
<path d="M53.2807 38.4345C53.2807 40.3329 51.7418 41.8718 49.8435 41.8718C47.9451 41.8718 46.4062 40.3329 46.4062 38.4345C46.4062 36.5362 47.9451 34.9973 49.8435 34.9973C51.7418 34.9973 53.2807 36.5362 53.2807 38.4345Z" fill="url(#paint6_linear_2125_10242)"/>
<path d="M57.0304 88.1182C57.0304 85.7021 55.0718 83.7435 52.6558 83.7435C50.2397 83.7435 48.2811 85.7021 48.2811 88.1182C48.2811 90.5342 50.2397 92.4928 52.6558 92.4928V94.3677C49.2042 94.3677 46.4062 91.5697 46.4062 88.1182C46.4062 84.6667 49.2042 81.8687 52.6558 81.8687C56.1073 81.8687 58.9053 84.6667 58.9053 88.1182C58.9053 91.5697 56.1073 94.3677 52.6558 94.3677V92.4928C55.0718 92.4928 57.0304 90.5342 57.0304 88.1182Z" fill="url(#paint7_linear_2125_10242)"/>
<path d="M149.531 62.4949C149.531 63.8755 148.412 64.9947 147.031 64.9947C145.65 64.9947 144.531 63.8755 144.531 62.4949C144.531 61.1143 145.65 59.9951 147.031 59.9951C148.412 59.9951 149.531 61.1143 149.531 62.4949Z" fill="url(#paint8_linear_2125_10242)"/>
<path d="M135.765 80.3062C135.765 83.24 133.386 85.6183 130.453 85.6183C127.519 85.6183 125.141 83.24 125.141 80.3062C125.141 77.3724 127.519 74.9941 130.453 74.9941C133.386 74.9941 135.765 77.3724 135.765 80.3062Z" fill="url(#paint9_linear_2125_10242)"/>
<path d="M78.9135 21.2485C78.9135 23.3194 77.2347 24.9982 75.1638 24.9982C73.0929 24.9982 71.4141 23.3194 71.4141 21.2485C71.4141 19.1776 73.0929 17.4988 75.1638 17.4988C77.2347 17.4988 78.9135 19.1776 78.9135 21.2485Z" fill="url(#paint10_linear_2125_10242)"/>
<path d="M151.405 62.4951C151.405 60.0791 149.447 58.1205 147.031 58.1205C144.615 58.1205 142.656 60.0791 142.656 62.4951C142.656 64.9112 144.615 66.8698 147.031 66.8698V68.7446C143.579 68.7446 140.781 65.9466 140.781 62.4951C140.781 59.0436 143.579 56.2456 147.031 56.2456C150.482 56.2456 153.28 59.0436 153.28 62.4951C153.28 65.9466 150.482 68.7446 147.031 68.7446V66.8698C149.447 66.8698 151.405 64.9112 151.405 62.4951Z" fill="url(#paint11_linear_2125_10242)"/>
<path d="M85.7946 55.3082C85.7946 63.0741 79.4991 69.3696 71.7333 69.3696C63.9674 69.3696 57.6719 63.0741 57.6719 55.3082C57.6719 47.5423 63.9674 41.2468 71.7333 41.2468C79.4991 41.2468 85.7946 47.5423 85.7946 55.3082Z" fill="#1964FE"/>
<path d="M69.0623 62.495H64.5312V52.7365C65.0664 47.0294 70.4181 46.1486 72.4517 46.2543C74.4853 46.36 80.3722 46.5714 80.7646 53.7582C81.0786 59.5076 76.4952 61.9783 74.1642 62.495H71.1316V57.9152C74.2713 57.9716 75.5795 57.7039 75.8411 57.5629V53.7582C75.8292 52.8539 75.1347 51.0314 72.4517 50.975C69.7687 50.9187 69.0742 52.807 69.0623 53.7582V62.495Z" fill="white"/>
<path d="M78.0888 50.4274C77.1469 47.6091 73.7956 46.446 72.309 46.2464C78.4812 46.2463 80.2295 49.875 80.5862 52.2706C79.7014 55.4835 77.0185 57.2027 75.8411 57.555V55.6526C76.9709 55.0889 79.0307 53.2458 78.0888 50.4274Z" fill="url(#paint12_linear_2125_10242)"/>
<path d="M108.904 23.4357C108.904 31.2015 102.609 37.497 94.8426 37.497C87.0767 37.497 80.7812 31.2015 80.7812 23.4357C80.7812 15.6698 87.0767 9.37427 94.8426 9.37427C102.609 9.37427 108.904 15.6698 108.904 23.4357Z" fill="#1964FE"/>
<path d="M91.5545 31.8725H87.0234V22.114C87.5586 16.4068 92.9103 15.5261 94.9439 15.6318C96.9775 15.7374 102.864 15.9488 103.257 23.1356C103.571 28.885 98.9874 31.3558 96.6564 31.8725H93.6238V27.2927C96.7635 27.349 98.0716 27.0813 98.3333 26.9404V23.1356C98.3214 22.2314 97.6269 20.4089 94.9439 20.3525C92.2609 20.2961 91.5664 22.1844 91.5545 23.1356V31.8725Z" fill="white"/>
<path d="M100.581 19.8049C99.6391 16.9865 96.2878 15.8234 94.8012 15.6238C100.973 15.6238 102.722 19.2524 103.078 21.648C102.194 24.8609 99.5106 26.5801 98.3333 26.9324V25.03C99.4631 24.4664 101.523 22.6232 100.581 19.8049Z" fill="url(#paint13_linear_2125_10242)"/>
<path d="M117.029 81.556C117.029 89.3219 110.734 95.6174 102.968 95.6174C95.2017 95.6174 88.9062 89.3219 88.9062 81.556C88.9062 73.7901 95.2017 67.4946 102.968 67.4946C110.734 67.4946 117.029 73.7901 117.029 81.556Z" fill="#1964FE"/>
<path d="M99.6795 88.7428H95.1484V78.9843C95.6836 73.2772 101.035 72.3964 103.069 72.5021C105.103 72.6078 110.989 72.8192 111.382 80.006C111.696 85.7554 107.112 88.2261 104.781 88.7428H101.749V84.163C104.888 84.2194 106.197 83.9517 106.458 83.8107V80.006C106.446 79.1017 105.752 77.2792 103.069 77.2228C100.386 77.1665 99.6914 79.0548 99.6795 80.006V88.7428Z" fill="white"/>
<path d="M108.706 76.6752C107.764 73.8569 104.413 72.6938 102.926 72.4942C109.098 72.4941 110.847 76.1228 111.203 78.5184C110.319 81.7313 107.636 83.4505 106.458 83.8028V81.9004C107.588 81.3367 109.648 79.4936 108.706 76.6752Z" fill="url(#paint14_linear_2125_10242)"/>
<defs>
<linearGradient id="paint0_linear_2125_10242" x1="35.0609" y1="12.4174" x2="149.739" y2="94.9565" gradientUnits="userSpaceOnUse">
<stop stop-color="#1964FE"/>
<stop offset="1" stop-color="#00F2FE"/>
</linearGradient>
<linearGradient id="paint1_linear_2125_10242" x1="50.5201" y1="30.0594" x2="137.085" y2="86.0018" gradientUnits="userSpaceOnUse">
<stop stop-color="#1964FE"/>
<stop offset="1" stop-color="#00F2FE"/>
</linearGradient>
<linearGradient id="paint2_linear_2125_10242" x1="45.7452" y1="79.1159" x2="66.3631" y2="88.1864" gradientUnits="userSpaceOnUse">
<stop stop-color="#1964FE"/>
<stop offset="1" stop-color="#00F2FE"/>
</linearGradient>
<linearGradient id="paint3_linear_2125_10242" x1="115.139" y1="43.2462" x2="138.47" y2="53.5101" gradientUnits="userSpaceOnUse">
<stop stop-color="#1964FE"/>
<stop offset="1" stop-color="#00F2FE"/>
</linearGradient>
<linearGradient id="paint4_linear_2125_10242" x1="45.3075" y1="32.5119" x2="58.8719" y2="38.4793" gradientUnits="userSpaceOnUse">
<stop stop-color="#1964FE"/>
<stop offset="1" stop-color="#00F2FE"/>
</linearGradient>
<linearGradient id="paint5_linear_2125_10242" x1="23.5009" y1="64.3293" x2="32.1821" y2="68.1484" gradientUnits="userSpaceOnUse">
<stop stop-color="#1964FE"/>
<stop offset="1" stop-color="#00F2FE"/>
</linearGradient>
<linearGradient id="paint6_linear_2125_10242" x1="47.8409" y1="35.8286" x2="53.8093" y2="38.4543" gradientUnits="userSpaceOnUse">
<stop stop-color="#1964FE"/>
<stop offset="1" stop-color="#00F2FE"/>
</linearGradient>
<linearGradient id="paint7_linear_2125_10242" x1="49.0147" y1="83.3801" x2="59.8663" y2="88.154" gradientUnits="userSpaceOnUse">
<stop stop-color="#1964FE"/>
<stop offset="1" stop-color="#00F2FE"/>
</linearGradient>
<linearGradient id="paint8_linear_2125_10242" x1="145.575" y1="60.5997" x2="149.915" y2="62.5093" gradientUnits="userSpaceOnUse">
<stop stop-color="#1964FE"/>
<stop offset="1" stop-color="#00F2FE"/>
</linearGradient>
<linearGradient id="paint9_linear_2125_10242" x1="127.358" y1="76.2789" x2="136.582" y2="80.3367" gradientUnits="userSpaceOnUse">
<stop stop-color="#1964FE"/>
<stop offset="1" stop-color="#00F2FE"/>
</linearGradient>
<linearGradient id="paint10_linear_2125_10242" x1="72.9792" y1="18.4056" x2="79.4901" y2="21.27" gradientUnits="userSpaceOnUse">
<stop stop-color="#1964FE"/>
<stop offset="1" stop-color="#00F2FE"/>
</linearGradient>
<linearGradient id="paint11_linear_2125_10242" x1="143.39" y1="57.757" x2="154.241" y2="62.531" gradientUnits="userSpaceOnUse">
<stop stop-color="#1964FE"/>
<stop offset="1" stop-color="#00F2FE"/>
</linearGradient>
<linearGradient id="paint12_linear_2125_10242" x1="76.4833" y1="46.2463" x2="76.4833" y2="57.438" gradientUnits="userSpaceOnUse">
<stop stop-color="#7293FA"/>
<stop offset="0.1593" stop-color="#81ABFF"/>
<stop offset="0.500398" stop-color="#ABC6FB"/>
<stop offset="1" stop-color="#BCD3FC"/>
</linearGradient>
<linearGradient id="paint13_linear_2125_10242" x1="98.9755" y1="15.6238" x2="98.9755" y2="26.8155" gradientUnits="userSpaceOnUse">
<stop stop-color="#7293FA"/>
<stop offset="0.1593" stop-color="#81ABFF"/>
<stop offset="0.500398" stop-color="#ABC6FB"/>
<stop offset="1" stop-color="#BCD3FC"/>
</linearGradient>
<linearGradient id="paint14_linear_2125_10242" x1="107.1" y1="72.4941" x2="107.1" y2="83.6858" gradientUnits="userSpaceOnUse">
<stop stop-color="#7293FA"/>
<stop offset="0.1593" stop-color="#81ABFF"/>
<stop offset="0.500398" stop-color="#ABC6FB"/>
<stop offset="1" stop-color="#BCD3FC"/>
</linearGradient>
</defs>
</svg>
