<svg width="136" height="141" viewBox="0 0 136 141" fill="none" xmlns="http://www.w3.org/2000/svg">
<path d="M115.72 110.356L78.9744 127.527L76.9394 123.171L113.685 106L115.72 110.356ZM58.3772 123.175L56.3261 127.523L19.9235 110.352L21.9746 106.004L58.3772 123.175ZM13.7372 92.7049L8.92936 92.7425L8.58594 49.4715L13.3938 49.434L13.7372 92.7049ZM128.096 49.4527V92.0369H123.288V49.4527H128.096ZM115.754 30.4633L113.652 34.7869L76.9058 16.9291L79.0079 12.6055L115.754 30.4633ZM58.4101 16.9257L22.0075 34.7836L19.8906 30.4667L56.2932 12.6088L58.4101 16.9257Z" fill="url(#paint0_linear_2125_10114)"/>
<path d="M74.1834 11.6762C74.1834 15.0902 71.4159 17.8578 68.0019 17.8578C64.5879 17.8578 61.8203 15.0902 61.8203 11.6762C61.8203 8.26221 64.5879 5.49463 68.0019 5.49463C71.4159 5.49463 74.1834 8.26221 74.1834 11.6762Z" fill="url(#paint1_linear_2125_10114)"/>
<path d="M130.496 38.4631C130.496 41.877 127.728 44.6446 124.314 44.6446C120.9 44.6446 118.133 41.877 118.133 38.4631C118.133 35.0491 120.9 32.2815 124.314 32.2815C127.728 32.2815 130.496 35.0491 130.496 38.4631Z" fill="url(#paint2_linear_2125_10114)"/>
<path d="M130.496 103.026C130.496 106.44 127.728 109.208 124.314 109.208C120.9 109.208 118.133 106.44 118.133 103.026C118.133 99.6121 120.9 96.8445 124.314 96.8445C127.728 96.8445 130.496 99.6121 130.496 103.026Z" fill="url(#paint3_linear_2125_10114)"/>
<path d="M17.8553 103.026C17.8553 106.44 15.0877 109.208 11.6738 109.208C8.25977 109.208 5.49219 106.44 5.49219 103.026C5.49219 99.6121 8.25977 96.8445 11.6738 96.8445C15.0877 96.8445 17.8553 99.6121 17.8553 103.026Z" fill="url(#paint4_linear_2125_10114)"/>
<path d="M17.8553 38.4631C17.8553 41.877 15.0877 44.6446 11.6738 44.6446C8.25977 44.6446 5.49219 41.877 5.49219 38.4631C5.49219 35.0491 8.25977 32.2815 11.6738 32.2815C15.0877 32.2815 17.8553 35.0491 17.8553 38.4631Z" fill="url(#paint5_linear_2125_10114)"/>
<path d="M41.2108 70.0576C41.2108 72.3336 39.3658 74.1786 37.0898 74.1786C34.8138 74.1786 32.9688 72.3336 32.9688 70.0576C32.9688 67.7816 34.8138 65.9365 37.0898 65.9365C39.3658 65.9365 41.2108 67.7816 41.2108 70.0576Z" fill="url(#paint6_linear_2125_10114)"/>
<path d="M52.8905 46.0183C52.8905 48.2943 51.0455 50.1393 48.7695 50.1393C46.4935 50.1393 44.6484 48.2943 44.6484 46.0183C44.6484 43.7423 46.4935 41.8972 48.7695 41.8972C51.0455 41.8972 52.8905 43.7423 52.8905 46.0183Z" fill="url(#paint7_linear_2125_10114)"/>
<path d="M91.3515 46.0183C91.3515 48.2943 89.5064 50.1393 87.2304 50.1393C84.9544 50.1393 83.1094 48.2943 83.1094 46.0183C83.1094 43.7423 84.9544 41.8972 87.2304 41.8972C89.5064 41.8972 91.3515 43.7423 91.3515 46.0183Z" fill="url(#paint8_linear_2125_10114)"/>
<path d="M104.398 70.0576C104.398 72.3336 102.553 74.1786 100.277 74.1786C98.0013 74.1786 96.1562 72.3336 96.1562 70.0576C96.1562 67.7816 98.0013 65.9365 100.277 65.9365C102.553 65.9365 104.398 67.7816 104.398 70.0576Z" fill="url(#paint9_linear_2125_10114)"/>
<path d="M91.3515 94.0974C91.3515 96.3734 89.5064 98.2184 87.2304 98.2184C84.9544 98.2184 83.1094 96.3734 83.1094 94.0974C83.1094 91.8214 84.9544 89.9763 87.2304 89.9763C89.5064 89.9763 91.3515 91.8214 91.3515 94.0974Z" fill="url(#paint10_linear_2125_10114)"/>
<path d="M52.8905 94.0974C52.8905 96.3734 51.0455 98.2184 48.7695 98.2184C46.4935 98.2184 44.6484 96.3734 44.6484 94.0974C44.6484 91.8214 46.4935 89.9763 48.7695 89.9763C51.0455 89.9763 52.8905 91.8214 52.8905 94.0974Z" fill="url(#paint11_linear_2125_10114)"/>
<path d="M21.2921 38.4632C21.2921 33.1525 16.9869 28.8474 11.6763 28.8474C6.36565 28.8474 2.06052 33.1525 2.06052 38.4632C2.06052 43.7738 6.36565 48.0789 11.6763 48.0789V50.1395C5.22766 50.1395 0 44.9118 0 38.4632C0 32.0145 5.22766 26.7869 11.6763 26.7869C18.1249 26.7869 23.3526 32.0145 23.3526 38.4632C23.3526 44.9118 18.1249 50.1395 11.6763 50.1395V48.0789C16.9869 48.0789 21.2921 43.7738 21.2921 38.4632Z" fill="url(#paint12_linear_2125_10114)"/>
<path d="M77.6124 11.6763C77.6124 6.36565 73.3073 2.06052 67.9966 2.06052C62.686 2.06052 58.3808 6.36565 58.3808 11.6763C58.3808 16.9869 62.686 21.2921 67.9966 21.2921V23.3526C61.548 23.3526 56.3203 18.1249 56.3203 11.6763C56.3203 5.22766 61.548 0 67.9966 0C74.4452 0 79.6729 5.22766 79.6729 11.6763C79.6729 18.1249 74.4452 23.3526 67.9966 23.3526V21.2921C73.3073 21.2921 77.6124 16.9869 77.6124 11.6763Z" fill="url(#paint13_linear_2125_10114)"/>
<path d="M133.941 38.4632C133.941 33.1525 129.635 28.8474 124.325 28.8474C119.014 28.8474 114.709 33.1525 114.709 38.4632C114.709 43.7738 119.014 48.0789 124.325 48.0789V50.1395C117.876 50.1395 112.648 44.9118 112.648 38.4632C112.648 32.0145 117.876 26.7869 124.325 26.7869C130.773 26.7869 136.001 32.0145 136.001 38.4632C136.001 44.9118 130.773 50.1395 124.325 50.1395V48.0789C129.635 48.0789 133.941 43.7738 133.941 38.4632Z" fill="url(#paint14_linear_2125_10114)"/>
<path d="M133.941 103.026C133.941 97.7155 129.635 93.4104 124.325 93.4104C119.014 93.4104 114.709 97.7155 114.709 103.026C114.709 108.337 119.014 112.642 124.325 112.642V114.702C117.876 114.702 112.648 109.475 112.648 103.026C112.648 96.5775 117.876 91.3499 124.325 91.3499C130.773 91.3499 136.001 96.5775 136.001 103.026C136.001 109.475 130.773 114.702 124.325 114.702V112.642C129.635 112.642 133.941 108.337 133.941 103.026Z" fill="url(#paint15_linear_2125_10114)"/>
<path d="M21.2921 103.026C21.2921 97.7155 16.9869 93.4104 11.6763 93.4104C6.36565 93.4104 2.06052 97.7155 2.06052 103.026C2.06052 108.337 6.36565 112.642 11.6763 112.642V114.702C5.22766 114.702 0 109.475 0 103.026C0 96.5775 5.22766 91.3499 11.6763 91.3499C18.1249 91.3499 23.3526 96.5775 23.3526 103.026C23.3526 109.475 18.1249 114.702 11.6763 114.702V112.642C16.9869 112.642 21.2921 108.337 21.2921 103.026Z" fill="url(#paint16_linear_2125_10114)"/>
<path d="M77.6124 128.439C77.6124 123.129 73.3073 118.823 67.9966 118.823C62.686 118.823 58.3808 123.129 58.3808 128.439C58.3808 133.75 62.686 138.055 67.9966 138.055V140.116C61.548 140.116 56.3203 134.888 56.3203 128.439C56.3203 121.991 61.548 116.763 67.9966 116.763C74.4452 116.763 79.6729 121.991 79.6729 128.439C79.6729 134.888 74.4452 140.116 67.9966 140.116V138.055C73.3073 138.055 77.6124 133.75 77.6124 128.439Z" fill="url(#paint17_linear_2125_10114)"/>
<path d="M74.1834 128.439C74.1834 131.853 71.4159 134.621 68.0019 134.621C64.5879 134.621 61.8203 131.853 61.8203 128.439C61.8203 125.025 64.5879 122.258 68.0019 122.258C71.4159 122.258 74.1834 125.025 74.1834 128.439Z" fill="url(#paint18_linear_2125_10114)"/>
<path d="M114.278 99.2813L113.76 101.276L88.0939 94.6096L74.3994 119.661L72.591 118.673L87.057 92.211L114.278 99.2813ZM63.7553 117.646L61.943 118.628L48.9252 94.5948L22.2202 100.937L21.744 98.9332L49.9856 92.2258L63.7553 117.646ZM37.6775 69.6928L19.7358 95.3742L18.0469 94.1937L35.1334 69.7358L18.067 46.9801L19.7157 45.7433L37.6775 69.6928ZM117.945 46.964L101.557 69.7062L118.625 92.7979L116.968 94.0227L99.0062 69.7223L116.274 45.7594L117.945 46.964ZM87.1059 44.874L113.841 40.1956L114.197 42.2252L85.9838 47.1626L72.5843 21.7729L74.4061 20.8111L87.1059 44.874ZM63.7553 21.783L50.0085 47.1612L21.8044 42.2252L22.1599 40.1956L48.9024 44.8753L61.943 20.801L63.7553 21.783Z" fill="url(#paint19_linear_2125_10114)"/>
<path d="M51.6172 60.0059L68.3809 49.7778L84.8025 60.0059V80.4622L68.3809 90.3376L51.6172 80.4622V60.0059Z" fill="#1964FE"/>
<path d="M86.6461 60.0217V80.4464L69.307 90.3376L51.6172 80.4523V60.0159L69.307 49.7778L86.6461 60.0217ZM53.6577 61.1532V79.2941L69.2964 88.033L84.6056 79.3V61.1473L69.2957 52.1025L53.6577 61.1532Z" fill="#1964FE"/>
<path d="M64.7376 78.9868H59.7578V68.2618C60.346 61.9895 66.2276 61.0215 68.4627 61.1377C70.6977 61.2538 77.1675 61.4861 77.5988 69.3847C77.9439 75.7035 72.9066 78.4189 70.3448 78.9868H67.0118V73.9534C70.4624 74.0154 71.9002 73.7211 72.1877 73.5662V69.3847C72.1746 68.3909 71.4113 66.3879 68.4627 66.3259C65.514 66.264 64.7507 68.3393 64.7376 69.3847V78.9868Z" fill="white"/>
<path d="M74.658 65.724C73.6228 62.6266 69.9396 61.3483 68.3058 61.1289C75.0893 61.1289 77.0107 65.1169 77.4028 67.7497C76.4303 71.2808 73.4817 73.1703 72.1877 73.5575V71.4667C73.4294 70.8472 75.6932 68.8215 74.658 65.724Z" fill="url(#paint20_linear_2125_10114)"/>
<defs>
<linearGradient id="paint0_linear_2125_10114" x1="20.7365" y1="17.8979" x2="130.93" y2="123.746" gradientUnits="userSpaceOnUse">
<stop stop-color="#1964FE"/>
<stop offset="1" stop-color="#00F2FE"/>
</linearGradient>
<linearGradient id="paint1_linear_2125_10114" x1="63.0773" y1="6.06398" x2="74.9041" y2="16.9882" gradientUnits="userSpaceOnUse">
<stop stop-color="#1964FE"/>
<stop offset="1" stop-color="#00F2FE"/>
</linearGradient>
<linearGradient id="paint2_linear_2125_10114" x1="119.39" y1="32.8508" x2="131.217" y2="43.775" gradientUnits="userSpaceOnUse">
<stop stop-color="#1964FE"/>
<stop offset="1" stop-color="#00F2FE"/>
</linearGradient>
<linearGradient id="paint3_linear_2125_10114" x1="119.39" y1="97.4138" x2="131.217" y2="108.338" gradientUnits="userSpaceOnUse">
<stop stop-color="#1964FE"/>
<stop offset="1" stop-color="#00F2FE"/>
</linearGradient>
<linearGradient id="paint4_linear_2125_10114" x1="6.74915" y1="97.4138" x2="18.576" y2="108.338" gradientUnits="userSpaceOnUse">
<stop stop-color="#1964FE"/>
<stop offset="1" stop-color="#00F2FE"/>
</linearGradient>
<linearGradient id="paint5_linear_2125_10114" x1="6.74915" y1="32.8508" x2="18.576" y2="43.775" gradientUnits="userSpaceOnUse">
<stop stop-color="#1964FE"/>
<stop offset="1" stop-color="#00F2FE"/>
</linearGradient>
<linearGradient id="paint6_linear_2125_10114" x1="33.8067" y1="66.3161" x2="41.6913" y2="73.5989" gradientUnits="userSpaceOnUse">
<stop stop-color="#1964FE"/>
<stop offset="1" stop-color="#00F2FE"/>
</linearGradient>
<linearGradient id="paint7_linear_2125_10114" x1="45.4864" y1="42.2768" x2="53.371" y2="49.5596" gradientUnits="userSpaceOnUse">
<stop stop-color="#1964FE"/>
<stop offset="1" stop-color="#00F2FE"/>
</linearGradient>
<linearGradient id="paint8_linear_2125_10114" x1="83.9473" y1="42.2768" x2="91.8319" y2="49.5596" gradientUnits="userSpaceOnUse">
<stop stop-color="#1964FE"/>
<stop offset="1" stop-color="#00F2FE"/>
</linearGradient>
<linearGradient id="paint9_linear_2125_10114" x1="96.9942" y1="66.3161" x2="104.879" y2="73.5989" gradientUnits="userSpaceOnUse">
<stop stop-color="#1964FE"/>
<stop offset="1" stop-color="#00F2FE"/>
</linearGradient>
<linearGradient id="paint10_linear_2125_10114" x1="83.9473" y1="90.3559" x2="91.8319" y2="97.6387" gradientUnits="userSpaceOnUse">
<stop stop-color="#1964FE"/>
<stop offset="1" stop-color="#00F2FE"/>
</linearGradient>
<linearGradient id="paint11_linear_2125_10114" x1="45.4864" y1="90.3559" x2="53.371" y2="97.6387" gradientUnits="userSpaceOnUse">
<stop stop-color="#1964FE"/>
<stop offset="1" stop-color="#00F2FE"/>
</linearGradient>
<linearGradient id="paint12_linear_2125_10114" x1="2.37425" y1="27.8623" x2="24.7139" y2="48.4969" gradientUnits="userSpaceOnUse">
<stop stop-color="#1964FE"/>
<stop offset="1" stop-color="#00F2FE"/>
</linearGradient>
<linearGradient id="paint13_linear_2125_10114" x1="58.6946" y1="1.07545" x2="81.0342" y2="21.71" gradientUnits="userSpaceOnUse">
<stop stop-color="#1964FE"/>
<stop offset="1" stop-color="#00F2FE"/>
</linearGradient>
<linearGradient id="paint14_linear_2125_10114" x1="115.023" y1="27.8623" x2="137.362" y2="48.4969" gradientUnits="userSpaceOnUse">
<stop stop-color="#1964FE"/>
<stop offset="1" stop-color="#00F2FE"/>
</linearGradient>
<linearGradient id="paint15_linear_2125_10114" x1="115.023" y1="92.4253" x2="137.362" y2="113.06" gradientUnits="userSpaceOnUse">
<stop stop-color="#1964FE"/>
<stop offset="1" stop-color="#00F2FE"/>
</linearGradient>
<linearGradient id="paint16_linear_2125_10114" x1="2.37425" y1="92.4253" x2="24.7139" y2="113.06" gradientUnits="userSpaceOnUse">
<stop stop-color="#1964FE"/>
<stop offset="1" stop-color="#00F2FE"/>
</linearGradient>
<linearGradient id="paint17_linear_2125_10114" x1="58.6946" y1="117.838" x2="81.0342" y2="138.473" gradientUnits="userSpaceOnUse">
<stop stop-color="#1964FE"/>
<stop offset="1" stop-color="#00F2FE"/>
</linearGradient>
<linearGradient id="paint18_linear_2125_10114" x1="63.0773" y1="122.827" x2="74.9041" y2="133.751" gradientUnits="userSpaceOnUse">
<stop stop-color="#1964FE"/>
<stop offset="1" stop-color="#00F2FE"/>
</linearGradient>
<linearGradient id="paint19_linear_2125_10114" x1="28.2726" y1="25.3538" x2="122.96" y2="114.334" gradientUnits="userSpaceOnUse">
<stop stop-color="#1964FE"/>
<stop offset="1" stop-color="#00F2FE"/>
</linearGradient>
<linearGradient id="paint20_linear_2125_10114" x1="72.8935" y1="61.1289" x2="72.8935" y2="73.429" gradientUnits="userSpaceOnUse">
<stop stop-color="#7293FA"/>
<stop offset="0.1593" stop-color="#81ABFF"/>
<stop offset="0.500398" stop-color="#ABC6FB"/>
<stop offset="1" stop-color="#BCD3FC"/>
</linearGradient>
</defs>
</svg>
