<svg width="146" height="135" viewBox="0 0 146 135" fill="none" xmlns="http://www.w3.org/2000/svg">
<path d="M57.6765 84.152C57.6765 86.8844 55.4614 89.0996 52.7289 89.0996C49.9964 89.0996 47.7812 86.8844 47.7812 84.152C47.7812 81.4195 49.9964 79.2043 52.7289 79.2043C55.4614 79.2043 57.6765 81.4195 57.6765 84.152Z" fill="#1964FE"/>
<path d="M19.9181 54.1365H9.6606C9.26421 54.1365 8.88882 54.3147 8.63826 54.6218L0.297022 64.8469C-0.0990072 65.3324 -0.0990073 66.0294 0.297022 66.5149L8.63826 76.74C8.88882 77.0471 9.26421 77.2253 9.6606 77.2253H19.9181C20.3145 77.2253 20.6899 77.0471 20.9405 76.74L29.2817 66.5149C29.6777 66.0294 29.6777 65.3324 29.2817 64.8469L20.9405 54.6218C20.6899 54.3147 20.3145 54.1365 19.9181 54.1365Z" fill="url(#paint0_linear_2125_10168)"/>
<path d="M39.0509 90.4187C39.4471 90.4187 39.8227 90.5968 40.0732 90.9038L48.4146 101.129C48.8106 101.614 48.8106 102.312 48.4146 102.797L40.0732 113.022C39.8227 113.329 39.4471 113.508 39.0509 113.508H28.7936C28.3973 113.508 28.0218 113.329 27.7712 113.022L19.4298 102.797C19.0338 102.312 19.0338 101.614 19.4298 101.129L27.7712 90.9038C28.0218 90.5968 28.3973 90.4187 28.7936 90.4187H39.0509ZM30.2985 93.7171C29.9011 93.7172 29.5246 93.8962 29.2742 94.2048L23.3847 101.461C22.9914 101.946 22.9914 102.64 23.3847 103.125L29.2742 110.381C29.5246 110.69 29.9011 110.869 30.2985 110.869H37.5498C37.9472 110.869 38.3237 110.69 38.5741 110.381L44.4636 103.125C44.8569 102.64 44.8569 101.946 44.4636 101.461L38.5741 94.2048C38.3237 93.8962 37.9472 93.7172 37.5498 93.7171H30.2985Z" fill="url(#paint1_linear_2125_10168)"/>
<path d="M116.504 5.97949C116.9 5.97949 117.276 6.15758 117.526 6.46459L125.868 16.6897C126.264 17.1751 126.264 17.8727 125.868 18.3582L117.526 28.5833C117.276 28.8903 116.9 29.0683 116.504 29.0683H106.247C105.85 29.0683 105.475 28.8903 105.224 28.5833L96.883 18.3582C96.4869 17.8727 96.4869 17.1751 96.883 16.6897L105.224 6.46459C105.475 6.15755 105.85 5.97949 106.247 5.97949H116.504ZM107.216 8.61822C106.822 8.61823 106.45 8.79338 106.199 9.09623L99.9211 16.6826C99.5172 17.1706 99.5172 17.8772 99.9211 18.3653L106.199 25.9516C106.45 26.2545 106.822 26.4296 107.216 26.4296H114.982C115.375 26.4296 115.748 26.2545 115.999 25.9516L122.277 18.3653C122.681 17.8772 122.681 17.1706 122.277 16.6826L115.999 9.09623C115.748 8.79338 115.375 8.61823 114.982 8.61822H107.216Z" fill="url(#paint2_linear_2125_10168)"/>
<path d="M125.105 42.262H135.363C135.759 42.262 136.135 42.4402 136.385 42.7473L144.726 52.9724C145.122 53.4579 145.122 54.1549 144.726 54.6404L136.385 64.8654C136.135 65.1726 135.759 65.3508 135.363 65.3508H125.105C124.709 65.3508 124.334 65.1726 124.083 64.8654L115.742 54.6404C115.346 54.1549 115.346 53.4579 115.742 52.9724L124.083 42.7473C124.334 42.4402 124.709 42.262 125.105 42.262Z" fill="url(#paint3_linear_2125_10168)"/>
<path d="M46.0134 1.14538C46.2991 0.255367 47.2663 -0.219207 48.1451 0.0991709L93.2058 16.425C94.5871 16.9255 94.6742 18.8466 93.3436 19.4696L77.4172 26.9245C76.9225 27.1563 76.7089 27.7451 76.9405 28.24L93.5575 63.7391C94.2124 65.1386 92.7551 66.5899 91.3581 65.9295L65.0308 53.4812C64.6839 53.3171 64.405 53.0364 64.2423 52.6888L57.1372 37.5097C56.9055 37.0148 56.3166 36.8015 55.8217 37.033L34.1488 47.1775C32.8446 47.788 31.4392 46.5509 31.8792 45.1798L46.0134 1.14538ZM50.9733 5.78055C50.2724 5.52849 49.5019 5.9064 49.2719 6.61482L39.4945 36.7263C39.138 37.8249 40.2652 38.8191 41.3106 38.3279L81.8456 19.2776C82.9098 18.7774 82.8374 17.2398 81.7309 16.8418L50.9733 5.78055Z" fill="url(#paint4_linear_2125_10168)"/>
<path d="M52.2746 103.361L97.3353 119.688C98.0384 119.943 98.8124 119.563 99.0409 118.851L113.175 74.8161C113.527 73.7192 112.403 72.7295 111.359 73.2179L89.6868 83.3625C89.0269 83.6714 88.2415 83.3868 87.9325 82.7269L80.8271 67.547C80.6969 67.2689 80.4738 67.0449 80.1962 66.9136L53.869 54.4655C52.7514 53.9371 51.586 55.0979 52.1101 56.2176L68.7267 91.7168C69.0356 92.3768 68.751 93.1622 68.0911 93.4711L52.1647 100.926C51.1001 101.424 51.1695 102.961 52.2746 103.361Z" fill="url(#paint5_linear_2125_10168)"/>
<path d="M52.3076 101.224C51.5094 101.598 51.5615 102.75 52.39 103.051L97.451 119.377C97.9783 119.569 98.559 119.283 98.7304 118.749L112.865 74.7154C113.129 73.8928 112.285 73.1502 111.502 73.5165L89.8296 83.6611C89.0048 84.047 88.0229 83.6914 87.6368 82.8666L80.5316 67.6872C80.434 67.4786 80.2668 67.31 80.0586 67.2115L53.7315 54.7636C52.8934 54.3673 52.019 55.238 52.4119 56.0777L69.0284 91.5768C69.4145 92.4018 69.0588 93.3835 68.2339 93.7697L52.3076 101.224ZM67.9542 93.1722C68.4492 92.9405 68.6626 92.3515 68.4309 91.8565L51.8144 56.3573C51.1595 54.9578 52.6166 53.5066 54.0135 54.1671L80.3406 66.615C80.6876 66.7791 80.9663 67.0598 81.1291 67.4075L88.2343 82.5869C88.4659 83.0818 89.0551 83.2951 89.55 83.0636L111.223 72.919C112.527 72.3085 113.932 73.5456 113.492 74.9167L99.3584 118.951C99.0727 119.841 98.1051 120.316 97.2263 119.998L52.1656 103.672C50.7843 103.171 50.6974 101.25 52.0279 100.627L67.9542 93.1722Z" fill="url(#paint6_linear_2125_10168)"/>
<path d="M29.2417 91.2885L27.4791 92.1879L19.1719 75.9161L20.9345 75.0162L29.2417 91.2885ZM40.7526 59.2102C41.3467 59.0907 41.9641 59.2091 42.4714 59.5407L50.2162 64.6049C50.3024 64.6613 50.4103 64.6742 50.5074 64.6397L57.3239 62.2194L57.9861 64.0844L51.169 66.5047C50.4897 66.7458 49.7366 66.6557 49.1333 66.2612L41.3885 61.1976C41.3161 61.1503 41.2278 61.133 41.143 61.15L26.3697 64.1218L25.9794 62.182L40.7526 59.2102Z" fill="url(#paint7_linear_2125_10168)"/>
<path d="M115.782 28.1985L117.544 27.2992L125.852 43.5709L124.089 44.4709L115.782 28.1985ZM104.271 60.2768C103.677 60.3963 103.059 60.278 102.552 59.9464L94.8072 54.8821C94.721 54.8258 94.6131 54.8129 94.516 54.8474L87.6995 57.2677L87.0373 55.4027L93.8544 52.9823C94.5338 52.7413 95.2868 52.8314 95.8902 53.2259L103.635 58.2894C103.707 58.3368 103.796 58.3541 103.88 58.3371L118.654 55.3653L119.044 57.3051L104.271 60.2768Z" fill="url(#paint8_linear_2125_10168)"/>
<path d="M99.8939 35.3354C99.8939 31.1456 96.4974 27.7491 92.3076 27.7491C88.1178 27.7491 84.7212 31.1456 84.7212 35.3354C84.7212 39.5252 88.1178 42.9217 92.3076 42.9217V44.9008C87.0248 44.9008 82.7422 40.6182 82.7422 35.3354C82.7422 30.0526 87.0248 25.77 92.3076 25.77C97.5904 25.77 101.873 30.0526 101.873 35.3354C101.873 40.6182 97.5904 44.9008 92.3076 44.9008V42.9217C96.4974 42.9217 99.8939 39.5252 99.8939 35.3354Z" fill="url(#paint9_linear_2125_10168)"/>
<path d="M97.2546 35.3353C97.2546 38.0678 95.0395 40.2829 92.307 40.2829C89.5745 40.2829 87.3594 38.0678 87.3594 35.3353C87.3594 32.6028 89.5745 30.3877 92.307 30.3877C95.0395 30.3877 97.2546 32.6028 97.2546 35.3353Z" fill="url(#paint10_linear_2125_10168)"/>
<path d="M60.3236 84.1518C60.3236 79.962 56.9271 76.5655 52.7373 76.5655C48.5474 76.5655 45.1509 79.962 45.1509 84.1518C45.1509 88.3416 48.5474 91.7381 52.7373 91.7381V93.7172C47.4544 93.7172 43.1719 89.4346 43.1719 84.1518C43.1719 78.869 47.4544 74.5864 52.7373 74.5864C58.0201 74.5864 62.3026 78.869 62.3026 84.1518C62.3026 89.4346 58.0201 93.7172 52.7373 93.7172V91.7381C56.9271 91.7381 60.3236 88.3416 60.3236 84.1518Z" fill="url(#paint11_linear_2125_10168)"/>
<path d="M44.4762 60.7332C44.4762 62.5549 43.1471 64.0316 41.5076 64.0316C39.8681 64.0316 38.5391 62.5549 38.5391 60.7332C38.5391 58.9116 39.8681 57.4348 41.5076 57.4348C43.1471 57.4348 44.4762 58.9116 44.4762 60.7332Z" fill="url(#paint12_linear_2125_10168)"/>
<path d="M107.156 58.754C107.156 60.5756 105.827 62.0524 104.187 62.0524C102.548 62.0524 101.219 60.5756 101.219 58.754C101.219 56.9323 102.548 55.4556 104.187 55.4556C105.827 55.4556 107.156 56.9323 107.156 58.754Z" fill="url(#paint13_linear_2125_10168)"/>
<path d="M33.0788 108.23V107.621C32.4522 107.538 31.8353 107.366 31.2982 107.068C30.3784 106.558 29.6909 105.669 29.6908 104.4C29.6908 103.854 30.134 103.411 30.6804 103.411C31.2269 103.411 31.6699 103.854 31.6699 104.4C31.6699 104.833 31.8586 105.115 32.258 105.337C32.4799 105.46 32.7591 105.555 33.0788 105.617V102.536C32.8818 102.505 32.6849 102.472 32.4938 102.431C32.0059 102.329 31.4838 102.178 31.0211 101.915C30.5416 101.643 30.1081 101.239 29.8558 100.644C29.6089 100.063 29.5796 99.4038 29.7063 98.6936C29.9287 97.4477 30.6309 96.5906 31.5597 96.1039C32.0371 95.8537 32.5567 95.7098 33.0788 95.6433V95.0364C33.0788 94.49 33.5219 94.047 34.0683 94.0469C34.6148 94.0469 35.0578 94.4899 35.0578 95.0364V95.7193C35.756 95.8529 36.4226 96.0911 36.9699 96.4041C37.328 96.6089 37.6711 96.8661 37.9356 97.181C38.1991 97.4948 38.4303 97.924 38.4303 98.4417C38.4303 98.9882 37.9873 99.4313 37.4408 99.4313C36.9148 99.4312 36.4852 99.0205 36.4539 98.5023C36.4476 98.4923 36.4384 98.4755 36.4204 98.454C36.3491 98.3691 36.2109 98.2494 35.9874 98.1216C35.732 97.9755 35.4117 97.8465 35.0578 97.7499V100.825C35.8135 100.95 36.6377 101.145 37.312 101.55C37.8074 101.848 38.2479 102.271 38.534 102.867C38.8168 103.456 38.9132 104.14 38.8497 104.907C38.76 105.991 37.8536 106.665 37.0936 107.029C36.4932 107.316 35.7841 107.51 35.0578 107.607V108.23C35.0578 108.777 34.6148 109.22 34.0683 109.22C33.5219 109.219 33.0788 108.776 33.0788 108.23ZM35.0578 105.605C35.5028 105.525 35.9118 105.4 36.24 105.243C36.8432 104.954 36.8788 104.724 36.8771 104.744C36.9193 104.235 36.8442 103.921 36.7496 103.724C36.6583 103.534 36.5155 103.381 36.2922 103.246C35.9781 103.058 35.5665 102.935 35.0578 102.836V105.605ZM33.0788 97.6494C32.8561 97.6964 32.6537 97.7656 32.4784 97.8574C32.077 98.0678 31.7664 98.4136 31.6544 99.0409C31.5723 99.5008 31.6245 99.7463 31.6776 99.8713C31.7253 99.9834 31.8109 100.088 31.9984 100.195C32.203 100.311 32.4968 100.41 32.9016 100.495C32.9597 100.507 33.019 100.517 33.0788 100.528V97.6494Z" fill="url(#paint14_linear_2125_10168)"/>
<path d="M110.274 23.7908V23.1814C109.647 23.0992 109.031 22.9265 108.493 22.6286C107.574 22.1187 106.886 21.2299 106.886 19.9609C106.886 19.4145 107.329 18.9715 107.876 18.9714C108.422 18.9714 108.865 19.4144 108.865 19.9609C108.865 20.3943 109.054 20.6762 109.453 20.8976C109.675 21.0206 109.954 21.1156 110.274 21.1779V18.0972C110.077 18.0657 109.88 18.0324 109.689 17.9922C109.201 17.8895 108.679 17.739 108.216 17.4762C107.737 17.2038 107.303 16.7994 107.051 16.2051C106.804 15.6237 106.775 14.9646 106.902 14.2544C107.124 13.0085 107.826 12.1514 108.755 11.6647C109.232 11.4145 109.752 11.2706 110.274 11.204V10.5972C110.274 10.0508 110.717 9.60782 111.264 9.60767C111.81 9.60767 112.253 10.0507 112.253 10.5972V11.2801C112.951 11.4137 113.618 11.6519 114.165 11.9649C114.523 12.1697 114.866 12.4269 115.131 12.7418C115.394 13.0556 115.626 13.4848 115.626 14.0025C115.626 14.549 115.183 14.9921 114.636 14.9921C114.11 14.992 113.681 14.5813 113.649 14.0631C113.643 14.053 113.634 14.0363 113.616 14.0148C113.544 13.9299 113.406 13.8102 113.183 13.6824C112.927 13.5363 112.607 13.4073 112.253 13.3106V16.3855C113.009 16.5106 113.833 16.7054 114.507 17.1109C115.003 17.4088 115.443 17.8315 115.729 18.4277C116.012 19.0167 116.108 19.7008 116.045 20.4679C115.955 21.5519 115.049 22.226 114.289 22.5893C113.689 22.8763 112.979 23.0705 112.253 23.1679V23.7908C112.253 24.3373 111.81 24.7803 111.264 24.7803C110.717 24.7802 110.274 24.3372 110.274 23.7908ZM112.253 21.1663C112.698 21.0862 113.107 20.9605 113.435 20.8036C114.039 20.5152 114.074 20.2849 114.072 20.3049C114.115 19.7954 114.04 19.4818 113.945 19.2845C113.854 19.0944 113.711 18.9415 113.487 18.8071C113.173 18.6183 112.762 18.4956 112.253 18.3968V21.1663ZM110.274 13.2101C110.051 13.2572 109.849 13.3264 109.674 13.4182C109.272 13.6286 108.962 13.9744 108.85 14.6017C108.768 15.0616 108.82 15.3071 108.873 15.4321C108.921 15.5442 109.006 15.6489 109.194 15.7555C109.398 15.8717 109.692 15.9705 110.097 16.0557C110.155 16.0679 110.214 16.0779 110.274 16.0892V13.2101Z" fill="url(#paint15_linear_2125_10168)"/>
<path d="M12.1706 71.2881H8.85938L8.85938 64.1567C9.25046 59.986 13.1614 59.3424 14.6475 59.4196C16.1336 59.4969 20.4356 59.6514 20.7224 64.9033C20.9519 69.1049 17.6024 70.9105 15.899 71.2881H13.6828L13.6828 67.9412C15.9772 67.9824 16.9332 67.7868 17.1244 67.6838V64.9033C17.1157 64.2425 16.6082 62.9107 14.6475 62.8695C12.6868 62.8283 12.1793 64.2082 12.1706 64.9033L12.1706 71.2881Z" fill="white"/>
<path d="M18.767 62.4693C18.0787 60.4097 15.6296 59.5597 14.5432 59.4138C19.0538 59.4138 20.3313 62.0656 20.5921 63.8162C19.9455 66.1642 17.9848 67.4205 17.1244 67.678V66.2877C17.95 65.8758 19.4553 64.5289 18.767 62.4693Z" fill="url(#paint16_linear_2125_10168)"/>
<path d="M127.616 59.4138H124.305V52.2825C124.696 48.1118 128.607 47.4681 130.093 47.5454C131.579 47.6226 135.881 47.7771 136.168 53.0291C136.397 57.2306 133.048 59.0362 131.344 59.4138H129.128V56.067C131.423 56.1082 132.379 55.9125 132.57 55.8095V53.0291C132.561 52.3683 132.053 51.0364 130.093 50.9952C128.132 50.954 127.625 52.3339 127.616 53.0291V59.4138Z" fill="white"/>
<path d="M134.212 50.595C133.524 48.5354 131.075 47.6855 129.989 47.5396C134.499 47.5396 135.777 50.1913 136.037 51.942C135.391 54.2899 133.43 55.5463 132.57 55.8037V54.4135C133.395 54.0016 134.901 52.6546 134.212 50.595Z" fill="url(#paint17_linear_2125_10168)"/>
<defs>
<linearGradient id="paint0_linear_2125_10168" x1="3.32842" y1="54.5551" x2="22.1892" y2="75.891" gradientUnits="userSpaceOnUse">
<stop stop-color="#1964FE"/>
<stop offset="1" stop-color="#00F2FE"/>
</linearGradient>
<linearGradient id="paint1_linear_2125_10168" x1="22.4612" y1="90.8373" x2="41.322" y2="112.173" gradientUnits="userSpaceOnUse">
<stop stop-color="#1964FE"/>
<stop offset="1" stop-color="#00F2FE"/>
</linearGradient>
<linearGradient id="paint2_linear_2125_10168" x1="99.9144" y1="6.39812" x2="118.775" y2="27.7341" gradientUnits="userSpaceOnUse">
<stop stop-color="#1964FE"/>
<stop offset="1" stop-color="#00F2FE"/>
</linearGradient>
<linearGradient id="paint3_linear_2125_10168" x1="141.695" y1="42.6806" x2="122.834" y2="64.0165" gradientUnits="userSpaceOnUse">
<stop stop-color="#1964FE"/>
<stop offset="1" stop-color="#00F2FE"/>
</linearGradient>
<linearGradient id="paint4_linear_2125_10168" x1="38.8294" y1="1.19836" x2="92.358" y2="45.8929" gradientUnits="userSpaceOnUse">
<stop stop-color="#1964FE"/>
<stop offset="1" stop-color="#00F2FE"/>
</linearGradient>
<linearGradient id="paint5_linear_2125_10168" x1="63.8314" y1="126.06" x2="91.684" y2="51.2316" gradientUnits="userSpaceOnUse">
<stop stop-color="#1964FE"/>
<stop offset="1" stop-color="#00F2FE"/>
</linearGradient>
<linearGradient id="paint6_linear_2125_10168" x1="63.6545" y1="126.427" x2="91.7117" y2="50.9002" gradientUnits="userSpaceOnUse">
<stop stop-color="#1964FE"/>
<stop offset="1" stop-color="#00F2FE"/>
</linearGradient>
<linearGradient id="paint7_linear_2125_10168" x1="23.5395" y1="59.7635" x2="50.7019" y2="87.9549" gradientUnits="userSpaceOnUse">
<stop stop-color="#1964FE"/>
<stop offset="1" stop-color="#00F2FE"/>
</linearGradient>
<linearGradient id="paint8_linear_2125_10168" x1="121.484" y1="59.7235" x2="94.3215" y2="31.5322" gradientUnits="userSpaceOnUse">
<stop stop-color="#1964FE"/>
<stop offset="1" stop-color="#00F2FE"/>
</linearGradient>
<linearGradient id="paint9_linear_2125_10168" x1="84.8949" y1="26.1169" x2="100.52" y2="39.9145" gradientUnits="userSpaceOnUse">
<stop stop-color="#1964FE"/>
<stop offset="1" stop-color="#00F2FE"/>
</linearGradient>
<linearGradient id="paint10_linear_2125_10168" x1="88.4729" y1="30.5671" x2="96.555" y2="37.7038" gradientUnits="userSpaceOnUse">
<stop stop-color="#1964FE"/>
<stop offset="1" stop-color="#00F2FE"/>
</linearGradient>
<linearGradient id="paint11_linear_2125_10168" x1="45.3246" y1="74.9333" x2="60.95" y2="88.7309" gradientUnits="userSpaceOnUse">
<stop stop-color="#1964FE"/>
<stop offset="1" stop-color="#00F2FE"/>
</linearGradient>
<linearGradient id="paint12_linear_2125_10168" x1="39.2072" y1="57.5544" x2="44.4967" y2="61.7582" gradientUnits="userSpaceOnUse">
<stop stop-color="#1964FE"/>
<stop offset="1" stop-color="#00F2FE"/>
</linearGradient>
<linearGradient id="paint13_linear_2125_10168" x1="101.887" y1="55.5752" x2="107.176" y2="59.7789" gradientUnits="userSpaceOnUse">
<stop stop-color="#1964FE"/>
<stop offset="1" stop-color="#00F2FE"/>
</linearGradient>
<linearGradient id="paint14_linear_2125_10168" x1="30.6721" y1="94.322" x2="41.088" y2="99.9205" gradientUnits="userSpaceOnUse">
<stop stop-color="#1964FE"/>
<stop offset="1" stop-color="#00F2FE"/>
</linearGradient>
<linearGradient id="paint15_linear_2125_10168" x1="107.867" y1="9.88277" x2="118.283" y2="15.4813" gradientUnits="userSpaceOnUse">
<stop stop-color="#1964FE"/>
<stop offset="1" stop-color="#00F2FE"/>
</linearGradient>
<linearGradient id="paint16_linear_2125_10168" x1="17.5937" y1="59.4138" x2="17.5937" y2="67.5925" gradientUnits="userSpaceOnUse">
<stop stop-color="#7293FA"/>
<stop offset="0.1593" stop-color="#81ABFF"/>
<stop offset="0.500398" stop-color="#ABC6FB"/>
<stop offset="1" stop-color="#BCD3FC"/>
</linearGradient>
<linearGradient id="paint17_linear_2125_10168" x1="133.039" y1="47.5396" x2="133.039" y2="55.7182" gradientUnits="userSpaceOnUse">
<stop stop-color="#7293FA"/>
<stop offset="0.1593" stop-color="#81ABFF"/>
<stop offset="0.500398" stop-color="#ABC6FB"/>
<stop offset="1" stop-color="#BCD3FC"/>
</linearGradient>
</defs>
</svg>
