<svg width="136" height="142" viewBox="0 0 136 142" fill="none" xmlns="http://www.w3.org/2000/svg">
<path d="M66.2426 66.1701L9.16478 52.8519C8.36527 52.6653 8.47038 51.4957 9.29035 51.4547L68.0034 48.519L127.369 51.4547C128.191 51.4953 128.295 52.6675 127.494 52.8523L69.765 66.1744C68.606 66.4418 67.4011 66.4404 66.2426 66.1701Z" fill="url(#paint0_linear_2125_10140)"/>
<path d="M24.0859 29.3945V47.4564H21.9609V29.3945H24.0859ZM112.979 29.3945V47.4564H110.854V29.3945H112.979ZM80.7505 36.8318V38.9567H53.1265V36.8318H80.7505ZM105.006 23.0336L104.833 24.0822L104.751 24.5733L105.64 26.4603L93.5983 32.1268L92.6935 30.2038L103.781 24.9856L74.557 20.1727L74.9028 18.0754L105.006 23.0336ZM60.0304 20.172L30.7788 25.0472L40.1819 30.235L39.1554 32.0957L28.8849 26.4292L29.9114 24.5685L30.2151 24.7359L29.9315 23.0343L59.6804 18.0761L60.0304 20.172ZM62.32 22.0534L52.0495 30.9073L50.6619 29.2984L60.9324 20.4445L62.32 22.0534ZM82.9038 29.3371L81.4304 30.8686L72.2224 22.0147L73.6958 20.4833L82.9038 29.3371Z" fill="url(#paint1_linear_2125_10140)"/>
<path d="M116.877 21.9577C116.877 24.696 114.657 26.9158 111.919 26.9158C109.181 26.9158 106.961 24.696 106.961 21.9577C106.961 19.2194 109.181 16.9995 111.919 16.9995C114.657 16.9995 116.877 19.2194 116.877 21.9577Z" fill="url(#paint2_linear_2125_10140)"/>
<path d="M27.6273 21.9577C27.6273 24.696 25.4074 26.9158 22.6691 26.9158C19.9308 26.9158 17.7109 24.696 17.7109 21.9577C17.7109 19.2194 19.9308 16.9995 22.6691 16.9995C25.4074 16.9995 27.6273 19.2194 27.6273 21.9577Z" fill="url(#paint3_linear_2125_10140)"/>
<path d="M50.2888 35.4156C50.2888 37.7627 48.386 39.6655 46.0389 39.6655C43.6918 39.6655 41.7891 37.7627 41.7891 35.4156C41.7891 33.0685 43.6918 31.1658 46.0389 31.1658C48.386 31.1658 50.2888 33.0685 50.2888 35.4156Z" fill="url(#paint4_linear_2125_10140)"/>
<path d="M92.0856 35.4156C92.0856 37.7627 90.1829 39.6655 87.8358 39.6655C85.4887 39.6655 83.5859 37.7627 83.5859 35.4156C83.5859 33.0685 85.4887 31.1658 87.8358 31.1658C90.1829 31.1658 92.0856 33.0685 92.0856 35.4156Z" fill="url(#paint5_linear_2125_10140)"/>
<path d="M29.0385 21.9575C29.0385 18.4368 26.1844 15.5827 22.6638 15.5827C19.1431 15.5827 16.289 18.4368 16.289 21.9575C16.289 25.4781 19.1431 28.3322 22.6638 28.3322V30.4572C17.9695 30.4572 14.1641 26.6517 14.1641 21.9575C14.1641 17.2632 17.9695 13.4578 22.6638 13.4578C27.358 13.4578 31.1635 17.2632 31.1635 21.9575C31.1635 26.6517 27.358 30.4572 22.6638 30.4572V28.3322C26.1844 28.3322 29.0385 25.4781 29.0385 21.9575Z" fill="url(#paint6_linear_2125_10140)"/>
<path d="M81.4599 13.812C81.4599 21.4402 75.2761 27.624 67.6479 27.624C60.0198 27.624 53.8359 21.4402 53.8359 13.812C53.8359 6.18385 60.0198 0 67.6479 0C75.2761 0 81.4599 6.18385 81.4599 13.812Z" fill="#1964FE"/>
<path d="M79.335 13.812C79.335 7.35741 74.1025 2.12492 67.6479 2.12492C61.1933 2.12492 55.9609 7.35741 55.9609 13.812C55.9609 20.2666 61.1933 25.4991 67.6479 25.4991V27.624C60.0198 27.624 53.8359 21.4402 53.8359 13.812C53.8359 6.18385 60.0198 0 67.6479 0C75.2761 0 81.4599 6.18385 81.4599 13.812C81.4599 21.4402 75.2761 27.624 67.6479 27.624V25.4991C74.1025 25.4991 79.335 20.2666 79.335 13.812Z" fill="#1964FE"/>
<path d="M118.281 21.9575C118.281 18.4368 115.427 15.5827 111.906 15.5827C108.385 15.5827 105.531 18.4368 105.531 21.9575C105.531 25.4781 108.385 28.3322 111.906 28.3322V30.4572C107.212 30.4572 103.406 26.6517 103.406 21.9575C103.406 17.2632 107.212 13.4578 111.906 13.4578C116.6 13.4578 120.406 17.2632 120.406 21.9575C120.406 26.6517 116.6 30.4572 111.906 30.4572V28.3322C115.427 28.3322 118.281 25.4781 118.281 21.9575Z" fill="url(#paint7_linear_2125_10140)"/>
<path d="M51.7079 35.4154C51.7079 32.2859 49.1709 29.7489 46.0414 29.7489C42.9119 29.7489 40.3749 32.2859 40.3749 35.4154C40.3749 38.5449 42.9119 41.0819 46.0414 41.0819V43.2068C41.7383 43.2068 38.25 39.7185 38.25 35.4154C38.25 31.1123 41.7383 27.624 46.0414 27.624C50.3445 27.624 53.8328 31.1123 53.8328 35.4154C53.8328 39.7185 50.3445 43.2068 46.0414 43.2068V41.0819C49.1709 41.0819 51.7079 38.5449 51.7079 35.4154Z" fill="url(#paint8_linear_2125_10140)"/>
<path d="M93.4891 35.4154C93.4891 32.2859 90.9521 29.7489 87.8226 29.7489C84.6931 29.7489 82.1562 32.2859 82.1562 35.4154C82.1562 38.5449 84.6931 41.0819 87.8226 41.0819V43.2068C83.5196 43.2068 80.0312 39.7185 80.0312 35.4154C80.0312 31.1123 83.5196 27.624 87.8226 27.624C92.1257 27.624 95.614 31.1123 95.614 35.4154C95.614 39.7185 92.1257 43.2068 87.8226 43.2068V41.0819C90.9521 41.0819 93.4891 38.5449 93.4891 35.4154Z" fill="url(#paint9_linear_2125_10140)"/>
<path d="M0 72.3803V56.5319C0.000215014 55.1562 1.28788 54.1434 2.62503 54.4672L65.6644 69.729C66.6178 69.9598 67.2893 70.8135 67.2893 71.7944V88.9695L67.2851 89.0989C67.2091 90.382 66.0102 91.3065 64.75 91.0536L64.6234 91.0246L1.58401 74.4354C0.708828 74.205 0.0824384 73.4485 0.00760878 72.5595L0 72.3803ZM2.12492 72.3803L65.1643 88.9695V71.7944L2.12492 56.5319V72.3803Z" fill="url(#paint10_linear_2125_10140)"/>
<path d="M4.3987 63.4021C4.3987 62.0111 5.713 60.9952 7.0591 61.3457L31.7151 67.7662C32.6528 68.0103 33.3065 68.8578 33.3046 69.8267L33.2954 74.4373C33.2926 75.8341 31.9659 76.8484 30.6172 76.4847L5.97034 69.8379C5.043 69.5878 4.3987 68.7467 4.3987 67.7863L4.3987 63.4021Z" fill="url(#paint11_linear_2125_10140)"/>
<path d="M4.3987 63.4026C4.3987 62.0116 5.7132 60.9957 7.05929 61.3462L31.7151 67.7663C32.6527 68.0104 33.3062 68.8581 33.3043 69.8269L33.2956 74.4377C33.2928 75.791 32.0473 76.7848 30.7432 76.5147L30.6172 76.4848L5.97029 69.838C5.10097 69.6035 4.48029 68.85 4.40607 67.9653L4.39892 67.7867L4.3987 63.4026ZM6.52351 67.7864L31.1704 74.4332L31.1798 69.8231L6.52328 63.4023L6.52351 67.7864Z" fill="url(#paint12_linear_2125_10140)"/>
<path d="M4.42441 87.4553C4.42441 86.062 5.7427 85.0458 7.09007 85.4003L31.73 91.8838C32.6636 92.1295 33.3142 92.9735 33.3142 93.9388L33.3142 98.5046C33.3142 99.9061 31.9812 100.924 30.6292 100.554L5.98923 93.8214C5.06526 93.5689 4.42441 92.7295 4.42441 91.7716L4.42441 87.4553Z" fill="url(#paint13_linear_2125_10140)"/>
<path d="M4.42441 87.4554C4.42444 86.0622 5.74301 85.0458 7.09037 85.4003L31.7304 91.8841C32.6638 92.1298 33.3145 92.9738 33.3145 93.9391L33.3143 98.5046C33.3143 99.9062 31.9811 100.924 30.6291 100.554L5.98936 93.8217C5.12313 93.5849 4.50567 92.8322 4.43191 91.9498L4.42451 91.7719L4.42441 87.4554ZM6.54921 91.7715L31.1896 98.505L31.1898 93.9388L6.54978 87.4557L6.54921 91.7715Z" fill="url(#paint14_linear_2125_10140)"/>
<path d="M4.37334 113.015C4.37334 111.626 5.6834 110.611 7.02813 110.957L31.7078 117.312C32.6467 117.554 33.3029 118.4 33.3029 119.37L33.3029 124.014C33.3029 125.412 31.9756 126.429 30.6254 126.066L5.94566 119.419C5.01797 119.169 4.37334 118.328 4.37334 117.367L4.37334 113.015Z" fill="url(#paint15_linear_2125_10140)"/>
<path d="M4.37333 113.015C4.37333 111.627 5.6835 110.611 7.02823 110.957L31.7077 117.312C32.6465 117.554 33.3031 118.4 33.3031 119.37L33.303 124.014C33.303 125.369 32.057 126.366 30.7515 126.096L30.6254 126.066L5.94557 119.419C5.07588 119.185 4.45471 118.431 4.38048 117.546L4.37354 117.367L4.37333 113.015ZM6.49802 117.368L31.1771 124.013L31.1779 119.37L6.4985 113.015L6.49802 117.368Z" fill="url(#paint16_linear_2125_10140)"/>
<path d="M133.325 77.9241C134.674 77.5619 136 78.5789 136 79.9764V97.525C136 98.4903 135.35 99.3344 134.416 99.5801L71.3768 116.169C70.0294 116.524 68.7109 115.507 68.7109 114.114V96.8969C68.7111 95.9357 69.3568 95.0939 70.2853 94.8447L133.325 77.9241ZM127.5 84.9968C124.762 84.9968 122.542 87.2167 122.542 89.955C122.542 92.6933 124.762 94.9131 127.5 94.9131C130.239 94.9131 132.459 92.6933 132.459 89.955C132.459 87.2167 130.239 84.9968 127.5 84.9968Z" fill="url(#paint17_linear_2125_10140)"/>
<path d="M133.325 103.423C134.674 103.061 136 104.078 136 105.475V123.024C136 123.989 135.35 124.833 134.416 125.079L71.3768 141.668C70.0294 142.023 68.7109 141.007 68.7109 139.613V122.396C68.7111 121.435 69.3568 120.593 70.2853 120.344L133.325 103.423ZM127.5 110.496C124.762 110.496 122.542 112.716 122.542 115.454C122.542 118.192 124.762 120.412 127.5 120.412C130.239 120.412 132.459 118.192 132.459 115.454C132.459 112.716 130.239 110.496 127.5 110.496Z" fill="url(#paint18_linear_2125_10140)"/>
<path d="M0 97.5252V79.9759C0.000146423 78.5785 1.32591 77.5615 2.67552 77.9236L65.7149 94.8448C66.6434 95.094 67.2892 95.9357 67.2893 96.8971V114.114L67.2851 114.244C67.2091 115.527 66.0102 116.451 64.75 116.198L64.6234 116.169L1.58401 99.5802C0.708828 99.3499 0.0824384 98.5934 0.00760878 97.7043L0 97.5252ZM2.12492 97.5252L65.1643 114.114V96.8971L2.12492 79.9759V97.5252Z" fill="url(#paint19_linear_2125_10140)"/>
<path d="M0 123.024V105.475C0.000146423 104.078 1.32591 103.061 2.67552 103.423L65.7149 120.344C66.6434 120.593 67.2892 121.435 67.2893 122.396V139.613L67.2851 139.743C67.2091 141.026 66.0102 141.95 64.75 141.698L64.6234 141.668L1.58401 125.079C0.708828 124.849 0.0824384 124.092 0.00760878 123.203L0 123.024ZM2.12492 123.024L65.1643 139.613V122.396L2.12492 105.475V123.024Z" fill="url(#paint20_linear_2125_10140)"/>
<path d="M133.365 54.4829C134.705 54.1515 136 55.1654 136 56.5455V72.7343C136 73.6993 135.349 74.5429 134.416 74.7886L71.3768 91.3785C70.0295 91.7331 68.7111 90.7166 68.7109 89.3235V72.1394C68.7111 71.1625 69.3771 70.3114 70.3254 70.0767L133.365 54.4829ZM127.5 61.6227C124.762 61.6227 122.542 63.8425 122.542 66.5808C122.542 69.3191 124.762 71.539 127.5 71.539C130.239 71.539 132.459 69.3191 132.459 66.5808C132.459 63.8425 130.239 61.6227 127.5 61.6227Z" fill="url(#paint21_linear_2125_10140)"/>
<path d="M65.1479 21.8745H61V12.9413C61.4899 7.7168 66.3889 6.91055 68.2506 7.0073C70.1122 7.10405 75.5012 7.29755 75.8604 13.8765C76.1478 19.1397 71.9521 21.4015 69.8183 21.8745H67.0422V17.682C69.9163 17.7336 71.1138 17.4885 71.3533 17.3595V13.8765C71.3424 13.0488 70.7066 11.3804 68.2506 11.3288C65.7945 11.2772 65.1587 13.0058 65.1479 13.8765V21.8745Z" fill="white"/>
<path d="M73.4109 10.8275C72.5487 8.24747 69.4808 7.18276 68.1199 7.00002C73.7702 7.00001 75.3705 10.3218 75.6971 12.5147C74.8871 15.4559 72.4311 17.0297 71.3533 17.3522V15.6107C72.3875 15.0947 74.2731 13.4074 73.4109 10.8275Z" fill="url(#paint22_linear_2125_10140)"/>
<defs>
<linearGradient id="paint0_linear_2125_10140" x1="4.52741" y1="50.5138" x2="10.3204" y2="85.5829" gradientUnits="userSpaceOnUse">
<stop stop-color="#1964FE"/>
<stop offset="1" stop-color="#00F2FE"/>
</linearGradient>
<linearGradient id="paint1_linear_2125_10140" x1="18.844" y1="21.3579" x2="37.6018" y2="73.9502" gradientUnits="userSpaceOnUse">
<stop stop-color="#1964FE"/>
<stop offset="1" stop-color="#00F2FE"/>
</linearGradient>
<linearGradient id="paint2_linear_2125_10140" x1="106.621" y1="18.1074" x2="116.576" y2="27.117" gradientUnits="userSpaceOnUse">
<stop stop-color="#1964FE"/>
<stop offset="1" stop-color="#00F2FE"/>
</linearGradient>
<linearGradient id="paint3_linear_2125_10140" x1="17.3713" y1="18.1074" x2="27.326" y2="27.117" gradientUnits="userSpaceOnUse">
<stop stop-color="#1964FE"/>
<stop offset="1" stop-color="#00F2FE"/>
</linearGradient>
<linearGradient id="paint4_linear_2125_10140" x1="41.498" y1="32.1154" x2="50.0305" y2="39.8379" gradientUnits="userSpaceOnUse">
<stop stop-color="#1964FE"/>
<stop offset="1" stop-color="#00F2FE"/>
</linearGradient>
<linearGradient id="paint5_linear_2125_10140" x1="83.2949" y1="32.1154" x2="91.8274" y2="39.8379" gradientUnits="userSpaceOnUse">
<stop stop-color="#1964FE"/>
<stop offset="1" stop-color="#00F2FE"/>
</linearGradient>
<linearGradient id="paint6_linear_2125_10140" x1="13.5819" y1="15.3569" x2="30.647" y2="30.802" gradientUnits="userSpaceOnUse">
<stop stop-color="#1964FE"/>
<stop offset="1" stop-color="#00F2FE"/>
</linearGradient>
<linearGradient id="paint7_linear_2125_10140" x1="102.824" y1="15.3569" x2="119.889" y2="30.802" gradientUnits="userSpaceOnUse">
<stop stop-color="#1964FE"/>
<stop offset="1" stop-color="#00F2FE"/>
</linearGradient>
<linearGradient id="paint8_linear_2125_10140" x1="37.7164" y1="29.3649" x2="53.3593" y2="43.5229" gradientUnits="userSpaceOnUse">
<stop stop-color="#1964FE"/>
<stop offset="1" stop-color="#00F2FE"/>
</linearGradient>
<linearGradient id="paint9_linear_2125_10140" x1="79.4976" y1="29.3649" x2="95.1406" y2="43.5229" gradientUnits="userSpaceOnUse">
<stop stop-color="#1964FE"/>
<stop offset="1" stop-color="#00F2FE"/>
</linearGradient>
<linearGradient id="paint10_linear_2125_10140" x1="-2.30434" y1="58.5054" x2="30.417" y2="112.821" gradientUnits="userSpaceOnUse">
<stop stop-color="#1964FE"/>
<stop offset="1" stop-color="#00F2FE"/>
</linearGradient>
<linearGradient id="paint11_linear_2125_10140" x1="3.4114" y1="62.8771" x2="15.7995" y2="85.8257" gradientUnits="userSpaceOnUse">
<stop stop-color="#1964FE"/>
<stop offset="1" stop-color="#00F2FE"/>
</linearGradient>
<linearGradient id="paint12_linear_2125_10140" x1="3.4114" y1="62.8776" x2="15.7989" y2="85.8259" gradientUnits="userSpaceOnUse">
<stop stop-color="#1964FE"/>
<stop offset="1" stop-color="#00F2FE"/>
</linearGradient>
<linearGradient id="paint13_linear_2125_10140" x1="3.43787" y1="86.9173" x2="15.7043" y2="109.868" gradientUnits="userSpaceOnUse">
<stop stop-color="#1964FE"/>
<stop offset="1" stop-color="#00F2FE"/>
</linearGradient>
<linearGradient id="paint14_linear_2125_10140" x1="3.43786" y1="86.9173" x2="15.7044" y2="109.868" gradientUnits="userSpaceOnUse">
<stop stop-color="#1964FE"/>
<stop offset="1" stop-color="#00F2FE"/>
</linearGradient>
<linearGradient id="paint15_linear_2125_10140" x1="3.38444" y1="112.502" x2="15.8799" y2="135.447" gradientUnits="userSpaceOnUse">
<stop stop-color="#1964FE"/>
<stop offset="1" stop-color="#00F2FE"/>
</linearGradient>
<linearGradient id="paint16_linear_2125_10140" x1="3.38444" y1="112.502" x2="15.8797" y2="135.447" gradientUnits="userSpaceOnUse">
<stop stop-color="#1964FE"/>
<stop offset="1" stop-color="#00F2FE"/>
</linearGradient>
<linearGradient id="paint17_linear_2125_10140" x1="66.4066" y1="82.1393" x2="101.35" y2="137.573" gradientUnits="userSpaceOnUse">
<stop stop-color="#1964FE"/>
<stop offset="1" stop-color="#00F2FE"/>
</linearGradient>
<linearGradient id="paint18_linear_2125_10140" x1="66.4066" y1="107.638" x2="101.35" y2="163.072" gradientUnits="userSpaceOnUse">
<stop stop-color="#1964FE"/>
<stop offset="1" stop-color="#00F2FE"/>
</linearGradient>
<linearGradient id="paint19_linear_2125_10140" x1="-2.30434" y1="82.1388" x2="32.6394" y2="137.573" gradientUnits="userSpaceOnUse">
<stop stop-color="#1964FE"/>
<stop offset="1" stop-color="#00F2FE"/>
</linearGradient>
<linearGradient id="paint20_linear_2125_10140" x1="-2.30434" y1="107.638" x2="32.6394" y2="163.072" gradientUnits="userSpaceOnUse">
<stop stop-color="#1964FE"/>
<stop offset="1" stop-color="#00F2FE"/>
</linearGradient>
<linearGradient id="paint21_linear_2125_10140" x1="66.4066" y1="58.5566" x2="99.5741" y2="113.106" gradientUnits="userSpaceOnUse">
<stop stop-color="#1964FE"/>
<stop offset="1" stop-color="#00F2FE"/>
</linearGradient>
<linearGradient id="paint22_linear_2125_10140" x1="71.9412" y1="7" x2="71.9412" y2="17.2452" gradientUnits="userSpaceOnUse">
<stop stop-color="#7293FA"/>
<stop offset="0.1593" stop-color="#81ABFF"/>
<stop offset="0.500398" stop-color="#ABC6FB"/>
<stop offset="1" stop-color="#BCD3FC"/>
</linearGradient>
</defs>
</svg>
