<svg width="136" height="123" viewBox="0 0 136 123" fill="none" xmlns="http://www.w3.org/2000/svg">
<path d="M20.9707 82.6119C20.9707 77.3475 16.703 73.0798 11.4386 73.0798C6.17412 73.0798 1.90643 77.3475 1.90643 82.6119C1.90643 87.8764 6.17412 92.1441 11.4386 92.1441V94.0505C5.12123 94.0505 0 88.9293 0 82.6119C0 76.2946 5.12123 71.1733 11.4386 71.1733C17.7559 71.1733 22.8772 76.2946 22.8772 82.6119C22.8772 88.9293 17.7559 94.0505 11.4386 94.0505V92.1441C16.703 92.1441 20.9707 87.8764 20.9707 82.6119Z" fill="url(#paint0_linear_2125_10191)"/>
<path d="M73.0879 102.947C73.0879 97.6829 68.8202 93.4152 63.5558 93.4152C58.2913 93.4152 54.0236 97.6829 54.0236 102.947C54.0236 108.212 58.2913 112.48 63.5558 112.48V114.386C57.2384 114.386 52.1172 109.265 52.1172 102.947C52.1172 96.63 57.2384 91.5088 63.5558 91.5088C69.8731 91.5088 74.9943 96.63 74.9943 102.947C74.9943 109.265 69.8731 114.386 63.5558 114.386V112.48C68.8202 112.48 73.0879 108.212 73.0879 102.947Z" fill="url(#paint1_linear_2125_10191)"/>
<path d="M45.111 114.068C45.111 118.806 41.2701 122.647 36.5321 122.647C31.794 122.647 27.9531 118.806 27.9531 114.068C27.9531 109.33 31.794 105.489 36.5321 105.489C41.2701 105.489 45.111 109.33 45.111 114.068Z" fill="url(#paint2_linear_2125_10191)"/>
<path d="M43.2046 114.068C43.2046 110.383 40.2172 107.395 36.5321 107.395C32.8469 107.395 29.8596 110.383 29.8596 114.068C29.8596 117.753 32.8469 120.74 36.5321 120.74V122.647C31.794 122.647 27.9531 118.806 27.9531 114.068C27.9531 109.33 31.794 105.489 36.5321 105.489C41.2701 105.489 45.111 109.33 45.111 114.068C45.111 118.806 41.2701 122.647 36.5321 122.647V120.74C40.2172 120.74 43.2046 117.753 43.2046 114.068Z" fill="url(#paint3_linear_2125_10191)"/>
<path d="M105.475 81.0233C105.475 85.0594 102.203 88.3313 98.1674 88.3313C94.1313 88.3313 90.8594 85.0594 90.8594 81.0233C90.8594 76.9872 94.1313 73.7153 98.1674 73.7153C102.203 73.7153 105.475 76.9872 105.475 81.0233Z" fill="url(#paint4_linear_2125_10191)"/>
<path d="M103.569 81.0233C103.569 78.0401 101.151 75.6218 98.1674 75.6218C95.1842 75.6218 92.7658 78.0401 92.7658 81.0233C92.7658 84.0065 95.1842 86.4249 98.1674 86.4249V88.3313C94.1313 88.3313 90.8594 85.0594 90.8594 81.0233C90.8594 76.9872 94.1313 73.7153 98.1674 73.7153C102.203 73.7153 105.475 76.9872 105.475 81.0233C105.475 85.0594 102.203 88.3313 98.1674 88.3313V86.4249C101.151 86.4249 103.569 84.0065 103.569 81.0233Z" fill="url(#paint5_linear_2125_10191)"/>
<path d="M134.093 64.5009C134.093 58.359 129.114 53.3801 122.973 53.3801C116.831 53.3801 111.852 58.359 111.852 64.5009C111.852 70.6428 116.831 75.6217 122.973 75.6217V77.5282C115.778 77.5282 109.945 71.6957 109.945 64.5009C109.945 57.3061 115.778 51.4736 122.973 51.4736C130.167 51.4736 136 57.3061 136 64.5009C136 71.6957 130.167 77.5282 122.973 77.5282V75.6217C129.114 75.6217 134.093 70.6428 134.093 64.5009Z" fill="url(#paint6_linear_2125_10191)"/>
<path d="M86.4199 94.3682C86.4199 96.2985 84.8551 97.8633 82.9248 97.8633C80.9945 97.8633 79.4297 96.2985 79.4297 94.3682C79.4297 92.4379 80.9945 90.873 82.9248 90.873C84.8551 90.873 86.4199 92.4379 86.4199 94.3682Z" fill="url(#paint7_linear_2125_10191)"/>
<path d="M40.0371 79.1165C40.0371 81.0468 38.4723 82.6116 36.542 82.6116C34.6117 82.6116 33.0469 81.0468 33.0469 79.1165C33.0469 77.1862 34.6117 75.6213 36.542 75.6213C38.4723 75.6213 40.0371 77.1862 40.0371 79.1165Z" fill="url(#paint8_linear_2125_10191)"/>
<path d="M103.588 11.4386C103.588 6.17412 99.3202 1.90643 94.0558 1.90643C88.7913 1.90643 84.5236 6.17412 84.5236 11.4386C84.5236 16.703 88.7913 20.9707 94.0558 20.9707V22.8772C87.7384 22.8772 82.6172 17.7559 82.6172 11.4386C82.6172 5.12123 87.7384 0 94.0558 0C100.373 0 105.494 5.12123 105.494 11.4386C105.494 17.7559 100.373 22.8772 94.0558 22.8772V20.9707C99.3202 20.9707 103.588 16.703 103.588 11.4386Z" fill="url(#paint9_linear_2125_10191)"/>
<path d="M97.2429 8.26157C97.2429 6.50675 95.8203 5.08419 94.0655 5.08419C92.3107 5.08419 90.8881 6.50675 90.8881 8.26157C90.8881 10.0164 92.3107 11.439 94.0655 11.439V12.7099C91.6088 12.7099 89.6172 10.7183 89.6172 8.26157C89.6172 5.80482 91.6088 3.81323 94.0655 3.81323C96.5223 3.81323 98.5139 5.80482 98.5139 8.26157C98.5139 10.7183 96.5223 12.7099 94.0655 12.7099V11.439C95.8203 11.439 97.2429 10.0164 97.2429 8.26157Z" fill="url(#paint10_linear_2125_10191)"/>
<path d="M99.7766 19.3819C99.7766 18.2985 99.6483 16.6055 98.8705 15.2017C98.4875 14.5104 97.9506 13.896 97.1937 13.451C96.4365 13.0059 95.4233 12.7094 94.0561 12.7094C91.3442 12.7094 89.8909 13.8199 89.1144 15.1371C88.3088 16.5036 88.1848 18.1774 88.3312 19.3C88.3764 19.6479 88.1311 19.9664 87.7832 20.0118C87.4353 20.0571 87.1168 19.8118 87.0714 19.4639C86.9001 18.1505 87.0301 16.1702 88.0197 14.4917C89.0383 12.764 90.9216 11.4385 94.0561 11.4385C95.612 11.4385 96.8552 11.7775 97.8379 12.3551C98.8206 12.9328 99.5075 13.7285 99.9826 14.5861C100.921 16.2802 101.048 18.2412 101.048 19.3819C101.048 19.7329 100.763 20.0174 100.412 20.0174C100.061 20.0174 99.7766 19.7329 99.7766 19.3819Z" fill="url(#paint11_linear_2125_10191)"/>
<path d="M14.6726 79.4349C14.6726 77.6801 13.25 76.2575 11.4952 76.2575C9.74039 76.2575 8.31783 77.6801 8.31783 79.4349C8.31783 81.1897 9.74039 82.6123 11.4952 82.6123V83.8832C9.03846 83.8832 7.04688 81.8917 7.04688 79.4349C7.04688 76.9782 9.03846 74.9866 11.4952 74.9866C13.952 74.9866 15.9435 76.9782 15.9435 79.4349C15.9435 81.8917 13.952 83.8832 11.4952 83.8832V82.6123C13.25 82.6123 14.6726 81.1897 14.6726 79.4349Z" fill="url(#paint12_linear_2125_10191)"/>
<path d="M66.7898 100.405C66.7898 98.6505 65.3672 97.228 63.6124 97.228C61.8576 97.228 60.435 98.6505 60.435 100.405C60.435 102.16 61.8576 103.583 63.6124 103.583V104.854C61.1557 104.854 59.1641 102.862 59.1641 100.405C59.1641 97.9486 61.1557 95.957 63.6124 95.957C66.0691 95.957 68.0607 97.9486 68.0607 100.405C68.0607 102.862 66.0691 104.854 63.6124 104.854V103.583C65.3672 103.583 66.7898 102.16 66.7898 100.405Z" fill="url(#paint13_linear_2125_10191)"/>
<path d="M17.2063 90.5553C17.2063 89.4719 17.078 87.7788 16.3002 86.375C15.9172 85.6838 15.3803 85.0693 14.6234 84.6244C13.8662 84.1793 12.853 83.8828 11.4857 83.8828C8.77387 83.8828 7.32063 84.9933 6.54405 86.3105C5.73849 87.6769 5.61444 89.3507 5.76087 90.4734C5.80612 90.8213 5.56083 91.1398 5.2129 91.1852C4.86498 91.2304 4.54647 90.9851 4.50109 90.6372C4.32983 89.3238 4.4598 87.3435 5.44934 85.6651C6.46797 83.9373 8.35125 82.6118 11.4857 82.6118C13.0417 82.6118 14.2849 82.9508 15.2676 83.5284C16.2503 84.1061 16.9372 84.9018 17.4123 85.7594C18.3508 87.4535 18.4772 89.4146 18.4772 90.5553C18.4772 90.9062 18.1927 91.1908 17.8418 91.1908C17.4908 91.1908 17.2063 90.9062 17.2063 90.5553Z" fill="url(#paint14_linear_2125_10191)"/>
<path d="M69.3235 111.526C69.3235 110.443 69.1952 108.75 68.4174 107.346C68.0344 106.655 67.4975 106.04 66.7406 105.595C65.9834 105.15 64.9702 104.854 63.6029 104.854C60.8911 104.854 59.4378 105.964 58.6612 107.281C57.8557 108.648 57.7316 110.322 57.8781 111.444C57.9233 111.792 57.678 112.111 57.3301 112.156C56.9822 112.201 56.6637 111.956 56.6183 111.608C56.447 110.295 56.577 108.314 57.5665 106.636C58.5852 104.908 60.4684 103.583 63.6029 103.583C65.1589 103.583 66.4021 103.922 67.3848 104.499C68.3675 105.077 69.0544 105.873 69.5295 106.73C70.468 108.424 70.5944 110.386 70.5944 111.526C70.5944 111.877 70.3099 112.162 69.9589 112.162C69.608 112.162 69.3235 111.877 69.3235 111.526Z" fill="url(#paint15_linear_2125_10191)"/>
<path d="M126.464 60.688C126.464 58.7576 124.9 57.1928 122.969 57.1928C121.039 57.1928 119.474 58.7576 119.474 60.688C119.474 62.6183 121.039 64.1831 122.969 64.1831V65.454C120.337 65.454 118.203 63.3202 118.203 60.688C118.203 58.0557 120.337 55.9219 122.969 55.9219C125.601 55.9219 127.735 58.0557 127.735 60.688C127.735 63.3202 125.601 65.454 122.969 65.454V64.1831C124.9 64.1831 126.464 62.6183 126.464 60.688Z" fill="url(#paint16_linear_2125_10191)"/>
<path d="M130.277 73.715C130.277 72.3909 130.118 70.303 129.134 68.5642C128.647 67.7054 127.962 66.9363 126.993 66.3785C126.022 65.8203 124.731 65.4538 123.005 65.4538C119.573 65.4539 117.713 66.8347 116.72 68.4823C115.698 70.1781 115.544 72.2464 115.728 73.6312C115.775 73.979 115.53 74.2985 115.182 74.3449C114.834 74.3912 114.515 74.1466 114.469 73.7988C114.258 72.2181 114.42 69.8379 115.632 67.8269C116.872 65.7677 119.163 64.1829 123.005 64.1829C124.915 64.1829 126.432 64.5901 127.626 65.2769C128.821 65.9641 129.658 66.9113 130.239 67.938C131.39 69.9706 131.548 72.3314 131.548 73.715C131.548 74.066 131.264 74.3505 130.913 74.3505C130.562 74.3505 130.277 74.066 130.277 73.715Z" fill="url(#paint17_linear_2125_10191)"/>
<path d="M84.9832 114.796C85.6342 114.534 86.3747 114.849 86.6371 115.5C86.8993 116.151 86.5842 116.891 85.9333 117.154C68.5117 124.174 50.4494 120.415 43.3496 117.466C42.7014 117.197 42.3941 116.453 42.6632 115.805C42.9324 115.157 43.6763 114.849 44.3245 115.119C50.9934 117.889 68.3433 121.502 84.9832 114.796ZM14.8748 91.714C15.4632 91.3315 16.2503 91.4985 16.6329 92.0869C17.9772 94.1552 20.2379 97.2453 22.938 100.218C25.6531 103.207 28.7345 105.99 31.7136 107.539C32.3364 107.863 32.5791 108.63 32.2554 109.253C31.9316 109.876 31.1641 110.118 30.5414 109.794C27.1659 108.039 23.8442 104.996 21.0564 101.927C18.2536 98.8413 15.9111 95.6403 14.5018 93.4721C14.1193 92.8836 14.2863 92.0965 14.8748 91.714ZM118.861 76.6239C119.009 75.9379 119.687 75.5022 120.373 75.6508C121.058 75.7996 121.494 76.476 121.346 77.1619C119.921 83.7382 113.912 98.7143 99.8896 109.361C99.3306 109.785 98.533 109.677 98.1085 109.118C97.6841 108.559 97.7934 107.761 98.3524 107.337C111.782 97.1396 117.532 82.7572 118.861 76.6239ZM8.31085 43.1428C8.52479 42.4743 9.24033 42.106 9.90885 42.3199C10.5772 42.5339 10.9455 43.2489 10.7317 43.9173C9.06446 49.1276 6.39591 61.5548 8.86131 72.1563C9.0203 72.84 8.59487 73.5233 7.91119 73.6823C7.22751 73.8413 6.54418 73.4159 6.38518 72.7322C3.76689 61.4734 6.58894 48.5238 8.31085 43.1428ZM101.651 17.2974C102.101 16.7583 102.902 16.6855 103.441 17.1348C109.287 22.0066 121.069 35.5031 122.64 51.9886C122.706 52.6874 122.193 53.3078 121.495 53.3744C120.796 53.4409 120.175 52.9281 120.109 52.2294C118.628 36.6872 107.406 23.7483 101.814 19.0878C101.275 18.6384 101.202 17.8367 101.651 17.2974ZM15.7504 28.556C23.4696 16.2706 47.6965 -5.31506 84.2596 6.09467C84.9296 6.30375 85.3033 7.01646 85.0943 7.68647C84.8852 8.35653 84.1726 8.73025 83.5025 8.52115C48.3839 -2.43783 25.223 18.2574 17.9026 29.9083C17.5291 30.5025 16.745 30.6813 16.1507 30.3079C15.5564 29.9345 15.3771 29.1504 15.7504 28.556Z" fill="url(#paint18_linear_2125_10191)"/>
<path d="M80.8906 94.7719C81.1942 94.3419 81.7892 94.2393 82.2193 94.5429C82.6493 94.8465 82.7519 95.4415 82.4483 95.8716L74.8226 106.675C74.519 107.105 73.924 107.207 73.4939 106.904C73.0638 106.6 72.9613 106.005 73.2649 105.575L80.8906 94.7719ZM95.3719 83.1391C95.7829 82.8103 96.3828 82.8766 96.7118 83.2874C97.0405 83.6984 96.9742 84.2983 96.5634 84.6273L85.4426 93.5239C85.0316 93.8527 84.4317 93.7864 84.1028 93.3756C83.774 92.9646 83.8403 92.3647 84.2511 92.0358L95.3719 83.1391ZM35.9151 77.8462V66.9413C35.915 66.856 35.8805 66.7745 35.8196 66.7148L21.0422 52.2328C20.2978 51.5032 20.1602 50.3545 20.7108 49.4694L29.0689 36.0369C29.3469 35.59 29.9344 35.453 30.3814 35.7309C30.8283 36.009 30.9653 36.5965 30.6873 37.0435L22.3293 50.4766C22.2508 50.603 22.2702 50.7671 22.3765 50.8713L37.1544 65.3532C37.5811 65.7714 37.8215 66.3438 37.8216 66.9413V77.8462C37.8216 78.3726 37.3948 78.7994 36.8683 78.7994C36.3419 78.7994 35.9151 78.3726 35.9151 77.8462ZM70.8446 19.5511C71.7717 18.2026 73.7888 18.2831 74.6054 19.7013L85.3489 38.361C85.3998 38.4494 85.4901 38.5081 85.5915 38.5186L94.1593 39.4048C94.6829 39.459 95.0636 39.9275 95.0095 40.4511C94.9553 40.9747 94.4868 41.3554 93.9632 41.3013L85.3954 40.4151C84.685 40.3416 84.0526 39.9313 83.6963 39.3123L72.9527 20.6526C72.8361 20.4501 72.5484 20.4384 72.4159 20.6309L66.5682 29.1366C66.27 29.5704 65.6764 29.6805 65.2426 29.3824C64.8089 29.0842 64.6988 28.4906 64.9969 28.0568L70.8446 19.5511Z" fill="url(#paint19_linear_2125_10191)"/>
<path d="M87.6945 62.5943C87.6945 75.4045 77.3098 85.7892 64.4996 85.7892C51.6894 85.7892 41.3047 75.4045 41.3047 62.5943C41.3047 49.7841 51.6894 39.3994 64.4996 39.3994C77.3098 39.3994 87.6945 49.7841 87.6945 62.5943Z" fill="#1964FE"/>
<path d="M85.7881 62.5943C85.7881 50.837 76.2569 41.3058 64.4996 41.3058C52.7423 41.3058 43.2111 50.837 43.2111 62.5943C43.2111 74.3516 52.7423 83.8828 64.4996 83.8828V85.7892C51.6894 85.7892 41.3047 75.4045 41.3047 62.5943C41.3047 49.7841 51.6894 39.3994 64.4996 39.3994C77.3098 39.3994 87.6945 49.7841 87.6945 62.5943C87.6945 75.4045 77.3098 85.7892 64.4996 85.7892V83.8828C76.2569 83.8828 85.7881 74.3516 85.7881 62.5943Z" fill="#1964FE"/>
<path d="M61.1621 64.183H56.5547V54.2601C57.0989 48.4569 62.5407 47.5613 64.6086 47.6688C66.6764 47.7762 72.6624 47.9912 73.0615 55.299C73.3807 61.1453 68.7201 63.6576 66.3499 64.183H63.2662V59.5261C66.4588 59.5834 67.789 59.3111 68.055 59.1679V55.299C68.0429 54.3795 67.3367 52.5263 64.6086 52.469C61.8804 52.4117 61.1742 54.3318 61.1621 55.299V64.183Z" fill="white"/>
<path d="M70.3406 51.9121C69.3828 49.0463 65.975 47.8637 64.4634 47.6607C70.7396 47.6607 72.5173 51.3504 72.8801 53.7863C71.9804 57.0534 69.2522 58.8015 68.055 59.1598V57.2253C69.2039 56.6522 71.2983 54.778 70.3406 51.9121Z" fill="url(#paint20_linear_2125_10191)"/>
<path d="M69.7188 72.2563C69.7188 71.4632 69.8408 70.7617 70.0848 70.1516C70.339 69.5416 70.6796 69.0332 71.1066 68.6265C71.5438 68.2096 72.0522 67.8944 72.6318 67.6809C73.2215 67.4674 73.857 67.3606 74.5382 67.3606C75.2194 67.3606 75.8498 67.4674 76.4294 67.6809C77.0191 67.8944 77.5326 68.2096 77.9698 68.6265C78.407 69.0332 78.7476 69.5416 78.9916 70.1516C79.2458 70.7617 79.3729 71.4632 79.3729 72.2563C79.3729 73.0494 79.2509 73.756 79.0069 74.3763C78.7629 74.9863 78.4222 75.4998 77.985 75.9167C77.558 76.3234 77.0496 76.6335 76.4599 76.847C75.8702 77.0605 75.2296 77.1673 74.5382 77.1673C73.8468 77.1673 73.2062 77.0605 72.6165 76.847C72.0268 76.6233 71.5184 76.303 71.0914 75.8862C70.6643 75.4693 70.3288 74.9558 70.0848 74.3458C69.8408 73.7357 69.7188 73.0392 69.7188 72.2563ZM72.464 72.2563C72.464 73.1816 72.6521 73.873 73.0283 74.3305C73.4045 74.788 73.9078 75.0168 74.5382 75.0168C75.1788 75.0168 75.6871 74.788 76.0633 74.3305C76.4396 73.873 76.6277 73.1816 76.6277 72.2563C76.6277 71.3412 76.4396 70.6549 76.0633 70.1974C75.6973 69.7398 75.194 69.511 74.5535 69.511C73.9231 69.511 73.4147 69.7398 73.0283 70.1974C72.6521 70.6447 72.464 71.3311 72.464 72.2563Z" fill="white"/>
<path d="M62.733 67.9253C62.9058 67.8237 63.1651 67.7271 63.5108 67.6356C63.8667 67.544 64.2226 67.4983 64.5784 67.4983C65.0868 67.4983 65.5342 67.5745 65.9205 67.7271C66.3171 67.8694 66.5713 68.0982 66.6831 68.4134C66.8661 68.9421 67.0644 69.5572 67.2779 70.2588C67.4914 70.9604 67.705 71.6874 67.9185 72.4398C68.132 73.182 68.3404 73.9191 68.5438 74.6512C68.7471 75.3731 68.9251 76.0137 69.0776 76.5729C68.9556 76.7152 68.7726 76.8271 68.5285 76.9084C68.2845 76.9999 67.9947 77.0457 67.6592 77.0457C67.4152 77.0457 67.2068 77.0254 67.0339 76.9847C66.8712 76.944 66.734 76.883 66.6221 76.8017C66.5204 76.7203 66.434 76.6136 66.3628 76.4814C66.3018 76.3492 66.2459 76.1967 66.1951 76.0238L65.9205 74.9715H63.16C63.0787 75.2765 62.9974 75.5917 62.916 75.9171C62.8347 76.2425 62.7533 76.5576 62.672 76.8627C62.5296 76.9135 62.3771 76.9542 62.2144 76.9847C62.0619 77.0254 61.8738 77.0457 61.6501 77.0457C61.1316 77.0457 60.7452 76.9593 60.491 76.7864C60.247 76.6034 60.125 76.3543 60.125 76.0391C60.125 75.8968 60.1453 75.7544 60.186 75.6121C60.2267 75.4697 60.2724 75.3019 60.3233 75.1088C60.3944 74.8342 60.491 74.4936 60.613 74.0869C60.7452 73.6802 60.8876 73.243 61.0401 72.7753C61.1926 72.2974 61.3553 71.8094 61.5281 71.3112C61.701 70.8129 61.8637 70.3452 62.0162 69.908C62.1687 69.4606 62.306 69.0641 62.428 68.7184C62.5601 68.3727 62.6618 68.1083 62.733 67.9253ZM64.5632 69.8928C64.4208 70.3198 64.2581 70.7977 64.0751 71.3264C63.9023 71.845 63.7447 72.3737 63.6023 72.9126H65.4935C65.3512 72.3635 65.2037 71.8297 65.0512 71.3112C64.9089 70.7824 64.7767 70.3096 64.6547 69.8928H64.5632Z" fill="white"/>
<path d="M53.3647 74.9103C53.4765 74.9307 53.6138 74.951 53.7765 74.9713C53.9392 74.9815 54.0917 74.9866 54.234 74.9866C54.5797 74.9866 54.8949 74.9357 55.1796 74.8341C55.4745 74.7324 55.7236 74.5748 55.9269 74.3613C56.1404 74.1477 56.3031 73.8732 56.415 73.5377C56.537 73.192 56.598 72.7802 56.598 72.3023C56.598 71.3872 56.3845 70.7009 55.9574 70.2434C55.5304 69.7757 54.961 69.5418 54.2493 69.5418C54.1069 69.5418 53.9595 69.5469 53.807 69.5571C53.6646 69.5672 53.5172 69.5825 53.3647 69.6028V74.9103ZM54.2188 77.137C54.0459 77.137 53.8476 77.1319 53.624 77.1218C53.4003 77.1116 53.1664 77.0913 52.9224 77.0608C52.6885 77.0303 52.4496 76.9896 52.2056 76.9388C51.9717 76.8981 51.7531 76.8371 51.5498 76.7557C50.9905 76.5422 50.7109 76.1711 50.7109 75.6424V68.52C50.7109 68.3064 50.7669 68.1438 50.8787 68.0319C51.0007 67.9099 51.1634 67.8133 51.3667 67.7421C51.804 67.5998 52.2666 67.5083 52.7546 67.4676C53.2427 67.4168 53.6799 67.3914 54.0663 67.3914C54.8593 67.3914 55.5761 67.4879 56.2167 67.6811C56.8674 67.8743 57.4216 68.1743 57.8791 68.581C58.3468 68.9775 58.7078 69.4808 58.962 70.0909C59.2162 70.7009 59.3433 71.4228 59.3433 72.2566C59.3433 73.07 59.2212 73.7817 58.9772 74.3918C58.7332 74.9917 58.3824 75.5 57.9249 75.9169C57.4775 76.3236 56.9386 76.6286 56.3082 76.832C55.6778 77.0354 54.9813 77.137 54.2188 77.137Z" fill="white"/>
<path d="M101.041 112.162C101.041 116.9 97.1998 120.741 92.4617 120.741C87.7237 120.741 83.8828 116.9 83.8828 112.162C83.8828 107.424 87.7237 103.583 92.4617 103.583C97.1998 103.583 101.041 107.424 101.041 112.162Z" fill="#1964FE"/>
<path d="M99.1343 112.162C99.1343 108.477 96.1469 105.489 92.4617 105.489C88.7766 105.489 85.7892 108.477 85.7892 112.162C85.7892 115.847 88.7766 118.834 92.4617 118.834V120.741C87.7237 120.741 83.8828 116.9 83.8828 112.162C83.8828 107.424 87.7237 103.583 92.4617 103.583C97.1998 103.583 101.041 107.424 101.041 112.162C101.041 116.9 97.1998 120.741 92.4617 120.741V118.834C96.1469 118.834 99.1343 115.847 99.1343 112.162Z" fill="#1964FE"/>
<path d="M19.6969 35.9044C19.6969 40.6424 15.856 44.4833 11.118 44.4833C6.37998 44.4833 2.53906 40.6424 2.53906 35.9044C2.53906 31.1664 6.37998 27.3254 11.118 27.3254C15.856 27.3254 19.6969 31.1664 19.6969 35.9044Z" fill="#1964FE"/>
<path d="M17.7905 35.9044C17.7905 32.2193 14.8031 29.2319 11.118 29.2319C7.43287 29.2319 4.44549 32.2193 4.44549 35.9044C4.44549 39.5895 7.43287 42.5769 11.118 42.5769V44.4833C6.37998 44.4833 2.53906 40.6424 2.53906 35.9044C2.53906 31.1664 6.37998 27.3254 11.118 27.3254C15.856 27.3254 19.6969 31.1664 19.6969 35.9044C19.6969 40.6424 15.856 44.4833 11.118 44.4833V42.5769C14.8031 42.5769 17.7905 39.5895 17.7905 35.9044Z" fill="#1964FE"/>
<path d="M45.124 34.9514C45.124 39.5139 41.4253 43.2126 36.8628 43.2126C32.3002 43.2126 28.6016 39.5139 28.6016 34.9514C28.6016 30.3888 32.3002 26.6902 36.8628 26.6902C41.4253 26.6902 45.124 30.3888 45.124 34.9514Z" fill="#1964FE"/>
<path d="M43.2175 34.9514C43.2175 31.4417 40.3724 28.5966 36.8628 28.5966C33.3531 28.5966 30.508 31.4417 30.508 34.9514C30.508 38.461 33.3531 41.3061 36.8628 41.3061V43.2126C32.3002 43.2126 28.6016 39.5139 28.6016 34.9514C28.6016 30.3888 32.3002 26.6902 36.8628 26.6902C41.4253 26.6902 45.124 30.3888 45.124 34.9514C45.124 39.5139 41.4253 43.2126 36.8628 43.2126V41.3061C40.3724 41.3061 43.2175 38.461 43.2175 34.9514Z" fill="#1964FE"/>
<path d="M109.304 40.6706C109.304 45.2332 105.605 48.9318 101.042 48.9318C96.4799 48.9318 92.7812 45.2332 92.7812 40.6706C92.7812 36.1081 96.4799 32.4094 101.042 32.4094C105.605 32.4094 109.304 36.1081 109.304 40.6706Z" fill="#1964FE"/>
<path d="M107.397 40.6706C107.397 37.161 104.552 34.3159 101.042 34.3159C97.5328 34.3159 94.6877 37.161 94.6877 40.6706C94.6877 44.1803 97.5328 47.0254 101.042 47.0254V48.9318C96.4799 48.9318 92.7812 45.2332 92.7812 40.6706C92.7812 36.1081 96.4799 32.4094 101.042 32.4094C105.605 32.4094 109.304 36.1081 109.304 40.6706C109.304 45.2332 105.605 48.9318 101.042 48.9318V47.0254C104.552 47.0254 107.397 44.1803 107.397 40.6706Z" fill="#1964FE"/>
<path d="M69.902 29.8673C69.902 32.675 67.6259 34.9511 64.8182 34.9511C62.0105 34.9511 59.7344 32.675 59.7344 29.8673C59.7344 27.0595 62.0105 24.7834 64.8182 24.7834C67.6259 24.7834 69.902 27.0595 69.902 29.8673Z" fill="#1964FE"/>
<path d="M40.0345 33.0448C40.0345 34.7996 38.6119 36.2222 36.8571 36.2222C35.1023 36.2222 33.6797 34.7996 33.6797 33.0448C33.6797 31.29 35.1023 29.8674 36.8571 29.8674C38.6119 29.8674 40.0345 31.29 40.0345 33.0448Z" fill="white"/>
<path d="M38.7635 33.0448C38.7635 31.9919 37.91 31.1384 36.8571 31.1384C35.8042 31.1384 34.9506 31.9919 34.9506 33.0448C34.9506 34.0977 35.8042 34.9512 36.8571 34.9512V36.2222C35.1023 36.2222 33.6797 34.7996 33.6797 33.0448C33.6797 31.29 35.1023 29.8674 36.8571 29.8674C38.6119 29.8674 40.0345 31.29 40.0345 33.0448C40.0345 34.7996 38.6119 36.2222 36.8571 36.2222V34.9512C37.91 34.9512 38.7635 34.0977 38.7635 33.0448Z" fill="white"/>
<path d="M101.024 79.117C101.024 80.6963 99.7437 81.9766 98.1643 81.9766C96.585 81.9766 95.3047 80.6963 95.3047 79.117C95.3047 77.5376 96.585 76.2573 98.1643 76.2573C99.7437 76.2573 101.024 77.5376 101.024 79.117Z" fill="white"/>
<path d="M99.753 79.117C99.753 78.2396 99.0417 77.5283 98.1643 77.5283C97.2869 77.5283 96.5756 78.2396 96.5756 79.117C96.5756 79.9944 97.2869 80.7057 98.1643 80.7057V81.9766C96.585 81.9766 95.3047 80.6963 95.3047 79.117C95.3047 77.5376 96.585 76.2573 98.1643 76.2573C99.7437 76.2573 101.024 77.5376 101.024 79.117C101.024 80.6963 99.7437 81.9766 98.1643 81.9766V80.7057C99.0417 80.7057 99.753 79.9944 99.753 79.117Z" fill="white"/>
<path d="M40.6779 40.6707C40.6779 39.9258 40.5882 38.7892 40.0709 37.857C39.8182 37.4015 39.4669 37.0015 38.9738 36.712C38.4803 36.4224 37.8091 36.2224 36.8849 36.2224C35.059 36.2224 34.1117 36.9628 33.6076 37.8166C33.0746 38.7195 32.9894 39.8365 33.0875 40.5882C33.133 40.9362 32.8876 41.2551 32.5396 41.3006C32.1916 41.346 31.8727 41.1011 31.8271 40.7532C31.704 39.8104 31.7959 38.3853 32.5135 37.17C33.2601 35.9057 34.6375 34.9514 36.8849 34.9514C37.9972 34.9514 38.898 35.1937 39.6167 35.6154C40.3356 36.0374 40.8373 36.6182 41.1824 37.2401C41.861 38.463 41.9488 39.8683 41.9488 40.6707C41.9488 41.0217 41.6643 41.3062 41.3134 41.3062C40.9624 41.3062 40.6779 41.0217 40.6779 40.6707Z" fill="white"/>
<path d="M90.8168 116.927H88.3359V111.584C88.629 108.459 91.5592 107.977 92.6726 108.035C93.7861 108.093 97.0093 108.209 97.2242 112.144C97.3961 115.292 94.8866 116.645 93.6103 116.927H91.9499V114.42C93.6689 114.451 94.3852 114.304 94.5284 114.227V112.144C94.5219 111.649 94.1416 110.651 92.6726 110.62C91.2036 110.589 90.8234 111.623 90.8168 112.144V116.927Z" fill="white"/>
<path d="M95.7591 110.32C95.2434 108.777 93.4084 108.14 92.5945 108.031C95.974 108.031 96.9312 110.018 97.1265 111.329C96.6421 113.088 95.1731 114.03 94.5284 114.223V113.181C95.147 112.872 96.2748 111.863 95.7591 110.32Z" fill="url(#paint21_linear_2125_10191)"/>
<path d="M9.47309 40.6706H6.99219V35.3275C7.28521 32.2027 10.2154 31.7204 11.3289 31.7783C12.4424 31.8362 15.6656 31.9519 15.8805 35.8869C16.0524 39.0349 13.5428 40.3877 12.2665 40.6706H10.6061L10.6061 38.163C12.3252 38.1939 13.0414 38.0473 13.1847 37.9701V35.8869C13.1782 35.3918 12.7979 34.3939 11.3289 34.363C9.85988 34.3322 9.4796 35.3661 9.47309 35.8869L9.47309 40.6706Z" fill="white"/>
<path d="M14.4154 34.0632C13.8996 32.5201 12.0647 31.8832 11.2507 31.7739C14.6302 31.7739 15.5874 33.7607 15.7828 35.0724C15.2983 36.8316 13.8293 37.7729 13.1847 37.9658V36.9241C13.8033 36.6155 14.9311 35.6063 14.4154 34.0632Z" fill="url(#paint22_linear_2125_10191)"/>
<path d="M99.0903 45.1188H96.6094V39.7757C96.9024 36.6509 99.8326 36.1687 100.946 36.2265C102.06 36.2844 105.283 36.4001 105.498 40.3351C105.67 43.4831 103.16 44.8359 101.884 45.1188H100.223V42.6113C101.942 42.6421 102.659 42.4955 102.802 42.4184V40.3351C102.795 39.84 102.415 38.8421 100.946 38.8113C99.4771 38.7804 99.0968 39.8143 99.0903 40.3351V45.1188Z" fill="white"/>
<path d="M104.033 38.5114C103.517 36.9683 101.682 36.3315 100.868 36.2222C104.247 36.2222 105.205 38.209 105.4 39.5206C104.916 41.2798 103.447 42.2211 102.802 42.414V41.3724C103.42 41.0638 104.548 40.0546 104.033 38.5114Z" fill="url(#paint23_linear_2125_10191)"/>
<path d="M101.675 85.7891C101.675 85.1441 101.592 84.173 101.125 83.38C100.691 82.6429 99.8783 81.9763 98.1984 81.9763C96.5005 81.9763 95.637 82.6258 95.1854 83.3465C94.7053 84.1128 94.6278 85.063 94.7163 85.7016C94.7645 86.0493 94.5215 86.3702 94.1739 86.4184C93.8264 86.4664 93.506 86.224 93.4577 85.8766C93.3407 85.0325 93.4275 83.7584 94.1087 82.6713C94.8186 81.5386 96.1139 80.7053 98.1984 80.7053C100.301 80.7054 101.544 81.5862 102.22 82.7346C102.864 83.8273 102.946 85.0803 102.946 85.7891C102.946 86.1401 102.661 86.4246 102.31 86.4246C101.959 86.4246 101.675 86.1401 101.675 85.7891Z" fill="white"/>
<defs>
<linearGradient id="paint0_linear_2125_10191" x1="2.19328" y1="72.7947" x2="21.2569" y2="90.278" gradientUnits="userSpaceOnUse">
<stop stop-color="#1964FE"/>
<stop offset="1" stop-color="#00F2FE"/>
</linearGradient>
<linearGradient id="paint1_linear_2125_10191" x1="54.3105" y1="93.1302" x2="73.3741" y2="110.613" gradientUnits="userSpaceOnUse">
<stop stop-color="#1964FE"/>
<stop offset="1" stop-color="#00F2FE"/>
</linearGradient>
<linearGradient id="paint2_linear_2125_10191" x1="29.5981" y1="106.705" x2="43.8958" y2="119.817" gradientUnits="userSpaceOnUse">
<stop stop-color="#1964FE"/>
<stop offset="1" stop-color="#00F2FE"/>
</linearGradient>
<linearGradient id="paint3_linear_2125_10191" x1="29.5981" y1="106.705" x2="43.8958" y2="119.817" gradientUnits="userSpaceOnUse">
<stop stop-color="#1964FE"/>
<stop offset="1" stop-color="#00F2FE"/>
</linearGradient>
<linearGradient id="paint4_linear_2125_10191" x1="92.2606" y1="74.7512" x2="104.44" y2="85.9211" gradientUnits="userSpaceOnUse">
<stop stop-color="#1964FE"/>
<stop offset="1" stop-color="#00F2FE"/>
</linearGradient>
<linearGradient id="paint5_linear_2125_10191" x1="92.2606" y1="74.7512" x2="104.44" y2="85.9211" gradientUnits="userSpaceOnUse">
<stop stop-color="#1964FE"/>
<stop offset="1" stop-color="#00F2FE"/>
</linearGradient>
<linearGradient id="paint6_linear_2125_10191" x1="112.443" y1="53.3202" x2="134.155" y2="73.2317" gradientUnits="userSpaceOnUse">
<stop stop-color="#1964FE"/>
<stop offset="1" stop-color="#00F2FE"/>
</linearGradient>
<linearGradient id="paint7_linear_2125_10191" x1="80.0999" y1="91.3685" x2="85.9248" y2="96.7106" gradientUnits="userSpaceOnUse">
<stop stop-color="#1964FE"/>
<stop offset="1" stop-color="#00F2FE"/>
</linearGradient>
<linearGradient id="paint8_linear_2125_10191" x1="33.717" y1="76.1168" x2="39.542" y2="81.4589" gradientUnits="userSpaceOnUse">
<stop stop-color="#1964FE"/>
<stop offset="1" stop-color="#00F2FE"/>
</linearGradient>
<linearGradient id="paint9_linear_2125_10191" x1="84.8105" y1="1.62138" x2="103.874" y2="19.1046" gradientUnits="userSpaceOnUse">
<stop stop-color="#1964FE"/>
<stop offset="1" stop-color="#00F2FE"/>
</linearGradient>
<linearGradient id="paint10_linear_2125_10191" x1="90.4701" y1="4.44377" x2="97.8838" y2="11.2428" gradientUnits="userSpaceOnUse">
<stop stop-color="#1964FE"/>
<stop offset="1" stop-color="#00F2FE"/>
</linearGradient>
<linearGradient id="paint11_linear_2125_10191" x1="88.3538" y1="12.0465" x2="94.976" y2="21.9855" gradientUnits="userSpaceOnUse">
<stop stop-color="#1964FE"/>
<stop offset="1" stop-color="#00F2FE"/>
</linearGradient>
<linearGradient id="paint12_linear_2125_10191" x1="7.89982" y1="75.6171" x2="15.3134" y2="82.4161" gradientUnits="userSpaceOnUse">
<stop stop-color="#1964FE"/>
<stop offset="1" stop-color="#00F2FE"/>
</linearGradient>
<linearGradient id="paint13_linear_2125_10191" x1="60.017" y1="96.5876" x2="67.4306" y2="103.387" gradientUnits="userSpaceOnUse">
<stop stop-color="#1964FE"/>
<stop offset="1" stop-color="#00F2FE"/>
</linearGradient>
<linearGradient id="paint14_linear_2125_10191" x1="5.78352" y1="83.2198" x2="12.4057" y2="93.1589" gradientUnits="userSpaceOnUse">
<stop stop-color="#1964FE"/>
<stop offset="1" stop-color="#00F2FE"/>
</linearGradient>
<linearGradient id="paint15_linear_2125_10191" x1="57.9007" y1="104.191" x2="64.5229" y2="114.13" gradientUnits="userSpaceOnUse">
<stop stop-color="#1964FE"/>
<stop offset="1" stop-color="#00F2FE"/>
</linearGradient>
<linearGradient id="paint16_linear_2125_10191" x1="119.117" y1="56.5975" x2="127.06" y2="63.8821" gradientUnits="userSpaceOnUse">
<stop stop-color="#1964FE"/>
<stop offset="1" stop-color="#00F2FE"/>
</linearGradient>
<linearGradient id="paint17_linear_2125_10191" x1="116.036" y1="64.9035" x2="123.789" y2="76.9025" gradientUnits="userSpaceOnUse">
<stop stop-color="#1964FE"/>
<stop offset="1" stop-color="#00F2FE"/>
</linearGradient>
<linearGradient id="paint18_linear_2125_10191" x1="16.5685" y1="11.2528" x2="115.062" y2="100.849" gradientUnits="userSpaceOnUse">
<stop stop-color="#1964FE"/>
<stop offset="1" stop-color="#00F2FE"/>
</linearGradient>
<linearGradient id="paint19_linear_2125_10191" x1="27.7136" y1="24.8586" x2="99.7891" y2="82.0361" gradientUnits="userSpaceOnUse">
<stop stop-color="#1964FE"/>
<stop offset="1" stop-color="#00F2FE"/>
</linearGradient>
<linearGradient id="paint20_linear_2125_10191" x1="68.708" y1="47.6606" x2="68.708" y2="59.0409" gradientUnits="userSpaceOnUse">
<stop stop-color="#7293FA"/>
<stop offset="0.1593" stop-color="#81ABFF"/>
<stop offset="0.500398" stop-color="#ABC6FB"/>
<stop offset="1" stop-color="#BCD3FC"/>
</linearGradient>
<linearGradient id="paint21_linear_2125_10191" x1="94.8801" y1="108.031" x2="94.8801" y2="114.159" gradientUnits="userSpaceOnUse">
<stop stop-color="#7293FA"/>
<stop offset="0.1593" stop-color="#81ABFF"/>
<stop offset="0.500398" stop-color="#ABC6FB"/>
<stop offset="1" stop-color="#BCD3FC"/>
</linearGradient>
<linearGradient id="paint22_linear_2125_10191" x1="13.5363" y1="31.7739" x2="13.5363" y2="37.9017" gradientUnits="userSpaceOnUse">
<stop stop-color="#7293FA"/>
<stop offset="0.1593" stop-color="#81ABFF"/>
<stop offset="0.500398" stop-color="#ABC6FB"/>
<stop offset="1" stop-color="#BCD3FC"/>
</linearGradient>
<linearGradient id="paint23_linear_2125_10191" x1="103.153" y1="36.2222" x2="103.153" y2="42.35" gradientUnits="userSpaceOnUse">
<stop stop-color="#7293FA"/>
<stop offset="0.1593" stop-color="#81ABFF"/>
<stop offset="0.500398" stop-color="#ABC6FB"/>
<stop offset="1" stop-color="#BCD3FC"/>
</linearGradient>
</defs>
</svg>
