<svg width="63" height="65" viewBox="0 0 63 65" fill="none" xmlns="http://www.w3.org/2000/svg">
<path d="M34.8437 31.0836C34.9984 30.7559 35.3896 30.6157 35.7173 30.7704L43.1948 34.3018C43.2572 34.3312 43.33 34.3294 43.3909 34.2971L49.5385 31.031C49.61 30.9931 49.6547 30.9188 49.6548 30.8379V26.6705C49.6548 26.5856 49.6056 26.5082 49.5287 26.4722L36.4171 20.3263C36.3566 20.298 36.2864 20.2986 36.2266 20.3285L27.8562 24.5139C27.532 24.676 27.1377 24.5445 26.9757 24.2204C26.8136 23.8962 26.945 23.502 27.2692 23.3399L35.6396 19.1549C36.0584 18.9455 36.5501 18.9391 36.9742 19.1378L50.0858 25.2841C50.6236 25.5362 50.9672 26.0765 50.9672 26.6705V30.8379C50.9671 31.4043 50.6543 31.9244 50.1542 32.1901L44.0066 35.4561C43.58 35.6827 43.0716 35.6944 42.6348 35.4882L35.1568 31.9572C34.8291 31.8025 34.6889 31.4113 34.8437 31.0836ZM35.6558 27.8641V22.177C35.6558 21.8146 35.9496 21.5208 36.312 21.5208C36.6744 21.5208 36.9682 21.8146 36.9682 22.177V27.8641C36.9682 28.2265 36.6744 28.5203 36.312 28.5203C35.9496 28.5203 35.6558 28.2265 35.6558 27.8641Z" fill="white"/>
<path d="M35.6089 15.0248C36.0453 14.7952 36.5656 14.7897 37.0067 15.0103L52.7914 22.9026C53.1156 23.0647 53.247 23.459 53.0849 23.7831C52.9228 24.1073 52.5286 24.2387 52.2044 24.0766L36.4197 16.1842C36.3567 16.1528 36.2825 16.1536 36.2202 16.1864L32.4611 18.1644C32.1405 18.3331 31.7439 18.2099 31.5751 17.8893C31.4064 17.5686 31.5296 17.172 31.8502 17.0032L35.6089 15.0248ZM30.1123 17.8717C30.4365 17.7097 30.8307 17.8411 30.9928 18.1652C31.1549 18.4894 31.0235 18.8837 30.6993 19.0457L22.8249 22.9829C22.5008 23.145 22.1065 23.0136 21.9444 22.6894C21.7823 22.3653 21.9138 21.971 22.2379 21.809L30.1123 17.8717Z" fill="white"/>
<path d="M17.4215 48.0568C17.7456 47.8947 18.1399 48.0261 18.302 48.3502L20.1659 52.0781C20.4943 52.7351 20.3098 53.533 19.7263 53.9792L16.5824 56.3832C16.2946 56.6033 15.8828 56.5484 15.6627 56.2605C15.4425 55.9727 15.4974 55.5609 15.7853 55.3408L18.9291 52.9364C19.0124 52.8727 19.0388 52.7589 18.9919 52.6651L17.128 48.9372C16.9659 48.6131 17.0973 48.2188 17.4215 48.0568ZM14.0914 46.9913C14.2792 46.6814 14.6829 46.5822 14.9928 46.77C15.3027 46.9578 15.4018 47.3615 15.2141 47.6714L10.8394 54.8896C10.6516 55.1995 10.2479 55.2987 9.93799 55.1109C9.62809 54.9231 9.52895 54.5194 9.71669 54.2095L14.0914 46.9913ZM7.14401 44.73C7.37256 44.4489 7.78599 44.4063 8.06722 44.6348C8.34837 44.8633 8.39098 45.2767 8.16248 45.558L5.72053 48.563C5.66069 48.6367 5.65556 48.7406 5.70729 48.8202L8.2035 52.6608C8.40096 52.9647 8.31466 53.3712 8.01082 53.5687C7.70697 53.7661 7.30049 53.6798 7.10299 53.376L4.60678 49.5353C4.2447 48.9782 4.28307 48.2512 4.70205 47.7355L7.14401 44.73Z" fill="#00D4FF"/>
<path d="M27.7812 34.2075V27.6455C27.7812 27.283 28.075 26.9893 28.4375 26.9893C28.7999 26.9893 29.0937 27.283 29.0937 27.6455V34.2075C29.0937 34.5699 28.7999 34.8637 28.4375 34.8637C28.075 34.8637 27.7812 34.5699 27.7812 34.2075Z" fill="#00D4FF"/>
<path d="M0 52.9085V36.6991C0 35.5686 1.18322 34.8278 2.20015 35.3218L23.4173 45.627C23.9447 45.8832 24.2794 46.4181 24.2794 47.0044V63.2137C24.2794 64.3443 23.0962 65.085 22.0793 64.5911L0.862118 54.2858C0.334755 54.0297 1.49877e-05 53.4948 0 52.9085ZM1.3124 52.9085C1.31242 52.9922 1.36022 53.0684 1.43544 53.105L22.6526 63.4107C22.7979 63.4812 22.967 63.3752 22.967 63.2137V47.0044C22.967 46.9207 22.9192 46.8445 22.844 46.8079L1.62683 36.5022C1.48155 36.4316 1.3124 36.5376 1.3124 36.6991V52.9085Z" fill="#00D4FF"/>
<path d="M60.8657 28.8281C61.7387 28.3865 62.7707 29.0208 62.7707 29.9991V44.5936C62.7706 45.0687 62.5137 45.5065 62.0991 45.7386L27.9767 64.8312C27.1019 65.3206 26.0235 64.6882 26.0234 63.6858V47.2633C26.0235 46.7685 26.3018 46.3157 26.7433 46.0923L60.8657 28.8281ZM37.3976 46.1807C37.3976 45.0185 36.1537 44.2802 35.1334 44.8367L29.665 47.8191C29.1731 48.0874 28.867 48.6032 28.867 49.1635V59.5585C28.867 60.7517 30.1715 61.4863 31.1919 60.8679L36.6602 57.5536C37.118 57.2761 37.3976 56.7795 37.3976 56.2442V46.1807Z" fill="#00D4FF"/>
<path d="M53.8104 40.9882V17.673C53.8104 17.5921 53.7656 17.5179 53.6942 17.4799L46.7225 13.7888C46.4023 13.6192 46.2804 13.2221 46.4499 12.9019C46.6195 12.5818 47.0166 12.4598 47.3368 12.6293L54.3081 16.3201C54.8092 16.5854 55.1228 17.1059 55.1228 17.673V40.9882C55.1228 41.3507 54.829 41.6445 54.4666 41.6445C54.1042 41.6445 53.8104 41.3507 53.8104 40.9882ZM57.9663 39.0196V15.2811C57.9663 15.1982 57.9195 15.1225 57.8454 15.0854L50.4546 11.39C50.1305 11.2279 49.999 10.8337 50.1611 10.5095C50.3232 10.1854 50.7174 10.0539 51.0416 10.216L58.4324 13.9114C58.9511 14.1708 59.2787 14.7011 59.2787 15.2811V39.0196C59.2787 39.3821 58.9849 39.6758 58.6225 39.6758C58.2601 39.6758 57.9663 39.3821 57.9663 39.0196ZM25.375 17.365V2.9286C25.375 2.7 25.4939 2.48772 25.689 2.36852L29.1977 0.224761C29.6623 -0.0591145 30.2427 -0.0752205 30.722 0.182894L35.9665 3.00721C36.2856 3.17902 36.4049 3.57672 36.2331 3.89581C36.0613 4.2149 35.6636 4.33421 35.3445 4.16239L30.0996 1.33851C30.0311 1.30167 29.948 1.30394 29.8817 1.34449L27.3675 2.88075L32.6761 5.62688C32.9979 5.79343 33.1237 6.18937 32.9572 6.51122C32.7906 6.83299 32.3947 6.95879 32.0729 6.79232L26.6874 4.00646V17.365C26.6874 17.7274 26.3936 18.0212 26.0312 18.0212C25.6688 18.0212 25.375 17.7274 25.375 17.365Z" fill="#00D4FF"/>
<path d="M35.6592 2.57275C35.9183 2.39629 36.2521 2.37197 36.534 2.509L51.5905 9.8255C52.1332 10.0892 52.2523 10.8102 51.8233 11.2345L48.4124 14.6079C48.1457 14.8717 47.7406 14.9361 47.4053 14.7681L31.65 6.87674C31.053 6.57771 30.9975 5.74708 31.5494 5.37126L35.6592 2.57275Z" fill="#00D4FF"/>
<path d="M30.9262 32.1991C31.1475 32.0853 31.4068 32.0708 31.6392 32.1598L39.6986 35.2464C40.4092 35.5187 40.4574 36.506 39.7768 36.8463L25.7364 43.8663L25.6471 43.9048C25.4353 43.9827 25.2 43.976 24.9913 43.8838L17.6385 40.6349C16.9656 40.3375 16.9377 39.3932 17.592 39.0567L30.9262 32.1991ZM19.0069 39.8048L25.3331 42.6L38.3007 36.1166L31.3525 33.4555L19.0069 39.8048Z" fill="#00D4FF"/>
<path d="M1.90719 33.4332C1.23516 33.1235 1.2271 32.1713 1.89378 31.8503L19.8249 23.216C20.0419 23.1115 20.2924 23.1011 20.5174 23.1873L28.6928 26.3183C29.3869 26.5841 29.4544 27.5396 28.8045 27.9003L11.5452 37.4806C11.3013 37.616 11.0076 37.627 10.7543 37.5103L1.90719 33.4332Z" fill="#00D4FF"/>
<path d="M12.985 34.6348L11.7765 35.6617L9.56475 33.0591C8.41395 31.4157 9.64165 29.9678 10.208 29.5351C10.7743 29.1024 12.3923 27.8245 14.1258 29.6523C15.5126 31.1145 14.8502 32.8123 14.3457 33.4784L13.5369 34.1658L12.4988 32.9443C13.349 32.2477 13.6372 31.8798 13.675 31.7829L12.8127 30.7682C12.6046 30.5297 12.0063 30.2011 11.2779 30.7941C10.5496 31.3872 10.7923 32.0482 11.0048 32.3046L12.985 34.6348Z" fill="white"/>
<path d="M12.6572 29.3704C11.7673 28.8322 10.6098 29.2816 10.1681 29.5653C11.8143 28.1664 13.103 28.7379 13.7411 29.296C14.2333 30.3534 13.9074 31.42 13.6732 31.7808L13.2421 31.2734C13.4156 30.867 13.5472 29.9086 12.6572 29.3704Z" fill="url(#paint0_linear_2125_10063)"/>
<defs>
<linearGradient id="paint0_linear_2125_10063" x1="11.2814" y1="28.6192" x2="13.818" y2="31.6041" gradientUnits="userSpaceOnUse">
<stop stop-color="#7293FA"/>
<stop offset="0.1593" stop-color="#81ABFF"/>
<stop offset="0.500398" stop-color="#ABC6FB"/>
<stop offset="1" stop-color="#BCD3FC"/>
</linearGradient>
</defs>
</svg>
