<svg width="154" height="155" viewBox="0 0 154 155" fill="none" xmlns="http://www.w3.org/2000/svg">
<g filter="url(#filter0_d_2125_9761)">
<path d="M33 68.6249C33 67.3804 34.3436 66.5992 35.4256 67.2147L65.1797 84.1401C65.6868 84.4286 66 84.967 66 85.5504V120.375C66 121.62 64.6564 122.401 63.5744 121.785L33.8203 104.86C33.3132 104.571 33 104.033 33 103.45V68.6249Z" fill="#00D4FF"/>
<path d="M58.7581 57.2226L75.8936 66.8613L93.029 56.6871L75.8936 47.0484L58.7581 57.2226Z" fill="#00D4FF"/>
<path d="M36 48.6548V57.7581L44.3 62.3097V53.4742L36 48.6548Z" fill="#00D4FF"/>
<path d="M100.258 98.9903L83.6581 89.3516V96.5806V108.361L100.258 118V98.9903Z" fill="#00D4FF"/>
<path d="M93.029 88.5484L100.794 83.729L109.094 88.5484L101.597 93.1L93.029 88.5484Z" fill="white"/>
<path d="M104.81 55.8839V64.1839L112.574 59.6323V51.0645L104.81 55.8839Z" fill="white"/>
<path d="M84.4938 108.045L99.5571 116.792V99.559L84.4938 90.8127V108.045ZM101.171 99.5506V116.785L118.373 106.71L117.888 89.4709L101.171 99.5506ZM108.006 98.4105C108.384 98.1744 108.882 98.2895 109.118 98.6674C109.354 99.0453 109.239 99.5435 108.861 99.7796L104.558 102.47C104.18 102.706 103.682 102.59 103.445 102.213C103.209 101.835 103.324 101.337 103.702 101.1L108.006 98.4105ZM85.2766 89.4015L100.356 98.1573L117.045 88.0949L101.723 79.5829L85.2766 89.4015ZM100.574 83.0251C100.809 82.9209 101.081 82.934 101.307 83.0651L109.646 87.9069C109.892 88.0498 110.045 88.3119 110.048 88.5967C110.05 88.8814 109.903 89.1466 109.659 89.2943L102.128 93.8671C101.885 94.0148 101.581 94.0232 101.33 93.8897L92.7226 89.3169C92.4678 89.1814 92.3047 88.9203 92.295 88.6319C92.2853 88.3432 92.4305 88.0712 92.6759 87.9189L100.477 83.0771L100.574 83.0251ZM94.7185 88.5499L101.682 92.249L107.66 88.6198L100.916 84.7037L94.7185 88.5499ZM76.6931 67.2757V85.3226L92.2944 76.3031V58.0124L76.6931 67.2757ZM101.171 53.3088V70.5303L115.427 62.3152V45.5769L101.171 53.3088ZM60.2833 57.114L75.8751 65.884L91.4885 56.6133L75.8967 47.8434L60.2833 57.114ZM112.312 50.2606C112.561 50.1061 112.874 50.0988 113.13 50.2412C113.386 50.3836 113.545 50.6534 113.545 50.9462V59.5538C113.545 59.8402 113.393 60.1051 113.146 60.2499L105.345 64.8227C105.096 64.969 104.786 64.9707 104.536 64.8269C104.285 64.6831 104.13 64.4158 104.13 64.1266V55.788C104.13 55.5089 104.274 55.2496 104.511 55.1024L112.312 50.2606ZM105.744 56.2367V62.7181L111.931 59.091V52.3967L105.744 56.2367ZM36.6139 57.1928L43.3386 60.8804V53.831L36.6139 49.9265V57.1928ZM44.9526 53.8457V60.7732L52.2152 56.1515V49.8844L44.9526 53.8457ZM37.3815 48.5064L44.1577 52.4409L51.372 48.5059L44.1587 44.3528L37.3815 48.5064ZM87.1212 44.1905L100.378 51.9034L114.599 44.19L100.379 35.7536L87.1212 44.1905ZM93.9084 76.7691C93.9084 77.0572 93.7548 77.3236 93.5054 77.4678L76.2902 87.4204C76.0478 87.5605 75.7502 87.5646 75.5037 87.4319L68.51 83.6661C68.1176 83.4548 67.9709 82.9657 68.1822 82.5733C68.3935 82.1809 68.8826 82.0342 69.275 82.2455L75.0792 85.3704V67.2883L59.4779 58.5125V72.7342C59.4779 73.1799 59.1166 73.5412 58.6709 73.5412C58.2253 73.5412 57.864 73.1799 57.864 72.7342V67.2972L51.8307 64.0294C51.4388 63.8171 51.2932 63.3269 51.5055 62.9351C51.7178 62.5433 52.208 62.3976 52.5998 62.6099L57.864 65.4611V57.1329C57.864 56.8481 58.0142 56.5843 58.2591 56.4389L75.4743 46.2174L75.5699 46.169C75.7985 46.0716 76.0617 46.0842 76.2818 46.2079L93.497 55.8915C93.7511 56.0344 93.9084 56.3034 93.9084 56.5949V76.7691ZM53.8292 56.5949C53.8292 56.8708 53.6883 57.1277 53.4556 57.2758L44.579 62.9246C44.3306 63.0826 44.0155 63.0929 43.7573 62.9514L35.4187 58.3786C35.1604 58.2369 35 57.9655 35 57.6709V48.5253C35 48.2446 35.1458 47.9838 35.3851 47.8371L43.7237 42.7263C43.9757 42.5719 44.2919 42.5679 44.548 42.7153L53.4246 47.826C53.6748 47.9701 53.8292 48.2367 53.8292 48.5253V56.5949ZM117.041 62.7817C117.041 63.0702 116.887 63.3369 116.637 63.4809L110.989 66.7351V82.8838L119.047 87.361L119.136 87.4188C119.333 87.565 119.455 87.7947 119.462 88.044L120 107.142C120.008 107.437 119.855 107.712 119.601 107.861L100.772 118.889C100.521 119.036 100.211 119.037 99.959 118.891L83.2818 109.207C83.0331 109.063 82.8799 108.797 82.8799 108.51V98.0407L76.276 101.685C76.0435 101.813 75.7627 101.819 75.5253 101.7L68.5316 98.203C68.1329 98.0037 67.9713 97.5188 68.1706 97.1202C68.3699 96.7216 68.8548 96.56 69.2534 96.7593L75.8673 100.066L82.8799 96.1977V89.4115C82.8799 89.1274 83.0294 88.8642 83.2734 88.7185L101.296 77.959L101.391 77.9107C101.618 77.8129 101.881 77.8241 102.101 77.9464L109.375 81.9875V67.6655L100.767 72.6265C100.517 72.7704 100.21 72.7702 99.9601 72.626C99.7107 72.4818 99.5571 72.2154 99.5571 71.9273V53.293L85.1642 44.9192C84.9208 44.7776 84.7685 44.5192 84.7628 44.2378C84.7572 43.9563 84.8988 43.6918 85.1363 43.5406L99.9307 34.126L100.03 34.0724C100.268 33.9641 100.547 33.9771 100.776 34.1129L116.646 43.5275C116.891 43.6729 117.041 43.9367 117.041 44.2215V62.7817Z" fill="#00D4FF"/>
<path d="M46.3147 101.33L42.125 99.0073V88.6905C42.6198 82.9312 47.5683 84.7431 49.4487 85.8971C51.3291 87.0512 56.7723 90.2919 57.1352 98.0909C57.4255 104.33 53.1875 104.593 51.0322 103.945L48.2281 102.39V97.5485C51.1311 99.2173 52.3407 99.6047 52.5827 99.5898V95.5674C52.5717 94.6054 51.9295 92.3226 49.4487 90.8879C46.9679 89.4532 46.3257 91.0935 46.3147 92.093V101.33Z" fill="white"/>
<path d="M54.661 93.1982C53.7901 89.7358 50.6913 86.7885 49.3167 85.8155C55.0239 88.9791 56.6404 93.7113 56.9703 96.4268C56.1521 99.37 53.6713 99.8124 52.5827 99.5814V97.5702C53.6273 97.5534 55.5319 96.6605 54.661 93.1982Z" fill="url(#paint0_linear_2125_9761)"/>
<path d="M78 100C78 101.105 76.8807 102 75.5 102C74.1193 102 73 101.105 73 100C73 98.8954 74.1193 98 75.5 98C76.8807 98 78 98.8954 78 100Z" fill="#00D4FF"/>
<path d="M62 41C62 42.1046 61.1046 43 60 43C58.8954 43 58 42.1046 58 41C58 39.8954 58.8954 39 60 39C61.1046 39 62 39.8954 62 41Z" fill="white"/>
<path d="M61.5 41C61.5 40.1716 60.8284 39.5 60 39.5C59.1716 39.5 58.5 40.1716 58.5 41C58.5 41.8284 59.1716 42.5 60 42.5V43C58.8954 43 58 42.1046 58 41C58 39.8954 58.8954 39 60 39C61.1046 39 62 39.8954 62 41C62 42.1046 61.1046 43 60 43V42.5C60.8284 42.5 61.5 41.8284 61.5 41Z" fill="white"/>
<path d="M52 70.5C52 71.8807 50.8807 73 49.5 73C48.1193 73 47 71.8807 47 70.5C47 69.1193 48.1193 68 49.5 68C50.8807 68 52 69.1193 52 70.5Z" fill="#00D4FF"/>
<path d="M108 75C108 76.1046 106.881 77 105.5 77C104.119 77 103 76.1046 103 75C103 73.8954 104.119 73 105.5 73C106.881 73 108 73.8954 108 75Z" fill="white"/>
<path d="M107.375 75C107.375 74.1716 106.536 73.5 105.5 73.5C104.464 73.5 103.625 74.1716 103.625 75C103.625 75.8284 104.464 76.5 105.5 76.5V77C104.119 77 103 76.1046 103 75C103 73.8954 104.119 73 105.5 73C106.881 73 108 73.8954 108 75C108 76.1046 106.881 77 105.5 77V76.5C106.536 76.5 107.375 75.8284 107.375 75Z" fill="white"/>
<path d="M121 88C121 89.1046 120.105 90 119 90C117.895 90 117 89.1046 117 88C117 86.8954 117.895 86 119 86C120.105 86 121 86.8954 121 88Z" fill="#00D4FF"/>
<path d="M60 57C60 58.1046 59.1046 59 58 59C56.8954 59 56 58.1046 56 57C56 55.8954 56.8954 55 58 55C59.1046 55 60 55.8954 60 57Z" fill="#00D4FF"/>
<path d="M102 52C102 53.1046 101.105 54 100 54C98.8954 54 98 53.1046 98 52C98 50.8954 98.8954 50 100 50C101.105 50 102 50.8954 102 52Z" fill="#00D4FF"/>
<path d="M78.9231 36.5C78.9231 35.1618 77.8382 34.0769 76.5 34.0769C75.1618 34.0769 74.0769 35.1618 74.0769 36.5C74.0769 37.8382 75.1618 38.9231 76.5 38.9231V40C74.567 40 73 38.433 73 36.5C73 34.567 74.567 33 76.5 33C78.433 33 80 34.567 80 36.5C80 38.433 78.433 40 76.5 40V38.9231C77.8382 38.9231 78.9231 37.8382 78.9231 36.5Z" fill="white"/>
<path d="M69.0984 72.2598C69.0984 70.4572 67.8328 68.2651 66.2717 67.3638C64.7106 66.4625 63.445 67.1932 63.445 68.9958C63.445 70.7984 64.7106 72.9905 66.2717 73.8918V74.965L66.0784 74.8476C64.1579 73.6264 62.618 70.9592 62.5206 68.6853L62.5156 68.4592C62.5156 66.0639 64.1973 65.093 66.2717 66.2907L66.465 66.408C68.4496 67.67 70.0278 70.476 70.0278 72.7964L70.0228 73.0167C69.9222 75.2502 68.2813 76.1252 66.2717 74.965V73.8918C67.8328 74.7931 69.0984 74.0624 69.0984 72.2598Z" fill="white"/>
</g>
<defs>
<filter id="filter0_d_2125_9761" x="0" y="0" width="154" height="155" filterUnits="userSpaceOnUse" color-interpolation-filters="sRGB">
<feFlood flood-opacity="0" result="BackgroundImageFix"/>
<feColorMatrix in="SourceAlpha" type="matrix" values="0 0 0 0 0 0 0 0 0 0 0 0 0 0 0 0 0 0 127 0" result="hardAlpha"/>
<feOffset/>
<feGaussianBlur stdDeviation="16.5"/>
<feComposite in2="hardAlpha" operator="out"/>
<feColorMatrix type="matrix" values="0 0 0 0 0 0 0 0 0 0.95 0 0 0 0 1 0 0 0 1 0"/>
<feBlend mode="normal" in2="BackgroundImageFix" result="effect1_dropShadow_2125_9761"/>
<feBlend mode="normal" in="SourceGraphic" in2="effect1_dropShadow_2125_9761" result="shape"/>
</filter>
<linearGradient id="paint0_linear_2125_9761" x1="53.1765" y1="87.955" x2="48.1595" y2="97.006" gradientUnits="userSpaceOnUse">
<stop stop-color="#7293FA"/>
<stop offset="0.1593" stop-color="#81ABFF"/>
<stop offset="0.500398" stop-color="#ABC6FB"/>
<stop offset="1" stop-color="#BCD3FC"/>
</linearGradient>
</defs>
</svg>
