<svg width="88" height="89" viewBox="0 0 88 89" fill="none" xmlns="http://www.w3.org/2000/svg">
<path d="M0 35.6249C0 34.3804 1.34362 33.5992 2.42556 34.2147L32.1797 51.1401C32.6868 51.4286 33 51.967 33 52.5504V87.3751C33 88.6196 31.6564 89.4008 30.5744 88.7853L0.820343 71.8599C0.313209 71.5714 0 71.033 0 70.4497V35.6249Z" fill="#00D4FF"/>
<path d="M25.7581 24.2226L42.8936 33.8613L60.029 23.6871L42.8936 14.0484L25.7581 24.2226Z" fill="#00D4FF"/>
<path d="M3 15.6548V24.7581L11.3 29.3097V20.4742L3 15.6548Z" fill="#00D4FF"/>
<path d="M67.2581 65.9903L50.6581 56.3516V63.5806V75.3613L67.2581 85V65.9903Z" fill="#00D4FF"/>
<path d="M60.029 55.5484L67.7936 50.729L76.0936 55.5484L68.5968 60.1L60.029 55.5484Z" fill="white"/>
<path d="M71.8097 22.8839V31.1839L79.5742 26.6323V18.0645L71.8097 22.8839Z" fill="white"/>
<path d="M51.4938 75.0452L66.5571 83.7916V66.559L51.4938 57.8127V75.0452ZM68.1711 66.5506V83.7853L85.3731 73.7098L84.8877 56.4709L68.1711 66.5506ZM75.0061 65.4105C75.384 65.1744 75.8821 65.2895 76.1183 65.6674C76.3544 66.0453 76.2393 66.5435 75.8614 66.7796L71.5576 69.4695C71.1797 69.7056 70.6815 69.5905 70.4454 69.2126C70.2093 68.8347 70.3244 68.3366 70.7023 68.1004L75.0061 65.4105ZM52.2766 56.4015L67.3562 65.1573L84.045 55.0949L68.7232 46.5829L52.2766 56.4015ZM67.5742 50.0251C67.8087 49.9209 68.0814 49.934 68.3071 50.0651L76.6458 54.9069C76.892 55.0498 77.0449 55.3119 77.0477 55.5967C77.0504 55.8814 76.9028 56.1466 76.6594 56.2943L69.1277 60.8671C68.8846 61.0148 68.5815 61.0232 68.3302 60.8897L59.7226 56.3169C59.4678 56.1814 59.3047 55.9203 59.295 55.6319C59.2853 55.3432 59.4305 55.0712 59.6759 54.9189L67.4765 50.0771L67.5742 50.0251ZM61.7185 55.5499L68.6822 59.249L74.6604 55.6198L67.9157 51.7037L61.7185 55.5499ZM43.6931 34.2757V52.3226L59.2944 43.3031V25.0124L43.6931 34.2757ZM68.1711 20.3088V37.5303L82.4274 29.3152V12.5769L68.1711 20.3088ZM27.2833 24.114L42.8751 32.884L58.4885 23.6133L42.8967 14.8434L27.2833 24.114ZM79.312 17.2606C79.5609 17.1061 79.874 17.0988 80.13 17.2412C80.3858 17.3836 80.5445 17.6534 80.5445 17.9462V26.5538C80.5445 26.8402 80.3928 27.1051 80.1457 27.2499L72.3451 31.8227C72.0956 31.969 71.7865 31.9707 71.5355 31.8269C71.2846 31.6831 71.1299 31.4158 71.1299 31.1266V22.788C71.1299 22.5089 71.2742 22.2496 71.5113 22.1024L79.312 17.2606ZM72.7439 23.2367V29.7181L78.9306 26.091V19.3967L72.7439 23.2367ZM3.61393 24.1928L10.3386 27.8804V20.831L3.61393 16.9265V24.1928ZM11.9526 20.8457V27.7732L19.2152 23.1515V16.8844L11.9526 20.8457ZM4.38149 15.5064L11.1577 19.4409L18.372 15.5059L11.1587 11.3528L4.38149 15.5064ZM54.1212 11.1905L67.3777 18.9034L81.5994 11.19L67.3788 2.75362L54.1212 11.1905ZM60.9084 43.7691C60.9084 44.0572 60.7548 44.3236 60.5054 44.4678L43.2902 54.4204C43.0478 54.5605 42.7502 54.5646 42.5037 54.4319L35.51 50.6661C35.1176 50.4548 34.9709 49.9657 35.1822 49.5733C35.3935 49.1809 35.8826 49.0342 36.275 49.2455L42.0792 52.3704V34.2883L26.4779 25.5125V39.7342C26.4779 40.1799 26.1166 40.5412 25.6709 40.5412C25.2253 40.5412 24.864 40.1799 24.864 39.7342V34.2972L18.8307 31.0294C18.4388 30.8171 18.2932 30.3269 18.5055 29.9351C18.7178 29.5433 19.208 29.3976 19.5998 29.6099L24.864 32.4611V24.1329C24.864 23.8481 25.0142 23.5843 25.2591 23.4389L42.4743 13.2174L42.5699 13.169C42.7985 13.0716 43.0617 13.0842 43.2818 13.2079L60.497 22.8915C60.7511 23.0344 60.9084 23.3034 60.9084 23.5949V43.7691ZM20.8292 23.5949C20.8292 23.8708 20.6883 24.1277 20.4556 24.2758L11.579 29.9246C11.3306 30.0826 11.0155 30.0929 10.7573 29.9514L2.41872 25.3786C2.16044 25.2369 2 24.9655 2 24.6709V15.5253C2 15.2446 2.14575 14.9838 2.38509 14.8371L10.7237 9.7263C10.9757 9.57189 11.2919 9.56788 11.548 9.71527L20.4246 14.826C20.6748 14.9701 20.8292 15.2367 20.8292 15.5253V23.5949ZM84.0413 29.7817C84.0413 30.0702 83.8873 30.3369 83.6373 30.4809L77.9891 33.7351V49.8838L86.0472 54.361L86.136 54.4188C86.3331 54.565 86.4547 54.7947 86.4617 55.044L86.9997 74.1421C87.0079 74.4366 86.8551 74.7119 86.6009 74.8608L67.7718 85.8894C67.5209 86.0363 67.2105 86.0369 66.959 85.8909L50.2818 76.2074C50.0331 76.0629 49.8799 75.7973 49.8799 75.5097V65.0407L43.276 68.6846C43.0435 68.8129 42.7627 68.8186 42.5253 68.6999L35.5316 65.203C35.1329 65.0037 34.9713 64.5188 35.1706 64.1202C35.3699 63.7216 35.8548 63.56 36.2534 63.7593L42.8673 67.066L49.8799 63.1977V56.4115C49.8799 56.1274 50.0294 55.8642 50.2734 55.7185L68.2956 44.959L68.3907 44.9107C68.6184 44.8129 68.8808 44.8241 69.101 44.9464L76.3752 48.9875V34.6655L67.767 39.6265C67.5174 39.7704 67.2096 39.7702 66.9601 39.626C66.7107 39.4818 66.5571 39.2154 66.5571 38.9273V20.293L52.1642 11.9192C51.9208 11.7776 51.7685 11.5192 51.7628 11.2378C51.7572 10.9563 51.8988 10.6918 52.1363 10.5406L66.9307 1.12603L67.03 1.07245C67.268 0.964084 67.547 0.977058 67.776 1.1129L83.6463 10.5275C83.8912 10.6729 84.0413 10.9367 84.0413 11.2215V29.7817Z" fill="#00D4FF"/>
<path d="M13.3147 68.3297L9.125 66.0073V55.6905C9.61984 49.9312 14.5683 51.7431 16.4487 52.8971C18.3291 54.0512 23.7723 57.2919 24.1352 65.0909C24.4255 71.3302 20.1875 71.5931 18.0322 70.9446L15.2281 69.3903V64.5485C18.1311 66.2173 19.3407 66.6047 19.5827 66.5898V62.5674C19.5717 61.6054 18.9295 59.3226 16.4487 57.8879C13.9679 56.4532 13.3257 58.0935 13.3147 59.093V68.3297Z" fill="white"/>
<path d="M21.661 60.1982C20.7901 56.7358 17.6913 53.7885 16.3167 52.8155C22.0239 55.9791 23.6404 60.7113 23.9703 63.4268C23.1521 66.37 20.6713 66.8124 19.5827 66.5814V64.5702C20.6273 64.5534 22.5319 63.6605 21.661 60.1982Z" fill="url(#paint0_linear_2125_10007)"/>
<path d="M45 67C45 68.1046 43.8807 69 42.5 69C41.1193 69 40 68.1046 40 67C40 65.8954 41.1193 65 42.5 65C43.8807 65 45 65.8954 45 67Z" fill="#00D4FF"/>
<path d="M29 8C29 9.10457 28.1046 10 27 10C25.8954 10 25 9.10457 25 8C25 6.89543 25.8954 6 27 6C28.1046 6 29 6.89543 29 8Z" fill="white"/>
<path d="M28.5 8C28.5 7.17157 27.8284 6.5 27 6.5C26.1716 6.5 25.5 7.17157 25.5 8C25.5 8.82843 26.1716 9.5 27 9.5V10C25.8954 10 25 9.10457 25 8C25 6.89543 25.8954 6 27 6C28.1046 6 29 6.89543 29 8C29 9.10457 28.1046 10 27 10V9.5C27.8284 9.5 28.5 8.82843 28.5 8Z" fill="white"/>
<path d="M19 37.5C19 38.8807 17.8807 40 16.5 40C15.1193 40 14 38.8807 14 37.5C14 36.1193 15.1193 35 16.5 35C17.8807 35 19 36.1193 19 37.5Z" fill="#00D4FF"/>
<path d="M75 42C75 43.1046 73.8807 44 72.5 44C71.1193 44 70 43.1046 70 42C70 40.8954 71.1193 40 72.5 40C73.8807 40 75 40.8954 75 42Z" fill="white"/>
<path d="M74.375 42C74.375 41.1716 73.5355 40.5 72.5 40.5C71.4645 40.5 70.625 41.1716 70.625 42C70.625 42.8284 71.4645 43.5 72.5 43.5V44C71.1193 44 70 43.1046 70 42C70 40.8954 71.1193 40 72.5 40C73.8807 40 75 40.8954 75 42C75 43.1046 73.8807 44 72.5 44V43.5C73.5355 43.5 74.375 42.8284 74.375 42Z" fill="white"/>
<path d="M88 55C88 56.1046 87.1046 57 86 57C84.8954 57 84 56.1046 84 55C84 53.8954 84.8954 53 86 53C87.1046 53 88 53.8954 88 55Z" fill="#00D4FF"/>
<path d="M27 24C27 25.1046 26.1046 26 25 26C23.8954 26 23 25.1046 23 24C23 22.8954 23.8954 22 25 22C26.1046 22 27 22.8954 27 24Z" fill="#00D4FF"/>
<path d="M69 19C69 20.1046 68.1046 21 67 21C65.8954 21 65 20.1046 65 19C65 17.8954 65.8954 17 67 17C68.1046 17 69 17.8954 69 19Z" fill="#00D4FF"/>
<path d="M45.9231 3.5C45.9231 2.16177 44.8382 1.07692 43.5 1.07692C42.1618 1.07692 41.0769 2.16177 41.0769 3.5C41.0769 4.83823 42.1618 5.92308 43.5 5.92308V7C41.567 7 40 5.433 40 3.5C40 1.567 41.567 0 43.5 0C45.433 0 47 1.567 47 3.5C47 5.433 45.433 7 43.5 7V5.92308C44.8382 5.92308 45.9231 4.83823 45.9231 3.5Z" fill="white"/>
<path d="M36.0984 39.2598C36.0984 37.4572 34.8328 35.2651 33.2717 34.3638C31.7106 33.4625 30.445 34.1932 30.445 35.9958C30.445 37.7984 31.7106 39.9905 33.2717 40.8918V41.965L33.0784 41.8476C31.1579 40.6264 29.618 37.9592 29.5206 35.6853L29.5156 35.4592C29.5156 33.0639 31.1973 32.093 33.2717 33.2907L33.465 33.408C35.4496 34.67 37.0278 37.476 37.0278 39.7964L37.0228 40.0167C36.9222 42.2502 35.2813 43.1252 33.2717 41.965V40.8918C34.8328 41.7931 36.0984 41.0624 36.0984 39.2598Z" fill="white"/>
<defs>
<linearGradient id="paint0_linear_2125_10007" x1="20.1765" y1="54.955" x2="15.1595" y2="64.006" gradientUnits="userSpaceOnUse">
<stop stop-color="#7293FA"/>
<stop offset="0.1593" stop-color="#81ABFF"/>
<stop offset="0.500398" stop-color="#ABC6FB"/>
<stop offset="1" stop-color="#BCD3FC"/>
</linearGradient>
</defs>
</svg>
