<svg width="88" height="82" viewBox="0 0 88 82" fill="none" xmlns="http://www.w3.org/2000/svg">
<path d="M29.679 67.7632C30.0302 67.7632 30.3149 68.04 30.3149 68.3816C30.3149 68.7231 30.0302 69 29.679 69H28.5C28.1488 69 27.8641 68.7231 27.8641 68.3816C27.8641 68.04 28.1488 67.7632 28.5 67.7632H29.679ZM34.395 67.7632C34.7462 67.7632 35.0309 68.04 35.0309 68.3816C35.0309 68.7231 34.7462 69 34.395 69H32.037C31.6858 69 31.4012 68.7231 31.4012 68.3816C31.4012 68.04 31.6858 67.7632 32.037 67.7632H34.395ZM39.1111 67.7632C39.4623 67.7632 39.7469 68.04 39.7469 68.3816C39.7469 68.7231 39.4623 69 39.1111 69H36.7531C36.4019 69 36.1172 68.7231 36.1172 68.3816C36.1172 68.04 36.4019 67.7632 36.7531 67.7632H39.1111ZM43.8271 67.7632C44.1783 67.7632 44.463 68.04 44.463 68.3816C44.463 68.7231 44.1783 69 43.8271 69H41.4691C41.1179 69 40.8332 68.7231 40.8332 68.3816C40.8332 68.04 41.1179 67.7632 41.4691 67.7632H43.8271ZM47.3641 67.7632C47.7153 67.7632 48 68.04 48 68.3816C48 68.7231 47.7153 69 47.3641 69H46.1851C45.8339 69 45.5493 68.7231 45.5493 68.3816C45.5493 68.04 45.8339 67.7632 46.1851 67.7632H47.3641ZM26.4599 52.5088C26.8111 52.5088 27.0958 52.7856 27.0958 53.1272C27.0958 53.4687 26.8111 53.7456 26.4599 53.7456H25.3207C24.9695 53.7456 24.6848 53.4687 24.6848 53.1272C24.6848 52.7856 24.9695 52.5088 25.3207 52.5088H26.4599ZM31.017 52.5088C31.3682 52.5088 31.6529 52.7856 31.6529 53.1272C31.6529 53.4687 31.3682 53.7456 31.017 53.7456H28.7385C28.3873 53.7456 28.1026 53.4687 28.1026 53.1272C28.1026 52.7856 28.3873 52.5088 28.7385 52.5088H31.017ZM34.4348 52.5088C34.786 52.5088 35.0707 52.7856 35.0707 53.1272C35.0707 53.4687 34.786 53.7456 34.4348 53.7456H33.2955C32.9443 53.7456 32.6596 53.4687 32.6596 53.1272C32.6596 52.7856 32.9443 52.5088 33.2955 52.5088H34.4348ZM10.7135 37.2544C11.0646 37.2545 11.3493 37.5313 11.3493 37.8728C11.3493 38.2143 11.0646 38.4912 10.7135 38.4912H9.63587C9.28469 38.4912 9 38.2144 9 37.8728C9 37.5313 9.28469 37.2544 9.63587 37.2544H10.7135ZM15.023 37.2544C15.3741 37.2544 15.6588 37.5313 15.6588 37.8728C15.6588 38.2144 15.3741 38.4912 15.023 38.4912H12.8682C12.517 38.4912 12.2323 38.2144 12.2323 37.8728C12.2323 37.5313 12.517 37.2544 12.8682 37.2544H15.023ZM19.3329 37.2544C19.6841 37.2544 19.9687 37.5313 19.9687 37.8728C19.9687 38.2144 19.6841 38.4912 19.3329 38.4912H17.1781C16.8269 38.4912 16.5423 38.2144 16.5423 37.8728C16.5423 37.5313 16.8269 37.2544 17.1781 37.2544H19.3329ZM22.5652 37.2544C22.9164 37.2544 23.2011 37.5313 23.2011 37.8728C23.2011 38.2144 22.9164 38.4912 22.5652 38.4912H21.4876C21.1365 38.4912 20.8518 38.2143 20.8518 37.8728C20.8518 37.5313 21.1365 37.2545 21.4876 37.2544H22.5652ZM10.9453 22C11.2965 22 11.5812 22.2769 11.5812 22.6184C11.5812 22.96 11.2965 23.2368 10.9453 23.2368H9.63587C9.28469 23.2368 9 22.96 9 22.6184C9 22.2769 9.28469 22 9.63587 22H10.9453ZM16.1838 22C16.5349 22 16.8196 22.2769 16.8196 22.6184C16.8196 22.96 16.5349 23.2368 16.1838 23.2368H13.5645C13.2134 23.2368 12.9286 22.9599 12.9286 22.6184C12.9286 22.2769 13.2134 22.0001 13.5645 22H16.1838ZM21.4222 22C21.7734 22 22.0581 22.2769 22.0581 22.6184C22.0581 22.9599 21.7734 23.2368 21.4222 23.2368H18.803C18.4518 23.2368 18.1671 22.96 18.1671 22.6184C18.1671 22.2769 18.4518 22 18.803 22H21.4222ZM26.6607 22C27.0118 22.0001 27.2966 22.2769 27.2966 22.6184C27.2966 22.9599 27.0118 23.2367 26.6607 23.2368H24.0415C23.6903 23.2368 23.4056 22.96 23.4056 22.6184C23.4056 22.2769 23.6903 22 24.0415 22H26.6607ZM31.8988 22C32.2499 22 32.5346 22.2769 32.5346 22.6184C32.5346 22.96 32.2499 23.2368 31.8988 23.2368H29.2795C28.9284 23.2367 28.6436 22.9599 28.6436 22.6184C28.6436 22.2769 28.9284 22.0001 29.2795 22H31.8988ZM37.1372 22C37.4884 22 37.7731 22.2769 37.7731 22.6184C37.7731 22.96 37.4884 23.2368 37.1372 23.2368H34.518C34.1668 23.2368 33.8821 22.9599 33.8821 22.6184C33.8821 22.2769 34.1668 22 34.518 22H37.1372ZM42.3757 22C42.7268 22.0001 43.0116 22.2769 43.0116 22.6184C43.0116 22.9599 42.7268 23.2368 42.3757 23.2368H39.7565C39.4053 23.2368 39.1206 22.96 39.1206 22.6184C39.1206 22.2769 39.4053 22 39.7565 22H42.3757ZM46.3043 22C46.6555 22 46.9402 22.2769 46.9402 22.6184C46.9402 22.96 46.6555 23.2368 46.3043 23.2368H44.9949C44.6438 23.2368 44.3591 22.96 44.3591 22.6184C44.3591 22.2769 44.6438 22 44.9949 22H46.3043Z" fill="white"/>
<path d="M8 71.6429L17.2935 77V63.9286L8 58.7857V71.6429Z" fill="#00D4FF"/>
<path d="M17.9286 64.8296V76.3063L26.7143 71.6858V60.3941L17.9286 64.8296ZM8.28571 71.6933L16.6429 76.284V64.8217L8.28571 60.4148V71.6933ZM8.94699 59.3232L17.292 63.7235L26.0082 59.3228L17.2924 54.3725L8.94699 59.3232ZM28 72.0678C28 72.3028 27.8687 72.5185 27.6589 72.6289L17.5875 77.9255C17.3951 78.0266 17.164 78.0247 16.9735 77.9201L7.33064 72.6235C7.12655 72.5114 7 72.2986 7 72.0678V59.3559C7 59.1326 7.11859 58.9258 7.31222 58.8109L16.9551 53.0905L17.0321 53.0516C17.2164 52.9734 17.4291 52.9839 17.6059 53.0843L27.6773 58.8047C27.8769 58.918 28 59.1283 28 59.3559V72.0678Z" fill="#00D4FF"/>
<path d="M49 75.8661L58.2935 81V68.4732L49 63.5446V75.8661Z" fill="#00D4FF"/>
<path d="M58.9286 68.8296V80.3063L67.7143 75.6858V64.3941L58.9286 68.8296ZM49.2857 75.6933L57.6429 80.284V68.8217L49.2857 64.4148V75.6933ZM49.947 63.3232L58.292 67.7235L67.0082 63.3228L58.2924 58.3725L49.947 63.3232ZM69 76.0678C69 76.3028 68.8687 76.5185 68.6589 76.6289L58.5875 81.9255C58.3951 82.0266 58.164 82.0247 57.9735 81.9201L48.3306 76.6235C48.1266 76.5114 48 76.2986 48 76.0678V63.3559C48 63.1326 48.1186 62.9258 48.3122 62.8109L57.9551 57.0905L58.0321 57.0516C58.2164 56.9734 58.4291 56.9839 58.6059 57.0843L68.6773 62.8047C68.8769 62.918 69 63.1283 69 63.3559V76.0678Z" fill="#00D4FF"/>
<path d="M64.7491 56.3617V53.6065L59.8828 47.3989C59.6671 47.1237 59.7106 46.722 59.9801 46.5017C60.2498 46.2816 60.6434 46.326 60.8592 46.6011L65.8628 52.984C65.9515 53.0972 66 53.238 66 53.383V56.3617C66 56.7142 65.72 57 65.3746 57C65.0291 57 64.7491 56.7142 64.7491 56.3617ZM30.1568 37.5747C30.4216 37.3483 30.8157 37.3839 31.0376 37.6541L43.9634 53.3988C44.1852 53.669 44.1503 54.0712 43.8856 54.2976C43.6208 54.524 43.2267 54.4885 43.0048 54.2182L30.079 38.4736C29.8572 38.2033 29.892 37.8011 30.1568 37.5747ZM54.9383 46.3226C55.1896 46.0808 55.5858 46.0927 55.8227 46.3492C56.0597 46.6057 56.048 47.01 55.7967 47.2518L48.4998 54.2731C48.2485 54.5149 47.8524 54.503 47.6154 54.2465C47.3785 53.99 47.3902 53.5857 47.6415 53.3439L54.9383 46.3226ZM25.3817 37.1325C25.6554 36.9175 26.048 36.9696 26.2588 37.2489C26.4695 37.5282 26.4184 37.9289 26.1448 38.144L8.00696 52.3993C7.73329 52.6144 7.34062 52.5623 7.12988 52.283C6.91917 52.0037 6.97024 51.603 7.24389 51.3879L25.3817 37.1325Z" fill="#00D4FF"/>
<path d="M46.2978 28.0789C46.4913 27.9727 46.7268 27.9738 46.9193 28.0818L56.6768 33.5555C56.8782 33.6685 57.0019 33.881 57 34.1106C56.998 34.3401 56.8705 34.5507 56.6673 34.6603L46.9097 39.9235C46.7221 40.0247 46.4959 40.0255 46.3074 39.926L36.3377 34.6628C36.1317 34.5541 36.002 34.3422 36 34.1106C35.9981 33.879 36.124 33.6648 36.3281 33.5526L46.2978 28.0789ZM37.9704 34.0941L46.6023 38.6513L55.0507 34.0941L46.6027 29.3548L37.9704 34.0941Z" fill="#00D4FF"/>
<path d="M76.2954 38.4897L76.5063 72L85.789 65.9263L86 33.2537L76.2954 38.4897Z" fill="#00D4FF"/>
<path d="M77.3477 38.3536L77.5482 70.2163L85.5329 64.983L85.7338 33.8218L77.3477 38.3536ZM45.8642 48.8348V39.4435C45.8642 39.0977 46.1461 38.8174 46.4938 38.8174C46.8416 38.8174 47.1235 39.0977 47.1235 39.4435V48.8348C47.1235 49.1806 46.8416 49.4609 46.4938 49.4609C46.1461 49.4609 45.8642 49.1806 45.8642 48.8348ZM66.2222 47.3739V32.7653C66.2222 32.5375 66.3465 32.3277 66.5469 32.2174L76.4111 26.7914L76.4848 26.7567C76.6602 26.6879 76.8593 26.7006 77.0259 26.7942L86.6803 32.2203C86.8791 32.3321 87.0015 32.5422 87 32.7693L86.7901 65.3258C86.7887 65.5349 86.6824 65.7292 86.5069 65.8443L77.2723 71.8965C77.0785 72.0235 76.83 72.0345 76.6259 71.9246L71.5888 69.2115C71.2831 69.0468 71.1695 68.6665 71.3351 68.3625C71.5007 68.0585 71.8832 67.9455 72.1889 68.1102L76.2893 70.3186L76.0885 38.3597L67.4815 33.8071V47.3739C67.4815 47.7197 67.1996 48 66.8518 48C66.5041 48 66.2222 47.7197 66.2222 47.3739ZM55.5185 40.0696V34.2261C55.5185 33.8804 55.8004 33.6 56.1481 33.6C56.4959 33.6 56.7778 33.8804 56.7778 34.2261V40.0696C56.7778 40.4154 56.4959 40.6957 56.1481 40.6957C55.8004 40.6957 55.5185 40.4154 55.5185 40.0696ZM36 39.4435V34.2261C36 33.8804 36.2819 33.6 36.6296 33.6C36.9774 33.6 37.2593 33.8804 37.2593 34.2261V39.4435C37.2593 39.7893 36.9774 40.0696 36.6296 40.0696C36.2819 40.0696 36 39.7893 36 39.4435ZM68.1718 32.7543L76.7124 37.2718L85.0713 32.7543L76.7128 28.0562L68.1718 32.7543ZM46.9136 25.0435V6.88703C46.9136 6.86973 46.9147 6.85262 46.916 6.83568C46.9153 6.82456 46.9137 6.81347 46.9136 6.80225C46.9117 6.57423 47.0347 6.36297 47.2345 6.25117L58.2654 0.0803847L58.34 0.0449228C58.5174 -0.0258092 58.7196 -0.0129973 58.888 0.0832379L69.6839 6.25402C69.8815 6.36692 70.0025 6.57734 70 6.80388L69.7901 25.8852C69.7863 26.231 69.5012 26.5082 69.1535 26.5044C68.8058 26.5006 68.5271 26.2171 68.5309 25.8714L68.7288 7.86448L59.2053 13.0986L59.2963 30.8837C59.2981 31.2295 59.0176 31.5113 58.6699 31.5131C58.3222 31.5148 58.0388 31.236 58.037 30.8903L57.946 13.1047L48.1728 7.84736V25.0435C48.1728 25.3893 47.8909 25.6696 47.5432 25.6696C47.1955 25.6696 46.9136 25.3893 46.9136 25.0435ZM48.8463 6.78595L58.5707 12.0168L68.0881 6.78595L58.5707 1.34642L48.8463 6.78595Z" fill="#00D4FF"/>
<path d="M29.8 36.5C29.8 35.3402 28.9941 34.4 28 34.4C27.0059 34.4 26.2 35.3402 26.2 36.5C26.2 37.6598 27.0059 38.6 28 38.6V40C26.3431 40 25 38.433 25 36.5C25 34.567 26.3431 33 28 33C29.6569 33 31 34.567 31 36.5C31 38.433 29.6569 40 28 40V38.6C28.9941 38.6 29.8 37.6598 29.8 36.5Z" fill="#00D4FF"/>
<path d="M6.8 53C6.8 52.0059 5.99411 51.2 5 51.2C4.00589 51.2 3.2 52.0059 3.2 53C3.2 53.9941 4.00589 54.8 5 54.8V56C3.34315 56 2 54.6569 2 53C2 51.3431 3.34315 50 5 50C6.65685 50 8 51.3431 8 53C8 54.6569 6.65685 56 5 56V54.8C5.99411 54.8 6.8 53.9941 6.8 53Z" fill="#00D4FF"/>
<path d="M47.8 56C47.8 55.0059 46.9941 54.2 46 54.2C45.0059 54.2 44.2 55.0059 44.2 56C44.2 56.9941 45.0059 57.8 46 57.8V59C44.3431 59 43 57.6569 43 56C43 54.3431 44.3431 53 46 53C47.6569 53 49 54.3431 49 56C49 57.6569 47.6569 59 46 59V57.8C46.9941 57.8 47.8 56.9941 47.8 56Z" fill="#00D4FF"/>
<path d="M59.8 46C59.8 45.0059 58.9941 44.2 58 44.2C57.0059 44.2 56.2 45.0059 56.2 46C56.2 46.9941 57.0059 47.8 58 47.8V49C56.3431 49 55 47.6569 55 46C55 44.3431 56.3431 43 58 43C59.6569 43 61 44.3431 61 46C61 47.6569 59.6569 49 58 49V47.8C58.9941 47.8 59.8 46.9941 59.8 46Z" fill="#00D4FF"/>
<path d="M3.88891 50.3621V16.1779L1.04311 19.1487C0.804462 19.3978 0.417632 19.3978 0.178985 19.1487C-0.0596617 18.8995 -0.0596617 18.4957 0.178985 18.2466L4.06794 14.1868C4.30658 13.9377 4.69342 13.9377 4.93206 14.1868L8.82102 18.2466C9.05966 18.4957 9.05966 18.8995 8.82102 19.1487C8.58237 19.3978 8.19554 19.3978 7.95689 19.1487L5.11109 16.1779V50.3621C5.11109 50.7144 4.8375 51 4.5 51C4.1625 51 3.88891 50.7144 3.88891 50.3621Z" fill="#00D4FF"/>
<path d="M49 7C49 8.10457 48.1046 9 47 9C45.8954 9 45 8.10457 45 7C45 5.89543 45.8954 5 47 5C48.1046 5 49 5.89543 49 7Z" fill="#00D4FF"/>
<path d="M48 39.5C48 40.3284 47.1046 41 46 41C44.8954 41 44 40.3284 44 39.5C44 38.6716 44.8954 38 46 38C47.1046 38 48 38.6716 48 39.5Z" fill="#00D4FF"/>
<path d="M88 33C88 34.1046 87.3284 35 86.5 35C85.6716 35 85 34.1046 85 33C85 31.8954 85.6716 31 86.5 31C87.3284 31 88 31.8954 88 33Z" fill="#00D4FF"/>
<path d="M19 53.5C19 54.3284 18.3284 55 17.5 55C16.6716 55 16 54.3284 16 53.5C16 52.6716 16.6716 52 17.5 52C18.3284 52 19 52.6716 19 53.5Z" fill="#00D4FF"/>
<path d="M51 62.5C51 63.3284 50.1046 64 49 64C47.8954 64 47 63.3284 47 62.5C47 61.6716 47.8954 61 49 61C50.1046 61 51 61.6716 51 62.5Z" fill="#00D4FF"/>
<path d="M16 31.5C16 32.3284 15.3284 33 14.5 33C13.6716 33 13 32.3284 13 31.5C13 30.6716 13.6716 30 14.5 30C15.3284 30 16 30.6716 16 31.5Z" fill="#00D4FF"/>
<path d="M38 22.5C38 23.8807 36.8807 25 35.5 25C34.1193 25 33 23.8807 33 22.5C33 21.1193 34.1193 20 35.5 20C36.8807 20 38 21.1193 38 22.5Z" fill="#00D4FF"/>
<path d="M11.5311 71.7791L9.65625 70.7398V66.1232C9.87769 63.5459 12.0921 64.3567 12.9335 64.8731C13.775 65.3896 16.2108 66.8398 16.3732 70.3298C16.5031 73.1218 14.6066 73.2394 13.6421 72.9492L12.3873 72.2537V70.087C13.6864 70.8338 14.2277 71.0072 14.336 71.0005V69.2005C14.331 68.77 14.0437 67.7485 12.9335 67.1065C11.8234 66.4644 11.536 67.1985 11.5311 67.6457V71.7791Z" fill="white"/>
<path d="M15.266 68.1403C14.8763 66.5909 13.4896 65.272 12.8745 64.8366C15.4284 66.2523 16.1517 68.3699 16.2994 69.5851C15.9333 70.9021 14.8231 71.1001 14.336 70.9967V70.0967C14.8034 70.0892 15.6557 69.6897 15.266 68.1403Z" fill="url(#paint0_linear_2125_10023)"/>
<defs>
<linearGradient id="paint0_linear_2125_10023" x1="14.6017" y1="65.794" x2="12.3566" y2="69.8442" gradientUnits="userSpaceOnUse">
<stop stop-color="#7293FA"/>
<stop offset="0.1593" stop-color="#81ABFF"/>
<stop offset="0.500398" stop-color="#ABC6FB"/>
<stop offset="1" stop-color="#BCD3FC"/>
</linearGradient>
</defs>
</svg>
