<svg width="154" height="148" viewBox="0 0 154 148" fill="none" xmlns="http://www.w3.org/2000/svg">
<g filter="url(#filter0_d_2125_9738)">
<path d="M62.679 100.763C63.0302 100.763 63.3149 101.04 63.3149 101.382C63.3149 101.723 63.0302 102 62.679 102H61.5C61.1488 102 60.8641 101.723 60.8641 101.382C60.8641 101.04 61.1488 100.763 61.5 100.763H62.679ZM67.395 100.763C67.7462 100.763 68.0309 101.04 68.0309 101.382C68.0309 101.723 67.7462 102 67.395 102H65.037C64.6858 102 64.4012 101.723 64.4012 101.382C64.4012 101.04 64.6858 100.763 65.037 100.763H67.395ZM72.1111 100.763C72.4623 100.763 72.7469 101.04 72.7469 101.382C72.7469 101.723 72.4623 102 72.1111 102H69.7531C69.4019 102 69.1172 101.723 69.1172 101.382C69.1172 101.04 69.4019 100.763 69.7531 100.763H72.1111ZM76.8271 100.763C77.1783 100.763 77.463 101.04 77.463 101.382C77.463 101.723 77.1783 102 76.8271 102H74.4691C74.1179 102 73.8332 101.723 73.8332 101.382C73.8332 101.04 74.1179 100.763 74.4691 100.763H76.8271ZM80.3641 100.763C80.7153 100.763 81 101.04 81 101.382C81 101.723 80.7153 102 80.3641 102H79.1851C78.8339 102 78.5493 101.723 78.5493 101.382C78.5493 101.04 78.8339 100.763 79.1851 100.763H80.3641ZM59.4599 85.5088C59.8111 85.5088 60.0958 85.7856 60.0958 86.1272C60.0958 86.4687 59.8111 86.7456 59.4599 86.7456H58.3207C57.9695 86.7456 57.6848 86.4687 57.6848 86.1272C57.6848 85.7856 57.9695 85.5088 58.3207 85.5088H59.4599ZM64.017 85.5088C64.3682 85.5088 64.6529 85.7856 64.6529 86.1272C64.6529 86.4687 64.3682 86.7456 64.017 86.7456H61.7385C61.3873 86.7456 61.1026 86.4687 61.1026 86.1272C61.1026 85.7856 61.3873 85.5088 61.7385 85.5088H64.017ZM67.4348 85.5088C67.786 85.5088 68.0707 85.7856 68.0707 86.1272C68.0707 86.4687 67.786 86.7456 67.4348 86.7456H66.2955C65.9443 86.7456 65.6596 86.4687 65.6596 86.1272C65.6596 85.7856 65.9443 85.5088 66.2955 85.5088H67.4348ZM43.7135 70.2544C44.0646 70.2545 44.3493 70.5313 44.3493 70.8728C44.3493 71.2143 44.0646 71.4912 43.7135 71.4912H42.6359C42.2847 71.4912 42 71.2144 42 70.8728C42 70.5313 42.2847 70.2544 42.6359 70.2544H43.7135ZM48.023 70.2544C48.3741 70.2544 48.6588 70.5313 48.6588 70.8728C48.6588 71.2144 48.3741 71.4912 48.023 71.4912H45.8682C45.517 71.4912 45.2323 71.2144 45.2323 70.8728C45.2323 70.5313 45.517 70.2544 45.8682 70.2544H48.023ZM52.3329 70.2544C52.6841 70.2544 52.9687 70.5313 52.9687 70.8728C52.9687 71.2144 52.6841 71.4912 52.3329 71.4912H50.1781C49.8269 71.4912 49.5423 71.2144 49.5423 70.8728C49.5423 70.5313 49.8269 70.2544 50.1781 70.2544H52.3329ZM55.5652 70.2544C55.9164 70.2544 56.2011 70.5313 56.2011 70.8728C56.2011 71.2144 55.9164 71.4912 55.5652 71.4912H54.4876C54.1365 71.4912 53.8518 71.2143 53.8518 70.8728C53.8518 70.5313 54.1365 70.2545 54.4876 70.2544H55.5652ZM43.9453 55C44.2965 55 44.5812 55.2769 44.5812 55.6184C44.5812 55.96 44.2965 56.2368 43.9453 56.2368H42.6359C42.2847 56.2368 42 55.96 42 55.6184C42 55.2769 42.2847 55 42.6359 55H43.9453ZM49.1838 55C49.5349 55 49.8196 55.2769 49.8196 55.6184C49.8196 55.96 49.5349 56.2368 49.1838 56.2368H46.5645C46.2134 56.2368 45.9286 55.9599 45.9286 55.6184C45.9286 55.2769 46.2134 55.0001 46.5645 55H49.1838ZM54.4222 55C54.7734 55 55.0581 55.2769 55.0581 55.6184C55.0581 55.9599 54.7734 56.2368 54.4222 56.2368H51.803C51.4518 56.2368 51.1671 55.96 51.1671 55.6184C51.1671 55.2769 51.4518 55 51.803 55H54.4222ZM59.6607 55C60.0118 55.0001 60.2966 55.2769 60.2966 55.6184C60.2966 55.9599 60.0118 56.2367 59.6607 56.2368H57.0415C56.6903 56.2368 56.4056 55.96 56.4056 55.6184C56.4056 55.2769 56.6903 55 57.0415 55H59.6607ZM64.8988 55C65.2499 55 65.5346 55.2769 65.5346 55.6184C65.5346 55.96 65.2499 56.2368 64.8988 56.2368H62.2795C61.9284 56.2367 61.6436 55.9599 61.6436 55.6184C61.6436 55.2769 61.9284 55.0001 62.2795 55H64.8988ZM70.1372 55C70.4884 55 70.7731 55.2769 70.7731 55.6184C70.7731 55.96 70.4884 56.2368 70.1372 56.2368H67.518C67.1668 56.2368 66.8821 55.9599 66.8821 55.6184C66.8821 55.2769 67.1668 55 67.518 55H70.1372ZM75.3757 55C75.7268 55.0001 76.0116 55.2769 76.0116 55.6184C76.0116 55.9599 75.7268 56.2368 75.3757 56.2368H72.7565C72.4053 56.2368 72.1206 55.96 72.1206 55.6184C72.1206 55.2769 72.4053 55 72.7565 55H75.3757ZM79.3043 55C79.6555 55 79.9402 55.2769 79.9402 55.6184C79.9402 55.96 79.6555 56.2368 79.3043 56.2368H77.9949C77.6438 56.2368 77.3591 55.96 77.3591 55.6184C77.3591 55.2769 77.6438 55 77.9949 55H79.3043Z" fill="white"/>
<path d="M41 104.643L50.2935 110V96.9286L41 91.7857V104.643Z" fill="#00D4FF"/>
<path d="M50.9286 97.8296V109.306L59.7143 104.686V93.3941L50.9286 97.8296ZM41.2857 104.693L49.6429 109.284V97.8217L41.2857 93.4148V104.693ZM41.947 92.3232L50.292 96.7235L59.0082 92.3228L50.2924 87.3725L41.947 92.3232ZM61 105.068C61 105.303 60.8687 105.519 60.6589 105.629L50.5875 110.926C50.3951 111.027 50.164 111.025 49.9735 110.92L40.3306 105.624C40.1266 105.511 40 105.299 40 105.068V92.3559C40 92.1326 40.1186 91.9258 40.3122 91.8109L49.9551 86.0905L50.0321 86.0516C50.2164 85.9734 50.4291 85.9839 50.6059 86.0843L60.6773 91.8047C60.8769 91.918 61 92.1283 61 92.3559V105.068Z" fill="#00D4FF"/>
<path d="M82 108.866L91.2935 114V101.473L82 96.5446V108.866Z" fill="#00D4FF"/>
<path d="M91.9286 101.83V113.306L100.714 108.686V97.3941L91.9286 101.83ZM82.2857 108.693L90.6429 113.284V101.822L82.2857 97.4148V108.693ZM82.947 96.3232L91.292 100.724L100.008 96.3228L91.2924 91.3725L82.947 96.3232ZM102 109.068C102 109.303 101.869 109.519 101.659 109.629L91.5875 114.926C91.3951 115.027 91.164 115.025 90.9735 114.92L81.3306 109.624C81.1266 109.511 81 109.299 81 109.068V96.3559C81 96.1326 81.1186 95.9258 81.3122 95.8109L90.9551 90.0905L91.0321 90.0516C91.2164 89.9734 91.4291 89.9839 91.6059 90.0843L101.677 95.8047C101.877 95.918 102 96.1283 102 96.3559V109.068Z" fill="#00D4FF"/>
<path d="M97.7491 89.3617V86.6065L92.8828 80.3989C92.6671 80.1237 92.7106 79.722 92.9801 79.5017C93.2498 79.2816 93.6434 79.326 93.8592 79.6011L98.8628 85.984C98.9515 86.0972 99 86.238 99 86.383V89.3617C99 89.7142 98.72 90 98.3746 90C98.0291 90 97.7491 89.7142 97.7491 89.3617ZM63.1568 70.5747C63.4216 70.3483 63.8157 70.3839 64.0376 70.6541L76.9634 86.3988C77.1852 86.669 77.1503 87.0712 76.8856 87.2976C76.6208 87.524 76.2267 87.4885 76.0048 87.2182L63.079 71.4736C62.8572 71.2033 62.892 70.8011 63.1568 70.5747ZM87.9383 79.3226C88.1896 79.0808 88.5858 79.0927 88.8227 79.3492C89.0597 79.6057 89.048 80.01 88.7967 80.2518L81.4998 87.2731C81.2485 87.5149 80.8524 87.503 80.6154 87.2465C80.3785 86.99 80.3902 86.5857 80.6415 86.3439L87.9383 79.3226ZM58.3817 70.1325C58.6554 69.9175 59.048 69.9696 59.2588 70.2489C59.4695 70.5282 59.4184 70.9289 59.1448 71.144L41.007 85.3993C40.7333 85.6144 40.3406 85.5623 40.1299 85.283C39.9192 85.0037 39.9702 84.603 40.2439 84.3879L58.3817 70.1325Z" fill="#00D4FF"/>
<path d="M79.2978 61.0789C79.4913 60.9727 79.7268 60.9738 79.9193 61.0818L89.6768 66.5555C89.8782 66.6685 90.0019 66.881 90 67.1106C89.998 67.3401 89.8705 67.5507 89.6673 67.6603L79.9097 72.9235C79.7221 73.0247 79.4959 73.0255 79.3074 72.926L69.3377 67.6628C69.1317 67.5541 69.002 67.3422 69 67.1106C68.9981 66.879 69.124 66.6648 69.3281 66.5526L79.2978 61.0789ZM70.9704 67.0941L79.6023 71.6513L88.0507 67.0941L79.6027 62.3548L70.9704 67.0941Z" fill="#00D4FF"/>
<path d="M109.295 71.4897L109.506 105L118.789 98.9263L119 66.2537L109.295 71.4897Z" fill="#00D4FF"/>
<path d="M110.348 71.3536L110.548 103.216L118.533 97.983L118.734 66.8218L110.348 71.3536ZM78.8642 81.8348V72.4435C78.8642 72.0977 79.1461 71.8174 79.4938 71.8174C79.8416 71.8174 80.1235 72.0977 80.1235 72.4435V81.8348C80.1235 82.1806 79.8416 82.4609 79.4938 82.4609C79.1461 82.4609 78.8642 82.1806 78.8642 81.8348ZM99.2222 80.3739V65.7653C99.2222 65.5375 99.3465 65.3277 99.5469 65.2174L109.411 59.7914L109.485 59.7567C109.66 59.6879 109.859 59.7006 110.026 59.7942L119.68 65.2203C119.879 65.3321 120.001 65.5422 120 65.7693L119.79 98.3258C119.789 98.5349 119.682 98.7292 119.507 98.8443L110.272 104.896C110.078 105.023 109.83 105.035 109.626 104.925L104.589 102.212C104.283 102.047 104.169 101.667 104.335 101.362C104.501 101.059 104.883 100.946 105.189 101.11L109.289 103.319L109.088 71.3597L100.481 66.8071V80.3739C100.481 80.7197 100.2 81 99.8518 81C99.5041 81 99.2222 80.7197 99.2222 80.3739ZM88.5185 73.0696V67.2261C88.5185 66.8804 88.8004 66.6 89.1481 66.6C89.4959 66.6 89.7778 66.8804 89.7778 67.2261V73.0696C89.7778 73.4154 89.4959 73.6957 89.1481 73.6957C88.8004 73.6957 88.5185 73.4154 88.5185 73.0696ZM69 72.4435V67.2261C69 66.8804 69.2819 66.6 69.6296 66.6C69.9774 66.6 70.2593 66.8804 70.2593 67.2261V72.4435C70.2593 72.7893 69.9774 73.0696 69.6296 73.0696C69.2819 73.0696 69 72.7893 69 72.4435ZM101.172 65.7543L109.712 70.2718L118.071 65.7543L109.713 61.0562L101.172 65.7543ZM79.9136 58.0435V39.887C79.9136 39.8697 79.9147 39.8526 79.916 39.8357C79.9153 39.8246 79.9137 39.8135 79.9136 39.8023C79.9117 39.5742 80.0347 39.363 80.2345 39.2512L91.2654 33.0804L91.34 33.0449C91.5174 32.9742 91.7196 32.987 91.888 33.0832L102.684 39.254C102.881 39.3669 103.002 39.5773 103 39.8039L102.79 58.8852C102.786 59.231 102.501 59.5082 102.154 59.5044C101.806 59.5006 101.527 59.2171 101.531 58.8714L101.729 40.8645L92.2053 46.0986L92.2963 63.8837C92.2981 64.2295 92.0176 64.5113 91.6699 64.5131C91.3222 64.5148 91.0388 64.236 91.037 63.8903L90.946 46.1047L81.1728 40.8474V58.0435C81.1728 58.3893 80.8909 58.6696 80.5432 58.6696C80.1955 58.6696 79.9136 58.3893 79.9136 58.0435ZM81.8463 39.7859L91.5707 45.0168L101.088 39.7859L91.5707 34.3464L81.8463 39.7859Z" fill="#00D4FF"/>
<path d="M62.8 69.5C62.8 68.3402 61.9941 67.4 61 67.4C60.0059 67.4 59.2 68.3402 59.2 69.5C59.2 70.6598 60.0059 71.6 61 71.6V73C59.3431 73 58 71.433 58 69.5C58 67.567 59.3431 66 61 66C62.6569 66 64 67.567 64 69.5C64 71.433 62.6569 73 61 73V71.6C61.9941 71.6 62.8 70.6598 62.8 69.5Z" fill="#00D4FF"/>
<path d="M39.8 86C39.8 85.0059 38.9941 84.2 38 84.2C37.0059 84.2 36.2 85.0059 36.2 86C36.2 86.9941 37.0059 87.8 38 87.8V89C36.3431 89 35 87.6569 35 86C35 84.3431 36.3431 83 38 83C39.6569 83 41 84.3431 41 86C41 87.6569 39.6569 89 38 89V87.8C38.9941 87.8 39.8 86.9941 39.8 86Z" fill="#00D4FF"/>
<path d="M80.8 89C80.8 88.0059 79.9941 87.2 79 87.2C78.0059 87.2 77.2 88.0059 77.2 89C77.2 89.9941 78.0059 90.8 79 90.8V92C77.3431 92 76 90.6569 76 89C76 87.3431 77.3431 86 79 86C80.6569 86 82 87.3431 82 89C82 90.6569 80.6569 92 79 92V90.8C79.9941 90.8 80.8 89.9941 80.8 89Z" fill="#00D4FF"/>
<path d="M92.8 79C92.8 78.0059 91.9941 77.2 91 77.2C90.0059 77.2 89.2 78.0059 89.2 79C89.2 79.9941 90.0059 80.8 91 80.8V82C89.3431 82 88 80.6569 88 79C88 77.3431 89.3431 76 91 76C92.6569 76 94 77.3431 94 79C94 80.6569 92.6569 82 91 82V80.8C91.9941 80.8 92.8 79.9941 92.8 79Z" fill="#00D4FF"/>
<path d="M36.8889 83.3621V49.1779L34.0431 52.1487C33.8045 52.3978 33.4176 52.3978 33.179 52.1487C32.9403 51.8995 32.9403 51.4957 33.179 51.2466L37.0679 47.1868C37.3066 46.9377 37.6934 46.9377 37.9321 47.1868L41.821 51.2466C42.0597 51.4957 42.0597 51.8995 41.821 52.1487C41.5824 52.3978 41.1955 52.3978 40.9569 52.1487L38.1111 49.1779V83.3621C38.1111 83.7144 37.8375 84 37.5 84C37.1625 84 36.8889 83.7144 36.8889 83.3621Z" fill="#00D4FF"/>
<path d="M82 40C82 41.1046 81.1046 42 80 42C78.8954 42 78 41.1046 78 40C78 38.8954 78.8954 38 80 38C81.1046 38 82 38.8954 82 40Z" fill="#00D4FF"/>
<path d="M81 72.5C81 73.3284 80.1046 74 79 74C77.8954 74 77 73.3284 77 72.5C77 71.6716 77.8954 71 79 71C80.1046 71 81 71.6716 81 72.5Z" fill="#00D4FF"/>
<path d="M121 66C121 67.1046 120.328 68 119.5 68C118.672 68 118 67.1046 118 66C118 64.8954 118.672 64 119.5 64C120.328 64 121 64.8954 121 66Z" fill="#00D4FF"/>
<path d="M52 86.5C52 87.3284 51.3284 88 50.5 88C49.6716 88 49 87.3284 49 86.5C49 85.6716 49.6716 85 50.5 85C51.3284 85 52 85.6716 52 86.5Z" fill="#00D4FF"/>
<path d="M84 95.5C84 96.3284 83.1046 97 82 97C80.8954 97 80 96.3284 80 95.5C80 94.6716 80.8954 94 82 94C83.1046 94 84 94.6716 84 95.5Z" fill="#00D4FF"/>
<path d="M49 64.5C49 65.3284 48.3284 66 47.5 66C46.6716 66 46 65.3284 46 64.5C46 63.6716 46.6716 63 47.5 63C48.3284 63 49 63.6716 49 64.5Z" fill="#00D4FF"/>
<path d="M71 55.5C71 56.8807 69.8807 58 68.5 58C67.1193 58 66 56.8807 66 55.5C66 54.1193 67.1193 53 68.5 53C69.8807 53 71 54.1193 71 55.5Z" fill="#00D4FF"/>
<path d="M44.5311 104.779L42.6562 103.74V99.1232C42.8777 96.5459 45.0921 97.3567 45.9335 97.8731C46.775 98.3896 49.2108 99.8398 49.3732 103.33C49.5031 106.122 47.6066 106.239 46.6421 105.949L45.3873 105.254V103.087C46.6864 103.834 47.2277 104.007 47.336 104.001V102.201C47.331 101.77 47.0437 100.748 45.9335 100.106C44.8234 99.4644 44.536 100.198 44.5311 100.646V104.779Z" fill="white"/>
<path d="M48.266 101.14C47.8763 99.5909 46.4896 98.272 45.8745 97.8366C48.4284 99.2523 49.1517 101.37 49.2994 102.585C48.9333 103.902 47.8231 104.1 47.336 103.997V103.097C47.8034 103.089 48.6557 102.69 48.266 101.14Z" fill="url(#paint0_linear_2125_9738)"/>
</g>
<defs>
<filter id="filter0_d_2125_9738" x="0" y="0" width="154" height="148" filterUnits="userSpaceOnUse" color-interpolation-filters="sRGB">
<feFlood flood-opacity="0" result="BackgroundImageFix"/>
<feColorMatrix in="SourceAlpha" type="matrix" values="0 0 0 0 0 0 0 0 0 0 0 0 0 0 0 0 0 0 127 0" result="hardAlpha"/>
<feOffset/>
<feGaussianBlur stdDeviation="16.5"/>
<feComposite in2="hardAlpha" operator="out"/>
<feColorMatrix type="matrix" values="0 0 0 0 0 0 0 0 0 0.95 0 0 0 0 1 0 0 0 1 0"/>
<feBlend mode="normal" in2="BackgroundImageFix" result="effect1_dropShadow_2125_9738"/>
<feBlend mode="normal" in="SourceGraphic" in2="effect1_dropShadow_2125_9738" result="shape"/>
</filter>
<linearGradient id="paint0_linear_2125_9738" x1="47.6017" y1="98.794" x2="45.3566" y2="102.844" gradientUnits="userSpaceOnUse">
<stop stop-color="#7293FA"/>
<stop offset="0.1593" stop-color="#81ABFF"/>
<stop offset="0.500398" stop-color="#ABC6FB"/>
<stop offset="1" stop-color="#BCD3FC"/>
</linearGradient>
</defs>
</svg>
