<svg width="71" height="68" viewBox="0 0 71 68" fill="none" xmlns="http://www.w3.org/2000/svg">
<path d="M56.4418 9.25921L60.6199 4.37142C61.2515 3.63254 60.8476 2.53587 59.8759 2.50891C57.3195 2.438 53.5277 2.89943 51.2539 5.344C48.5679 8.23169 49.1628 12.1011 50.0304 14.3112C50.2396 14.8441 50.1459 15.4644 49.7321 15.8598L40.5558 24.6283C40.0561 25.1058 40.0279 25.8946 40.4922 26.4066L43.1998 29.3921C43.6709 29.9115 44.4729 29.9531 44.9951 29.4851L55.2495 20.2951C55.5927 19.9876 56.0729 19.8946 56.521 20.0023C58.8735 20.5674 63.2087 20.6655 66.2346 17.469C68.8803 14.6741 68.4695 10.9661 67.7183 8.74333C67.4585 7.97461 66.5219 7.82456 65.9268 8.37621L60.671 13.2487C60.1814 13.7026 59.4247 13.7019 58.9359 13.2473L56.5426 11.0212C56.0422 10.5558 55.9978 9.77864 56.4418 9.25921Z" fill="#00D4FF"/>
<path d="M59.8853 1.55328C60.7683 1.57782 61.4449 2.1105 61.7231 2.82736C61.9951 3.52866 61.8715 4.35859 61.3293 4.99285L57.1514 9.88051C57.0404 10.0103 57.0515 10.2048 57.1765 10.3212L59.5701 12.5474C59.6923 12.6609 59.8813 12.6608 60.0036 12.5474L65.2592 7.67529C65.7738 7.19821 66.4626 7.00305 67.1092 7.12562C67.772 7.2513 68.3612 7.70986 68.6071 8.43756C69.4032 10.7934 69.9189 14.9495 66.9115 18.1265C63.5443 21.6835 58.7816 21.5328 56.2804 20.932C56.0936 20.8871 55.9478 20.9385 55.8705 21.0077L45.6163 30.1974C44.7025 31.0163 43.2988 30.9435 42.4745 30.0345L39.7668 27.0493C38.9542 26.1533 39.0033 24.7725 39.8779 23.9369L49.0543 15.1689C49.1463 15.0811 49.2123 14.8882 49.123 14.6605C48.2056 12.3233 47.474 7.98562 50.5363 4.69319C53.1079 1.92841 57.2748 1.48087 59.8853 1.55328ZM59.832 3.46481C57.3297 3.39542 53.9128 3.87143 51.9369 5.99576C49.6277 8.47848 50.0853 11.879 50.9029 13.962C51.2319 14.7999 51.1109 15.848 50.3752 16.5511L41.1993 25.3197C41.0744 25.439 41.0674 25.6364 41.1834 25.7644L43.891 28.7503C44.0088 28.8798 44.2091 28.8901 44.3395 28.7733L54.5938 19.5831C55.2029 19.0372 56.0179 18.9023 56.7273 19.0727C58.9311 19.602 62.8386 19.6477 65.5232 16.8118C67.807 14.3991 67.5011 11.1394 66.795 9.04974C66.7892 9.0327 66.784 9.02333 66.7813 9.01923C66.7788 9.01556 66.7768 9.01378 66.7761 9.01318C66.7756 9.01274 66.7697 9.00757 66.7531 9.00439C66.7177 8.99767 66.64 9.00303 66.5596 9.07758L61.304 13.9503C60.4473 14.7445 59.123 14.7431 58.2676 13.9474L55.8739 11.7218C54.9982 10.9073 54.9206 9.54688 55.6977 8.63786L59.8756 3.75019C59.9648 3.64582 59.9554 3.55809 59.9405 3.51947C59.9325 3.49894 59.9224 3.48895 59.9159 3.48431C59.9119 3.48143 59.8905 3.46643 59.832 3.46481Z" fill="white"/>
<path d="M10.185 4.10308C9.30205 4.12763 8.62545 4.6603 8.34726 5.37716C8.07522 6.07846 8.19881 6.90839 8.74098 7.54265L12.9189 12.4303C13.0299 12.5601 13.0189 12.7546 12.8939 12.871L10.5002 15.0972C10.378 15.2107 10.189 15.2106 10.0667 15.0972L4.81114 10.2251C4.29652 9.74801 3.60767 9.55286 2.96112 9.67543C2.29835 9.80111 1.70913 10.2597 1.46322 10.9874C0.667139 13.3432 0.151399 17.4993 3.15879 20.6763C6.52605 24.2333 11.2887 24.0826 13.7899 23.4818C13.9767 23.4369 14.1225 23.4883 14.1998 23.5575L24.454 32.7472C25.3679 33.5661 26.7715 33.4933 27.5958 32.5843L30.3035 29.5991C31.1161 28.7031 31.067 27.3223 30.1924 26.4867L21.016 17.7187C20.9241 17.6309 20.858 17.438 20.9474 17.2103C21.8647 14.8731 22.5963 10.5354 19.534 7.243C16.9624 4.47822 12.7955 4.03067 10.185 4.10308ZM10.2383 6.01461C12.7406 5.94522 16.1575 6.42123 18.1334 8.54556C20.4426 11.0283 19.985 14.4288 19.1674 16.5118C18.8384 17.3497 18.9594 18.3978 19.6951 19.1009L28.871 27.8695C28.9959 27.9889 29.003 28.1862 28.8869 28.3142L26.1793 31.3001C26.0615 31.4296 25.8613 31.4399 25.7308 31.3231L15.4765 22.1329C14.8674 21.587 14.0524 21.4521 13.343 21.6225C11.1392 22.1518 7.2317 22.1975 4.54714 19.3616C2.26334 16.9489 2.56917 13.6892 3.27535 11.5995C3.28111 11.5825 3.28633 11.5731 3.28905 11.569C3.29152 11.5654 3.29348 11.5636 3.29417 11.563C3.29468 11.5625 3.30057 11.5574 3.31717 11.5542C3.35264 11.5475 3.43026 11.5528 3.51069 11.6274L8.76627 16.5001C9.623 17.2943 10.9473 17.2929 11.8027 16.4972L14.1964 14.2716C15.0721 13.4571 15.1497 12.0967 14.3726 11.1877L10.1947 6.3C10.1055 6.19563 10.115 6.1079 10.1298 6.06927C10.1378 6.04874 10.1479 6.03875 10.1544 6.03411C10.1584 6.03123 10.1798 6.01624 10.2383 6.01461Z" fill="white"/>
<path d="M59.8853 66.0537C60.7683 66.0291 61.4449 65.4964 61.7231 64.7796C61.9951 64.0783 61.8715 63.2483 61.3293 62.6141L57.1514 57.7264C57.0404 57.5966 57.0515 57.4021 57.1765 57.2858L59.5701 55.0595C59.6923 54.946 59.8813 54.9461 60.0036 55.0596L65.2592 59.9316C65.7738 60.4087 66.4626 60.6039 67.1092 60.4813C67.772 60.3556 68.3612 59.8971 68.6071 59.1694C69.4032 56.8135 69.9189 52.6574 66.9115 49.4805C63.5443 45.9235 58.7816 46.0741 56.2804 46.6749C56.0936 46.7198 55.9478 46.6685 55.8705 46.5992L45.6163 37.4096C44.7025 36.5906 43.2988 36.6635 42.4745 37.5724L39.7668 40.5577C38.9542 41.4537 39.0033 42.8344 39.8779 43.6701L49.0543 52.438C49.1463 52.5259 49.2123 52.7187 49.123 52.9464C48.2056 55.2837 47.474 59.6213 50.5363 62.9137C53.1079 65.6785 57.2748 66.1261 59.8853 66.0537ZM59.832 64.1421C57.3297 64.2115 53.9128 63.7355 51.9369 61.6112C49.6277 59.1285 50.0853 55.7279 50.9029 53.645C51.2319 52.807 51.1109 51.7589 50.3752 51.0559L41.1993 42.2873C41.0744 42.1679 41.0674 41.9706 41.1834 41.8426L43.891 38.8567C44.0088 38.7271 44.2091 38.7168 44.3395 38.8336L54.5938 48.0239C55.2029 48.5697 56.0179 48.7047 56.7273 48.5343C58.9311 48.0049 62.8386 47.9592 65.5232 50.7951C67.807 53.2078 67.5011 56.4675 66.795 58.5572C66.7892 58.5742 66.784 58.5836 66.7813 58.5877C66.7788 58.5914 66.7761 58.5938 66.7761 58.5938C66.7761 58.5938 66.7697 58.5994 66.7531 58.6025C66.7177 58.6093 66.64 58.6039 66.5596 58.5294L61.304 53.6566C60.4473 52.8624 59.123 52.8639 58.2676 53.6595L55.8739 55.8852C54.9982 56.6996 54.9206 58.0601 55.6977 58.9691L59.8756 63.8567C59.9648 63.9611 59.9554 64.0488 59.9405 64.0875C59.9325 64.108 59.9224 64.118 59.9159 64.1226C59.9119 64.1255 59.8905 64.1405 59.832 64.1421Z" fill="white"/>
<path d="M13.6442 57.0723L9.46607 61.9601C8.83447 62.699 9.23836 63.7957 10.21 63.8226C12.7664 63.8935 16.5582 63.4321 18.8321 60.9875C21.518 58.0998 20.9231 54.2304 20.0555 52.0203C19.8464 51.4875 19.94 50.8672 20.3539 50.4717L29.5301 41.7032C30.0298 41.2257 30.0581 40.437 29.5937 39.9249L26.8861 36.9394C26.4151 36.42 25.613 36.3785 25.0908 36.8465L14.8364 46.0364C14.4932 46.344 14.013 46.4369 13.5649 46.3293C11.2124 45.7642 6.87727 45.666 3.85132 48.8626C1.20562 51.6574 1.61647 55.3654 2.36762 57.5882C2.6274 58.3569 3.56405 58.507 4.15911 57.9553L9.41494 53.0828C9.9045 52.629 10.6613 52.6296 11.1501 53.0843L13.5434 55.3103C14.0437 55.7758 14.0882 56.5529 13.6442 57.0723Z" fill="#00D4FF"/>
<path d="M10.185 64.7788C9.30205 64.7542 8.62545 64.2215 8.34726 63.5047C8.07522 62.8034 8.19881 61.9734 8.74098 61.3392L12.9189 56.4515C13.0299 56.3217 13.0189 56.1272 12.8939 56.0109L10.5002 53.7846C10.378 53.6711 10.189 53.6712 10.0667 53.7846L4.81114 58.6567C4.29652 59.1338 3.60767 59.329 2.96112 59.2064C2.29835 59.0807 1.70913 58.6222 1.46322 57.8945C0.667139 55.5386 0.151399 51.3825 3.15879 48.2056C6.52605 44.6486 11.2887 44.7992 13.7899 45.4C13.9767 45.4449 14.1225 45.3936 14.1998 45.3243L24.454 36.1347C25.3679 35.3157 26.7715 35.3886 27.5958 36.2975L30.3035 39.2828C31.1161 40.1788 31.067 41.5595 30.1924 42.3952L21.016 51.1631C20.9241 51.251 20.858 51.4438 20.9474 51.6715C21.8647 54.0088 22.5963 58.3464 19.534 61.6388C16.9624 64.4036 12.7955 64.8512 10.185 64.7788ZM10.2383 62.8672C12.7406 62.9366 16.1575 62.4606 18.1334 60.3363C20.4426 57.8536 19.985 54.453 19.1674 52.3701C18.8384 51.5321 18.9594 50.484 19.6951 49.781L28.871 41.0124C28.9959 40.893 29.003 40.6956 28.8869 40.5677L26.1793 37.5818C26.0615 37.4522 25.8613 37.4419 25.7308 37.5587L15.4765 46.749C14.8674 47.2948 14.0524 47.4298 13.343 47.2594C11.1392 46.73 7.2317 46.6843 4.54714 49.5202C2.26334 51.9329 2.56917 55.1926 3.27535 57.2823C3.28111 57.2993 3.28633 57.3087 3.28905 57.3128C3.29152 57.3165 3.29348 57.3182 3.29417 57.3188C3.29468 57.3193 3.30057 57.3245 3.31717 57.3276C3.35264 57.3344 3.43026 57.329 3.51069 57.2545L8.76627 52.3817C9.623 51.5875 10.9473 51.589 11.8027 52.3846L14.1964 54.6103C15.0721 55.4247 15.1497 56.7852 14.3726 57.6942L10.1947 62.5818C10.1055 62.6862 10.115 62.7739 10.1298 62.8126C10.1378 62.8331 10.1479 62.8431 10.1544 62.8477C10.1584 62.8506 10.1798 62.8656 10.2383 62.8672Z" fill="white"/>
<path d="M28.4453 2.87925C28.4453 1.82303 29.3015 0.966797 30.3578 0.966797H38.6451C39.7013 0.966797 40.5575 1.82303 40.5575 2.87925V11.1666C40.5575 12.2228 39.7013 13.079 38.6451 13.079H30.3578C29.3015 13.079 28.4453 12.2228 28.4453 11.1666V2.87925Z" fill="#00D4FF"/>
<path d="M57.125 30.2909C57.125 29.2347 57.9812 28.3784 59.0375 28.3784H67.3248C68.381 28.3784 69.2372 29.2347 69.2372 30.2909V38.5782C69.2372 39.6344 68.381 40.4906 67.3248 40.4906H59.0375C57.9812 40.4906 57.125 39.6344 57.125 38.5782V30.2909Z" fill="#00D4FF"/>
<path d="M28.4453 54.5155C28.4453 53.4593 29.3015 52.603 30.3578 52.603H38.6451C39.7013 52.603 40.5575 53.4593 40.5575 54.5155V62.8028C40.5575 63.859 39.7013 64.7152 38.6451 64.7152H30.3578C29.3015 64.7152 28.4453 63.859 28.4453 62.8028V54.5155Z" fill="#00D4FF"/>
<path d="M21.4297 22.0038C21.4297 20.9475 22.2859 20.0913 23.3421 20.0913H45.0166C46.0728 20.0913 46.9291 20.9475 46.9291 22.0038V43.6782C46.9291 44.7345 46.0728 45.5907 45.0166 45.5907H23.3421C22.2859 45.5907 21.4297 44.7345 21.4297 43.6782V22.0038Z" fill="#00D4FF"/>
<path d="M8.68888 34.1162C8.68888 32.3558 7.26182 30.9288 5.50145 30.9288C3.74109 30.9288 2.31403 32.3558 2.31403 34.1162C2.31403 35.8766 3.74109 37.3036 5.50145 37.3036V38.5786C3.03694 38.5786 1.03906 36.5807 1.03906 34.1162C1.03906 31.6517 3.03694 29.6538 5.50145 29.6538C7.96597 29.6538 9.96385 31.6517 9.96385 34.1162C9.96385 36.5807 7.96597 38.5786 5.50145 38.5786V37.3036C7.26182 37.3036 8.68888 35.8766 8.68888 34.1162Z" fill="#00D4FF"/>
<path d="M33.8619 54.1966V43.3594C33.8619 42.8313 34.29 42.4031 34.8181 42.4031C35.3462 42.4031 35.7744 42.8313 35.7744 43.3594V54.1966C35.7744 54.7247 35.3462 55.1528 34.8181 55.1528C34.29 55.1528 33.8619 54.7247 33.8619 54.1966ZM15.4844 33.1596C16.0761 33.1597 16.6436 33.3949 17.0619 33.8133L22.7445 39.4959C23.1179 39.8693 23.1179 40.4746 22.7445 40.848C22.3711 41.2215 21.7658 41.2215 21.3924 40.848L15.7098 35.1655C15.65 35.1057 15.5689 35.0721 15.4844 35.0721H9.95623C9.42812 35.0721 9 34.644 9 34.1158C9 33.5877 9.42812 33.1596 9.95623 33.1596H15.4844ZM58.7238 33.1596C59.2519 33.1596 59.68 33.5877 59.68 34.1158C59.68 34.644 59.2519 35.0721 58.7238 35.0721H45.3366C44.8085 35.0721 44.3804 34.644 44.3804 34.1158C44.3804 33.5877 44.8085 33.1596 45.3366 33.1596H58.7238ZM33.8619 21.6849V11.8039C33.8619 11.2758 34.29 10.8477 34.8181 10.8477C35.3462 10.8477 35.7744 11.2758 35.7744 11.8039V21.6849C35.7744 22.213 35.3462 22.6411 34.8181 22.6411C34.29 22.6411 33.8619 22.213 33.8619 21.6849Z" fill="#00D4FF"/>
<path d="M31.7234 39.8533H27.8125V31.4304C28.2744 26.5045 32.8936 25.7443 34.6488 25.8355C36.4041 25.9267 41.4852 26.1092 41.8239 32.3123C42.0949 37.2747 38.1389 39.4073 36.127 39.8533H33.5095V35.9003C36.2194 35.949 37.3485 35.7179 37.5743 35.5963V32.3123C37.564 31.5318 36.9646 29.9587 34.6488 29.9101C32.3331 29.8614 31.7336 31.4913 31.7234 32.3123V39.8533Z" fill="white"/>
<path d="M39.5143 29.4374C38.7014 27.0048 35.8088 26.0009 34.5257 25.8286C39.8531 25.8286 41.362 28.9606 41.6699 31.0283C40.9062 33.8014 38.5905 35.2853 37.5743 35.5894V33.9474C38.5495 33.4609 40.3273 31.87 39.5143 29.4374Z" fill="url(#paint0_linear_2125_10076)"/>
<defs>
<linearGradient id="paint0_linear_2125_10076" x1="38.1286" y1="25.8286" x2="38.1286" y2="35.4884" gradientUnits="userSpaceOnUse">
<stop stop-color="#7293FA"/>
<stop offset="0.1593" stop-color="#81ABFF"/>
<stop offset="0.500398" stop-color="#ABC6FB"/>
<stop offset="1" stop-color="#BCD3FC"/>
</linearGradient>
</defs>
</svg>
