<svg width="67" height="66" viewBox="0 0 67 66" fill="none" xmlns="http://www.w3.org/2000/svg">
<path d="M0 38.3385C0 37.5162 0.666588 36.8496 1.48887 36.8496H31.2662C32.0885 36.8496 32.7551 37.5162 32.7551 38.3385V52.1105C32.7551 52.9328 32.0885 53.5994 31.2662 53.5994H1.48887C0.666589 53.5994 0 52.9328 0 52.1105V38.3385Z" fill="#00D4FF"/>
<path d="M16.422 38.8009C16.5779 38.3112 17.1009 38.0406 17.5907 38.1964C18.0804 38.3522 18.351 38.8753 18.1952 39.365L14.2869 51.6482C14.1311 52.1379 13.608 52.4085 13.1183 52.2527C12.6285 52.0968 12.358 51.5738 12.5138 51.084L16.422 38.8009ZM20.2736 40.7754C20.5723 40.3572 21.1535 40.2604 21.5716 40.5591L25.9924 43.7168C26.8891 44.3574 26.9334 45.6744 26.0819 46.3739L21.6214 50.0379C21.2243 50.3641 20.638 50.3067 20.3118 49.9096C19.9856 49.5125 20.043 48.9261 20.4401 48.5999L24.713 45.0897L20.4899 42.0734C20.0717 41.7747 19.9749 41.1936 20.2736 40.7754ZM8.73854 40.5787C9.14587 40.2654 9.73012 40.3415 10.0435 40.7489C10.3568 41.1562 10.2807 41.7404 9.87336 42.0538L5.92801 45.0882L9.92243 48.6221C10.3073 48.9626 10.3433 49.5505 10.0028 49.9354C9.66225 50.3203 9.07438 50.3562 8.68947 50.0157L4.52602 46.3332C3.73774 45.6358 3.78052 44.3927 4.61471 43.7509L8.73854 40.5787Z" fill="white"/>
<path d="M3.35156 34.6161V12.097C3.35156 10.3497 4.76806 8.9332 6.5154 8.9332H10.2376V3.16384C10.2376 1.4165 11.6541 0 13.4014 0H43.7876L55.2758 11.8709V53.2615L55.1249 53.4229L43.9584 65.3338L43.7927 65.5101H13.4014C11.6541 65.5101 10.2376 64.0936 10.2376 62.3463V58.9963H6.5154C4.76806 58.9963 3.35156 57.5798 3.35156 55.8325V55.2742C3.35156 54.9658 3.60153 54.7158 3.90989 54.7158C4.21824 54.7158 4.46821 54.9658 4.46821 55.2742V55.8325C4.46821 56.9631 5.38477 57.8797 6.5154 57.8797H10.2376V56.3908C10.2376 56.0825 10.4875 55.8325 10.7959 55.8325C11.1042 55.8325 11.3542 56.0825 11.3542 56.3908V62.3463C11.3542 63.4769 12.2708 64.3935 13.4014 64.3935H42.9926V55.6464C42.9926 53.899 44.4091 52.4825 46.1565 52.4825H54.1591V12.6554H46.1565C44.4091 12.6554 42.9926 11.2389 42.9926 9.49152V1.11665H13.4014C12.2708 1.11665 11.3542 2.03321 11.3542 3.16384V34.6161C11.3542 34.9245 11.1042 35.1745 10.7959 35.1745C10.4875 35.1745 10.2376 34.9245 10.2376 34.6161V10.0498H6.5154C5.38477 10.0498 4.46821 10.9664 4.46821 12.097V34.6161C4.46821 34.9245 4.21824 35.1745 3.90989 35.1745C3.60153 35.1745 3.35156 34.9245 3.35156 34.6161ZM44.1093 63.5393L53.4285 53.5992H46.1565C45.0258 53.5992 44.1093 54.5157 44.1093 55.6464V63.5393ZM44.1093 9.49152C44.1093 10.6222 45.0258 11.5387 46.1565 11.5387H53.4001L44.1093 1.93814V9.49152Z" fill="#00D4FF"/>
<path d="M37.8498 14.7026C38.1847 14.7026 38.5071 14.8316 38.7494 15.0629L42.4665 18.6109H59.9229C60.2312 18.6109 60.4812 18.8609 60.4812 19.1692C60.4812 19.4776 60.2312 19.7276 59.9229 19.7276H42.4959L36.3714 26.727C36.1241 27.0097 35.7667 27.1719 35.3911 27.1719H27.7261C27.4178 27.1719 27.1678 26.9219 27.1678 26.6136C27.1678 26.3052 27.4178 26.0552 27.7261 26.0552H35.3911C35.4447 26.0552 35.4957 26.032 35.531 25.9916L41.4701 19.2038L37.9784 15.8709C37.9438 15.8379 37.8976 15.8193 37.8498 15.8193H21.9568C21.6484 15.8193 21.3984 15.5693 21.3984 15.261C21.3984 14.9526 21.6484 14.7026 21.9568 14.7026H37.8498Z" fill="#00D4FF"/>
<path d="M49.5002 19.3556C49.5002 22.2335 47.1671 24.5666 44.2892 24.5666C41.4112 24.5666 39.0781 22.2335 39.0781 19.3556C39.0781 16.4776 41.4112 14.1445 44.2892 14.1445C47.1671 14.1445 49.5002 16.4776 49.5002 19.3556Z" fill="#00D4FF"/>
<path d="M29.0364 26.7994C29.0364 28.3412 27.7865 29.5911 26.2447 29.5911C24.703 29.5911 23.4531 28.3412 23.4531 26.7994C23.4531 25.2577 24.703 24.0078 26.2447 24.0078C27.7865 24.0078 29.0364 25.2577 29.0364 26.7994Z" fill="#00D4FF"/>
<path d="M21.2105 15.4468C21.2105 14.0078 20.044 12.8413 18.605 12.8413C17.166 12.8413 15.9995 14.0078 15.9995 15.4468C15.9995 16.8858 17.166 18.0523 18.605 18.0523V19.1689C16.5493 19.1689 14.8828 17.5025 14.8828 15.4468C14.8828 13.3911 16.5493 11.7246 18.605 11.7246C20.6607 11.7246 22.3271 13.3911 22.3271 15.4468C22.3271 17.5025 20.6607 19.1689 18.605 19.1689V18.0523C20.044 18.0523 21.2105 16.8858 21.2105 15.4468Z" fill="#00D4FF"/>
<path d="M65.8824 19.1694C65.8824 17.7304 64.7158 16.5639 63.2769 16.5639C61.8379 16.5639 60.6713 17.7304 60.6713 19.1694C60.6713 20.6084 61.8379 21.7749 63.2769 21.7749V22.8916C61.2212 22.8916 59.5547 21.2251 59.5547 19.1694C59.5547 17.1137 61.2212 15.4473 63.2769 15.4473C65.3325 15.4473 66.999 17.1137 66.999 19.1694C66.999 21.2251 65.3325 22.8916 63.2769 22.8916V21.7749C64.7158 21.7749 65.8824 20.6084 65.8824 19.1694Z" fill="#00D4FF"/>
<path d="M14.5156 5.02471C14.5156 4.61357 14.8489 4.28027 15.2601 4.28027H38.3375C38.7486 4.28027 39.0819 4.61357 39.0819 5.02471V6.14136C39.0819 6.5525 38.7486 6.88579 38.3375 6.88579H15.2601C14.8489 6.88579 14.5156 6.5525 14.5156 6.14136V5.02471Z" fill="#00D4FF"/>
<path d="M14.5156 32.1966C14.5156 31.7854 14.8489 31.4521 15.2601 31.4521H50.9929C51.404 31.4521 51.7373 31.7854 51.7373 32.1966V33.3132C51.7373 33.7244 51.404 34.0577 50.9929 34.0577H15.2601C14.8489 34.0577 14.5156 33.7244 14.5156 33.3132V32.1966Z" fill="#00D4FF"/>
<path d="M35.3594 37.7801C35.3594 37.3689 35.6927 37.0356 36.1038 37.0356H50.9925C51.4036 37.0356 51.7369 37.3689 51.7369 37.7801V38.8967C51.7369 39.3079 51.4036 39.6412 50.9925 39.6412H36.1038C35.6927 39.6412 35.3594 39.3079 35.3594 38.8967V37.7801Z" fill="#00D4FF"/>
<path d="M35.3594 43.3631C35.3594 42.9519 35.6927 42.6187 36.1038 42.6187H50.9925C51.4036 42.6187 51.7369 42.9519 51.7369 43.3631V44.4797C51.7369 44.8909 51.4036 45.2242 50.9925 45.2242H36.1038C35.6927 45.2242 35.3594 44.8909 35.3594 44.4797V43.3631Z" fill="#00D4FF"/>
<path d="M35.3594 48.9466C35.3594 48.5354 35.6927 48.2021 36.1038 48.2021H50.9925C51.4036 48.2021 51.7369 48.5354 51.7369 48.9466V50.0632C51.7369 50.4744 51.4036 50.8077 50.9925 50.8077H36.1038C35.6927 50.8077 35.3594 50.4744 35.3594 50.0632V48.9466Z" fill="#00D4FF"/>
<path d="M14.5156 58.2518C14.5156 57.8406 14.8489 57.5073 15.2601 57.5073H39.4541C39.8653 57.5073 40.1986 57.8406 40.1986 58.2518V59.3684C40.1986 59.7795 39.8653 60.1128 39.4541 60.1128H15.2601C14.8489 60.1128 14.5156 59.7795 14.5156 59.3684V58.2518Z" fill="#00D4FF"/>
<path d="M43.404 21.7749H42.0547V18.8688C42.2141 17.1692 43.8078 16.9069 44.4134 16.9384C45.019 16.9699 46.7721 17.0328 46.8889 19.173C46.9824 20.8852 45.6175 21.621 44.9234 21.7749H44.0203V20.411C44.9552 20.4278 45.3448 20.348 45.4227 20.3061V19.173C45.4192 18.9038 45.2124 18.361 44.4134 18.3442C43.6144 18.3274 43.4076 18.8898 43.404 19.173V21.7749Z" fill="white"/>
<path d="M46.0921 18.1811C45.8116 17.3419 44.8136 16.9955 44.3709 16.936C46.209 16.936 46.7296 18.0166 46.8358 18.73C46.5723 19.6868 45.7733 20.1988 45.4227 20.3037V19.7372C45.7592 19.5693 46.3726 19.0204 46.0921 18.1811Z" fill="url(#paint0_linear_2125_10046)"/>
<defs>
<linearGradient id="paint0_linear_2125_10046" x1="45.614" y1="16.936" x2="45.614" y2="20.2689" gradientUnits="userSpaceOnUse">
<stop stop-color="#7293FA"/>
<stop offset="0.1593" stop-color="#81ABFF"/>
<stop offset="0.500398" stop-color="#ABC6FB"/>
<stop offset="1" stop-color="#BCD3FC"/>
</linearGradient>
</defs>
</svg>
