<svg width="88" height="102" viewBox="0 0 88 102" fill="none" xmlns="http://www.w3.org/2000/svg">
<path d="M42.6585 87.0537V85.4616C42.6585 84.982 43.0473 84.5931 43.5269 84.5931C44.0065 84.5931 44.3954 84.982 44.3954 85.4616V87.0537C44.3954 87.5333 44.0065 87.9221 43.5269 87.9221C43.0473 87.9221 42.6585 87.5333 42.6585 87.0537ZM42.6585 82.2773V79.0931C42.6585 78.6134 43.0473 78.2246 43.5269 78.2246C44.0065 78.2246 44.3954 78.6134 44.3954 79.0931V82.2773C44.3954 82.7569 44.0065 83.1458 43.5269 83.1458C43.0473 83.1458 42.6585 82.7569 42.6585 82.2773ZM42.6585 75.9088V74.3167C42.6585 73.8371 43.0473 73.4482 43.5269 73.4482C44.0065 73.4482 44.3954 73.8371 44.3954 74.3167V75.9088C44.3954 76.3884 44.0065 76.7772 43.5269 76.7772C43.0473 76.7772 42.6585 76.3884 42.6585 75.9088ZM15.8235 68.4547C16.2433 68.2228 16.7715 68.3748 17.0035 68.7945C17.2354 69.2143 17.0834 69.7425 16.6637 69.9745L15.2887 70.7344C14.8689 70.9663 14.3407 70.8143 14.1087 70.3946C13.8767 69.9748 14.0288 69.4466 14.4485 69.2146L15.8235 68.4547ZM21.3236 65.4152C21.7433 65.1833 22.2715 65.3353 22.5036 65.755C22.7355 66.1748 22.5835 66.703 22.1638 66.935L19.4137 68.4547C18.994 68.6867 18.4658 68.5346 18.2338 68.1149C18.0018 67.6952 18.1539 67.167 18.5736 66.935L21.3236 65.4152ZM25.4487 63.1356C25.8684 62.9036 26.3966 63.0557 26.6286 63.4754C26.8606 63.8951 26.7085 64.4233 26.2888 64.6553L24.9138 65.4152C24.4941 65.6472 23.9659 65.4951 23.7338 65.0754C23.5019 64.6557 23.6539 64.1275 24.0736 63.8955L25.4487 63.1356ZM23.709 39.1349C23.9144 38.7016 24.4324 38.5169 24.8658 38.7222L26.2408 39.3735C26.6741 39.5789 26.8588 40.0969 26.6535 40.5303C26.4481 40.9636 25.9301 41.1483 25.4967 40.943L24.1217 40.2917C23.6884 40.0863 23.5037 39.5683 23.709 39.1349ZM62.7229 38.7261C63.1542 38.5163 63.6738 38.6957 63.8837 39.127C64.0935 39.5583 63.9141 40.0779 63.4828 40.2877L62.144 40.9391C61.7127 41.1489 61.1931 40.9694 60.9832 40.5382C60.7734 40.1069 60.9529 39.5873 61.3841 39.3775L62.7229 38.7261ZM18.2089 36.5296C18.4143 36.0963 18.9323 35.9116 19.3657 36.1169L22.1157 37.4195C22.549 37.6249 22.7337 38.1429 22.5284 38.5763C22.323 39.0096 21.805 39.1943 21.3717 38.989L18.6216 37.6864C18.1883 37.481 18.0036 36.963 18.2089 36.5296ZM68.0783 36.1208C68.5096 35.911 69.0292 36.0904 69.239 36.5217C69.4488 36.953 69.2694 37.4726 68.8382 37.6824L66.1605 38.9851C65.7292 39.1949 65.2096 39.0155 64.9998 38.5842C64.7899 38.1529 64.9694 37.6333 65.4006 37.4235L68.0783 36.1208ZM14.0838 34.5756C14.2892 34.1423 14.8072 33.9576 15.2406 34.1629L16.6156 34.8142C17.0489 35.0196 17.2336 35.5376 17.0284 35.971C16.823 36.4043 16.3049 36.589 15.8716 36.3837L14.4966 35.7324C14.0633 35.527 13.8785 35.009 14.0838 34.5756ZM72.0948 34.1668C72.5261 33.957 73.0457 34.1365 73.2555 34.5677C73.4653 34.999 73.2859 35.5186 72.8547 35.7284L71.5158 36.3798C71.0846 36.5896 70.5649 36.4102 70.3551 35.9789C70.1453 35.5476 70.3247 35.028 70.756 34.8182L72.0948 34.1668ZM42.6585 29.4476V28.0002C42.6585 27.5205 43.0473 27.1317 43.5269 27.1317C44.0065 27.1317 44.3954 27.5205 44.3954 28.0002V29.4476C44.3954 29.9272 44.0065 30.316 43.5269 30.316C43.0473 30.316 42.6585 29.9272 42.6585 29.4476ZM42.6585 25.1054V22.2106C42.6585 21.731 43.0473 21.3422 43.5269 21.3422C44.0065 21.3422 44.3954 21.731 44.3954 22.2106V25.1054C44.3954 25.585 44.0065 25.9738 43.5269 25.9738C43.0473 25.9738 42.6585 25.585 42.6585 25.1054ZM42.6585 19.3158V17.8684C42.6585 17.3888 43.0473 17 43.5269 17C44.0065 17 44.3954 17.3888 44.3954 17.8684V19.3158C44.3954 19.7954 44.0065 20.1843 43.5269 20.1843C43.0473 20.1843 42.6585 19.7954 42.6585 19.3158Z" fill="#90EBFE"/>
<path d="M52.975 71.1712V66.0872L50.3697 67.6505V72.5219C50.3697 72.7531 50.6274 72.891 50.8197 72.7627L52.8461 71.412C52.9266 71.3583 52.975 71.2679 52.975 71.1712ZM50.3697 63.8975V65.6253L52.975 64.062V62.3964L50.3697 63.8975ZM65.712 47.7709C65.712 47.5466 65.4679 47.4077 65.275 47.5222L50.5116 56.28C50.4238 56.3321 50.3697 56.4266 50.3697 56.5288V61.8926L65.5673 53.1353C65.6569 53.0836 65.712 52.9877 65.712 52.8843V47.7709ZM67.4489 52.8843C67.4489 53.6088 67.0618 54.2786 66.434 54.6404L54.7119 61.3951V71.1712C54.7118 71.8487 54.3732 72.4813 53.8095 72.8571L51.7831 74.2079C50.4365 75.1056 48.6328 74.1403 48.6328 72.5219V56.5288C48.6329 55.8135 49.01 55.1512 49.6251 54.7862L64.3885 46.0284C65.7392 45.2271 67.4488 46.2004 67.4489 47.7709V52.8843Z" fill="#00D4FF"/>
<path d="M57.8984 62.4837L68.3196 56.5625C69.0915 56.1239 70.0495 56.6815 70.0495 57.5693V62.8166V66.1819C70.0495 66.6056 69.8181 66.9955 69.4461 67.1984L59.0249 72.8827C58.2533 73.3036 57.3125 72.7451 57.3125 71.8662V70.0535V63.4904C57.3125 63.0739 57.5362 62.6894 57.8984 62.4837Z" fill="white"/>
<path d="M69.1824 66.1818V64.3081L58.1822 70.5585V71.8662C58.1822 72.0859 58.4173 72.2257 58.6102 72.1207L69.0314 66.4363C69.1244 66.3855 69.1824 66.2878 69.1824 66.1818ZM69.1824 57.5693C69.1823 57.3474 68.9428 57.2081 68.7498 57.3177L58.3286 63.239C58.2381 63.2904 58.1822 63.3865 58.1822 63.4906V68.5615L69.1824 62.3112V57.5693ZM70.9192 66.1818C70.9192 66.9234 70.5141 67.606 69.8631 67.9611L59.4419 73.6449C58.0916 74.3815 56.4453 73.4043 56.4453 71.8662V63.4906C56.4453 62.7617 56.8367 62.089 57.4704 61.7288L67.8916 55.8075C69.2424 55.04 70.9192 56.0157 70.9192 57.5693V66.1818Z" fill="#00D4FF"/>
<path d="M32.3475 61.7769L29.5234 60.2115V53.2573C29.857 49.3752 33.1925 50.5965 34.46 51.3744C35.7275 52.1523 39.3966 54.3367 39.6412 59.5938C39.8369 63.7994 36.9802 63.9766 35.5274 63.5395L33.6373 62.4918V59.2281C35.5941 60.353 36.4095 60.6141 36.5725 60.6041V57.8928C36.5651 57.2443 36.1322 55.7056 34.46 54.7385C32.7878 53.7714 32.3549 54.8771 32.3475 55.5508V61.7769Z" fill="white"/>
<path d="M37.9734 56.2958C37.3864 53.9619 35.2976 51.9753 34.3711 51.3194C38.2181 53.4518 39.3077 56.6416 39.53 58.472C38.9786 60.4559 37.3063 60.7542 36.5725 60.5984V59.2428C37.2767 59.2314 38.5605 58.6296 37.9734 56.2958Z" fill="url(#paint0_linear_2125_9949)"/>
<path d="M26.3462 62.8989L42.8465 72.5891V50.5763L26.3462 40.8861V62.8989ZM27.2102 39.3794L43.7149 49.0729L60.2197 39.3794L43.7149 29.9482L27.2102 39.3794ZM62.8205 45.1588C62.8205 45.6384 62.4317 46.0272 61.9521 46.0272C61.4724 46.0272 61.0836 45.6384 61.0836 45.1588V40.8861L44.5834 50.5763V72.6434L46.4831 71.6076C46.904 71.378 47.4316 71.5328 47.6613 71.9536C47.8909 72.3745 47.7361 72.9021 47.3153 73.1319L44.1311 74.8687C43.8633 75.0148 43.5381 75.0096 43.2751 74.8552L25.0379 64.1445C24.7725 63.9885 24.6094 63.7038 24.6094 63.3959V39.3692C24.6094 39.0576 24.7764 38.7696 25.047 38.615L43.2841 28.1938L43.387 28.144C43.6322 28.044 43.9122 28.0604 44.1458 28.1938L62.3829 38.615C62.6535 38.7696 62.8205 39.0576 62.8205 39.3692V45.1588Z" fill="white"/>
<path d="M42.8444 96.9753V86.8436C42.8444 86.3639 43.2332 85.9751 43.7129 85.9751C44.1925 85.9751 44.5813 86.3639 44.5813 86.8436V96.9753C44.5813 97.4549 44.1925 97.8437 43.7129 97.8437C43.2332 97.8437 42.8444 97.4549 42.8444 96.9753ZM71.5768 69.4138C71.7704 68.975 72.2829 68.7764 72.7217 68.97L82.564 73.3122C83.0028 73.5058 83.2014 74.0183 83.0078 74.4571C82.8142 74.8958 82.3017 75.0945 81.8629 74.9009L72.0207 70.5587C71.5819 70.3651 71.3832 69.8526 71.5768 69.4138ZM14.6859 68.9779C15.1202 68.7743 15.6374 68.9614 15.841 69.3957C16.0445 69.83 15.8574 70.3472 15.4232 70.5508L6.15985 74.893C5.72557 75.0965 5.20833 74.9094 5.00476 74.4752C4.80121 74.0409 4.98831 73.5236 5.42259 73.3201L14.6859 68.9779ZM4.4897 27.5978C4.75574 27.1987 5.2949 27.0909 5.69397 27.3569L15.2468 33.7254C15.6458 33.9915 15.7537 34.5307 15.4876 34.9297C15.2216 35.3288 14.6824 35.4366 14.2833 35.1706L4.73055 28.8021C4.33148 28.536 4.22365 27.9969 4.4897 27.5978ZM81.7317 27.3569C82.1308 27.0909 82.67 27.1987 82.936 27.5978C83.2021 27.9969 83.0942 28.536 82.6952 28.8021L73.1424 35.1706C72.7433 35.4366 72.2042 35.3288 71.9381 34.9297C71.6721 34.5307 71.7799 33.9915 72.179 33.7254L81.7317 27.3569ZM42.8444 17.3688V5.21072C42.8444 4.7311 43.2332 4.34229 43.7129 4.34229C44.1925 4.34229 44.5813 4.7311 44.5813 5.21072V17.3688C44.5813 17.8484 44.1925 18.2372 43.7129 18.2372C43.2332 18.2372 42.8444 17.8484 42.8444 17.3688Z" fill="#00D4FF"/>
<path d="M83.0704 27.5005V74.3959L43.711 97.8437L4.35156 74.3959V27.5005L43.711 4.05273L83.0704 27.5005ZM6.08843 28.4871V73.4088L43.711 95.8218L81.3335 73.4088V28.4871L43.711 6.07399L6.08843 28.4871Z" fill="#90EBFE"/>
<path d="M73.5403 34.1586V70.0539L43.7076 88.0015L13.875 70.0539V34.1586L43.7076 16.2109L73.5403 34.1586ZM15.6119 35.1401V69.0718L43.7076 85.9746L71.8034 69.0718V35.1401L43.7076 18.2373L15.6119 35.1401Z" fill="#00D4FF"/>
<path d="M48.6322 5.21061C48.6322 8.08835 46.2993 10.4212 43.4215 10.4212C40.5438 10.4212 38.2109 8.08835 38.2109 5.21061C38.2109 2.33287 40.5438 0 43.4215 0C46.2993 0 48.6322 2.33287 48.6322 5.21061Z" fill="white"/>
<path d="M47.4742 5.21061C47.4742 2.97237 45.6598 1.15791 43.4215 1.15791C41.1833 1.15791 39.3689 2.97237 39.3689 5.21061C39.3689 7.44885 41.1833 9.2633 43.4215 9.2633V10.4212C40.5438 10.4212 38.2109 8.08835 38.2109 5.21061C38.2109 2.33287 40.5438 0 43.4215 0C46.2993 0 48.6322 2.33287 48.6322 5.21061C48.6322 8.08835 46.2993 10.4212 43.4215 10.4212V9.2633C45.6598 9.2633 47.4742 7.44885 47.4742 5.21061Z" fill="#90EBFE"/>
<path d="M87.9993 28.3688C87.9993 31.2465 85.6665 33.5794 82.7887 33.5794C79.911 33.5794 77.5781 31.2465 77.5781 28.3688C77.5781 25.4911 79.911 23.1582 82.7887 23.1582C85.6665 23.1582 87.9993 25.4911 87.9993 28.3688Z" fill="white"/>
<path d="M86.8414 28.3688C86.8414 26.1306 85.027 24.3161 82.7887 24.3161C80.5505 24.3161 78.736 26.1306 78.736 28.3688C78.736 30.6071 80.5505 32.4215 82.7887 32.4215V33.5794C79.911 33.5794 77.5781 31.2465 77.5781 28.3688C77.5781 25.4911 79.911 23.1582 82.7887 23.1582C85.6665 23.1582 87.9993 25.4911 87.9993 28.3688C87.9993 31.2465 85.6665 33.5794 82.7887 33.5794V32.4215C85.027 32.4215 86.8414 30.6071 86.8414 28.3688Z" fill="#90EBFE"/>
<path d="M87.9993 75.2643C87.9993 78.1421 85.6665 80.4749 82.7887 80.4749C79.911 80.4749 77.5781 78.1421 77.5781 75.2643C77.5781 72.3866 79.911 70.0537 82.7887 70.0537C85.6665 70.0537 87.9993 72.3866 87.9993 75.2643Z" fill="white"/>
<path d="M86.8414 75.2643C86.8414 73.0261 85.027 71.2116 82.7887 71.2116C80.5505 71.2116 78.736 73.0261 78.736 75.2643C78.736 77.5026 80.5505 79.317 82.7887 79.317V80.4749C79.911 80.4749 77.5781 78.1421 77.5781 75.2643C77.5781 72.3866 79.911 70.0537 82.7887 70.0537C85.6665 70.0537 87.9993 72.3866 87.9993 75.2643C87.9993 78.1421 85.6665 80.4749 82.7887 80.4749V79.317C85.027 79.317 86.8414 77.5026 86.8414 75.2643Z" fill="#90EBFE"/>
<path d="M48.6322 96.1066C48.6322 98.9843 46.2993 101.317 43.4215 101.317C40.5438 101.317 38.2109 98.9843 38.2109 96.1066C38.2109 93.2289 40.5438 90.896 43.4215 90.896C46.2993 90.896 48.6322 93.2289 48.6322 96.1066Z" fill="white"/>
<path d="M47.4742 96.1066C47.4742 93.8684 45.6598 92.0539 43.4215 92.0539C41.1833 92.0539 39.3689 93.8684 39.3689 96.1066C39.3689 98.3448 41.1833 100.159 43.4215 100.159V101.317C40.5438 101.317 38.2109 98.9843 38.2109 96.1066C38.2109 93.2289 40.5438 90.896 43.4215 90.896C46.2993 90.896 48.6322 93.2289 48.6322 96.1066C48.6322 98.9843 46.2993 101.317 43.4215 101.317V100.159C45.6598 100.159 47.4742 98.3448 47.4742 96.1066Z" fill="#90EBFE"/>
<path d="M10.4212 75.2643C10.4212 78.1421 8.08835 80.4749 5.21061 80.4749C2.33287 80.4749 0 78.1421 0 75.2643C0 72.3866 2.33287 70.0537 5.21061 70.0537C8.08835 70.0537 10.4212 72.3866 10.4212 75.2643Z" fill="white"/>
<path d="M9.2633 75.2643C9.2633 73.0261 7.44885 71.2116 5.21061 71.2116C2.97237 71.2116 1.15791 73.0261 1.15791 75.2643C1.15791 77.5026 2.97237 79.317 5.21061 79.317V80.4749C2.33287 80.4749 0 78.1421 0 75.2643C0 72.3866 2.33287 70.0537 5.21061 70.0537C8.08835 70.0537 10.4212 72.3866 10.4212 75.2643C10.4212 78.1421 8.08835 80.4749 5.21061 80.4749V79.317C7.44885 79.317 9.2633 77.5026 9.2633 75.2643Z" fill="#90EBFE"/>
<path d="M10.4212 28.3688C10.4212 31.2465 8.08835 33.5794 5.21061 33.5794C2.33287 33.5794 0 31.2465 0 28.3688C0 25.4911 2.33287 23.1582 5.21061 23.1582C8.08835 23.1582 10.4212 25.4911 10.4212 28.3688Z" fill="white"/>
<path d="M9.2633 28.3688C9.2633 26.1306 7.44885 24.3161 5.21061 24.3161C2.97237 24.3161 1.15791 26.1306 1.15791 28.3688C1.15791 30.6071 2.97237 32.4215 5.21061 32.4215V33.5794C2.33287 33.5794 0 31.2465 0 28.3688C0 25.4911 2.33287 23.1582 5.21061 23.1582C8.08835 23.1582 10.4212 25.4911 10.4212 28.3688C10.4212 31.2465 8.08835 33.5794 5.21061 33.5794V32.4215C7.44885 32.4215 9.2633 30.6071 9.2633 28.3688Z" fill="#90EBFE"/>
<path d="M49.9058 32.8468C50.3104 32.5893 50.8475 32.7086 51.105 33.1131C51.3625 33.5177 51.2433 34.0548 50.8387 34.3123L44.4702 38.365C44.2006 38.5365 43.8585 38.5459 43.5797 38.3899L36.3428 34.3372C35.9244 34.1029 35.775 33.574 36.0092 33.1555C36.2435 32.7371 36.7724 32.5877 37.1909 32.8219L43.9749 36.6208L49.9058 32.8468Z" fill="white"/>
<defs>
<linearGradient id="paint0_linear_2125_9949" x1="36.9728" y1="52.7616" x2="33.591" y2="58.8624" gradientUnits="userSpaceOnUse">
<stop stop-color="#7293FA"/>
<stop offset="0.1593" stop-color="#81ABFF"/>
<stop offset="0.500398" stop-color="#ABC6FB"/>
<stop offset="1" stop-color="#BCD3FC"/>
</linearGradient>
</defs>
</svg>
