<svg width="154" height="168" viewBox="0 0 154 168" fill="none" xmlns="http://www.w3.org/2000/svg">
<g filter="url(#filter0_d_2125_9812)">
<path d="M75.6585 120.054V118.462C75.6585 117.982 76.0473 117.593 76.5269 117.593C77.0065 117.593 77.3954 117.982 77.3954 118.462V120.054C77.3954 120.533 77.0065 120.922 76.5269 120.922C76.0473 120.922 75.6585 120.533 75.6585 120.054ZM75.6585 115.277V112.093C75.6585 111.613 76.0473 111.225 76.5269 111.225C77.0065 111.225 77.3954 111.613 77.3954 112.093V115.277C77.3954 115.757 77.0065 116.146 76.5269 116.146C76.0473 116.146 75.6585 115.757 75.6585 115.277ZM75.6585 108.909V107.317C75.6585 106.837 76.0473 106.448 76.5269 106.448C77.0065 106.448 77.3954 106.837 77.3954 107.317V108.909C77.3954 109.388 77.0065 109.777 76.5269 109.777C76.0473 109.777 75.6585 109.388 75.6585 108.909ZM48.8235 101.455C49.2433 101.223 49.7715 101.375 50.0035 101.795C50.2354 102.214 50.0834 102.742 49.6637 102.975L48.2887 103.734C47.8689 103.966 47.3407 103.814 47.1087 103.395C46.8767 102.975 47.0288 102.447 47.4485 102.215L48.8235 101.455ZM54.3236 98.4152C54.7433 98.1833 55.2715 98.3353 55.5036 98.755C55.7355 99.1748 55.5835 99.703 55.1638 99.935L52.4137 101.455C51.994 101.687 51.4658 101.535 51.2338 101.115C51.0018 100.695 51.1539 100.167 51.5736 99.935L54.3236 98.4152ZM58.4487 96.1356C58.8684 95.9036 59.3966 96.0557 59.6286 96.4754C59.8606 96.8951 59.7085 97.4233 59.2888 97.6553L57.9138 98.4152C57.4941 98.6472 56.9659 98.4951 56.7338 98.0754C56.5019 97.6557 56.6539 97.1275 57.0736 96.8955L58.4487 96.1356ZM56.709 72.1349C56.9144 71.7016 57.4324 71.5169 57.8658 71.7222L59.2408 72.3735C59.6741 72.5789 59.8588 73.0969 59.6535 73.5303C59.4481 73.9636 58.9301 74.1483 58.4967 73.943L57.1217 73.2917C56.6884 73.0863 56.5037 72.5683 56.709 72.1349ZM95.7229 71.7261C96.1542 71.5163 96.6738 71.6957 96.8837 72.127C97.0935 72.5583 96.9141 73.0779 96.4828 73.2877L95.144 73.9391C94.7127 74.1489 94.1931 73.9694 93.9832 73.5382C93.7734 73.1069 93.9529 72.5873 94.3841 72.3775L95.7229 71.7261ZM51.2089 69.5296C51.4143 69.0963 51.9323 68.9116 52.3657 69.1169L55.1157 70.4195C55.549 70.6249 55.7337 71.1429 55.5284 71.5763C55.323 72.0096 54.805 72.1943 54.3717 71.989L51.6216 70.6864C51.1883 70.481 51.0036 69.963 51.2089 69.5296ZM101.078 69.1208C101.51 68.911 102.029 69.0904 102.239 69.5217C102.449 69.953 102.269 70.4726 101.838 70.6824L99.1605 71.9851C98.7292 72.1949 98.2096 72.0155 97.9998 71.5842C97.7899 71.1529 97.9694 70.6333 98.4006 70.4235L101.078 69.1208ZM47.0838 67.5756C47.2892 67.1423 47.8072 66.9576 48.2406 67.1629L49.6156 67.8142C50.0489 68.0196 50.2336 68.5376 50.0284 68.971C49.823 69.4043 49.3049 69.589 48.8716 69.3837L47.4966 68.7324C47.0633 68.527 46.8785 68.009 47.0838 67.5756ZM105.095 67.1668C105.526 66.957 106.046 67.1365 106.256 67.5677C106.465 67.999 106.286 68.5186 105.855 68.7284L104.516 69.3798C104.085 69.5896 103.565 69.4102 103.355 68.9789C103.145 68.5476 103.325 68.028 103.756 67.8182L105.095 67.1668ZM75.6585 62.4476V61.0002C75.6585 60.5205 76.0473 60.1317 76.5269 60.1317C77.0065 60.1317 77.3954 60.5205 77.3954 61.0002V62.4476C77.3954 62.9272 77.0065 63.316 76.5269 63.316C76.0473 63.316 75.6585 62.9272 75.6585 62.4476ZM75.6585 58.1054V55.2106C75.6585 54.731 76.0473 54.3422 76.5269 54.3422C77.0065 54.3422 77.3954 54.731 77.3954 55.2106V58.1054C77.3954 58.585 77.0065 58.9738 76.5269 58.9738C76.0473 58.9738 75.6585 58.585 75.6585 58.1054ZM75.6585 52.3158V50.8684C75.6585 50.3888 76.0473 50 76.5269 50C77.0065 50 77.3954 50.3888 77.3954 50.8684V52.3158C77.3954 52.7954 77.0065 53.1843 76.5269 53.1843C76.0473 53.1843 75.6585 52.7954 75.6585 52.3158Z" fill="#90EBFE"/>
<path d="M85.975 104.171V99.0872L83.3697 100.65V105.522C83.3697 105.753 83.6274 105.891 83.8197 105.763L85.8461 104.412C85.9266 104.358 85.975 104.268 85.975 104.171ZM83.3697 96.8975V98.6253L85.975 97.062V95.3964L83.3697 96.8975ZM98.712 80.7709C98.712 80.5466 98.4679 80.4077 98.275 80.5222L83.5116 89.28C83.4238 89.3321 83.3697 89.4266 83.3697 89.5288V94.8926L98.5673 86.1353C98.6569 86.0836 98.712 85.9877 98.712 85.8843V80.7709ZM100.449 85.8843C100.449 86.6088 100.062 87.2786 99.434 87.6404L87.7119 94.3951V104.171C87.7118 104.849 87.3732 105.481 86.8095 105.857L84.7831 107.208C83.4365 108.106 81.6328 107.14 81.6328 105.522V89.5288C81.6329 88.8135 82.01 88.1512 82.6251 87.7862L97.3885 79.0284C98.7392 78.2271 100.449 79.2004 100.449 80.7709V85.8843Z" fill="#00D4FF"/>
<path d="M90.8984 95.4837L101.32 89.5625C102.092 89.1239 103.05 89.6815 103.05 90.5693V95.8166V99.1819C103.05 99.6056 102.818 99.9955 102.446 100.198L92.0249 105.883C91.2533 106.304 90.3125 105.745 90.3125 104.866V103.054V96.4904C90.3125 96.0739 90.5362 95.6894 90.8984 95.4837Z" fill="white"/>
<path d="M102.182 99.1818V97.3081L91.1822 103.558V104.866C91.1822 105.086 91.4173 105.226 91.6102 105.121L102.031 99.4363C102.124 99.3855 102.182 99.2878 102.182 99.1818ZM102.182 90.5693C102.182 90.3474 101.943 90.2081 101.75 90.3177L91.3286 96.239C91.2381 96.2904 91.1822 96.3865 91.1822 96.4906V101.562L102.182 95.3112V90.5693ZM103.919 99.1818C103.919 99.9234 103.514 100.606 102.863 100.961L92.4419 106.645C91.0916 107.381 89.4453 106.404 89.4453 104.866V96.4906C89.4453 95.7617 89.8367 95.089 90.4704 94.7288L100.892 88.8075C102.242 88.04 103.919 89.0157 103.919 90.5693V99.1818Z" fill="#00D4FF"/>
<path d="M65.3475 94.7769L62.5234 93.2115V86.2573C62.857 82.3752 66.1925 83.5965 67.46 84.3744C68.7275 85.1523 72.3966 87.3367 72.6412 92.5938C72.8369 96.7994 69.9802 96.9766 68.5274 96.5395L66.6373 95.4918V92.2281C68.5941 93.353 69.4095 93.6141 69.5725 93.6041V90.8928C69.5651 90.2443 69.1322 88.7056 67.46 87.7385C65.7878 86.7714 65.3549 87.8771 65.3475 88.5508V94.7769Z" fill="white"/>
<path d="M70.9734 89.2958C70.3864 86.9619 68.2976 84.9753 67.3711 84.3194C71.2181 86.4518 72.3077 89.6416 72.53 91.472C71.9786 93.4559 70.3063 93.7542 69.5725 93.5984V92.2428C70.2767 92.2314 71.5605 91.6296 70.9734 89.2958Z" fill="url(#paint0_linear_2125_9812)"/>
<path d="M59.3462 95.8989L75.8465 105.589V83.5763L59.3462 73.8861V95.8989ZM60.2102 72.3794L76.7149 82.0729L93.2197 72.3794L76.7149 62.9482L60.2102 72.3794ZM95.8205 78.1588C95.8205 78.6384 95.4317 79.0272 94.9521 79.0272C94.4724 79.0272 94.0836 78.6384 94.0836 78.1588V73.8861L77.5834 83.5763V105.643L79.4831 104.608C79.904 104.378 80.4316 104.533 80.6613 104.954C80.8909 105.375 80.7361 105.902 80.3153 106.132L77.1311 107.869C76.8633 108.015 76.5381 108.01 76.2751 107.855L58.0379 97.1445C57.7725 96.9885 57.6094 96.7038 57.6094 96.3959V72.3692C57.6094 72.0576 57.7764 71.7696 58.047 71.615L76.2841 61.1938L76.387 61.144C76.6322 61.044 76.9122 61.0604 77.1458 61.1938L95.3829 71.615C95.6535 71.7696 95.8205 72.0576 95.8205 72.3692V78.1588Z" fill="white"/>
<path d="M75.8444 129.975V119.844C75.8444 119.364 76.2332 118.975 76.7129 118.975C77.1925 118.975 77.5813 119.364 77.5813 119.844V129.975C77.5813 130.455 77.1925 130.844 76.7129 130.844C76.2332 130.844 75.8444 130.455 75.8444 129.975ZM104.577 102.414C104.77 101.975 105.283 101.776 105.722 101.97L115.564 106.312C116.003 106.506 116.201 107.018 116.008 107.457C115.814 107.896 115.302 108.094 114.863 107.901L105.021 103.559C104.582 103.365 104.383 102.853 104.577 102.414ZM47.6859 101.978C48.1202 101.774 48.6374 101.961 48.841 102.396C49.0445 102.83 48.8574 103.347 48.4232 103.551L39.1599 107.893C38.7256 108.097 38.2083 107.909 38.0048 107.475C37.8012 107.041 37.9883 106.524 38.4226 106.32L47.6859 101.978ZM37.4897 60.5978C37.7557 60.1987 38.2949 60.0909 38.694 60.3569L48.2468 66.7254C48.6458 66.9915 48.7537 67.5307 48.4876 67.9297C48.2216 68.3288 47.6824 68.4366 47.2833 68.1706L37.7306 61.8021C37.3315 61.536 37.2237 60.9969 37.4897 60.5978ZM114.732 60.3569C115.131 60.0909 115.67 60.1987 115.936 60.5978C116.202 60.9969 116.094 61.536 115.695 61.8021L106.142 68.1706C105.743 68.4366 105.204 68.3288 104.938 67.9297C104.672 67.5307 104.78 66.9915 105.179 66.7254L114.732 60.3569ZM75.8444 50.3688V38.2107C75.8444 37.7311 76.2332 37.3423 76.7129 37.3423C77.1925 37.3423 77.5813 37.7311 77.5813 38.2107V50.3688C77.5813 50.8484 77.1925 51.2372 76.7129 51.2372C76.2332 51.2372 75.8444 50.8484 75.8444 50.3688Z" fill="#00D4FF"/>
<path d="M116.07 60.5005V107.396L76.711 130.844L37.3516 107.396V60.5005L76.711 37.0527L116.07 60.5005ZM39.0884 61.4871V106.409L76.711 128.822L114.334 106.409V61.4871L76.711 39.074L39.0884 61.4871Z" fill="#90EBFE"/>
<path d="M106.54 67.1583V103.054L76.7076 121.001L46.875 103.054V67.1583L76.7076 49.2107L106.54 67.1583ZM48.6119 68.1399V102.072L76.7076 118.974L104.803 102.072V68.1399L76.7076 51.237L48.6119 68.1399Z" fill="#00D4FF"/>
<path d="M81.6322 38.2106C81.6322 41.0883 79.2993 43.4212 76.4215 43.4212C73.5438 43.4212 71.2109 41.0883 71.2109 38.2106C71.2109 35.3329 73.5438 33 76.4215 33C79.2993 33 81.6322 35.3329 81.6322 38.2106Z" fill="white"/>
<path d="M80.4742 38.2106C80.4742 35.9724 78.6598 34.1579 76.4215 34.1579C74.1833 34.1579 72.3689 35.9724 72.3689 38.2106C72.3689 40.4488 74.1833 42.2633 76.4215 42.2633V43.4212C73.5438 43.4212 71.2109 41.0883 71.2109 38.2106C71.2109 35.3329 73.5438 33 76.4215 33C79.2993 33 81.6322 35.3329 81.6322 38.2106C81.6322 41.0883 79.2993 43.4212 76.4215 43.4212V42.2633C78.6598 42.2633 80.4742 40.4488 80.4742 38.2106Z" fill="#90EBFE"/>
<path d="M120.999 61.3688C120.999 64.2465 118.666 66.5794 115.789 66.5794C112.911 66.5794 110.578 64.2465 110.578 61.3688C110.578 58.4911 112.911 56.1582 115.789 56.1582C118.666 56.1582 120.999 58.4911 120.999 61.3688Z" fill="white"/>
<path d="M119.841 61.3688C119.841 59.1306 118.027 57.3161 115.789 57.3161C113.55 57.3161 111.736 59.1306 111.736 61.3688C111.736 63.6071 113.55 65.4215 115.789 65.4215V66.5794C112.911 66.5794 110.578 64.2465 110.578 61.3688C110.578 58.4911 112.911 56.1582 115.789 56.1582C118.666 56.1582 120.999 58.4911 120.999 61.3688C120.999 64.2465 118.666 66.5794 115.789 66.5794V65.4215C118.027 65.4215 119.841 63.6071 119.841 61.3688Z" fill="#90EBFE"/>
<path d="M120.999 108.264C120.999 111.142 118.666 113.475 115.789 113.475C112.911 113.475 110.578 111.142 110.578 108.264C110.578 105.387 112.911 103.054 115.789 103.054C118.666 103.054 120.999 105.387 120.999 108.264Z" fill="white"/>
<path d="M119.841 108.264C119.841 106.026 118.027 104.212 115.789 104.212C113.55 104.212 111.736 106.026 111.736 108.264C111.736 110.503 113.55 112.317 115.789 112.317V113.475C112.911 113.475 110.578 111.142 110.578 108.264C110.578 105.387 112.911 103.054 115.789 103.054C118.666 103.054 120.999 105.387 120.999 108.264C120.999 111.142 118.666 113.475 115.789 113.475V112.317C118.027 112.317 119.841 110.503 119.841 108.264Z" fill="#90EBFE"/>
<path d="M81.6322 129.107C81.6322 131.984 79.2993 134.317 76.4215 134.317C73.5438 134.317 71.2109 131.984 71.2109 129.107C71.2109 126.229 73.5438 123.896 76.4215 123.896C79.2993 123.896 81.6322 126.229 81.6322 129.107Z" fill="white"/>
<path d="M80.4742 129.107C80.4742 126.868 78.6598 125.054 76.4215 125.054C74.1833 125.054 72.3689 126.868 72.3689 129.107C72.3689 131.345 74.1833 133.159 76.4215 133.159V134.317C73.5438 134.317 71.2109 131.984 71.2109 129.107C71.2109 126.229 73.5438 123.896 76.4215 123.896C79.2993 123.896 81.6322 126.229 81.6322 129.107C81.6322 131.984 79.2993 134.317 76.4215 134.317V133.159C78.6598 133.159 80.4742 131.345 80.4742 129.107Z" fill="#90EBFE"/>
<path d="M43.4212 108.264C43.4212 111.142 41.0883 113.475 38.2106 113.475C35.3329 113.475 33 111.142 33 108.264C33 105.387 35.3329 103.054 38.2106 103.054C41.0883 103.054 43.4212 105.387 43.4212 108.264Z" fill="white"/>
<path d="M42.2633 108.264C42.2633 106.026 40.4488 104.212 38.2106 104.212C35.9724 104.212 34.1579 106.026 34.1579 108.264C34.1579 110.503 35.9724 112.317 38.2106 112.317V113.475C35.3329 113.475 33 111.142 33 108.264C33 105.387 35.3329 103.054 38.2106 103.054C41.0883 103.054 43.4212 105.387 43.4212 108.264C43.4212 111.142 41.0883 113.475 38.2106 113.475V112.317C40.4488 112.317 42.2633 110.503 42.2633 108.264Z" fill="#90EBFE"/>
<path d="M43.4212 61.3688C43.4212 64.2465 41.0883 66.5794 38.2106 66.5794C35.3329 66.5794 33 64.2465 33 61.3688C33 58.4911 35.3329 56.1582 38.2106 56.1582C41.0883 56.1582 43.4212 58.4911 43.4212 61.3688Z" fill="white"/>
<path d="M42.2633 61.3688C42.2633 59.1306 40.4488 57.3161 38.2106 57.3161C35.9724 57.3161 34.1579 59.1306 34.1579 61.3688C34.1579 63.6071 35.9724 65.4215 38.2106 65.4215V66.5794C35.3329 66.5794 33 64.2465 33 61.3688C33 58.4911 35.3329 56.1582 38.2106 56.1582C41.0883 56.1582 43.4212 58.4911 43.4212 61.3688C43.4212 64.2465 41.0883 66.5794 38.2106 66.5794V65.4215C40.4488 65.4215 42.2633 63.6071 42.2633 61.3688Z" fill="#90EBFE"/>
<path d="M82.9058 65.8468C83.3104 65.5893 83.8475 65.7086 84.105 66.1131C84.3625 66.5177 84.2433 67.0548 83.8387 67.3123L77.4702 71.365C77.2006 71.5365 76.8585 71.5459 76.5797 71.3899L69.3428 67.3372C68.9244 67.1029 68.775 66.574 69.0092 66.1555C69.2435 65.7371 69.7724 65.5877 70.1909 65.8219L76.9749 69.6208L82.9058 65.8468Z" fill="white"/>
</g>
<defs>
<filter id="filter0_d_2125_9812" x="0" y="0" width="154" height="167.317" filterUnits="userSpaceOnUse" color-interpolation-filters="sRGB">
<feFlood flood-opacity="0" result="BackgroundImageFix"/>
<feColorMatrix in="SourceAlpha" type="matrix" values="0 0 0 0 0 0 0 0 0 0 0 0 0 0 0 0 0 0 127 0" result="hardAlpha"/>
<feOffset/>
<feGaussianBlur stdDeviation="16.5"/>
<feComposite in2="hardAlpha" operator="out"/>
<feColorMatrix type="matrix" values="0 0 0 0 0 0 0 0 0 0.94902 0 0 0 0 0.996078 0 0 0 1 0"/>
<feBlend mode="normal" in2="BackgroundImageFix" result="effect1_dropShadow_2125_9812"/>
<feBlend mode="normal" in="SourceGraphic" in2="effect1_dropShadow_2125_9812" result="shape"/>
</filter>
<linearGradient id="paint0_linear_2125_9812" x1="69.9728" y1="85.7616" x2="66.591" y2="91.8624" gradientUnits="userSpaceOnUse">
<stop stop-color="#7293FA"/>
<stop offset="0.1593" stop-color="#81ABFF"/>
<stop offset="0.500398" stop-color="#ABC6FB"/>
<stop offset="1" stop-color="#BCD3FC"/>
</linearGradient>
</defs>
</svg>
