<svg width="70" height="70" viewBox="0 0 70 70" fill="none" xmlns="http://www.w3.org/2000/svg">
<path d="M38.3763 7.26784C38.3763 9.06183 36.8527 10.5161 34.9733 10.5161C33.0939 10.5161 31.5703 9.06183 31.5703 7.26784C31.5703 5.47385 33.0939 4.01953 34.9733 4.01953C36.8527 4.01953 38.3763 5.47385 38.3763 7.26784Z" fill="#00D4FF"/>
<path d="M63.7435 35.1106C63.7435 36.9046 62.2199 38.3589 60.3405 38.3589C58.4611 38.3589 56.9375 36.9046 56.9375 35.1106C56.9375 33.3166 58.4611 31.8623 60.3405 31.8623C62.2199 31.8623 63.7435 33.3166 63.7435 35.1106Z" fill="#00D4FF"/>
<path d="M13.3216 35.1106C13.3216 36.9046 11.798 38.3589 9.91861 38.3589C8.03919 38.3589 6.51562 36.9046 6.51562 35.1106C6.51562 33.3166 8.03919 31.8623 9.91861 31.8623C11.798 31.8623 13.3216 33.3166 13.3216 35.1106Z" fill="#00D4FF"/>
<path d="M38.3763 58.0032C38.3763 59.7972 36.8527 61.2515 34.9733 61.2515C33.0939 61.2515 31.5703 59.7972 31.5703 58.0032C31.5703 56.2092 33.0939 54.7549 34.9733 54.7549C36.8527 54.7549 38.3763 56.2092 38.3763 58.0032Z" fill="#00D4FF"/>
<path d="M35.0491 0C37.5791 0 39.5329 0.548037 41.0055 1.51488C42.4839 2.48551 43.4022 3.82899 43.9422 5.28242C45.0023 8.13598 44.6289 11.4828 44.2378 13.6217C44.1458 14.1246 43.6635 14.4578 43.1606 14.3658C42.6576 14.2739 42.3245 13.7915 42.4164 13.2885C42.7984 11.1996 43.0811 8.28153 42.2067 5.92752C41.7794 4.77725 41.0828 3.7807 39.9893 3.06276C38.89 2.341 37.3142 1.85167 35.0491 1.85167C32.9693 1.85169 31.4286 2.33445 30.2879 3.06774C29.1464 3.80154 28.3484 4.8231 27.8133 5.99081C26.7281 8.35882 26.7553 11.2709 27.2129 13.2461C27.3283 13.7442 27.018 14.2414 26.5199 14.3568C26.0219 14.4721 25.5247 14.1622 25.4092 13.6642C24.8872 11.4115 24.8284 8.05869 26.1298 5.21913C26.7879 3.78313 27.8014 2.46515 29.2866 1.51036C30.7726 0.555081 32.6741 2.01257e-05 35.0491 0Z" fill="#00D4FF"/>
<path d="M60.4163 27.8428C62.9463 27.8428 64.9001 28.3908 66.3727 29.3577C67.8511 30.3283 68.7694 31.6718 69.3094 33.1252C70.3695 35.9787 69.9961 39.3256 69.605 41.4645C69.513 41.9674 69.0307 42.3006 68.5277 42.2086C68.0248 42.1166 67.6917 41.6343 67.7836 41.1313C68.1656 39.0423 68.4483 36.1243 67.5739 33.7703C67.1465 32.62 66.45 31.6235 65.3565 30.9055C64.2571 30.1838 62.6813 29.6944 60.4163 29.6944C58.3365 29.6945 56.7958 30.1772 55.6551 30.9105C54.5136 31.6443 53.7156 32.6659 53.1805 33.8336C52.0953 36.2016 52.1225 39.1137 52.5801 41.0888C52.6955 41.587 52.3852 42.0841 51.8871 42.1996C51.3891 42.3149 50.8919 42.005 50.7764 41.507C50.2544 39.2543 50.1956 35.9015 51.497 33.0619C52.1551 31.6259 53.1686 30.3079 54.6538 29.3531C56.1398 28.3979 58.0413 27.8428 60.4163 27.8428Z" fill="#00D4FF"/>
<path d="M9.98659 27.8428C12.5166 27.8428 14.4704 28.3908 15.943 29.3577C17.4214 30.3283 18.3397 31.6718 18.8797 33.1252C19.9398 35.9787 19.5664 39.3256 19.1753 41.4645C19.0833 41.9674 18.601 42.3006 18.0981 42.2086C17.5951 42.1166 17.262 41.6343 17.3539 41.1313C17.7359 39.0423 18.0186 36.1243 17.1442 33.7703C16.7169 32.62 16.0203 31.6235 14.9268 30.9055C13.8275 30.1838 12.2517 29.6944 9.98659 29.6944C7.90684 29.6945 6.3661 30.1772 5.22541 30.9105C4.08395 31.6443 3.28593 32.6659 2.75078 33.8336C1.6656 36.2016 1.69277 39.1137 2.15044 41.0888C2.26585 41.587 1.95554 42.0841 1.45742 42.1996C0.959392 42.3149 0.462195 42.005 0.346685 41.507C-0.175291 39.2543 -0.234053 35.9015 1.06728 33.0619C1.72538 31.6259 2.73892 30.3079 4.22408 29.3531C5.71009 28.3979 7.61165 27.8428 9.98659 27.8428Z" fill="#00D4FF"/>
<path d="M35.0491 50.7354C37.5791 50.7354 39.5329 51.2834 41.0055 52.2502C42.4839 53.2209 43.4022 54.5643 43.9422 56.0178C45.0023 58.8713 44.6289 62.2182 44.2378 64.3571C44.1458 64.86 43.6635 65.1931 43.1606 65.1012C42.6576 65.0092 42.3245 64.5269 42.4164 64.0239C42.7984 61.9349 43.0811 59.0169 42.2067 56.6629C41.7794 55.5126 41.0828 54.5161 39.9893 53.7981C38.89 53.0764 37.3142 52.587 35.0491 52.587C32.9693 52.587 31.4286 53.0698 30.2879 53.8031C29.1464 54.5369 28.3484 55.5584 27.8133 56.7262C26.7281 59.0942 26.7553 62.0062 27.2129 63.9814C27.3283 64.4795 27.018 64.9767 26.5199 65.0921C26.0219 65.2075 25.5247 64.8975 25.4092 64.3996C24.8872 62.1468 24.8284 58.794 26.1298 55.9545C26.7879 54.5185 27.8014 53.2005 29.2866 52.2457C30.7726 51.2904 32.6741 50.7354 35.0491 50.7354Z" fill="#00D4FF"/>
<path d="M33.7054 12.7595L32.7415 12.5586C31.7081 12.3433 30.6331 12.616 29.8272 13.2979L29.5812 13.5061C29.262 13.7762 29.0233 14.1288 28.8911 14.5254C28.491 15.7258 29.1449 17.0223 30.348 17.414L33.2054 18.3443C34.2529 18.6853 35.3811 18.6891 36.4309 18.3551L39.7222 17.3079C40.798 16.9656 41.4347 15.8588 41.1898 14.7568C41.0702 14.2183 40.751 13.7453 40.2965 13.4328L39.8171 13.1033C38.9942 12.5375 37.9758 12.3327 36.9981 12.5364L35.9274 12.7595C35.1946 12.9121 34.4382 12.9121 33.7054 12.7595Z" fill="#00D4FF"/>
<path d="M59.0726 40.6022L58.1087 40.4014C57.0753 40.1861 56.0003 40.4588 55.1944 41.1407L54.9484 41.3489C54.6292 41.6189 54.3905 41.9716 54.2582 42.3682C53.8581 43.5685 54.5121 44.865 55.7151 45.2567L58.5726 46.1871C59.6201 46.5281 60.7483 46.5319 61.7981 46.1979L65.0894 45.1506C66.1652 44.8083 66.8019 43.7016 66.557 42.5995C66.4374 42.0611 66.1182 41.5881 65.6637 41.2756L65.1843 40.9461C64.3614 40.3803 63.343 40.1755 62.3653 40.3792L61.2946 40.6022C60.5618 40.7549 59.8054 40.7549 59.0726 40.6022Z" fill="#00D4FF"/>
<path d="M8.64288 40.6022L7.67899 40.4014C6.64556 40.1861 5.57057 40.4588 4.76473 41.1407L4.51869 41.3489C4.19952 41.6189 3.96077 41.9716 3.82856 42.3682C3.42845 43.5685 4.08239 44.865 5.28546 45.2567L8.14287 46.1871C9.19043 46.5281 10.3186 46.5319 11.3684 46.1979L14.6597 45.1506C15.7355 44.8083 16.3722 43.7016 16.1273 42.5995C16.0077 42.0611 15.6885 41.5881 15.234 41.2756L14.7546 40.9461C13.9317 40.3803 12.9133 40.1755 11.9356 40.3792L10.8649 40.6022C10.1321 40.7549 9.3757 40.7549 8.64288 40.6022Z" fill="#00D4FF"/>
<path d="M33.7054 63.4948L32.7415 63.294C31.7081 63.0787 30.6331 63.3514 29.8272 64.0333L29.5812 64.2414C29.262 64.5115 29.0233 64.8642 28.8911 65.2608C28.491 66.4611 29.1449 67.7576 30.348 68.1493L33.2054 69.0796C34.2529 69.4207 35.3811 69.4245 36.4309 69.0904L39.7222 68.0432C40.798 67.7009 41.4347 66.5942 41.1898 65.4921C41.0702 64.9537 40.751 64.4806 40.2965 64.1682L39.8171 63.8386C38.9942 63.2729 37.9758 63.0681 36.9981 63.2717L35.9274 63.4948C35.1946 63.6475 34.4382 63.6475 33.7054 63.4948Z" fill="#00D4FF"/>
<path d="M56.3193 44.5707C56.5621 43.9795 57.2384 43.6968 57.8296 43.9396C58.4207 44.1825 58.7031 44.8588 58.4603 45.45C57.1805 48.5658 52.7262 55.3093 44.2296 58.914C43.6412 59.1635 42.9621 58.8889 42.7124 58.3005C42.4629 57.7121 42.7376 57.033 43.3259 56.7834C51.1633 53.4584 55.2271 47.2298 56.3193 44.5707ZM42.6935 11.3487C42.9171 10.75 43.5839 10.4461 44.1826 10.6697C48.6103 12.3234 57.7985 17.6305 59.7649 28.2483C59.8813 28.8768 59.4662 29.4809 58.8377 29.5973C58.2094 29.7136 57.6056 29.2985 57.4892 28.6701C55.7432 19.2415 47.5042 14.3808 43.3729 12.8378C42.7742 12.6142 42.4698 11.9474 42.6935 11.3487ZM25.4534 10.6611C26.0569 10.4506 26.7171 10.7691 26.9276 11.3726C27.138 11.9761 26.8194 12.6358 26.216 12.8464C16.0953 16.3769 12.8021 24.694 12.126 28.6539C12.0184 29.2839 11.4206 29.7076 10.7905 29.6C10.1606 29.4924 9.73729 28.8946 9.84482 28.2646C10.6124 23.7686 14.2903 14.5553 25.4534 10.6611Z" fill="#00D4FF"/>
<path d="M11.733 44.2698C12.3129 44.0009 13.0007 44.2528 13.2696 44.8326C14.0507 46.5169 15.6099 49.1483 17.8604 51.5558C20.1132 53.9658 22.9909 56.0797 26.404 56.8762C27.0264 57.0214 27.4136 57.6439 27.2684 58.2663C27.1231 58.8887 26.5007 59.2754 25.8783 59.1302C21.8668 58.1942 18.6088 55.7456 16.1696 53.1362C13.7281 50.5244 12.0391 47.6798 11.1702 45.8064C10.9013 45.2266 11.1532 44.5387 11.733 44.2698Z" fill="#00D4FF"/>
<path d="M25.0546 25.0561C25.0546 25.9104 24.362 26.6029 23.5077 26.6029C22.6535 26.6029 21.9609 25.9104 21.9609 25.0561C21.9609 24.2018 22.6535 23.5093 23.5077 23.5093C24.362 23.5093 25.0546 24.2018 25.0546 25.0561Z" fill="white"/>
<path d="M48.2577 25.0561C48.2577 25.9104 47.5652 26.6029 46.7109 26.6029C45.8566 26.6029 45.1641 25.9104 45.1641 25.0561C45.1641 24.2018 45.8566 23.5093 46.7109 23.5093C47.5652 23.5093 48.2577 24.2018 48.2577 25.0561Z" fill="white"/>
<path d="M48.2577 45.1645C48.2577 46.0188 47.5652 46.7113 46.7109 46.7113C45.8566 46.7113 45.1641 46.0188 45.1641 45.1645C45.1641 44.3102 45.8566 43.6177 46.7109 43.6177C47.5652 43.6177 48.2577 44.3102 48.2577 45.1645Z" fill="white"/>
<path d="M25.0546 45.1645C25.0546 46.0188 24.362 46.7113 23.5077 46.7113C22.6535 46.7113 21.9609 46.0188 21.9609 45.1645C21.9609 44.3102 22.6535 43.6177 23.5077 43.6177C24.362 43.6177 25.0546 44.3102 25.0546 45.1645Z" fill="white"/>
<path d="M33.4869 51.5065V45.1645C33.487 44.5254 34.0051 44.0072 34.6442 44.0072C35.2833 44.0072 35.8015 44.5254 35.8015 45.1645V51.5065C35.8015 52.1456 35.2833 52.6638 34.6442 52.6638C34.0051 52.6638 33.487 52.1457 33.4869 51.5065ZM24.4352 34.1078C25.0743 34.1078 25.5925 34.6259 25.5925 35.2651C25.5924 35.9042 25.0743 36.4224 24.4352 36.4224H18.712C18.0729 36.4224 17.5547 35.9042 17.5547 35.2651C17.5547 34.6259 18.0728 34.1078 18.712 34.1078H24.4352ZM51.5046 34.1078C52.1436 34.1079 52.6619 34.626 52.6619 35.2651C52.6618 35.9041 52.1436 36.4223 51.5046 36.4224H43.9252C43.2861 36.4224 42.768 35.9042 42.7679 35.2651C42.7679 34.6259 43.286 34.1078 43.9252 34.1078H51.5046ZM33.4869 24.9014V17.4766C33.4869 16.8375 34.0051 16.3193 34.6442 16.3193C35.2833 16.3194 35.8015 16.8375 35.8015 17.4766V24.9014C35.8015 25.5405 35.2833 26.0587 34.6442 26.0587C34.0051 26.0587 33.487 25.5405 33.4869 24.9014Z" fill="#00D4FF"/>
<path d="M46.1154 34.8252C46.1109 41.066 41.0482 46.1216 34.8074 46.1172C28.5666 46.1128 23.511 41.05 23.5154 34.8092C23.5199 28.5684 28.5826 23.5129 34.8234 23.5173C41.0642 23.5217 46.1198 28.5844 46.1154 34.8252Z" fill="#00D4FF"/>
<path d="M32.8143 39.596H30.3125V34.208C30.608 31.0568 33.5628 30.5706 34.6857 30.6289C35.8085 30.6873 39.0589 30.804 39.2755 34.7721C39.4489 37.9465 36.9182 39.3107 35.6312 39.596H33.9568V37.0673C35.6903 37.0985 36.4126 36.9506 36.5571 36.8728V34.7721C36.5505 34.2728 36.167 33.2665 34.6857 33.2354C33.2043 33.2043 32.8208 34.2469 32.8143 34.7721V39.596Z" fill="white"/>
<path d="M37.7981 32.933C37.2781 31.3769 35.4277 30.7347 34.6069 30.6245C38.0148 30.6245 38.9801 32.628 39.177 33.9507C38.6885 35.7247 37.2071 36.6739 36.5571 36.8684V35.8181C37.1809 35.5068 38.3182 34.4892 37.7981 32.933Z" fill="url(#paint0_linear_2125_10091)"/>
<defs>
<linearGradient id="paint0_linear_2125_10091" x1="36.9117" y1="30.6245" x2="36.9117" y2="36.8039" gradientUnits="userSpaceOnUse">
<stop stop-color="#7293FA"/>
<stop offset="0.1593" stop-color="#81ABFF"/>
<stop offset="0.500398" stop-color="#ABC6FB"/>
<stop offset="1" stop-color="#BCD3FC"/>
</linearGradient>
</defs>
</svg>
