<svg width="89" height="85" viewBox="0 0 89 85" fill="none" xmlns="http://www.w3.org/2000/svg">
<path d="M51.7914 34.6957C52.6332 33.4775 54.4847 33.6524 55.0837 35.0066L58.4067 42.5191C58.499 42.7279 58.7925 42.7354 58.8957 42.5318L61.9934 36.4183C62.5737 35.273 64.1007 35.0242 65.0145 35.926L67.7569 38.632C67.8076 38.682 67.8761 38.7102 67.9473 38.7102H76.6044C77.0529 38.7102 77.4165 39.0738 77.4165 39.5223C77.4165 39.9709 77.0529 40.3344 76.6044 40.3344H67.9473C67.4491 40.3344 66.9706 40.1382 66.616 39.7883L63.8735 37.0818C63.743 36.9532 63.525 36.9887 63.4421 37.1521L60.3444 43.2662C59.622 44.6918 57.5675 44.6379 56.921 43.1763L53.598 35.6638C53.5124 35.4703 53.2482 35.4453 53.128 35.6194L50.4353 39.5165C50.0814 40.0286 49.4985 40.3344 48.8761 40.3344H46.0152C45.5667 40.3344 45.2031 39.9709 45.2031 39.5223C45.2031 39.0738 45.5667 38.7102 46.0152 38.7102H48.8761C48.965 38.7102 49.0481 38.6665 49.0987 38.5934L51.7914 34.6957Z" fill="#00D4FF"/>
<path d="M70.2487 2.97769C70.6061 2.97087 70.9259 3.19872 71.0365 3.53865L73.8471 12.1815H85.0003C85.4488 12.1815 85.8124 12.5451 85.8124 12.9936C85.8124 13.4421 85.4488 13.8057 85.0003 13.8057H73.2576C72.9059 13.8057 72.5939 13.5792 72.4852 13.2447L70.3174 6.57875L67.3614 17.005C67.2629 17.3525 66.9465 17.5932 66.5853 17.5955C66.2241 17.5978 65.9047 17.3611 65.8017 17.015L64.1902 11.601C64.0623 11.1711 64.307 10.7191 64.7369 10.5911C65.1667 10.4632 65.6188 10.708 65.7467 11.1378L66.5609 13.8734L69.4831 3.56826L69.5037 3.50481C69.6196 3.19522 69.9137 2.98409 70.2487 2.97769Z" fill="#00D4FF"/>
<path d="M80.6695 39.5223C80.6695 38.6253 79.9423 37.8981 79.0453 37.8981C78.1483 37.8981 77.4211 38.6253 77.4211 39.5223C77.4211 40.4194 78.1483 41.1465 79.0453 41.1465V42.7707C77.2512 42.7707 75.7969 41.3164 75.7969 39.5223C75.7969 37.7283 77.2512 36.2739 79.0453 36.2739C80.8393 36.2739 82.2937 37.7283 82.2937 39.5223C82.2937 41.3164 80.8393 42.7707 79.0453 42.7707V41.1465C79.9423 41.1465 80.6695 40.4194 80.6695 39.5223Z" fill="#00D4FF"/>
<path d="M87.1585 33.5667C87.1585 32.3706 86.189 31.4011 84.9929 31.4011C83.7969 31.4011 82.8273 32.3706 82.8273 33.5667C82.8273 34.7627 83.7969 35.7323 84.9929 35.7323V37.3565C82.8999 37.3565 81.2031 35.6597 81.2031 33.5667C81.2031 31.4736 82.8999 29.7769 84.9929 29.7769C87.086 29.7769 88.7827 31.4736 88.7827 33.5667C88.7827 35.6597 87.086 37.3565 84.9929 37.3565V35.7323C86.189 35.7323 87.1585 34.7627 87.1585 33.5667Z" fill="white"/>
<path d="M48.1284 66.8629C48.5769 66.8629 48.9405 67.2265 48.9405 67.675C48.9405 68.1235 48.5769 68.4871 48.1284 68.4871H45.3929C44.9444 68.487 44.5807 68.1234 44.5807 67.675C44.5807 67.2265 44.9444 66.863 45.3929 66.8629H48.1284ZM64.9975 66.8629C65.446 66.8629 65.8096 67.2265 65.8096 67.675C65.8096 68.1235 65.446 68.487 64.9975 68.4871H55.4944C55.0459 68.4871 54.6823 68.1235 54.6823 67.675C54.6823 67.2265 55.0459 66.8629 55.4944 66.8629H64.9975ZM78.7747 56.3055V42.4998C78.7747 42.0513 79.1383 41.6877 79.5868 41.6877C80.0353 41.6877 80.3989 42.0513 80.3989 42.4998V56.3055C80.3989 56.754 80.0353 57.1176 79.5868 57.1176C79.1383 57.1176 78.7747 56.754 78.7747 56.3055ZM59.6263 46.0189C59.6263 45.5704 59.9899 45.2068 60.4384 45.2068C60.8869 45.2069 61.2505 45.5704 61.2505 46.0189C61.2505 46.583 61.2738 47.2414 61.2278 47.8292C61.1805 48.4329 61.0555 49.0802 60.6954 49.6612C59.9354 50.8874 58.4013 51.4329 55.8793 51.4329H45.3929C44.9444 51.4328 44.5807 51.0693 44.5807 50.6208C44.5807 50.1724 44.9444 49.8088 45.3929 49.8087H55.8793C58.2809 49.8087 59.0263 49.2714 59.3149 48.8058C59.4791 48.5409 59.5707 48.1899 59.6089 47.7023C59.6483 47.1989 59.6263 46.673 59.6263 46.0189ZM59.6263 34.6495V25.175C59.6263 24.7265 59.9899 24.3629 60.4384 24.3629C60.8869 24.3629 61.2505 24.7265 61.2505 25.175V34.6495C61.2505 35.098 60.8869 35.4615 60.4384 35.4616C59.9899 35.4616 59.6263 35.098 59.6263 34.6495ZM50.2797 14.8883C50.2797 14.4399 50.6434 14.0763 51.0918 14.0762C51.5404 14.0762 51.9039 14.4398 51.9039 14.8883V21.9266H58.1586C58.6071 21.9266 58.9707 22.2901 58.9707 22.7387C58.9707 23.1872 58.6071 23.5508 58.1586 23.5508H45.8491C45.4006 23.5508 45.037 23.1872 45.037 22.7387C45.037 22.2901 45.4006 21.9266 45.8491 21.9266H50.2797V14.8883ZM48.1284 10.5571C48.5769 10.5571 48.9405 10.9207 48.9405 11.3692C48.9405 11.8177 48.5769 12.1813 48.1284 12.1813H44.9371C44.4886 12.1813 44.125 11.8177 44.125 11.3692C44.125 10.9207 44.4886 10.5571 44.9371 10.5571H48.1284Z" fill="#00D4FF"/>
<path d="M53.596 11.3694C53.596 10.1734 52.6265 9.20379 51.4304 9.20379C50.2344 9.20379 49.2648 10.1734 49.2648 11.3694C49.2648 12.5654 50.2344 13.535 51.4304 13.535V15.1592C49.3374 15.1592 47.6406 13.4625 47.6406 11.3694C47.6406 9.27635 49.3374 7.57959 51.4304 7.57959C53.5235 7.57959 55.2202 9.27635 55.2202 11.3694C55.2202 13.4625 53.5235 15.1592 51.4304 15.1592V13.535C52.6265 13.535 53.596 12.5654 53.596 11.3694Z" fill="#00D4FF"/>
<path d="M54.1351 67.6751C54.1351 66.479 53.1655 65.5095 51.9695 65.5095C50.7735 65.5095 49.8039 66.479 49.8039 67.6751C49.8039 68.8711 50.7735 69.8407 51.9695 69.8407V71.4649C49.8764 71.4649 48.1797 69.7681 48.1797 67.6751C48.1797 65.582 49.8764 63.8853 51.9695 63.8853C54.0626 63.8853 55.7593 65.582 55.7593 67.6751C55.7593 69.7681 54.0626 71.4649 51.9695 71.4649V69.8407C53.1655 69.8407 54.1351 68.8711 54.1351 67.6751Z" fill="white"/>
<path d="M83.3709 77.4202V79.0444H67.1289V77.4202H83.3709ZM84.4537 76.3374V58.4712C84.4537 57.8732 83.9689 57.3884 83.3709 57.3884H67.1289C66.5309 57.3884 66.0461 57.8732 66.0461 58.4712V76.3374C66.0461 76.9354 66.5309 77.4202 67.1289 77.4202V79.0444C65.6338 79.0444 64.4219 77.8324 64.4219 76.3374V58.4712C64.4219 56.9761 65.6338 55.7642 67.1289 55.7642H83.3709C84.866 55.7642 86.0779 56.9761 86.0779 58.4712V76.3374C86.0779 77.8324 84.866 79.0444 83.3709 79.0444V77.4202C83.9689 77.4202 84.4537 76.9354 84.4537 76.3374Z" fill="#00D4FF"/>
<path d="M0 3.78981C0 1.69676 1.69676 0 3.78981 0H42.2293C44.3224 0 46.0191 1.69676 46.0191 3.78981V81.2102C46.0191 83.3032 44.3224 85 42.2293 85H3.78981C1.69676 85 0 83.3032 0 81.2102V3.78981Z" fill="#00D4FF"/>
<path d="M42.2293 83.3758V85H3.78981V83.3758H42.2293ZM44.3949 81.2102V3.78981C44.3949 2.59378 43.4253 1.6242 42.2293 1.6242H3.78981C2.59378 1.6242 1.6242 2.59378 1.6242 3.78981V81.2102C1.6242 82.4062 2.59378 83.3758 3.78981 83.3758V85L3.59471 84.9952C1.65694 84.897 0.103016 83.3431 0.00475841 81.4053L0 81.2102V3.78981C7.15065e-07 1.69676 1.69676 6.32202e-08 3.78981 0H42.2293C44.3224 0 46.0191 1.69676 46.0191 3.78981V81.2102L46.0143 81.4053C45.9161 83.3431 44.3622 84.897 42.4244 84.9952L42.2293 85V83.3758C43.4253 83.3758 44.3949 82.4062 44.3949 81.2102Z" fill="white"/>
<path d="M45.4804 28.9648C45.929 28.9648 46.2925 29.3284 46.2925 29.7769C46.2925 30.2255 45.929 30.589 45.4804 30.589H1.08554C0.637028 30.589 0.273438 30.2255 0.273438 29.7769C0.273438 29.3284 0.637028 28.9648 1.08554 28.9648H45.4804Z" fill="white"/>
<path d="M3.25 37.3566C3.25 36.4596 3.97718 35.7324 4.8742 35.7324H11.371C12.268 35.7324 12.9952 36.4596 12.9952 37.3566V41.1464C12.9952 42.0435 12.268 42.7706 11.371 42.7706H4.8742C3.97718 42.7706 3.25 42.0435 3.25 41.1464V37.3566Z" fill="white"/>
<path d="M33.0234 37.3566C33.0234 36.4596 33.7506 35.7324 34.6476 35.7324H41.6859C42.5829 35.7324 43.3101 36.4596 43.3101 37.3566V41.1464C43.3101 42.0435 42.5829 42.7706 41.6859 42.7706H34.6476C33.7506 42.7706 33.0234 42.0435 33.0234 41.1464V37.3566Z" fill="white"/>
<path d="M3.25 46.0192C3.25 45.1222 3.97718 44.395 4.8742 44.395H18.4092C19.3063 44.395 20.0334 45.1222 20.0334 46.0192V54.6816C20.0334 55.5787 19.3063 56.3058 18.4092 56.3058H4.8742C3.97718 56.3058 3.25 55.5787 3.25 54.6816V46.0192Z" fill="white"/>
<path d="M3.25 59.5539C3.25 58.6569 3.97718 57.9297 4.8742 57.9297H18.9506C19.8477 57.9297 20.5748 58.6569 20.5748 59.5539V68.2163C20.5748 69.1133 19.8477 69.8405 18.9506 69.8405H4.8742C3.97718 69.8405 3.25 69.1133 3.25 68.2163V59.5539Z" fill="white"/>
<path d="M14.6172 37.3566C14.6172 36.4596 15.3444 35.7324 16.2414 35.7324H29.7764C30.6734 35.7324 31.4006 36.4596 31.4006 37.3566V41.1464C31.4006 42.0435 30.6734 42.7706 29.7764 42.7706H16.2414C15.3444 42.7706 14.6172 42.0435 14.6172 41.1464V37.3566Z" fill="white"/>
<path d="M21.6484 46.0192C21.6484 45.1222 22.3756 44.395 23.2726 44.395H41.6803C42.5773 44.395 43.3045 45.1222 43.3045 46.0192V54.6816C43.3045 55.5787 42.5773 56.3058 41.6803 56.3058H23.2726C22.3756 56.3058 21.6484 55.5787 21.6484 54.6816V46.0192Z" fill="white"/>
<path d="M3.25 73.089C3.25 72.192 3.97718 71.4648 4.8742 71.4648H41.6895C42.5865 71.4648 43.3137 72.192 43.3137 73.089V79.5859C43.3137 80.4829 42.5865 81.2101 41.6895 81.2101H4.8742C3.97718 81.2101 3.25 80.4829 3.25 79.5859V73.089Z" fill="white"/>
<path d="M22.2031 59.5539C22.2031 58.6569 22.9303 57.9297 23.8273 57.9297H28.6999C29.597 57.9297 30.3241 58.6569 30.3241 59.5539V68.2163C30.3241 69.1133 29.597 69.8405 28.6999 69.8405H23.8273C22.9303 69.8405 22.2031 69.1133 22.2031 68.2163V59.5539Z" fill="white"/>
<path d="M31.9375 59.5539C31.9375 58.6569 32.6647 57.9297 33.5617 57.9297H41.6827C42.5797 57.9297 43.3069 58.6569 43.3069 59.5539V68.2163C43.3069 69.1133 42.5797 69.8405 41.6827 69.8405H33.5617C32.6647 69.8405 31.9375 69.1133 31.9375 68.2163V59.5539Z" fill="white"/>
<path d="M20.6417 22.1975H17.3203V15.0441C17.7126 10.8606 21.6355 10.215 23.1263 10.2925C24.617 10.3699 28.9322 10.5249 29.2199 15.793C29.45 20.0076 26.0903 21.8187 24.3816 22.1975H22.1586V18.8403C24.4601 18.8816 25.419 18.6854 25.6108 18.5821V15.793C25.6021 15.1302 25.093 13.7942 23.1263 13.7529C21.1596 13.7116 20.6505 15.0958 20.6417 15.793V22.1975Z" fill="white"/>
<path d="M27.2584 13.3515C26.568 11.2855 24.1114 10.433 23.0217 10.2866C27.5461 10.2866 28.8276 12.9465 29.0891 14.7026C28.4405 17.0578 26.4738 18.318 25.6108 18.5762V17.1817C26.439 16.7685 27.9489 15.4174 27.2584 13.3515Z" fill="url(#paint0_linear_2125_9915)"/>
<path d="M74.5349 68.9333C73.9632 68.7384 73.4435 68.5435 72.9757 68.3486C72.5079 68.1407 72.1051 67.8938 71.7673 67.6079C71.4295 67.3221 71.1631 66.9843 70.9682 66.5944C70.7863 66.1916 70.6953 65.7044 70.6953 65.1327C70.6953 64.2491 70.9682 63.5085 71.5139 62.9107C72.0596 62.3 72.8393 61.8843 73.8528 61.6634V60.0846C73.9697 60.0586 74.1516 60.0262 74.3985 59.9872C74.6454 59.9482 74.8988 59.9287 75.1586 59.9287C75.6654 59.9287 76.0617 60.0197 76.3475 60.2016C76.6334 60.3705 76.7763 60.7408 76.7763 61.3125V61.5659C77.5819 61.6699 78.2251 61.8778 78.7059 62.1896C79.1996 62.5014 79.4465 62.9302 79.4465 63.476C79.4465 63.8138 79.3686 64.1062 79.2126 64.353C79.0567 64.5869 78.8683 64.7883 78.6474 64.9572C78.3616 64.7753 77.9782 64.6194 77.4975 64.4895C77.0167 64.3465 76.4905 64.2751 75.9188 64.2751C75.334 64.2751 74.9052 64.3595 74.6324 64.5285C74.3595 64.6844 74.2231 64.8858 74.2231 65.1327C74.2231 65.3276 74.3075 65.49 74.4765 65.6199C74.6454 65.7369 74.8988 65.8473 75.2366 65.9513L76.2696 66.2826C77.491 66.6724 78.4265 67.1727 79.0762 67.7834C79.7389 68.3811 80.0702 69.1997 80.0702 70.2392C80.0702 71.1227 79.7909 71.8764 79.2321 72.5C78.6734 73.1107 77.8548 73.5265 76.7763 73.7474V75.3067C76.6594 75.3327 76.4775 75.3651 76.2306 75.4041C75.9837 75.4431 75.7303 75.4626 75.4705 75.4626C74.9637 75.4626 74.5674 75.3716 74.2816 75.1897C73.9957 75.0208 73.8528 74.6505 73.8528 74.0788V73.8839C73.385 73.8319 72.9562 73.7474 72.5664 73.6305C72.1896 73.5136 71.8582 73.3641 71.5724 73.1822C71.2995 73.0003 71.0851 72.7859 70.9292 72.539C70.7733 72.2922 70.6953 72.0128 70.6953 71.7009C70.6953 71.3241 70.8058 71.0058 71.0267 70.7459C71.2475 70.473 71.4879 70.2651 71.7478 70.1222C72.1116 70.4081 72.5534 70.655 73.0731 70.8629C73.6059 71.0707 74.1841 71.1747 74.8078 71.1747C75.4445 71.1747 75.8928 71.0772 76.1526 70.8823C76.4125 70.6874 76.5424 70.46 76.5424 70.2002C76.5424 69.9403 76.4385 69.7454 76.2306 69.6155C76.0227 69.4725 75.7303 69.3361 75.3535 69.2062L74.5349 68.9333Z" fill="white"/>
<path d="M38.1697 52.8755C38.0889 52.9563 37.9705 53.0169 37.8146 53.0574C37.6644 53.1036 37.4825 53.1267 37.2688 53.1267C37.0552 53.1267 36.853 53.0949 36.6625 53.0314C36.4719 52.9679 36.316 52.8148 36.1947 52.5723L35.3371 50.8225C35.2505 50.6434 35.1725 50.476 35.1032 50.32C35.0339 50.1583 34.9589 49.9735 34.878 49.7656L34.826 49.7743C34.8491 50.0862 34.8607 50.4038 34.8607 50.7272C34.8665 51.0506 34.8693 51.3682 34.8693 51.68V53.0227C34.8058 53.04 34.7077 53.0574 34.5748 53.0747C34.4478 53.092 34.3207 53.1007 34.1937 53.1007C34.0666 53.1007 33.954 53.092 33.8558 53.0747C33.7577 53.0574 33.6768 53.0227 33.6133 52.9707C33.5498 52.9188 33.5007 52.8495 33.466 52.7628C33.4314 52.6704 33.4141 52.5521 33.4141 52.4077V48.0765C33.4949 47.961 33.6191 47.8744 33.7865 47.8166C33.954 47.7589 34.133 47.73 34.3236 47.73C34.5373 47.73 34.7394 47.7646 34.93 47.8339C35.1263 47.8975 35.2823 48.0476 35.3978 48.2844L36.264 50.0342C36.3506 50.2132 36.4286 50.3836 36.4979 50.5453C36.5672 50.7012 36.6423 50.8831 36.7231 51.091L36.7664 51.0823C36.7433 50.7705 36.7289 50.4586 36.7231 50.1468C36.7173 49.8349 36.7144 49.5231 36.7144 49.2113V47.8079C36.778 47.7906 36.8733 47.7733 37.0003 47.756C37.1331 47.7386 37.2631 47.73 37.3901 47.73C37.6442 47.73 37.8377 47.7762 37.9705 47.8686C38.1033 47.9552 38.1697 48.14 38.1697 48.423V52.8755Z" fill="#00D4FF"/>
<path d="M32.2894 53.0227C32.2258 53.04 32.1248 53.0574 31.9862 53.0747C31.8534 53.092 31.7205 53.1007 31.5877 53.1007C31.4549 53.1007 31.3365 53.0891 31.2325 53.066C31.1344 53.0487 31.0506 53.0141 30.9813 52.9621C30.912 52.9101 30.8601 52.8379 30.8254 52.7455C30.7908 52.6531 30.7734 52.5318 30.7734 52.3817V47.8079C30.837 47.7964 30.938 47.782 31.0766 47.7646C31.2152 47.7415 31.348 47.73 31.4751 47.73C31.6079 47.73 31.7234 47.7415 31.8216 47.7646C31.9255 47.782 32.0122 47.8166 32.0815 47.8686C32.1508 47.9206 32.2027 47.9927 32.2374 48.0851C32.272 48.1775 32.2894 48.2988 32.2894 48.449V53.0227Z" fill="#00D4FF"/>
<path d="M27.4956 50.9697C27.2415 50.8831 27.0105 50.7964 26.8026 50.7098C26.5947 50.6174 26.4156 50.5077 26.2655 50.3806C26.1153 50.2536 25.997 50.1034 25.9103 49.9302C25.8295 49.7512 25.7891 49.5346 25.7891 49.2805C25.7891 48.7896 25.9767 48.397 26.3521 48.1024C26.7333 47.8079 27.2646 47.6606 27.946 47.6606C28.1943 47.6606 28.4253 47.678 28.639 47.7126C28.8527 47.7473 29.0346 47.8021 29.1847 47.8772C29.3407 47.9465 29.4619 48.0389 29.5486 48.1544C29.6352 48.2641 29.6785 48.3941 29.6785 48.5442C29.6785 48.6944 29.6438 48.8243 29.5745 48.934C29.5052 49.038 29.4215 49.1275 29.3233 49.2026C29.1963 49.1217 29.0259 49.0524 28.8122 48.9947C28.5986 48.9311 28.3647 48.8994 28.1106 48.8994C27.8507 48.8994 27.6601 48.9369 27.5389 49.012C27.4176 49.0813 27.357 49.1708 27.357 49.2805C27.357 49.3671 27.3945 49.4393 27.4696 49.4971C27.5446 49.5491 27.6573 49.5981 27.8074 49.6443L28.2665 49.7916C28.8094 49.9648 29.2252 50.1872 29.5139 50.4586C29.8084 50.7243 29.9557 51.0881 29.9557 51.5501C29.9557 52.0409 29.7622 52.4394 29.3753 52.7455C28.9884 53.0458 28.4196 53.1959 27.6688 53.1959C27.4032 53.1959 27.1548 53.1728 26.9238 53.1266C26.6986 53.0862 26.4994 53.0256 26.3261 52.9447C26.1587 52.8581 26.0258 52.7541 25.9277 52.6329C25.8353 52.5058 25.7891 52.3615 25.7891 52.1998C25.7891 52.0323 25.8381 51.8908 25.9363 51.7753C26.0345 51.654 26.1413 51.5616 26.2568 51.4981C26.4185 51.6251 26.6149 51.7349 26.8459 51.8273C27.0827 51.9197 27.3396 51.9659 27.6168 51.9659C27.8998 51.9659 28.099 51.9226 28.2145 51.8359C28.33 51.7493 28.3878 51.6482 28.3878 51.5327C28.3878 51.4172 28.3416 51.3306 28.2492 51.2729C28.1568 51.2093 28.0269 51.1487 27.8594 51.091L27.4956 50.9697Z" fill="#00D4FF"/>
<path d="M17.7613 62.7959C18.0212 62.7959 18.2615 62.8305 18.4824 62.8998C18.7077 62.9648 18.9004 63.0666 19.0607 63.2052C19.2209 63.3438 19.3465 63.5192 19.4375 63.7314C19.5284 63.9393 19.5739 64.1884 19.5739 64.4786C19.5739 64.7558 19.5349 64.9983 19.457 65.2062C19.379 65.4141 19.2686 65.5895 19.1256 65.7325C18.9827 65.8711 18.8094 65.975 18.6059 66.0443C18.4066 66.1136 18.1836 66.1483 17.9367 66.1483C17.7505 66.1483 17.5772 66.1201 17.417 66.0638V67.1423C17.3736 67.1553 17.3043 67.1683 17.2091 67.1812C17.1138 67.1986 17.0163 67.2072 16.9167 67.2072C16.8214 67.2072 16.7348 67.2007 16.6568 67.1877C16.5832 67.1748 16.5204 67.1488 16.4684 67.1098C16.4164 67.0708 16.3775 67.0167 16.3515 66.9474C16.3255 66.8824 16.3125 66.7958 16.3125 66.6875V63.569C16.3125 63.4521 16.3363 63.3568 16.384 63.2832C16.4359 63.2095 16.5052 63.1424 16.5919 63.0818C16.7261 62.9951 16.8929 62.9258 17.0921 62.8739C17.2914 62.8219 17.5144 62.7959 17.7613 62.7959ZM17.7743 65.2777C18.2204 65.2777 18.4435 65.0113 18.4435 64.4786C18.4435 64.2014 18.3871 63.9956 18.2745 63.8614C18.1663 63.7271 18.0082 63.66 17.8003 63.66C17.718 63.66 17.6443 63.6708 17.5794 63.6925C17.5144 63.7098 17.4581 63.7314 17.4105 63.7574V65.1867C17.4624 65.2127 17.5187 65.2344 17.5794 65.2517C17.64 65.269 17.705 65.2777 17.7743 65.2777Z" fill="#00D4FF"/>
<path d="M14.1323 65.3491C14.2059 65.3491 14.286 65.3427 14.3726 65.3297C14.4636 65.3123 14.5307 65.2907 14.574 65.2647V64.7449L14.1063 64.7839C13.985 64.7926 13.8854 64.8186 13.8074 64.8619C13.7295 64.9052 13.6905 64.9702 13.6905 65.0568C13.6905 65.1434 13.723 65.2149 13.7879 65.2712C13.8572 65.3232 13.972 65.3491 14.1323 65.3491ZM14.0803 62.7959C14.3142 62.7959 14.5264 62.8197 14.717 62.8674C14.9119 62.915 15.0765 62.9886 15.2107 63.0883C15.3493 63.1835 15.4554 63.307 15.5291 63.4586C15.6027 63.6058 15.6395 63.7812 15.6395 63.9848V65.4401C15.6395 65.5527 15.607 65.6458 15.5421 65.7195C15.4814 65.7888 15.4078 65.8494 15.3212 65.9014C15.0396 66.0703 14.6433 66.1548 14.1323 66.1548C13.9027 66.1548 13.6948 66.1331 13.5086 66.0898C13.3267 66.0465 13.1686 65.9815 13.0343 65.8949C12.9044 65.8083 12.8026 65.6978 12.7289 65.5635C12.6596 65.4293 12.625 65.2734 12.625 65.0958C12.625 64.7969 12.7138 64.5674 12.8914 64.4071C13.0689 64.2469 13.344 64.1472 13.7165 64.1083L14.5675 64.0173V63.9718C14.5675 63.8462 14.5112 63.7574 14.3986 63.7055C14.2903 63.6491 14.1323 63.621 13.9244 63.621C13.7598 63.621 13.5995 63.6383 13.4436 63.673C13.2877 63.7076 13.1469 63.7509 13.0213 63.8029C12.965 63.7639 12.9174 63.7055 12.8784 63.6275C12.8394 63.5452 12.8199 63.4607 12.8199 63.3741C12.8199 63.2615 12.8459 63.1727 12.8979 63.1077C12.9542 63.0384 13.0386 62.98 13.1512 62.9323C13.2768 62.8847 13.4241 62.85 13.593 62.8284C13.7663 62.8067 13.9287 62.7959 14.0803 62.7959Z" fill="#00D4FF"/>
<path d="M9.44115 65.9536C9.38051 66.0056 9.29822 66.0467 9.19427 66.077C9.09032 66.1117 8.96688 66.129 8.82395 66.129C8.64637 66.129 8.49262 66.103 8.36268 66.051C8.23274 66.0034 8.14612 65.9341 8.10281 65.8431C8.05516 65.7392 7.99886 65.5746 7.93389 65.3494C7.87325 65.1242 7.81262 64.8773 7.75198 64.6087C7.69134 64.3402 7.63287 64.0673 7.57656 63.7901C7.52459 63.5129 7.48344 63.2682 7.45312 63.056C7.51376 62.9954 7.59389 62.9434 7.69351 62.9001C7.79746 62.8524 7.91007 62.8286 8.03134 62.8286C8.18293 62.8286 8.30637 62.8633 8.40166 62.9326C8.50128 62.9975 8.56191 63.1123 8.58357 63.2769C8.62688 63.6061 8.6637 63.8789 8.69402 64.0955C8.72434 64.3077 8.74816 64.4831 8.76548 64.6217C8.78714 64.756 8.8023 64.86 8.81096 64.9336C8.82395 65.0029 8.83478 65.0592 8.84344 65.1025H8.86943C8.88242 65.0332 8.90408 64.9336 8.9344 64.8036C8.96905 64.6694 9.00803 64.5178 9.05134 64.3489C9.09465 64.18 9.14013 63.998 9.18777 63.8031C9.23542 63.6039 9.28306 63.4068 9.3307 63.2119C9.41733 63.1643 9.50179 63.1275 9.58408 63.1015C9.6707 63.0755 9.77682 63.0625 9.90242 63.0625C10.054 63.0625 10.184 63.0863 10.2922 63.134C10.4005 63.1816 10.4698 63.2552 10.5001 63.3549C10.5521 63.5454 10.6019 63.7317 10.6496 63.9136C10.6972 64.0912 10.7405 64.2579 10.7795 64.4138C10.8185 64.5654 10.8531 64.7019 10.8834 64.8231C10.9138 64.9401 10.9354 65.0332 10.9484 65.1025H10.9809C11.0285 64.769 11.074 64.4225 11.1173 64.063C11.165 63.7035 11.2083 63.3375 11.2473 62.965C11.3252 62.9174 11.4075 62.8828 11.4941 62.8611C11.5808 62.8394 11.6674 62.8286 11.754 62.8286C11.9056 62.8286 12.0312 62.8611 12.1308 62.9261C12.2304 62.991 12.2803 63.1036 12.2803 63.2639C12.2803 63.3332 12.2694 63.4371 12.2478 63.5757C12.2261 63.7143 12.198 63.8703 12.1633 64.0435C12.1287 64.2168 12.0875 64.3987 12.0399 64.5893C11.9966 64.7798 11.9511 64.9639 11.9034 65.1415C11.8601 65.3191 11.8168 65.4793 11.7735 65.6222C11.7345 65.7652 11.6999 65.8756 11.6696 65.9536C11.6089 66.0056 11.5158 66.0467 11.3902 66.077C11.2646 66.1117 11.1303 66.129 10.9874 66.129C10.6236 66.129 10.4092 66.038 10.3442 65.8561C10.3182 65.7782 10.2857 65.6807 10.2468 65.5638C10.2078 65.4425 10.1666 65.3104 10.1233 65.1675C10.08 65.0245 10.0389 64.8773 9.99988 64.7257C9.9609 64.5698 9.92841 64.4203 9.90242 64.2774C9.87211 64.429 9.83529 64.5871 9.79198 64.7517C9.74867 64.9119 9.70319 65.07 9.65555 65.2259C9.61223 65.3775 9.57109 65.5183 9.53211 65.6482C9.49313 65.7738 9.46281 65.8756 9.44115 65.9536Z" fill="#00D4FF"/>
<path d="M5.32675 64.4852C5.13617 64.4202 4.96293 64.3553 4.807 64.2903C4.65108 64.221 4.51681 64.1387 4.4042 64.0434C4.29159 63.9481 4.2028 63.8355 4.13783 63.7056C4.07719 63.5713 4.04688 63.4089 4.04688 63.2183C4.04688 62.8502 4.18764 62.5556 4.46917 62.3348C4.75503 62.1139 5.1535 62.0034 5.66458 62.0034C5.85082 62.0034 6.02407 62.0164 6.18433 62.0424C6.34458 62.0684 6.48101 62.1095 6.59363 62.1658C6.71057 62.2178 6.80152 62.2871 6.86649 62.3737C6.93146 62.456 6.96394 62.5535 6.96394 62.6661C6.96394 62.7787 6.93796 62.8762 6.88598 62.9585C6.83401 63.0364 6.77121 63.1035 6.69758 63.1599C6.60229 63.0992 6.47452 63.0472 6.31426 63.0039C6.15401 62.9563 5.97859 62.9325 5.78802 62.9325C5.59312 62.9325 5.45019 62.9606 5.35923 63.0169C5.26828 63.0689 5.2228 63.136 5.2228 63.2183C5.2228 63.2833 5.25095 63.3374 5.30726 63.3807C5.36356 63.4197 5.44802 63.4565 5.56063 63.4912L5.90496 63.6016C6.3121 63.7316 6.62394 63.8983 6.84051 64.1019C7.0614 64.3011 7.17184 64.574 7.17184 64.9205C7.17184 65.2886 7.02675 65.5875 6.73656 65.817C6.44637 66.0423 6.01974 66.1549 5.45668 66.1549C5.25745 66.1549 5.07121 66.1376 4.89796 66.1029C4.72904 66.0726 4.57961 66.0271 4.44968 65.9665C4.32407 65.9015 4.22445 65.8235 4.15082 65.7326C4.08152 65.6373 4.04688 65.529 4.04688 65.4077C4.04688 65.2821 4.08369 65.176 4.15732 65.0894C4.23095 64.9984 4.31108 64.9292 4.3977 64.8815C4.51898 64.9768 4.66624 65.0591 4.83949 65.1284C5.01707 65.1977 5.2098 65.2323 5.4177 65.2323C5.62993 65.2323 5.77936 65.1999 5.86598 65.1349C5.95261 65.0699 5.99592 64.9941 5.99592 64.9075C5.99592 64.8209 5.96127 64.7559 5.89197 64.7126C5.82267 64.6649 5.72522 64.6195 5.59961 64.5762L5.32675 64.4852Z" fill="#00D4FF"/>
<path d="M62.2632 22.1976C62.2632 21.3006 61.5361 20.5734 60.639 20.5734C59.742 20.5734 59.0148 21.3006 59.0148 22.1976C59.0148 23.0946 59.742 23.8218 60.639 23.8218V25.446C58.845 25.446 57.3906 23.9917 57.3906 22.1976C57.3906 20.4036 58.845 18.9492 60.639 18.9492C62.4331 18.9492 63.8874 20.4036 63.8874 22.1976C63.8874 23.9917 62.4331 25.446 60.639 25.446V23.8218C61.5361 23.8218 62.2632 23.0946 62.2632 22.1976Z" fill="white"/>
<defs>
<linearGradient id="paint0_linear_2125_9915" x1="26.0815" y1="10.2866" x2="26.0815" y2="18.4905" gradientUnits="userSpaceOnUse">
<stop stop-color="#7293FA"/>
<stop offset="0.1593" stop-color="#81ABFF"/>
<stop offset="0.500398" stop-color="#ABC6FB"/>
<stop offset="1" stop-color="#BCD3FC"/>
</linearGradient>
</defs>
</svg>
