<svg width="155" height="151" viewBox="0 0 155 151" fill="none" xmlns="http://www.w3.org/2000/svg">
<g filter="url(#filter0_d_2125_9835)">
<path d="M84.7914 67.6957C85.6332 66.4775 87.4847 66.6524 88.0837 68.0066L91.4067 75.5191C91.499 75.7279 91.7925 75.7354 91.8957 75.5318L94.9934 69.4183C95.5737 68.273 97.1007 68.0242 98.0145 68.926L100.757 71.632C100.808 71.682 100.876 71.7102 100.947 71.7102H109.604C110.053 71.7102 110.417 72.0738 110.417 72.5223C110.417 72.9709 110.053 73.3344 109.604 73.3344H100.947C100.449 73.3344 99.9706 73.1382 99.616 72.7883L96.8735 70.0818C96.743 69.9532 96.525 69.9887 96.4421 70.1521L93.3444 76.2662C92.622 77.6918 90.5675 77.6379 89.921 76.1763L86.598 68.6638C86.5124 68.4703 86.2482 68.4453 86.128 68.6194L83.4353 72.5165C83.0814 73.0286 82.4985 73.3344 81.8761 73.3344H79.0152C78.5667 73.3344 78.2031 72.9709 78.2031 72.5223C78.2031 72.0738 78.5667 71.7102 79.0152 71.7102H81.8761C81.965 71.7102 82.0481 71.6665 82.0987 71.5934L84.7914 67.6957Z" fill="#00D4FF"/>
<path d="M103.249 35.9777C103.606 35.9709 103.926 36.1987 104.036 36.5387L106.847 45.1815H118C118.449 45.1815 118.812 45.5451 118.812 45.9936C118.812 46.4421 118.449 46.8057 118 46.8057H106.258C105.906 46.8057 105.594 46.5792 105.485 46.2447L103.317 39.5787L100.361 50.005C100.263 50.3525 99.9465 50.5932 99.5853 50.5955C99.2241 50.5978 98.9047 50.3611 98.8017 50.015L97.1902 44.601C97.0623 44.1711 97.307 43.7191 97.7369 43.5911C98.1667 43.4632 98.6188 43.708 98.7467 44.1378L99.5609 46.8734L102.483 36.5683L102.504 36.5048C102.62 36.1952 102.914 35.9841 103.249 35.9777Z" fill="#00D4FF"/>
<path d="M113.669 72.5223C113.669 71.6253 112.942 70.8981 112.045 70.8981C111.148 70.8981 110.421 71.6253 110.421 72.5223C110.421 73.4194 111.148 74.1465 112.045 74.1465V75.7707C110.251 75.7707 108.797 74.3164 108.797 72.5223C108.797 70.7283 110.251 69.2739 112.045 69.2739C113.839 69.2739 115.294 70.7283 115.294 72.5223C115.294 74.3164 113.839 75.7707 112.045 75.7707V74.1465C112.942 74.1465 113.669 73.4194 113.669 72.5223Z" fill="#00D4FF"/>
<path d="M120.159 66.5667C120.159 65.3706 119.189 64.4011 117.993 64.4011C116.797 64.4011 115.827 65.3706 115.827 66.5667C115.827 67.7627 116.797 68.7323 117.993 68.7323V70.3565C115.9 70.3565 114.203 68.6597 114.203 66.5667C114.203 64.4736 115.9 62.7769 117.993 62.7769C120.086 62.7769 121.783 64.4736 121.783 66.5667C121.783 68.6597 120.086 70.3565 117.993 70.3565V68.7323C119.189 68.7323 120.159 67.7627 120.159 66.5667Z" fill="white"/>
<path d="M81.1284 99.8631C81.5769 99.8631 81.9405 100.227 81.9405 100.675C81.9405 101.124 81.5769 101.487 81.1284 101.487H78.3929C77.9444 101.487 77.5807 101.124 77.5807 100.675C77.5807 100.227 77.9444 99.8632 78.3929 99.8631H81.1284ZM97.9975 99.8631C98.446 99.8631 98.8096 100.227 98.8096 100.675C98.8096 101.124 98.446 101.487 97.9975 101.487H88.4944C88.0459 101.487 87.6823 101.124 87.6823 100.675C87.6823 100.227 88.0459 99.8631 88.4944 99.8631H97.9975ZM111.775 89.3058V75.5C111.775 75.0515 112.138 74.6879 112.587 74.6879C113.035 74.6879 113.399 75.0515 113.399 75.5V89.3058C113.399 89.7543 113.035 90.1179 112.587 90.1179C112.138 90.1179 111.775 89.7543 111.775 89.3058ZM92.6263 79.0192C92.6263 78.5706 92.9899 78.2071 93.4384 78.2071C93.8869 78.2071 94.2505 78.5707 94.2505 79.0192C94.2505 79.5832 94.2738 80.2416 94.2278 80.8295C94.1805 81.4331 94.0555 82.0804 93.6954 82.6615C92.9354 83.8876 91.4013 84.4331 88.8793 84.4332H78.3929C77.9444 84.4331 77.5807 84.0695 77.5807 83.6211C77.5807 83.1726 77.9444 82.8091 78.3929 82.809H88.8793C91.2809 82.8089 92.0263 82.2717 92.3149 81.806C92.4791 81.5411 92.5707 81.1901 92.6089 80.7026C92.6483 80.1992 92.6263 79.6732 92.6263 79.0192ZM92.6263 67.6497V58.1752C92.6263 57.7267 92.9899 57.3631 93.4384 57.3631C93.8869 57.3632 94.2505 57.7267 94.2505 58.1752V67.6497C94.2505 68.0982 93.8869 68.4618 93.4384 68.4618C92.9899 68.4618 92.6263 68.0982 92.6263 67.6497ZM83.2797 47.8886C83.2797 47.4401 83.6434 47.0766 84.0918 47.0765C84.5404 47.0765 84.9039 47.4401 84.9039 47.8886V54.9268H91.1586C91.6071 54.9268 91.9707 55.2904 91.9707 55.7389C91.9707 56.1874 91.6071 56.551 91.1586 56.551H78.8491C78.4006 56.551 78.037 56.1874 78.037 55.7389C78.037 55.2904 78.4006 54.9268 78.8491 54.9268H83.2797V47.8886ZM81.1284 43.5574C81.5769 43.5574 81.9405 43.921 81.9405 44.3695C81.9405 44.818 81.5769 45.1816 81.1284 45.1816H77.9371C77.4886 45.1816 77.125 44.818 77.125 44.3695C77.125 43.921 77.4886 43.5574 77.9371 43.5574H81.1284Z" fill="#00D4FF"/>
<path d="M86.596 44.3694C86.596 43.1734 85.6265 42.2038 84.4304 42.2038C83.2344 42.2038 82.2648 43.1734 82.2648 44.3694C82.2648 45.5654 83.2344 46.535 84.4304 46.535V48.1592C82.3374 48.1592 80.6406 46.4625 80.6406 44.3694C80.6406 42.2763 82.3374 40.5796 84.4304 40.5796C86.5235 40.5796 88.2202 42.2763 88.2202 44.3694C88.2202 46.4625 86.5235 48.1592 84.4304 48.1592V46.535C85.6265 46.535 86.596 45.5654 86.596 44.3694Z" fill="#00D4FF"/>
<path d="M87.1351 100.675C87.1351 99.479 86.1655 98.5095 84.9695 98.5095C83.7735 98.5095 82.8039 99.479 82.8039 100.675C82.8039 101.871 83.7735 102.841 84.9695 102.841V104.465C82.8764 104.465 81.1797 102.768 81.1797 100.675C81.1797 98.582 82.8764 96.8853 84.9695 96.8853C87.0626 96.8853 88.7593 98.582 88.7593 100.675C88.7593 102.768 87.0626 104.465 84.9695 104.465V102.841C86.1655 102.841 87.1351 101.871 87.1351 100.675Z" fill="white"/>
<path d="M116.371 110.42V112.044H100.129V110.42H116.371ZM117.454 109.337V91.4712C117.454 90.8732 116.969 90.3884 116.371 90.3884H100.129C99.5309 90.3884 99.0461 90.8732 99.0461 91.4712V109.337C99.0461 109.935 99.5309 110.42 100.129 110.42V112.044C98.6338 112.044 97.4219 110.832 97.4219 109.337V91.4712C97.4219 89.9761 98.6338 88.7642 100.129 88.7642H116.371C117.866 88.7642 119.078 89.9761 119.078 91.4712V109.337C119.078 110.832 117.866 112.044 116.371 112.044V110.42C116.969 110.42 117.454 109.935 117.454 109.337Z" fill="#00D4FF"/>
<path d="M33 36.7898C33 34.6968 34.6968 33 36.7898 33H75.2293C77.3224 33 79.0191 34.6968 79.0191 36.7898V114.21C79.0191 116.303 77.3224 118 75.2293 118H36.7898C34.6968 118 33 116.303 33 114.21V36.7898Z" fill="#00D4FF"/>
<path d="M75.2293 116.376V118H36.7898V116.376H75.2293ZM77.3949 114.21V36.7898C77.3949 35.5938 76.4253 34.6242 75.2293 34.6242H36.7898C35.5938 34.6242 34.6242 35.5938 34.6242 36.7898V114.21C34.6242 115.406 35.5938 116.376 36.7898 116.376V118L36.5947 117.995C34.6569 117.897 33.103 116.343 33.0048 114.405L33 114.21V36.7898C33 34.6968 34.6968 33 36.7898 33H75.2293C77.3224 33 79.0191 34.6968 79.0191 36.7898V114.21L79.0143 114.405C78.9161 116.343 77.3622 117.897 75.4244 117.995L75.2293 118V116.376C76.4253 116.376 77.3949 115.406 77.3949 114.21Z" fill="white"/>
<path d="M78.4804 61.9648C78.929 61.9648 79.2925 62.3284 79.2925 62.7769C79.2925 63.2255 78.929 63.589 78.4804 63.589H34.0855C33.637 63.589 33.2734 63.2255 33.2734 62.7769C33.2734 62.3284 33.637 61.9648 34.0855 61.9648H78.4804Z" fill="white"/>
<path d="M36.25 70.3566C36.25 69.4596 36.9772 68.7324 37.8742 68.7324H44.371C45.268 68.7324 45.9952 69.4596 45.9952 70.3566V74.1464C45.9952 75.0435 45.268 75.7706 44.371 75.7706H37.8742C36.9772 75.7706 36.25 75.0435 36.25 74.1464V70.3566Z" fill="white"/>
<path d="M66.0234 70.3566C66.0234 69.4596 66.7506 68.7324 67.6476 68.7324H74.6859C75.5829 68.7324 76.3101 69.4596 76.3101 70.3566V74.1464C76.3101 75.0435 75.5829 75.7706 74.6859 75.7706H67.6476C66.7506 75.7706 66.0234 75.0435 66.0234 74.1464V70.3566Z" fill="white"/>
<path d="M36.25 79.0192C36.25 78.1222 36.9772 77.395 37.8742 77.395H51.4092C52.3063 77.395 53.0334 78.1222 53.0334 79.0192V87.6816C53.0334 88.5787 52.3063 89.3058 51.4092 89.3058H37.8742C36.9772 89.3058 36.25 88.5787 36.25 87.6816V79.0192Z" fill="white"/>
<path d="M36.25 92.5539C36.25 91.6569 36.9772 90.9297 37.8742 90.9297H51.9506C52.8477 90.9297 53.5748 91.6569 53.5748 92.5539V101.216C53.5748 102.113 52.8477 102.841 51.9506 102.841H37.8742C36.9772 102.841 36.25 102.113 36.25 101.216V92.5539Z" fill="white"/>
<path d="M47.6172 70.3566C47.6172 69.4596 48.3444 68.7324 49.2414 68.7324H62.7764C63.6734 68.7324 64.4006 69.4596 64.4006 70.3566V74.1464C64.4006 75.0435 63.6734 75.7706 62.7764 75.7706H49.2414C48.3444 75.7706 47.6172 75.0435 47.6172 74.1464V70.3566Z" fill="white"/>
<path d="M54.6484 79.0192C54.6484 78.1222 55.3756 77.395 56.2726 77.395H74.6803C75.5773 77.395 76.3045 78.1222 76.3045 79.0192V87.6816C76.3045 88.5787 75.5773 89.3058 74.6803 89.3058H56.2726C55.3756 89.3058 54.6484 88.5787 54.6484 87.6816V79.0192Z" fill="white"/>
<path d="M36.25 106.089C36.25 105.192 36.9772 104.465 37.8742 104.465H74.6895C75.5865 104.465 76.3137 105.192 76.3137 106.089V112.586C76.3137 113.483 75.5865 114.21 74.6895 114.21H37.8742C36.9772 114.21 36.25 113.483 36.25 112.586V106.089Z" fill="white"/>
<path d="M55.2031 92.5539C55.2031 91.6569 55.9303 90.9297 56.8273 90.9297H61.6999C62.597 90.9297 63.3241 91.6569 63.3241 92.5539V101.216C63.3241 102.113 62.597 102.841 61.6999 102.841H56.8273C55.9303 102.841 55.2031 102.113 55.2031 101.216V92.5539Z" fill="white"/>
<path d="M64.9375 92.5539C64.9375 91.6569 65.6647 90.9297 66.5617 90.9297H74.6827C75.5797 90.9297 76.3069 91.6569 76.3069 92.5539V101.216C76.3069 102.113 75.5797 102.841 74.6827 102.841H66.5617C65.6647 102.841 64.9375 102.113 64.9375 101.216V92.5539Z" fill="white"/>
<path d="M53.6417 55.1975H50.3203V48.0441C50.7126 43.8606 54.6355 43.215 56.1263 43.2925C57.617 43.3699 61.9322 43.5249 62.2199 48.793C62.45 53.0076 59.0903 54.8187 57.3816 55.1975H55.1586V51.8403C57.4601 51.8816 58.419 51.6854 58.6108 51.5821V48.793C58.6021 48.1302 58.093 46.7942 56.1263 46.7529C54.1596 46.7116 53.6505 48.0958 53.6417 48.793V55.1975Z" fill="white"/>
<path d="M60.2584 46.3515C59.568 44.2855 57.1114 43.433 56.0217 43.2866C60.5461 43.2866 61.8276 45.9465 62.0891 47.7026C61.4405 50.0578 59.4738 51.318 58.6108 51.5762V50.1817C59.439 49.7685 60.9489 48.4174 60.2584 46.3515Z" fill="url(#paint0_linear_2125_9835)"/>
<path d="M107.535 101.933C106.963 101.738 106.443 101.543 105.976 101.349C105.508 101.141 105.105 100.894 104.767 100.608C104.429 100.322 104.163 99.9843 103.968 99.5944C103.786 99.1916 103.695 98.7044 103.695 98.1327C103.695 97.2491 103.968 96.5085 104.514 95.9107C105.06 95.3 105.839 94.8843 106.853 94.6634V93.0846C106.97 93.0586 107.152 93.0262 107.398 92.9872C107.645 92.9482 107.899 92.9287 108.159 92.9287C108.665 92.9287 109.062 93.0197 109.348 93.2016C109.633 93.3705 109.776 93.7408 109.776 94.3125V94.5659C110.582 94.6699 111.225 94.8778 111.706 95.1896C112.2 95.5014 112.447 95.9302 112.447 96.476C112.447 96.8138 112.369 97.1062 112.213 97.353C112.057 97.5869 111.868 97.7883 111.647 97.9572C111.362 97.7753 110.978 97.6194 110.497 97.4895C110.017 97.3465 109.49 97.2751 108.919 97.2751C108.334 97.2751 107.905 97.3595 107.632 97.5285C107.36 97.6844 107.223 97.8858 107.223 98.1327C107.223 98.3276 107.308 98.49 107.476 98.6199C107.645 98.7369 107.899 98.8473 108.237 98.9513L109.27 99.2826C110.491 99.6724 111.427 100.173 112.076 100.783C112.739 101.381 113.07 102.2 113.07 103.239C113.07 104.123 112.791 104.876 112.232 105.5C111.673 106.111 110.855 106.527 109.776 106.747V108.307C109.659 108.333 109.477 108.365 109.231 108.404C108.984 108.443 108.73 108.463 108.47 108.463C107.964 108.463 107.567 108.372 107.282 108.19C106.996 108.021 106.853 107.65 106.853 107.079V106.884C106.385 106.832 105.956 106.747 105.566 106.63C105.19 106.514 104.858 106.364 104.572 106.182C104.3 106 104.085 105.786 103.929 105.539C103.773 105.292 103.695 105.013 103.695 104.701C103.695 104.324 103.806 104.006 104.027 103.746C104.248 103.473 104.488 103.265 104.748 103.122C105.112 103.408 105.553 103.655 106.073 103.863C106.606 104.071 107.184 104.175 107.808 104.175C108.444 104.175 108.893 104.077 109.153 103.882C109.413 103.687 109.542 103.46 109.542 103.2C109.542 102.94 109.438 102.745 109.231 102.615C109.023 102.473 108.73 102.336 108.354 102.206L107.535 101.933Z" fill="white"/>
<path d="M71.1697 85.8755C71.0889 85.9563 70.9705 86.0169 70.8146 86.0574C70.6644 86.1036 70.4825 86.1267 70.2688 86.1267C70.0552 86.1267 69.853 86.0949 69.6625 86.0314C69.4719 85.9679 69.316 85.8148 69.1947 85.5723L68.3371 83.8225C68.2505 83.6434 68.1725 83.476 68.1032 83.32C68.0339 83.1583 67.9589 82.9735 67.878 82.7656L67.826 82.7743C67.8491 83.0862 67.8607 83.4038 67.8607 83.7272C67.8665 84.0506 67.8693 84.3682 67.8693 84.68V86.0227C67.8058 86.04 67.7077 86.0574 67.5748 86.0747C67.4478 86.092 67.3207 86.1007 67.1937 86.1007C67.0666 86.1007 66.954 86.092 66.8558 86.0747C66.7577 86.0574 66.6768 86.0227 66.6133 85.9707C66.5498 85.9188 66.5007 85.8495 66.466 85.7628C66.4314 85.6704 66.4141 85.5521 66.4141 85.4077V81.0765C66.4949 80.961 66.6191 80.8744 66.7865 80.8166C66.954 80.7589 67.133 80.73 67.3236 80.73C67.5373 80.73 67.7394 80.7646 67.93 80.8339C68.1263 80.8975 68.2823 81.0476 68.3978 81.2844L69.264 83.0342C69.3506 83.2132 69.4286 83.3836 69.4979 83.5453C69.5672 83.7012 69.6423 83.8831 69.7231 84.091L69.7664 84.0823C69.7433 83.7705 69.7289 83.4586 69.7231 83.1468C69.7173 82.8349 69.7144 82.5231 69.7144 82.2113V80.8079C69.778 80.7906 69.8733 80.7733 70.0003 80.756C70.1331 80.7386 70.2631 80.73 70.3901 80.73C70.6442 80.73 70.8377 80.7762 70.9705 80.8686C71.1033 80.9552 71.1697 81.14 71.1697 81.423V85.8755Z" fill="#00D4FF"/>
<path d="M65.2894 86.0227C65.2258 86.04 65.1248 86.0574 64.9862 86.0747C64.8534 86.092 64.7205 86.1007 64.5877 86.1007C64.4549 86.1007 64.3365 86.0891 64.2325 86.066C64.1344 86.0487 64.0506 86.0141 63.9813 85.9621C63.912 85.9101 63.8601 85.8379 63.8254 85.7455C63.7908 85.6531 63.7734 85.5318 63.7734 85.3817V80.8079C63.837 80.7964 63.938 80.782 64.0766 80.7646C64.2152 80.7415 64.348 80.73 64.4751 80.73C64.6079 80.73 64.7234 80.7415 64.8216 80.7646C64.9255 80.782 65.0122 80.8166 65.0815 80.8686C65.1508 80.9206 65.2027 80.9927 65.2374 81.0851C65.272 81.1775 65.2894 81.2988 65.2894 81.449V86.0227Z" fill="#00D4FF"/>
<path d="M60.4956 83.9697C60.2415 83.8831 60.0105 83.7964 59.8026 83.7098C59.5947 83.6174 59.4156 83.5077 59.2655 83.3806C59.1153 83.2536 58.997 83.1034 58.9103 82.9302C58.8295 82.7512 58.7891 82.5346 58.7891 82.2805C58.7891 81.7896 58.9767 81.397 59.3521 81.1024C59.7333 80.8079 60.2646 80.6606 60.946 80.6606C61.1943 80.6606 61.4253 80.678 61.639 80.7126C61.8527 80.7473 62.0346 80.8021 62.1847 80.8772C62.3407 80.9465 62.4619 81.0389 62.5486 81.1544C62.6352 81.2641 62.6785 81.3941 62.6785 81.5442C62.6785 81.6944 62.6438 81.8243 62.5745 81.934C62.5052 82.038 62.4215 82.1275 62.3233 82.2026C62.1963 82.1217 62.0259 82.0524 61.8122 81.9947C61.5986 81.9311 61.3647 81.8994 61.1106 81.8994C60.8507 81.8994 60.6601 81.9369 60.5389 82.012C60.4176 82.0813 60.357 82.1708 60.357 82.2805C60.357 82.3671 60.3945 82.4393 60.4696 82.4971C60.5446 82.5491 60.6573 82.5981 60.8074 82.6443L61.2665 82.7916C61.8094 82.9648 62.2252 83.1872 62.5139 83.4586C62.8084 83.7243 62.9557 84.0881 62.9557 84.5501C62.9557 85.0409 62.7622 85.4394 62.3753 85.7455C61.9884 86.0458 61.4196 86.1959 60.6688 86.1959C60.4032 86.1959 60.1548 86.1728 59.9238 86.1266C59.6986 86.0862 59.4994 86.0256 59.3261 85.9447C59.1587 85.8581 59.0258 85.7541 58.9277 85.6329C58.8353 85.5058 58.7891 85.3615 58.7891 85.1998C58.7891 85.0323 58.8381 84.8908 58.9363 84.7753C59.0345 84.654 59.1413 84.5616 59.2568 84.4981C59.4185 84.6251 59.6149 84.7349 59.8459 84.8273C60.0827 84.9197 60.3396 84.9659 60.6168 84.9659C60.8998 84.9659 61.099 84.9226 61.2145 84.8359C61.33 84.7493 61.3878 84.6482 61.3878 84.5327C61.3878 84.4172 61.3416 84.3306 61.2492 84.2729C61.1568 84.2093 61.0269 84.1487 60.8594 84.091L60.4956 83.9697Z" fill="#00D4FF"/>
<path d="M50.7613 95.7959C51.0212 95.7959 51.2615 95.8305 51.4824 95.8998C51.7077 95.9648 51.9004 96.0666 52.0607 96.2052C52.2209 96.3438 52.3465 96.5192 52.4375 96.7314C52.5284 96.9393 52.5739 97.1884 52.5739 97.4786C52.5739 97.7558 52.5349 97.9983 52.457 98.2062C52.379 98.4141 52.2686 98.5895 52.1256 98.7325C51.9827 98.8711 51.8094 98.975 51.6059 99.0443C51.4066 99.1136 51.1836 99.1483 50.9367 99.1483C50.7505 99.1483 50.5772 99.1201 50.417 99.0638V100.142C50.3736 100.155 50.3043 100.168 50.2091 100.181C50.1138 100.199 50.0163 100.207 49.9167 100.207C49.8214 100.207 49.7348 100.201 49.6568 100.188C49.5832 100.175 49.5204 100.149 49.4684 100.11C49.4164 100.071 49.3775 100.017 49.3515 99.9474C49.3255 99.8824 49.3125 99.7958 49.3125 99.6875V96.569C49.3125 96.4521 49.3363 96.3568 49.384 96.2832C49.4359 96.2095 49.5052 96.1424 49.5919 96.0818C49.7261 95.9951 49.8929 95.9258 50.0921 95.8739C50.2914 95.8219 50.5144 95.7959 50.7613 95.7959ZM50.7743 98.2777C51.2204 98.2777 51.4435 98.0113 51.4435 97.4786C51.4435 97.2014 51.3871 96.9956 51.2745 96.8614C51.1663 96.7271 51.0082 96.66 50.8003 96.66C50.718 96.66 50.6443 96.6708 50.5794 96.6925C50.5144 96.7098 50.4581 96.7314 50.4105 96.7574V98.1867C50.4624 98.2127 50.5187 98.2344 50.5794 98.2517C50.64 98.269 50.705 98.2777 50.7743 98.2777Z" fill="#00D4FF"/>
<path d="M47.1323 98.3491C47.2059 98.3491 47.286 98.3427 47.3726 98.3297C47.4636 98.3123 47.5307 98.2907 47.574 98.2647V97.7449L47.1063 97.7839C46.985 97.7926 46.8854 97.8186 46.8074 97.8619C46.7295 97.9052 46.6905 97.9702 46.6905 98.0568C46.6905 98.1434 46.723 98.2149 46.7879 98.2712C46.8572 98.3232 46.972 98.3491 47.1323 98.3491ZM47.0803 95.7959C47.3142 95.7959 47.5264 95.8197 47.717 95.8674C47.9119 95.915 48.0765 95.9886 48.2107 96.0883C48.3493 96.1835 48.4554 96.307 48.5291 96.4586C48.6027 96.6058 48.6395 96.7812 48.6395 96.9848V98.4401C48.6395 98.5527 48.607 98.6458 48.5421 98.7195C48.4814 98.7888 48.4078 98.8494 48.3212 98.9014C48.0396 99.0703 47.6433 99.1548 47.1323 99.1548C46.9027 99.1548 46.6948 99.1331 46.5086 99.0898C46.3267 99.0465 46.1686 98.9815 46.0343 98.8949C45.9044 98.8083 45.8026 98.6978 45.7289 98.5635C45.6596 98.4293 45.625 98.2734 45.625 98.0958C45.625 97.7969 45.7138 97.5674 45.8914 97.4071C46.0689 97.2469 46.344 97.1472 46.7165 97.1083L47.5675 97.0173V96.9718C47.5675 96.8462 47.5112 96.7574 47.3986 96.7055C47.2903 96.6491 47.1323 96.621 46.9244 96.621C46.7598 96.621 46.5995 96.6383 46.4436 96.673C46.2877 96.7076 46.1469 96.7509 46.0213 96.8029C45.965 96.7639 45.9174 96.7055 45.8784 96.6275C45.8394 96.5452 45.8199 96.4607 45.8199 96.3741C45.8199 96.2615 45.8459 96.1727 45.8979 96.1077C45.9542 96.0384 46.0386 95.98 46.1512 95.9323C46.2768 95.8847 46.4241 95.85 46.593 95.8284C46.7663 95.8067 46.9287 95.7959 47.0803 95.7959Z" fill="#00D4FF"/>
<path d="M42.4412 98.9536C42.3805 99.0056 42.2982 99.0467 42.1943 99.077C42.0903 99.1117 41.9669 99.129 41.824 99.129C41.6464 99.129 41.4926 99.103 41.3627 99.051C41.2327 99.0034 41.1461 98.9341 41.1028 98.8431C41.0552 98.7392 40.9989 98.5746 40.9339 98.3494C40.8733 98.1242 40.8126 97.8773 40.752 97.6087C40.6913 97.3402 40.6329 97.0673 40.5766 96.7901C40.5246 96.5129 40.4834 96.2682 40.4531 96.056C40.5138 95.9954 40.5939 95.9434 40.6935 95.9001C40.7975 95.8524 40.9101 95.8286 41.0313 95.8286C41.1829 95.8286 41.3064 95.8633 41.4017 95.9326C41.5013 95.9975 41.5619 96.1123 41.5836 96.2769C41.6269 96.6061 41.6637 96.8789 41.694 97.0955C41.7243 97.3077 41.7482 97.4831 41.7655 97.6217C41.7871 97.756 41.8023 97.86 41.811 97.9336C41.824 98.0029 41.8348 98.0592 41.8434 98.1025H41.8694C41.8824 98.0332 41.9041 97.9336 41.9344 97.8036C41.969 97.6694 42.008 97.5178 42.0513 97.3489C42.0947 97.18 42.1401 96.998 42.1878 96.8031C42.2354 96.6039 42.2831 96.4068 42.3307 96.2119C42.4173 96.1643 42.5018 96.1275 42.5841 96.1015C42.6707 96.0755 42.7768 96.0625 42.9024 96.0625C43.054 96.0625 43.184 96.0863 43.2922 96.134C43.4005 96.1816 43.4698 96.2552 43.5001 96.3549C43.5521 96.5454 43.6019 96.7317 43.6496 96.9136C43.6972 97.0912 43.7405 97.2579 43.7795 97.4138C43.8185 97.5654 43.8531 97.7019 43.8834 97.8231C43.9138 97.9401 43.9354 98.0332 43.9484 98.1025H43.9809C44.0285 97.769 44.074 97.4225 44.1173 97.063C44.165 96.7035 44.2083 96.3375 44.2473 95.965C44.3252 95.9174 44.4075 95.8828 44.4941 95.8611C44.5808 95.8394 44.6674 95.8286 44.754 95.8286C44.9056 95.8286 45.0312 95.8611 45.1308 95.9261C45.2304 95.991 45.2803 96.1036 45.2803 96.2639C45.2803 96.3332 45.2694 96.4371 45.2478 96.5757C45.2261 96.7143 45.198 96.8703 45.1633 97.0435C45.1287 97.2168 45.0875 97.3987 45.0399 97.5893C44.9966 97.7798 44.9511 97.9639 44.9034 98.1415C44.8601 98.3191 44.8168 98.4793 44.7735 98.6222C44.7345 98.7652 44.6999 98.8756 44.6696 98.9536C44.6089 99.0056 44.5158 99.0467 44.3902 99.077C44.2646 99.1117 44.1303 99.129 43.9874 99.129C43.6236 99.129 43.4092 99.038 43.3442 98.8561C43.3182 98.7782 43.2857 98.6807 43.2468 98.5638C43.2078 98.4425 43.1666 98.3104 43.1233 98.1675C43.08 98.0245 43.0389 97.8773 42.9999 97.7257C42.9609 97.5698 42.9284 97.4203 42.9024 97.2774C42.8721 97.429 42.8353 97.5871 42.792 97.7517C42.7487 97.9119 42.7032 98.07 42.6555 98.2259C42.6122 98.3775 42.5711 98.5183 42.5321 98.6482C42.4931 98.7738 42.4628 98.8756 42.4412 98.9536Z" fill="#00D4FF"/>
<path d="M38.3267 97.4852C38.1362 97.4202 37.9629 97.3553 37.807 97.2903C37.6511 97.221 37.5168 97.1387 37.4042 97.0434C37.2916 96.9481 37.2028 96.8355 37.1378 96.7056C37.0772 96.5713 37.0469 96.4089 37.0469 96.2183C37.0469 95.8502 37.1876 95.5556 37.4692 95.3348C37.755 95.1139 38.1535 95.0034 38.6646 95.0034C38.8508 95.0034 39.0241 95.0164 39.1843 95.0424C39.3446 95.0684 39.481 95.1095 39.5936 95.1658C39.7106 95.2178 39.8015 95.2871 39.8665 95.3737C39.9315 95.456 39.9639 95.5535 39.9639 95.6661C39.9639 95.7787 39.938 95.8762 39.886 95.9585C39.834 96.0364 39.7712 96.1035 39.6976 96.1599C39.6023 96.0992 39.4745 96.0472 39.3143 96.0039C39.154 95.9563 38.9786 95.9325 38.788 95.9325C38.5931 95.9325 38.4502 95.9606 38.3592 96.0169C38.2683 96.0689 38.2228 96.136 38.2228 96.2183C38.2228 96.2833 38.251 96.3374 38.3073 96.3807C38.3636 96.4197 38.448 96.4565 38.5606 96.4912L38.905 96.6016C39.3121 96.7316 39.6239 96.8983 39.8405 97.1019C40.0614 97.3011 40.1718 97.574 40.1718 97.9205C40.1718 98.2886 40.0267 98.5875 39.7366 98.817C39.4464 99.0423 39.0197 99.1549 38.4567 99.1549C38.2574 99.1549 38.0712 99.1376 37.898 99.1029C37.729 99.0726 37.5796 99.0271 37.4497 98.9665C37.3241 98.9015 37.2245 98.8235 37.1508 98.7326C37.0815 98.6373 37.0469 98.529 37.0469 98.4077C37.0469 98.2821 37.0837 98.176 37.1573 98.0894C37.231 97.9984 37.3111 97.9292 37.3977 97.8815C37.519 97.9768 37.6662 98.0591 37.8395 98.1284C38.0171 98.1977 38.2098 98.2323 38.4177 98.2323C38.6299 98.2323 38.7794 98.1999 38.866 98.1349C38.9526 98.0699 38.9959 97.9941 38.9959 97.9075C38.9959 97.8209 38.9613 97.7559 38.892 97.7126C38.8227 97.6649 38.7252 97.6195 38.5996 97.5762L38.3267 97.4852Z" fill="#00D4FF"/>
<path d="M95.2632 55.1974C95.2632 54.3004 94.5361 53.5732 93.639 53.5732C92.742 53.5732 92.0148 54.3004 92.0148 55.1974C92.0148 56.0944 92.742 56.8216 93.639 56.8216V58.4458C91.845 58.4458 90.3906 56.9914 90.3906 55.1974C90.3906 53.4033 91.845 51.949 93.639 51.949C95.4331 51.949 96.8874 53.4033 96.8874 55.1974C96.8874 56.9914 95.4331 58.4458 93.639 58.4458V56.8216C94.5361 56.8216 95.2632 56.0944 95.2632 55.1974Z" fill="white"/>
</g>
<defs>
<filter id="filter0_d_2125_9835" x="0" y="0" width="154.781" height="151" filterUnits="userSpaceOnUse" color-interpolation-filters="sRGB">
<feFlood flood-opacity="0" result="BackgroundImageFix"/>
<feColorMatrix in="SourceAlpha" type="matrix" values="0 0 0 0 0 0 0 0 0 0 0 0 0 0 0 0 0 0 127 0" result="hardAlpha"/>
<feOffset/>
<feGaussianBlur stdDeviation="16.5"/>
<feComposite in2="hardAlpha" operator="out"/>
<feColorMatrix type="matrix" values="0 0 0 0 0 0 0 0 0 0.95 0 0 0 0 1 0 0 0 1 0"/>
<feBlend mode="normal" in2="BackgroundImageFix" result="effect1_dropShadow_2125_9835"/>
<feBlend mode="normal" in="SourceGraphic" in2="effect1_dropShadow_2125_9835" result="shape"/>
</filter>
<linearGradient id="paint0_linear_2125_9835" x1="59.0815" y1="43.2866" x2="59.0815" y2="51.4905" gradientUnits="userSpaceOnUse">
<stop stop-color="#7293FA"/>
<stop offset="0.1593" stop-color="#81ABFF"/>
<stop offset="0.500398" stop-color="#ABC6FB"/>
<stop offset="1" stop-color="#BCD3FC"/>
</linearGradient>
</defs>
</svg>
