<svg width="89" height="87" viewBox="0 0 89 87" fill="none" xmlns="http://www.w3.org/2000/svg">
<path d="M43.5022 74.5403H44.6545V76.917H43.5022V74.5403ZM43.5022 69.643H44.6545V73.244H43.5022V69.643ZM43.5022 65.97H44.6545V68.3466H43.5022V65.97ZM70.818 65.3336L70.0657 66.2063L68.1487 64.5538L68.901 63.6811L70.818 65.3336ZM21.5918 64.7079L19.8093 66.2057L19.0677 65.3235L20.8502 63.8257L21.5918 64.7079ZM25.1928 61.6831L22.5101 63.9371L21.7685 63.0548L24.4512 60.8008L25.1928 61.6831ZM67.6851 62.6329L66.9328 63.5055L63.9716 60.9528L64.7238 60.0801L67.6851 62.6329ZM27.8936 59.4145L26.1111 60.9123L25.3695 60.03L27.152 58.5322L27.8936 59.4145ZM63.5079 59.0319L62.7557 59.9045L60.8387 58.252L61.591 57.3793L63.5079 59.0319ZM12.2456 42.9236V44.0759H9.79688V42.9236H12.2456ZM17.431 42.9236V44.0759H13.6859V42.9236H17.431ZM21.3201 42.9236V44.0759H18.8714V42.9236H21.3201ZM69.3213 42.9236V44.0759H66.8366V42.9236H69.3213ZM74.6508 42.9236V44.0759H70.8337V42.9236H74.6508ZM78.6479 42.9236V44.0759H76.1632V42.9236H78.6479ZM63.3301 27.9969L61.6337 29.6224L60.8365 28.7903L62.5329 27.1648L63.3301 27.9969ZM29.0386 26.6623L28.3628 27.5958L26.3851 26.1638L27.0608 25.2303L29.0386 26.6623ZM66.7871 24.684L64.2265 27.1378L63.4292 26.3056L65.9898 23.8518L66.7871 24.684ZM25.9057 24.3937L25.2299 25.3271L22.2079 23.139L22.8837 22.2055L25.9057 24.3937ZM69.3798 22.1993L67.6834 23.8248L66.8861 22.9927L68.5825 21.3672L69.3798 22.1993ZM21.7285 21.3688L21.0528 22.3023L19.0751 20.8703L19.7508 19.9369L21.7285 21.3688ZM43.5022 18.5449H44.6545V20.7415H43.5022V18.5449ZM43.5022 14.3677H44.6545V17.6086H43.5022V14.3677ZM43.5022 11.2349H44.6545V13.4315H43.5022V11.2349Z" fill="white"/>
<path d="M66.2568 43.5C66.2568 31.2491 56.3255 21.3178 44.0747 21.3178C31.8238 21.3178 21.8925 31.2491 21.8925 43.5C21.8925 55.7508 31.8238 65.6821 44.0747 65.6821V67.4105C30.8692 67.4105 20.1641 56.7054 20.1641 43.5C20.1641 30.2945 30.8692 19.5894 44.0747 19.5894C57.2801 19.5894 67.9853 30.2945 67.9853 43.5C67.9853 56.7054 57.2801 67.4105 44.0747 67.4105V65.6821C56.3255 65.6821 66.2568 55.7508 66.2568 43.5Z" fill="#00F2FF"/>
<path d="M82.3908 43.7882C82.3908 22.7867 65.3658 5.76168 44.3643 5.76168C23.3629 5.76168 6.33785 22.7867 6.33785 43.7882C6.33785 64.7896 23.3629 81.8147 44.3643 81.8147V83.5431C22.4083 83.5431 4.60938 65.7442 4.60938 43.7882C4.60938 21.8321 22.4083 4.0332 44.3643 4.0332C66.3204 4.0332 84.1193 21.8321 84.1193 43.7882C84.1193 65.7442 66.3204 83.5431 44.3643 83.5431V81.8147C65.3658 81.8147 82.3908 64.7896 82.3908 43.7882Z" fill="#00F2FF"/>
<path d="M37.4531 1.15232C37.4531 0.51591 37.969 0 38.6054 0H49.5525C50.1889 0 50.7048 0.51591 50.7048 1.15232V8.06623C50.7048 8.70263 50.1889 9.21854 49.5525 9.21854H38.6054C37.969 9.21854 37.4531 8.70263 37.4531 8.06623V1.15232Z" fill="#00F2FF"/>
<path d="M49.5525 8.64238V9.21854H38.6054V8.64238H49.5525ZM50.1286 8.06623V1.15232C50.1286 0.834114 49.8707 0.576159 49.5525 0.576159H38.6054C38.2872 0.576159 38.0293 0.834114 38.0293 1.15232V8.06623C38.0293 8.38443 38.2872 8.64238 38.6054 8.64238V9.21854L38.4878 9.21235C37.9067 9.15343 37.4531 8.66292 37.4531 8.06623V1.15232C37.4531 0.51591 37.969 1.15998e-08 38.6054 0H49.5525C50.1889 0 50.7048 0.51591 50.7048 1.15232V8.06623C50.7048 8.66292 50.2512 9.15343 49.6701 9.21235L49.5525 9.21854V8.64238C49.8707 8.64238 50.1286 8.38443 50.1286 8.06623Z" fill="#00F2FF"/>
<path d="M87.5742 36.874C88.2107 36.874 88.7266 37.3899 88.7266 38.0263L88.7266 48.9734C88.7266 49.6098 88.2107 50.1257 87.5742 50.1257L80.6603 50.1257C80.0239 50.1257 79.508 49.6098 79.508 48.9734L79.508 38.0263C79.508 37.3899 80.0239 36.874 80.6603 36.874L87.5742 36.874Z" fill="#00F2FF"/>
<path d="M80.0842 48.9734L79.508 48.9734L79.508 38.0263L80.0842 38.0263L80.0842 48.9734ZM80.6603 49.5495L87.5742 49.5495C87.8924 49.5495 88.1504 49.2916 88.1504 48.9734L88.1504 38.0263C88.1504 37.7081 87.8924 37.4502 87.5742 37.4502L80.6603 37.4502C80.3421 37.4502 80.0842 37.7081 80.0842 38.0263L79.508 38.0263L79.5142 37.9087C79.5731 37.3276 80.0636 36.874 80.6603 36.874L87.5742 36.874C88.2107 36.874 88.7266 37.3899 88.7266 38.0263L88.7266 48.9734C88.7266 49.6098 88.2107 50.1257 87.5742 50.1257L80.6603 50.1257C80.0636 50.1257 79.5731 49.6721 79.5142 49.091L79.508 48.9734L80.0842 48.9734C80.0842 49.2916 80.3421 49.5495 80.6603 49.5495Z" fill="#00F2FF"/>
<path d="M8.06643 36.874C8.70284 36.874 9.21875 37.3899 9.21875 38.0263L9.21875 48.9734C9.21875 49.6098 8.70284 50.1257 8.06643 50.1257L1.15252 50.1257C0.516117 50.1257 0.000206391 49.6098 0.000206418 48.9734L0.000206897 38.0263C0.000206925 37.3899 0.516117 36.874 1.15252 36.874L8.06643 36.874Z" fill="#00F2FF"/>
<path d="M0.576365 48.9734L0.000206418 48.9734L0.000206897 38.0263L0.576366 38.0263L0.576365 48.9734ZM1.15252 49.5495L8.06643 49.5495C8.38464 49.5495 8.64259 49.2916 8.64259 48.9734L8.64259 38.0263C8.64259 37.7081 8.38464 37.4502 8.06643 37.4502L1.15252 37.4502C0.834321 37.4502 0.576366 37.7081 0.576366 38.0263L0.000206897 38.0263L0.00639611 37.9087C0.0653155 37.3276 0.555825 36.874 1.15252 36.874L8.06643 36.874C8.70284 36.874 9.21875 37.3899 9.21875 38.0263L9.21875 48.9734C9.21875 49.6098 8.70284 50.1257 8.06643 50.1257L1.15252 50.1257C0.555825 50.1257 0.0653151 49.6721 0.00639562 49.091L0.000206418 48.9734L0.576365 48.9734C0.576365 49.2916 0.834321 49.5495 1.15252 49.5495Z" fill="#00F2FF"/>
<path d="M37.4531 78.9336C37.4531 78.2972 37.969 77.7812 38.6054 77.7812H49.5525C50.1889 77.7812 50.7048 78.2972 50.7048 78.9336V85.8475C50.7048 86.4839 50.1889 86.9998 49.5525 86.9998H38.6054C37.969 86.9998 37.4531 86.4839 37.4531 85.8475V78.9336Z" fill="#00F2FF"/>
<path d="M49.5525 86.4236V86.9998H38.6054V86.4236H49.5525ZM50.1286 85.8475V78.9336C50.1286 78.6154 49.8707 78.3574 49.5525 78.3574H38.6054C38.2872 78.3574 38.0293 78.6154 38.0293 78.9336V85.8475C38.0293 86.1657 38.2872 86.4236 38.6054 86.4236V86.9998L38.4878 86.9936C37.9067 86.9347 37.4531 86.4442 37.4531 85.8475V78.9336C37.4531 78.2972 37.969 77.7813 38.6054 77.7812H49.5525C50.1889 77.7812 50.7048 78.2972 50.7048 78.9336V85.8475C50.7048 86.4442 50.2512 86.9347 49.6701 86.9936L49.5525 86.9998V86.4236C49.8707 86.4236 50.1286 86.1657 50.1286 85.8475Z" fill="#00F2FF"/>
<path d="M66.5077 72.5494C66.0504 72.1068 66.0385 71.3773 66.481 70.92L74.0939 63.0535C74.5365 62.5962 75.266 62.5842 75.7233 63.0268L80.6916 67.8349C81.1489 68.2775 81.1609 69.007 80.7183 69.4643L73.1055 77.3308C72.6629 77.7881 71.9334 77.8001 71.4761 77.3575L66.5077 72.5494Z" fill="#00F2FF"/>
<path d="M80.3043 69.0636L80.7183 69.4643L73.1055 77.3308L72.6914 76.9301L80.3043 69.0636ZM80.2909 68.2489L75.3226 63.4408C75.094 63.2195 74.7292 63.2255 74.5079 63.4542L66.8951 71.3207C66.6738 71.5493 66.6798 71.9141 66.9084 72.1354L71.8767 76.9435C72.1054 77.1648 72.4701 77.1588 72.6914 76.9301L73.1055 77.3308L73.0192 77.411C72.5727 77.7877 71.9048 77.7725 71.4761 77.3575L66.5077 72.5494C66.0504 72.1068 66.0385 71.3773 66.481 70.92L74.0939 63.0535C74.5365 62.5962 75.266 62.5842 75.7233 63.0268L80.6916 67.8349C81.1204 68.2499 81.1574 68.9169 80.7956 69.3755L80.7183 69.4643L80.3043 69.0636C80.5256 68.835 80.5196 68.4702 80.2909 68.2489Z" fill="#00F2FF"/>
<path d="M7.74212 18.9664C7.28479 18.5238 7.27284 17.7943 7.71541 17.337L15.3283 9.47048C15.7708 9.01316 16.5003 9.00121 16.9577 9.44378L21.926 14.2519C22.3833 14.6945 22.3953 15.424 21.9527 15.8813L14.3398 23.7478C13.8973 24.2051 13.1678 24.2171 12.7104 23.7745L7.74212 18.9664Z" fill="#00F2FF"/>
<path d="M21.5387 15.4806L21.9527 15.8813L14.3398 23.7478L13.9258 23.3471L21.5387 15.4806ZM21.5253 14.6659L16.557 9.85781C16.3283 9.63652 15.9636 9.6425 15.7423 9.87116L8.12944 17.7377C7.90815 17.9663 7.91413 18.3311 8.14279 18.5524L13.1111 23.3605C13.3398 23.5818 13.7045 23.5758 13.9258 23.3471L14.3398 23.7478L14.2536 23.828C13.8071 24.2046 13.1392 24.1895 12.7104 23.7745L7.74212 18.9664C7.28479 18.5238 7.27284 17.7943 7.71541 17.337L15.3283 9.47048C15.7708 9.01316 16.5003 9.00121 16.9577 9.44378L21.926 14.2519C22.3548 14.6669 22.3918 15.3339 22.03 15.7925L21.9527 15.8813L21.5387 15.4806C21.7599 15.252 21.754 14.8872 21.5253 14.6659Z" fill="#00F2FF"/>
<path d="M12.8205 63.0101C13.2864 62.5766 14.0155 62.6028 14.4491 63.0687L21.9065 71.0826C22.3401 71.5485 22.3138 72.2777 21.8479 72.7112L16.7865 77.4212C16.3206 77.8547 15.5915 77.8285 15.1579 77.3626L7.70046 69.3486C7.26692 68.8827 7.29315 68.1536 7.75904 67.7201L12.8205 63.0101Z" fill="#00F2FF"/>
<path d="M15.5797 76.9701L15.1579 77.3626L7.70046 69.3486L8.12225 68.9561L15.5797 76.9701ZM16.394 76.9994L21.4554 72.2894C21.6884 72.0726 21.7015 71.7081 21.4847 71.4751L14.0273 63.4612C13.8105 63.2282 13.4459 63.2151 13.213 63.4319L8.15154 68.1419C7.91859 68.3586 7.90548 68.7232 8.12225 68.9561L7.70046 69.3486L7.62489 69.2583C7.27212 68.7928 7.32222 68.1266 7.75904 67.7201L12.8205 63.0101C13.2864 62.5766 14.0155 62.6028 14.4491 63.0687L21.9065 71.0826C22.3401 71.5485 22.3138 72.2777 21.8479 72.7112L16.7865 77.4212C16.3497 77.8277 15.6816 77.8298 15.2426 77.4445L15.1579 77.3626L15.5797 76.9701C15.7965 77.203 16.1611 77.2162 16.394 76.9994Z" fill="#00F2FF"/>
<path d="M71.5861 9.42757C72.052 8.99403 72.7811 9.02026 73.2147 9.48615L80.6721 17.5001C81.1057 17.966 81.0795 18.6951 80.6136 19.1287L75.5521 23.8387C75.0862 24.2722 74.3571 24.246 73.9236 23.7801L66.4661 15.7661C66.0325 15.3002 66.0588 14.5711 66.5247 14.1376L71.5861 9.42757Z" fill="#00F2FF"/>
<path d="M74.3453 23.3876L73.9236 23.7801L66.4661 15.7661L66.8879 15.3736L74.3453 23.3876ZM75.1596 23.4169L80.2211 18.7069C80.454 18.4901 80.4671 18.1256 80.2504 17.8926L72.7929 9.87865C72.5761 9.6457 72.2116 9.63259 71.9786 9.84936L66.9172 14.5593C66.6842 14.7761 66.6711 15.1407 66.8879 15.3736L66.4661 15.7661L66.3905 15.6758C66.0377 15.2102 66.0878 14.544 66.5247 14.1376L71.5861 9.42757C72.052 8.99403 72.7811 9.02026 73.2147 9.48615L80.6721 17.5001C81.1057 17.966 81.0795 18.6951 80.6136 19.1287L75.5521 23.8387C75.1153 24.2451 74.4472 24.2473 74.0082 23.8619L73.9236 23.7801L74.3453 23.3876C74.5621 23.6205 74.9267 23.6336 75.1596 23.4169Z" fill="#00F2FF"/>
<path d="M39.1797 1.72852H40.332V8.64242H39.1797V1.72852ZM41.6492 4.95478H42.8015V8.64242H41.6492V4.95478ZM45.3526 4.95478H46.5049V8.64242H45.3526V4.95478ZM47.8221 1.72852H48.9744V8.64242H47.8221V1.72852Z" fill="white"/>
<path d="M48.9766 85.2715L47.8242 85.2715L47.8242 78.3576L48.9766 78.3576L48.9766 85.2715ZM46.5071 82.0452L45.3548 82.0452L45.3548 78.3576L46.5071 78.3576L46.5071 82.0452ZM42.8037 82.0452L41.6514 82.0452L41.6514 78.3576L42.8037 78.3576L42.8037 82.0452ZM40.3342 85.2715L39.1819 85.2715L39.1819 78.3576L40.3342 78.3576L40.3342 85.2715Z" fill="white"/>
<path d="M87 38.6025L87 39.7549L80.0861 39.7549L80.0861 38.6025L87 38.6025ZM83.7737 41.072L83.7737 42.2244L80.0861 42.2244L80.0861 41.072L83.7737 41.072ZM83.7737 44.7754L83.7737 45.9277L80.0861 45.9277L80.0861 44.7754L83.7737 44.7754ZM87 47.2449L87 48.3972L80.0861 48.3972L80.0861 47.2449L87 47.2449Z" fill="white"/>
<path d="M1.72656 38.6025L1.72656 39.7549L8.64047 39.7549L8.64047 38.6025L1.72656 38.6025ZM4.95283 41.072L4.95283 42.2244L8.64047 42.2244L8.64047 41.072L4.95283 41.072ZM4.95283 44.7754L4.95283 45.9277L8.64047 45.9277L8.64047 44.7754L4.95283 44.7754ZM1.72656 47.2449L1.72656 48.3972L8.64047 48.3972L8.64047 47.2449L1.72656 47.2449Z" fill="white"/>
<path d="M58.1927 43.5002C58.1927 51.2962 51.8728 57.6161 44.0768 57.6161C36.2808 57.6161 29.9609 51.2962 29.9609 43.5002C29.9609 35.7042 36.2808 29.3843 44.0768 29.3843C51.8728 29.3843 58.1927 35.7042 58.1927 43.5002Z" fill="#00F2FF"/>
<path d="M41.5581 49.5495H38.0234V41.937C38.4409 37.4849 42.6157 36.7978 44.2021 36.8802C45.7885 36.9627 50.3808 37.1276 50.687 42.7339C50.9319 47.219 47.3564 49.1464 45.5381 49.5495H43.1723V45.9768C45.6216 46.0208 46.6421 45.8119 46.8462 45.702V42.7339C46.8369 42.0286 46.2951 40.6068 44.2021 40.5629C42.1092 40.5189 41.5674 41.9919 41.5581 42.7339V49.5495Z" fill="white"/>
<path d="M48.5996 40.1357C47.8648 37.9371 45.2505 37.0298 44.0908 36.874C48.9057 36.874 50.2695 39.7047 50.5478 41.5735C49.8576 44.0799 47.7646 45.421 46.8462 45.6958V44.2118C47.7275 43.7721 49.3343 42.3342 48.5996 40.1357Z" fill="url(#paint0_linear_2125_9972)"/>
<path d="M40.4988 24.2994L41.0415 25.3159L34.434 28.8434L33.8914 27.8269L40.4988 24.2994ZM36.9713 17.692L30.3639 21.2194L34.434 28.8434L34.3274 28.8933C33.8229 29.1003 33.2397 28.923 32.9357 28.4704L32.8748 28.3696L29.3474 21.7621C29.0477 21.2007 29.2598 20.5026 29.8212 20.2029L36.4286 16.6755C36.9901 16.3757 37.6881 16.5879 37.9879 17.1493L41.5153 23.7567C41.7963 24.2831 41.6272 24.9294 41.1423 25.2551L41.0415 25.3159L36.9713 17.692Z" fill="white"/>
<path d="M59.5144 66.9352L60.0571 67.9517L53.4497 71.4791L52.907 70.4626L59.5144 66.9352ZM55.987 60.3277L49.3795 63.8552L53.4497 71.4791L53.343 71.5291C52.8386 71.736 52.2553 71.5588 51.9513 71.1061L51.8905 71.0053L48.363 64.3979C48.0633 63.8365 48.2754 63.1384 48.8368 62.8387L55.4443 59.3112C56.0057 59.0115 56.7038 59.2236 57.0035 59.785L60.5309 66.3925C60.812 66.9189 60.6428 67.5652 60.1579 67.8908L60.0571 67.9517L55.987 60.3277Z" fill="white"/>
<path d="M28.634 66.9352L28.0913 67.9517L34.6988 71.4791L35.2415 70.4626L28.634 66.9352ZM32.1615 60.3277L38.7689 63.8552L34.6988 71.4791L34.8054 71.5291C35.3099 71.736 35.8931 71.5588 36.1971 71.1061L36.258 71.0053L39.7854 64.3979C40.0852 63.8365 39.873 63.1384 39.3116 62.8387L32.7042 59.3112C32.1428 59.0115 31.4447 59.2236 31.145 59.785L27.6175 66.3925C27.3365 66.9189 27.5056 67.5652 27.9905 67.8908L28.0913 67.9517L32.1615 60.3277Z" fill="white"/>
<path d="M49.3762 24.2994L48.8335 25.3159L55.441 28.8434L55.9836 27.8269L49.3762 24.2994ZM52.9037 17.692L59.5111 21.2194L55.441 28.8434L55.5476 28.8933C56.0521 29.1003 56.6353 28.923 56.9393 28.4704L57.0002 28.3696L60.5276 21.7621C60.8273 21.2007 60.6152 20.5026 60.0538 20.2029L53.4464 16.6755C52.8849 16.3757 52.1869 16.5879 51.8871 17.1493L48.3597 23.7567C48.0787 24.2831 48.2478 24.9294 48.7327 25.2551L48.8335 25.3159L52.9037 17.692Z" fill="white"/>
<path d="M17.6111 36.7414L16.5294 36.3442L19.1116 29.3133L20.1933 29.7106L17.6111 36.7414ZM24.6419 39.3237L27.2242 32.2928L19.1116 29.3133L19.158 29.205C19.3966 28.7148 19.9499 28.4588 20.4781 28.5942L20.5906 28.6289L27.6215 31.2111C28.2188 31.4305 28.5253 32.0927 28.3059 32.6901L25.7236 39.7209C25.5042 40.3183 24.8421 40.6247 24.2447 40.4053L17.2138 37.8231C16.6537 37.6174 16.3496 37.0225 16.4947 36.4567L16.5294 36.3442L24.6419 39.3237Z" fill="white"/>
<path d="M61.4001 54.6028L60.3185 54.2055L62.9007 47.1746L63.9824 47.5719L61.4001 54.6028ZM68.431 57.185L71.0132 50.1541L62.9007 47.1746L62.9471 47.0664C63.1857 46.5761 63.7389 46.3201 64.2671 46.4555L64.3796 46.4902L71.4105 49.0725C72.0079 49.2919 72.3143 49.954 72.0949 50.5514L69.5127 57.5823C69.2933 58.1797 68.6311 58.4861 68.0337 58.2667L61.0029 55.6844C60.4427 55.4787 60.1387 54.8838 60.2837 54.318L60.3185 54.2055L68.431 57.185Z" fill="white"/>
<path d="M71.0139 36.7414L72.0956 36.3442L69.5134 29.3133L68.4317 29.7106L71.0139 36.7414ZM63.9831 39.3237L61.4008 32.2928L69.5134 29.3133L69.467 29.205C69.2284 28.7148 68.6751 28.4588 68.1469 28.5942L68.0344 28.6289L61.0035 31.2111C60.4062 31.4305 60.0997 32.0927 60.3191 32.6901L62.9014 39.7209C63.1208 40.3183 63.7829 40.6247 64.3803 40.4053L71.4112 37.8231C71.9713 37.6174 72.2754 37.0225 72.1303 36.4567L72.0956 36.3442L63.9831 39.3237Z" fill="white"/>
<path d="M27.2249 54.6028L28.3065 54.2055L25.7243 47.1746L24.6426 47.5719L27.2249 54.6028ZM20.194 57.185L17.6118 50.1541L25.7243 47.1746L25.6779 47.0664C25.4393 46.5761 24.8861 46.3201 24.3579 46.4555L24.2454 46.4902L17.2145 49.0725C16.6171 49.2919 16.3107 49.954 16.5301 50.5514L19.1123 57.5823C19.3317 58.1797 19.9939 58.4861 20.5913 58.2667L27.6221 55.6844C28.1823 55.4787 28.4863 54.8838 28.3413 54.318L28.3065 54.2055L20.194 57.185Z" fill="white"/>
<defs>
<linearGradient id="paint0_linear_2125_9972" x1="47.3471" y1="36.874" x2="47.3471" y2="45.6046" gradientUnits="userSpaceOnUse">
<stop stop-color="#7293FA"/>
<stop offset="0.1593" stop-color="#81ABFF"/>
<stop offset="0.500398" stop-color="#ABC6FB"/>
<stop offset="1" stop-color="#BCD3FC"/>
</linearGradient>
</defs>
</svg>
