<svg width="155" height="153" viewBox="0 0 155 153" fill="none" xmlns="http://www.w3.org/2000/svg">
<g filter="url(#filter0_d_2125_9777)">
<path d="M76.5022 107.541H77.6545V109.917H76.5022V107.541ZM76.5022 102.643H77.6545V106.244H76.5022V102.643ZM76.5022 98.9702H77.6545V101.347H76.5022V98.9702ZM103.818 98.3338L103.066 99.2065L101.149 97.554L101.901 96.6813L103.818 98.3338ZM54.5918 97.7082L52.8093 99.206L52.0677 98.3237L53.8502 96.8259L54.5918 97.7082ZM58.1928 94.6833L55.5101 96.9373L54.7685 96.0551L57.4512 93.8011L58.1928 94.6833ZM100.685 95.6331L99.9328 96.5058L96.9716 93.953L97.7238 93.0803L100.685 95.6331ZM60.8936 92.4147L59.1111 93.9125L58.3695 93.0303L60.152 91.5325L60.8936 92.4147ZM96.5079 92.0321L95.7557 92.9048L93.8387 91.2523L94.591 90.3796L96.5079 92.0321ZM45.2456 75.9238V77.0762H42.7969V75.9238H45.2456ZM50.431 75.9238V77.0762H46.6859V75.9238H50.431ZM54.3201 75.9238V77.0762H51.8714V75.9238H54.3201ZM102.321 75.9238V77.0762H99.8366V75.9238H102.321ZM107.651 75.9238V77.0762H103.834V75.9238H107.651ZM111.648 75.9238V77.0762H109.163V75.9238H111.648ZM96.3301 60.9972L94.6337 62.6227L93.8365 61.7905L95.5329 60.165L96.3301 60.9972ZM62.0386 59.6626L61.3628 60.596L59.3851 59.164L60.0608 58.2306L62.0386 59.6626ZM99.7871 57.6843L97.2265 60.138L96.4292 59.3058L98.9898 56.8521L99.7871 57.6843ZM58.9057 57.3939L58.2299 58.3274L55.2079 56.1392L55.8837 55.2058L58.9057 57.3939ZM102.38 55.1996L100.683 56.8251L99.8861 55.9929L101.583 54.3674L102.38 55.1996ZM54.7285 54.3691L54.0528 55.3025L52.0751 53.8706L52.7508 52.9371L54.7285 54.3691ZM76.5022 51.5451H77.6545V53.7417H76.5022V51.5451ZM76.5022 47.368H77.6545V50.6089H76.5022V47.368ZM76.5022 44.2351H77.6545V46.4317H76.5022V44.2351Z" fill="white"/>
<path d="M99.2568 76.5C99.2568 64.2491 89.3255 54.3178 77.0747 54.3178C64.8238 54.3178 54.8925 64.2491 54.8925 76.5C54.8925 88.7508 64.8238 98.6821 77.0747 98.6821V100.411C63.8692 100.411 53.1641 89.7054 53.1641 76.5C53.1641 63.2945 63.8692 52.5894 77.0747 52.5894C90.2801 52.5894 100.985 63.2945 100.985 76.5C100.985 89.7054 90.2801 100.411 77.0747 100.411V98.6821C89.3255 98.6821 99.2568 88.7508 99.2568 76.5Z" fill="#00F2FF"/>
<path d="M115.391 76.7882C115.391 55.7867 98.3658 38.7617 77.3643 38.7617C56.3629 38.7617 39.3379 55.7867 39.3379 76.7882C39.3379 97.7896 56.3629 114.815 77.3643 114.815V116.543C55.4083 116.543 37.6094 98.7442 37.6094 76.7882C37.6094 54.8321 55.4083 37.0332 77.3643 37.0332C99.3204 37.0332 117.119 54.8321 117.119 76.7882C117.119 98.7442 99.3204 116.543 77.3643 116.543V114.815C98.3658 114.815 115.391 97.7896 115.391 76.7882Z" fill="#00F2FF"/>
<path d="M70.4531 34.1523C70.4531 33.5159 70.969 33 71.6054 33H82.5525C83.1889 33 83.7048 33.5159 83.7048 34.1523V41.0662C83.7048 41.7026 83.1889 42.2185 82.5525 42.2185H71.6054C70.969 42.2185 70.4531 41.7026 70.4531 41.0662V34.1523Z" fill="#00F2FF"/>
<path d="M82.5525 41.6424V42.2185H71.6054V41.6424H82.5525ZM83.1286 41.0662V34.1523C83.1286 33.8341 82.8707 33.5762 82.5525 33.5762H71.6054C71.2872 33.5762 71.0293 33.8341 71.0293 34.1523V41.0662C71.0293 41.3844 71.2872 41.6424 71.6054 41.6424V42.2185L71.4878 42.2124C70.9067 42.1534 70.4531 41.6629 70.4531 41.0662V34.1523C70.4531 33.5159 70.969 33 71.6054 33H82.5525C83.1889 33 83.7048 33.5159 83.7048 34.1523V41.0662C83.7048 41.6629 83.2512 42.1534 82.6701 42.2124L82.5525 42.2185V41.6424C82.8707 41.6424 83.1286 41.3844 83.1286 41.0662Z" fill="#00F2FF"/>
<path d="M120.574 69.874C121.211 69.874 121.727 70.3899 121.727 71.0263L121.727 81.9734C121.727 82.6098 121.211 83.1257 120.574 83.1257L113.66 83.1257C113.024 83.1257 112.508 82.6098 112.508 81.9734L112.508 71.0263C112.508 70.3899 113.024 69.874 113.66 69.874L120.574 69.874Z" fill="#00F2FF"/>
<path d="M113.084 81.9734L112.508 81.9734L112.508 71.0263L113.084 71.0263L113.084 81.9734ZM113.66 82.5495L120.574 82.5495C120.892 82.5495 121.15 82.2916 121.15 81.9734L121.15 71.0263C121.15 70.7081 120.892 70.4502 120.574 70.4502L113.66 70.4502C113.342 70.4502 113.084 70.7081 113.084 71.0263L112.508 71.0263L112.514 70.9087C112.573 70.3276 113.064 69.874 113.66 69.874L120.574 69.874C121.211 69.874 121.727 70.3899 121.727 71.0263L121.727 81.9734C121.727 82.6098 121.211 83.1257 120.574 83.1257L113.66 83.1257C113.064 83.1257 112.573 82.6721 112.514 82.091L112.508 81.9734L113.084 81.9734C113.084 82.2916 113.342 82.5495 113.66 82.5495Z" fill="#00F2FF"/>
<path d="M41.0664 69.874C41.7028 69.874 42.2187 70.3899 42.2187 71.0263L42.2187 81.9734C42.2187 82.6098 41.7028 83.1257 41.0664 83.1257L34.1525 83.1257C33.5161 83.1257 33.0002 82.6098 33.0002 81.9734L33.0002 71.0263C33.0002 70.3899 33.5161 69.874 34.1525 69.874L41.0664 69.874Z" fill="#00F2FF"/>
<path d="M33.5764 81.9734L33.0002 81.9734L33.0002 71.0263L33.5764 71.0263L33.5764 81.9734ZM34.1525 82.5495L41.0664 82.5495C41.3846 82.5495 41.6426 82.2916 41.6426 81.9734L41.6426 71.0263C41.6426 70.7081 41.3846 70.4502 41.0664 70.4502L34.1525 70.4502C33.8343 70.4502 33.5764 70.7081 33.5764 71.0263L33.0002 71.0263L33.0064 70.9087C33.0653 70.3276 33.5558 69.874 34.1525 69.874L41.0664 69.874C41.7028 69.874 42.2187 70.3899 42.2187 71.0263L42.2187 81.9734C42.2187 82.6098 41.7028 83.1257 41.0664 83.1257L34.1525 83.1257C33.5558 83.1257 33.0653 82.6721 33.0064 82.091L33.0002 81.9734L33.5764 81.9734C33.5764 82.2916 33.8343 82.5495 34.1525 82.5495Z" fill="#00F2FF"/>
<path d="M70.4531 111.934C70.4531 111.297 70.969 110.781 71.6054 110.781H82.5525C83.1889 110.781 83.7048 111.297 83.7048 111.934V118.847C83.7048 119.484 83.1889 120 82.5525 120H71.6054C70.969 120 70.4531 119.484 70.4531 118.847V111.934Z" fill="#00F2FF"/>
<path d="M82.5525 119.424V120H71.6054V119.424H82.5525ZM83.1286 118.847V111.934C83.1286 111.615 82.8707 111.357 82.5525 111.357H71.6054C71.2872 111.357 71.0293 111.615 71.0293 111.934V118.847C71.0293 119.166 71.2872 119.424 71.6054 119.424V120L71.4878 119.994C70.9067 119.935 70.4531 119.444 70.4531 118.847V111.934C70.4531 111.297 70.969 110.781 71.6054 110.781H82.5525C83.1889 110.781 83.7048 111.297 83.7048 111.934V118.847C83.7048 119.444 83.2512 119.935 82.6701 119.994L82.5525 120V119.424C82.8707 119.424 83.1286 119.166 83.1286 118.847Z" fill="#00F2FF"/>
<path d="M99.5077 105.549C99.0504 105.107 99.0385 104.377 99.481 103.92L107.094 96.0535C107.536 95.5962 108.266 95.5842 108.723 96.0268L113.692 100.835C114.149 101.277 114.161 102.007 113.718 102.464L106.105 110.331C105.663 110.788 104.933 110.8 104.476 110.358L99.5077 105.549Z" fill="#00F2FF"/>
<path d="M113.304 102.064L113.718 102.464L106.105 110.331L105.691 109.93L113.304 102.064ZM113.291 101.249L108.323 96.4408C108.094 96.2195 107.729 96.2255 107.508 96.4542L99.8951 104.321C99.6738 104.549 99.6798 104.914 99.9084 105.135L104.877 109.943C105.105 110.165 105.47 110.159 105.691 109.93L106.105 110.331L106.019 110.411C105.573 110.788 104.905 110.772 104.476 110.358L99.5077 105.549C99.0504 105.107 99.0385 104.377 99.481 103.92L107.094 96.0535C107.536 95.5962 108.266 95.5842 108.723 96.0268L113.692 100.835C114.12 101.25 114.157 101.917 113.796 102.375L113.718 102.464L113.304 102.064C113.526 101.835 113.52 101.47 113.291 101.249Z" fill="#00F2FF"/>
<path d="M40.7421 51.9664C40.2848 51.5238 40.2728 50.7943 40.7154 50.337L48.3283 42.4705C48.7708 42.0132 49.5003 42.0012 49.9577 42.4438L54.926 47.2519C55.3833 47.6945 55.3953 48.424 54.9527 48.8813L47.3398 56.7478C46.8973 57.2051 46.1678 57.2171 45.7104 56.7745L40.7421 51.9664Z" fill="#00F2FF"/>
<path d="M54.5387 48.4806L54.9527 48.8813L47.3398 56.7478L46.9258 56.3471L54.5387 48.4806ZM54.5253 47.6659L49.557 42.8578C49.3283 42.6365 48.9636 42.6425 48.7423 42.8712L41.1294 50.7377C40.9082 50.9663 40.9141 51.3311 41.1428 51.5524L46.1111 56.3605C46.3398 56.5818 46.7045 56.5758 46.9258 56.3471L47.3398 56.7478L47.2536 56.828C46.8071 57.2046 46.1392 57.1895 45.7104 56.7745L40.7421 51.9664C40.2848 51.5238 40.2728 50.7943 40.7154 50.337L48.3283 42.4705C48.7708 42.0132 49.5003 42.0012 49.9577 42.4438L54.926 47.2519C55.3548 47.6669 55.3918 48.3339 55.03 48.7925L54.9527 48.8813L54.5387 48.4806C54.7599 48.252 54.754 47.8872 54.5253 47.6659Z" fill="#00F2FF"/>
<path d="M45.8205 96.0101C46.2864 95.5766 47.0155 95.6028 47.4491 96.0687L54.9065 104.083C55.3401 104.549 55.3138 105.278 54.8479 105.711L49.7865 110.421C49.3206 110.855 48.5915 110.828 48.1579 110.363L40.7005 102.349C40.2669 101.883 40.2931 101.154 40.759 100.72L45.8205 96.0101Z" fill="#00F2FF"/>
<path d="M48.5797 109.97L48.1579 110.363L40.7005 102.349L41.1223 101.956L48.5797 109.97ZM49.394 109.999L54.4554 105.289C54.6884 105.073 54.7015 104.708 54.4847 104.475L47.0273 96.4612C46.8105 96.2282 46.4459 96.2151 46.213 96.4319L41.1515 101.142C40.9186 101.359 40.9055 101.723 41.1223 101.956L40.7005 102.349L40.6249 102.258C40.2721 101.793 40.3222 101.127 40.759 100.72L45.8205 96.0101C46.2864 95.5766 47.0155 95.6028 47.4491 96.0687L54.9065 104.083C55.3401 104.549 55.3138 105.278 54.8479 105.711L49.7865 110.421C49.3497 110.828 48.6816 110.83 48.2426 110.444L48.1579 110.363L48.5797 109.97C48.7965 110.203 49.1611 110.216 49.394 109.999Z" fill="#00F2FF"/>
<path d="M104.586 42.4273C105.052 41.9938 105.781 42.02 106.215 42.4859L113.672 50.4999C114.106 50.9658 114.079 51.6949 113.614 52.1284L108.552 56.8384C108.086 57.272 107.357 57.2457 106.924 56.7798L99.4661 48.7659C99.0325 48.3 99.0588 47.5708 99.5247 47.1373L104.586 42.4273Z" fill="#00F2FF"/>
<path d="M107.345 56.3873L106.924 56.7798L99.4661 48.7659L99.8879 48.3734L107.345 56.3873ZM108.16 56.4166L113.221 51.7066C113.454 51.4899 113.467 51.1253 113.25 50.8924L105.793 42.8784C105.576 42.6455 105.212 42.6323 104.979 42.8491L99.9172 47.5591C99.6842 47.7759 99.6711 48.1404 99.8879 48.3734L99.4661 48.7659L99.3905 48.6756C99.0377 48.21 99.0878 47.5438 99.5247 47.1373L104.586 42.4273C105.052 41.9938 105.781 42.02 106.215 42.4859L113.672 50.4999C114.106 50.9658 114.079 51.6949 113.614 52.1284L108.552 56.8384C108.115 57.2449 107.447 57.247 107.008 56.8617L106.924 56.7798L107.345 56.3873C107.562 56.6203 107.927 56.6334 108.16 56.4166Z" fill="#00F2FF"/>
<path d="M72.1797 34.7285H73.332V41.6424H72.1797V34.7285ZM74.6492 37.9548H75.8015V41.6424H74.6492V37.9548ZM78.3526 37.9548H79.5049V41.6424H78.3526V37.9548ZM80.8221 34.7285H81.9744V41.6424H80.8221V34.7285Z" fill="white"/>
<path d="M81.9766 118.271L80.8242 118.271L80.8242 111.358L81.9766 111.358L81.9766 118.271ZM79.5071 115.045L78.3548 115.045L78.3548 111.358L79.5071 111.358L79.5071 115.045ZM75.8037 115.045L74.6514 115.045L74.6514 111.358L75.8037 111.358L75.8037 115.045ZM73.3342 118.271L72.1819 118.271L72.1819 111.358L73.3342 111.358L73.3342 118.271Z" fill="white"/>
<path d="M120 71.6025L120 72.7549L113.086 72.7549L113.086 71.6025L120 71.6025ZM116.774 74.072L116.774 75.2244L113.086 75.2244L113.086 74.072L116.774 74.072ZM116.774 77.7754L116.774 78.9277L113.086 78.9277L113.086 77.7754L116.774 77.7754ZM120 80.2449L120 81.3972L113.086 81.3972L113.086 80.2449L120 80.2449Z" fill="white"/>
<path d="M34.7266 71.6025L34.7266 72.7549L41.6405 72.7549L41.6405 71.6025L34.7266 71.6025ZM37.9528 74.072L37.9528 75.2244L41.6405 75.2244L41.6405 74.072L37.9528 74.072ZM37.9528 77.7754L37.9528 78.9277L41.6405 78.9277L41.6405 77.7754L37.9528 77.7754ZM34.7266 80.2449L34.7266 81.3972L41.6405 81.3972L41.6405 80.2449L34.7266 80.2449Z" fill="white"/>
<path d="M91.1927 76.5002C91.1927 84.2962 84.8728 90.6161 77.0768 90.6161C69.2808 90.6161 62.9609 84.2962 62.9609 76.5002C62.9609 68.7042 69.2808 62.3843 77.0768 62.3843C84.8728 62.3843 91.1927 68.7042 91.1927 76.5002Z" fill="#00F2FF"/>
<path d="M74.5581 82.5495H71.0234V74.937C71.4409 70.4849 75.6157 69.7978 77.2021 69.8802C78.7885 69.9627 83.3808 70.1276 83.687 75.7339C83.9319 80.219 80.3564 82.1464 78.5381 82.5495H76.1723V78.9768C78.6216 79.0208 79.6421 78.8119 79.8462 78.702V75.7339C79.8369 75.0286 79.2951 73.6068 77.2021 73.5629C75.1092 73.5189 74.5674 74.9919 74.5581 75.7339V82.5495Z" fill="white"/>
<path d="M81.5996 73.1357C80.8648 70.9371 78.2505 70.0298 77.0908 69.874C81.9057 69.874 83.2695 72.7047 83.5478 74.5735C82.8576 77.0799 80.7646 78.421 79.8462 78.6958V77.2118C80.7275 76.7721 82.3343 75.3342 81.5996 73.1357Z" fill="url(#paint0_linear_2125_9777)"/>
<path d="M73.4988 57.2992L74.0415 58.3157L67.434 61.8432L66.8914 60.8266L73.4988 57.2992ZM69.9713 50.6917L63.3639 54.2192L67.434 61.8432L67.3274 61.8931C66.8229 62.1 66.2397 61.9228 65.9357 61.4701L65.8748 61.3693L62.3474 54.7619C62.0477 54.2005 62.2598 53.5024 62.8212 53.2027L69.4286 49.6752C69.9901 49.3755 70.6881 49.5876 70.9879 50.1491L74.5153 56.7565C74.7963 57.2829 74.6272 57.9292 74.1423 58.2549L74.0415 58.3157L69.9713 50.6917Z" fill="white"/>
<path d="M92.5144 99.9352L93.0571 100.952L86.4497 104.479L85.907 103.463L92.5144 99.9352ZM88.987 93.3277L82.3795 96.8552L86.4497 104.479L86.343 104.529C85.8386 104.736 85.2553 104.559 84.9513 104.106L84.8905 104.005L81.363 97.3979C81.0633 96.8365 81.2754 96.1384 81.8368 95.8387L88.4443 92.3112C89.0057 92.0115 89.7038 92.2236 90.0035 92.785L93.5309 99.3925C93.812 99.9189 93.6428 100.565 93.1579 100.891L93.0571 100.952L88.987 93.3277Z" fill="white"/>
<path d="M61.634 99.9352L61.0913 100.952L67.6988 104.479L68.2415 103.463L61.634 99.9352ZM65.1615 93.3277L71.7689 96.8552L67.6988 104.479L67.8054 104.529C68.3099 104.736 68.8931 104.559 69.1971 104.106L69.258 104.005L72.7854 97.3979C73.0852 96.8365 72.873 96.1384 72.3116 95.8387L65.7042 92.3112C65.1428 92.0115 64.4447 92.2236 64.145 92.785L60.6175 99.3925C60.3365 99.9189 60.5056 100.565 60.9905 100.891L61.0913 100.952L65.1615 93.3277Z" fill="white"/>
<path d="M82.3762 57.2992L81.8335 58.3157L88.441 61.8432L88.9836 60.8266L82.3762 57.2992ZM85.9037 50.6917L92.5111 54.2192L88.441 61.8432L88.5476 61.8931C89.0521 62.1 89.6353 61.9228 89.9393 61.4701L90.0002 61.3693L93.5276 54.7619C93.8273 54.2005 93.6152 53.5024 93.0538 53.2027L86.4464 49.6752C85.8849 49.3755 85.1869 49.5876 84.8871 50.1491L81.3597 56.7565C81.0787 57.2829 81.2478 57.9292 81.7327 58.2549L81.8335 58.3157L85.9037 50.6917Z" fill="white"/>
<path d="M50.6111 69.7414L49.5294 69.3442L52.1116 62.3133L53.1933 62.7106L50.6111 69.7414ZM57.6419 72.3237L60.2242 65.2928L52.1116 62.3133L52.158 62.205C52.3966 61.7148 52.9499 61.4588 53.4781 61.5942L53.5906 61.6289L60.6215 64.2111C61.2188 64.4305 61.5253 65.0927 61.3059 65.6901L58.7236 72.7209C58.5042 73.3183 57.8421 73.6247 57.2447 73.4053L50.2138 70.8231C49.6537 70.6174 49.3496 70.0225 49.4947 69.4567L49.5294 69.3442L57.6419 72.3237Z" fill="white"/>
<path d="M94.4001 87.6028L93.3185 87.2055L95.9007 80.1746L96.9824 80.5719L94.4001 87.6028ZM101.431 90.185L104.013 83.1541L95.9007 80.1746L95.9471 80.0664C96.1857 79.5761 96.7389 79.3201 97.2671 79.4555L97.3796 79.4902L104.411 82.0725C105.008 82.2919 105.314 82.954 105.095 83.5514L102.513 90.5823C102.293 91.1797 101.631 91.4861 101.034 91.2667L94.0029 88.6844C93.4427 88.4787 93.1387 87.8838 93.2837 87.318L93.3185 87.2055L101.431 90.185Z" fill="white"/>
<path d="M104.014 69.7414L105.096 69.3442L102.513 62.3133L101.432 62.7106L104.014 69.7414ZM96.9831 72.3237L94.4008 65.2928L102.513 62.3133L102.467 62.205C102.228 61.7148 101.675 61.4588 101.147 61.5942L101.034 61.6289L94.0035 64.2111C93.4062 64.4305 93.0997 65.0927 93.3191 65.6901L95.9014 72.7209C96.1208 73.3183 96.7829 73.6247 97.3803 73.4053L104.411 70.8231C104.971 70.6174 105.275 70.0225 105.13 69.4567L105.096 69.3442L96.9831 72.3237Z" fill="white"/>
<path d="M60.2249 87.6028L61.3065 87.2055L58.7243 80.1746L57.6426 80.5719L60.2249 87.6028ZM53.194 90.185L50.6118 83.1541L58.7243 80.1746L58.6779 80.0664C58.4393 79.5761 57.8861 79.3201 57.3579 79.4555L57.2454 79.4902L50.2145 82.0725C49.6171 82.2919 49.3107 82.954 49.5301 83.5514L52.1123 90.5823C52.3317 91.1797 52.9939 91.4861 53.5913 91.2667L60.6221 88.6844C61.1823 88.4787 61.4863 87.8838 61.3413 87.318L61.3065 87.2055L53.194 90.185Z" fill="white"/>
</g>
<defs>
<filter id="filter0_d_2125_9777" x="0" y="0" width="154.727" height="153" filterUnits="userSpaceOnUse" color-interpolation-filters="sRGB">
<feFlood flood-opacity="0" result="BackgroundImageFix"/>
<feColorMatrix in="SourceAlpha" type="matrix" values="0 0 0 0 0 0 0 0 0 0 0 0 0 0 0 0 0 0 127 0" result="hardAlpha"/>
<feOffset/>
<feGaussianBlur stdDeviation="16.5"/>
<feComposite in2="hardAlpha" operator="out"/>
<feColorMatrix type="matrix" values="0 0 0 0 0 0 0 0 0 0.95 0 0 0 0 1 0 0 0 1 0"/>
<feBlend mode="normal" in2="BackgroundImageFix" result="effect1_dropShadow_2125_9777"/>
<feBlend mode="normal" in="SourceGraphic" in2="effect1_dropShadow_2125_9777" result="shape"/>
</filter>
<linearGradient id="paint0_linear_2125_9777" x1="80.3471" y1="69.874" x2="80.3471" y2="78.6046" gradientUnits="userSpaceOnUse">
<stop stop-color="#7293FA"/>
<stop offset="0.1593" stop-color="#81ABFF"/>
<stop offset="0.500398" stop-color="#ABC6FB"/>
<stop offset="1" stop-color="#BCD3FC"/>
</linearGradient>
</defs>
</svg>
